<svg width="1340" height="576" viewBox="0 0 1340 576" fill="none" xmlns="http://www.w3.org/2000/svg">
<g clip-path="url(#clip0_2262_1087)">
<rect width="1340" height="576" fill="#1C1C1C"/>
<g filter="url(#filter0_f_2262_1087)">
<path fill-rule="evenodd" clip-rule="evenodd" d="M691.906 284.46C755.514 330.219 733.251 394.922 767.556 450.226C794.895 494.3 845.497 532.368 873.011 576.421C906.262 629.66 974.012 692.588 946.082 736.067C917.285 780.898 803.942 759.647 740.926 782.046C688.948 800.521 665.304 842.076 609.005 855.88C548.26 870.773 478.194 879.068 405.71 864.234C332.912 849.335 261.024 815.102 206.292 773.461C154.284 733.893 154.662 679.135 107.352 637.24C50.4716 586.869 -84.0728 563.317 -94.4564 507.133C-105.092 449.585 33.3335 453.891 64.9206 407.646C92.186 367.729 41.6165 304.587 70.6165 265.46C101.292 224.072 158.122 191.758 229.863 185.105C301.63 178.449 382.702 212.584 460.46 229.305C538.769 246.144 631.135 240.742 691.906 284.46Z" fill="#DC8FFB"/>
</g>
<g filter="url(#filter1_f_2262_1087)">
<path fill-rule="evenodd" clip-rule="evenodd" d="M640.302 531.713C665.757 567.725 624.613 611.065 626.111 651.713C627.305 684.106 646.89 713.909 648.213 746.3C649.811 785.445 671.257 833.636 634.693 861.883C596.993 891.008 527.56 868.622 475.293 879.888C432.183 889.181 399.333 916.385 355.117 922.148C307.408 928.366 255.928 929.381 212.022 914.202C167.924 898.958 132.175 870.375 111.177 837.816C91.2247 806.879 113.351 768.953 97.5578 736.721C78.5694 697.967 -4.52044 672.554 10.7782 632.912C26.448 592.309 119.892 604.645 160.075 574.729C194.759 548.905 185.21 501.726 220.772 476.568C258.388 449.956 310.361 431.399 362.338 431.635C414.334 431.871 456.436 461.007 503.216 477.849C550.326 494.811 615.982 497.308 640.302 531.713Z" fill="url(#paint0_linear_2262_1087)"/>
</g>
</g>
<defs>
<filter id="filter0_f_2262_1087" x="-195.038" y="84.2554" width="1247.72" height="887.783" filterUnits="userSpaceOnUse" color-interpolation-filters="sRGB">
<feFlood flood-opacity="0" result="BackgroundImageFix"/>
<feBlend mode="normal" in="SourceGraphic" in2="BackgroundImageFix" result="shape"/>
<feGaussianBlur stdDeviation="50" result="effect1_foregroundBlur_2262_1087"/>
</filter>
<filter id="filter1_f_2262_1087" x="-91.0908" y="331.633" width="847" height="694.782" filterUnits="userSpaceOnUse" color-interpolation-filters="sRGB">
<feFlood flood-opacity="0" result="BackgroundImageFix"/>
<feBlend mode="normal" in="SourceGraphic" in2="BackgroundImageFix" result="shape"/>
<feGaussianBlur stdDeviation="50" result="effect1_foregroundBlur_2262_1087"/>
</filter>
<linearGradient id="paint0_linear_2262_1087" x1="639.553" y1="735.349" x2="78.1547" y2="1013.81" gradientUnits="userSpaceOnUse">
<stop stop-color="white"/>
<stop offset="1" stop-color="#DC8FFB"/>
</linearGradient>
<clipPath id="clip0_2262_1087">
<rect width="1340" height="576" fill="white"/>
</clipPath>
</defs>
</svg>
