<svg width="321" height="200" viewBox="0 0 321 200" fill="none" xmlns="http://www.w3.org/2000/svg">
<rect x="0.5" width="320" height="200" rx="16" fill="#262626"/>
<g clip-path="url(#clip0_2426_5767)">
<path d="M97.0404 112.485C96.5632 113.129 96.086 113.777 95.6044 114.421C94.7041 115.087 93.8038 115.721 92.9035 116.424C85.7012 122.325 77.5985 125.989 68.0104 125.539C60.2319 125.166 53.8848 120.588 52.4623 113.583C51.7902 110.134 51.8515 106.582 52.6424 103.158C55.5999 90.7203 69.3743 78.6609 82.064 77.1619C87.6548 76.5002 92.7144 77.7336 96.0185 82.8653C96.6082 83.7656 96.7973 84.9675 97.1349 85.9173C92.755 86.2324 88.7577 86.498 84.7604 86.8176C83.791 86.921 82.8329 87.1108 81.8974 87.3848C79.5972 88.0105 78.8364 89.2529 79.4081 91.3325C80.0068 93.5022 81.4563 94.3575 83.6395 93.8939C86.7095 93.2322 89.766 92.4354 92.872 92.0123C97.9632 91.319 100.705 94.263 99.9438 99.3587C99.012 105.562 95.0237 109.005 87.6953 109.676C82.4736 110.158 77.4005 109.293 72.4263 107.637C71.1209 107.187 70.9274 106.475 70.9949 105.305C71.382 98.1928 74.533 92.2508 78.8364 86.8266C80.3804 84.8774 80.1869 83.9276 77.7831 83.2614C74.5195 82.3611 72.7279 82.8698 71.382 85.9938C69.2618 90.9454 67.1551 95.9285 65.7777 101.096C64.1166 107.335 66.5159 111.346 72.5299 113.7C80.1554 116.689 87.7313 116.599 95.1902 113.025C95.79 112.791 96.4091 112.611 97.0404 112.485Z" fill="#3C3C3D"/>
<path d="M170.132 91.8085C166.202 96.1839 161.345 97.9935 155.682 98.2726C151.572 98.4706 148.786 96.7961 146.566 93.402C146.674 93.8971 146.751 94.4013 146.895 94.8875C147.039 95.3736 147.237 95.8373 147.435 96.3774C143.865 95.4771 141.984 93.402 142.033 89.9403C142.101 84.2325 144.347 79.1593 147.206 74.3563C148.052 72.9293 151.707 72.8393 152.607 74.1852C152.877 74.5903 152.544 75.6707 152.157 76.1929C149.191 80.1452 146.877 84.345 146.305 89.3732C146.125 90.9532 146.422 91.8175 148.106 92.2901C152.499 93.5055 156.906 94.1942 161.412 93.1049C165.824 92.038 168.25 88.941 168.254 84.5521C168.254 81.7387 166.629 79.9381 163.784 80.1452C161.268 80.3252 158.77 80.9464 156.285 81.4641C154.16 81.9142 152.895 81.311 152.526 79.4789C152.117 77.4713 153.395 76.706 155.025 76.499C158.558 76.0488 162.105 75.7382 166.008 75.3331C165.743 74.7029 165.531 73.6901 164.986 72.9023C162.146 68.851 157.91 68.0407 153.58 69.1031C150.249 69.9223 147.156 71.8039 144.032 73.3479C143.015 73.8566 141.934 74.955 141.196 73.6315C140.647 72.6502 140.98 71.1737 140.949 69.9133C140.949 69.8098 141.129 69.6702 141.25 69.5982C147.386 65.997 153.773 63.2061 161.057 65.3398C165.675 66.6903 168.088 70.7416 167.872 75.5492C167.88 76.2378 168.097 76.9078 168.493 77.4713C169.456 78.8802 170.546 80.1992 171.644 81.6261C171.955 81.122 172.306 80.5143 172.697 79.9291C175.16 76.2739 178.549 74.1942 182.992 73.9916C184.473 73.9241 185.797 74.3563 185.81 76.1118C185.81 76.6115 184.91 77.6018 184.545 77.5478C178.554 76.6475 173.242 83.2422 174.642 91.3133C174.921 92.9068 175.956 94.1717 177.762 93.9196C179.648 93.6541 180.588 92.1596 180.665 90.404C180.8 87.253 180.633 84.1019 180.719 80.9509C180.742 80.1677 181.088 78.8712 181.565 78.7272C182.947 78.3041 184.572 78.7812 184.743 80.3612C185.347 85.853 184.784 91.2503 181.142 95.6977C178.491 98.9433 173.535 98.2861 171.392 94.6714C170.916 93.7426 170.495 92.7866 170.132 91.8085Z" fill="#3C3C3D"/>
<path d="M226.319 96.1807C223.838 98.0893 221.844 98.3369 219.197 96.6849C219.827 94.8258 220.467 92.9441 220.939 91.5397L223.19 93.984C224.135 93.0342 225.648 92.2149 225.913 91.0985C226.616 88.1591 226.85 85.0936 227.124 82.0641C227.277 80.3535 227.124 78.616 227.124 76.8919C227.124 75.9916 226.602 74.5827 228.133 74.7267C229.204 74.8302 230.32 75.627 231.18 76.3697C231.599 76.7434 231.473 77.7202 231.63 78.7285C232.373 77.7247 232.909 76.9279 233.521 76.1942C235.042 74.3621 236.96 73.4933 239.31 74.2586C241.502 74.9608 242.168 76.8649 242.258 78.8726C242.407 82.1631 242.326 85.4672 242.339 88.7758C242.339 89.5275 242.299 90.2793 242.339 91.0265C242.429 92.2329 242.141 94.11 243.897 93.8354C244.878 93.6824 246.049 92.0348 246.35 90.8825C246.859 88.8928 246.499 86.6871 246.949 84.6704C248.299 78.5845 253.341 74.2721 259.044 74.038C260.395 73.984 261.682 74.1685 262.101 75.6945C262.411 76.8199 262.312 77.6887 260.647 77.6887C256.087 77.6887 253.071 79.7008 251.644 83.9907C251.018 86.0581 250.739 88.2152 250.82 90.3738C250.865 92.7956 252.261 94.1145 253.971 93.975C255.565 93.8534 256.875 92.1474 256.897 90.0317C256.929 87.0337 256.897 84.0312 256.897 81.0288C256.897 80.0654 256.303 78.778 258.009 78.625C259.508 78.4899 260.957 78.9896 261.119 80.5471C261.682 85.9759 260.948 91.2516 257.518 95.672C255.218 98.625 251.324 98.3729 247.93 95.3074L246.58 96.3608C244.86 97.7112 242.92 98.1613 240.89 97.3196C238.86 96.4778 238.081 94.6592 238.031 92.602C237.941 88.9333 237.995 85.2601 237.982 81.5869C238.027 80.8358 238 80.0821 237.901 79.3362C237.793 78.8095 237.496 78.0533 237.104 77.9182C236.712 77.7832 235.925 78.1028 235.556 78.4719C232.977 80.9363 231.481 84.323 231.396 87.889C231.324 90.1397 231.509 92.3905 231.324 94.6412C231.243 95.6675 230.622 97.4456 230.136 97.4816C229.091 97.5851 227.935 96.7974 226.319 96.1807Z" fill="#3C3C3D"/>
<path d="M191.941 94.1225C188.218 98.0882 185.72 98.7635 182.816 96.5983C183.411 94.9147 184.005 93.2312 184.649 91.4171C184.842 91.8402 185.013 92.2453 185.211 92.6415C186.035 94.2845 187.547 94.5906 188.479 93.0241C189.409 91.5306 189.952 89.8287 190.059 88.0725C190.122 84.5298 190.658 81.1987 192.585 78.2053C193.872 76.2111 195.511 74.6041 197.986 74.154C201.295 73.5778 204.09 75.5044 204.32 78.84C204.378 79.7403 203.64 80.8926 202.92 81.5409C202.065 82.2881 201.281 82.0225 200.822 80.6631C200.467 79.6142 199.472 78.7905 198.747 77.8632C197.815 78.7364 196.532 79.4432 196.024 80.5145C194.527 83.4881 194.222 86.9212 195.173 90.1117C196.028 92.9026 198.423 94.3385 201.245 93.9649C202.63 93.8134 203.915 93.173 204.869 92.159C205.824 91.1449 206.386 89.8237 206.454 88.4326C206.814 80.4515 211.968 74.4781 218.914 74.0729C219.76 74.0279 220.854 74.145 221.421 74.6491C221.988 75.1533 222.033 76.2021 222.114 77.0349C222.114 77.1879 221.214 77.5931 220.692 77.6066C215.466 77.7416 211.851 80.9602 211.023 86.4069C210.831 87.8199 210.8 89.2501 210.933 90.6698C211.072 92.4704 211.873 93.8839 213.917 93.9784C215.439 94.0504 216.983 92.3579 217.032 90.4268C217.118 87.2757 216.978 84.1247 217.064 80.9737C217.086 80.1904 217.46 78.9075 217.964 78.75C219.359 78.2998 220.984 78.8625 221.151 80.393C221.768 85.9658 221.151 91.4306 217.379 95.878C214.844 98.858 210.933 98.2638 207.646 94.8382C201.349 99.0426 197.703 98.876 191.941 94.1225Z" fill="#3C3C3D"/>
<path d="M226.869 118.097C222.228 122.365 220.896 122.648 218.361 119.83C216.403 121.631 214.512 123.67 211.213 122.468C211.915 120.956 212.563 119.565 213.252 118.061C214.193 119.695 215.417 119.772 216.322 118.394C217.133 117.066 217.749 115.629 218.154 114.127C219.131 110.913 219.986 107.658 220.855 104.413C221.337 102.612 222.426 101.784 224.573 102.05C224.465 102.626 224.398 103.161 224.258 103.684C223.358 107.145 222.377 110.593 221.503 114.064C221.289 114.862 221.258 115.697 221.413 116.508C221.562 117.156 222.034 118.034 222.561 118.214C223.088 118.394 224.254 118.039 224.497 117.58C225.775 115.171 227.139 112.745 227.904 110.152C228.593 107.82 228.629 105.277 228.805 102.815C228.89 101.509 229.097 100.564 230.668 100.713C232.37 100.861 232.181 102.095 232.068 103.215C231.695 107.001 231.276 110.782 231.357 114.775C231.866 113.916 232.437 113.095 233.063 112.317C233.513 111.831 234.188 111.575 234.769 111.215C235.12 111.971 235.894 112.84 235.728 113.465C235.43 114.621 234.788 115.659 233.887 116.441C230.65 118.944 229.984 122.365 229.808 126.132C229.678 128.066 229.337 129.98 228.791 131.84C228.443 132.909 227.868 133.89 227.108 134.717C225.676 136.36 223.808 137.184 221.674 136.351C219.541 135.518 219.37 133.578 219.496 131.633C219.725 128.091 221.508 125.282 223.812 122.72C225.032 121.37 226.162 119.938 227.328 118.543L226.869 118.097ZM228.219 121.802C225.726 123.571 223.331 126.047 222.863 129.869C222.687 131.273 222.057 133.29 224.029 133.591C226 133.893 226.036 131.813 226.351 130.391C226.982 127.438 227.616 124.48 228.197 121.802H228.219Z" fill="#3C3C3D"/>
<path d="M259.094 96.9489C259.859 94.6622 260.516 92.6951 261.227 90.5794C261.254 91.1844 261.327 91.7865 261.448 92.38C261.984 94.1805 263.699 94.6667 264.793 93.0957C265.729 91.7452 266.058 89.9447 266.832 88.4367C267.237 87.6444 268.034 87.0547 268.632 86.375C269.083 87.2213 269.929 88.0676 269.924 88.9093C269.897 93.5773 265.76 97.9438 261.795 97.6692C260.894 97.6287 259.994 97.21 259.094 96.9489Z" fill="#3C3C3D"/>
<path d="M56.3705 74.375C58.9498 77.2109 58.9498 77.2109 66.7238 76.6257C64.9233 77.7106 63.5008 78.8495 61.8758 79.4662C60.5704 79.9606 59.1515 80.0745 57.7839 79.7948C54.9885 79.133 54.5204 77.1614 56.3705 74.375Z" fill="#3C3C3D"/>
<path d="M114.395 76.2836C113.36 75.6954 112.411 74.9684 111.573 74.1229C107.72 69.8104 102.971 66.9745 97.5148 65.1964C89.5607 62.6036 81.377 62.6306 73.2474 63.6209C68.9305 64.1521 64.6946 65.5926 60.5533 66.997C58.5051 67.6903 57.1141 69.4818 57.5688 71.9486C57.9829 74.2264 59.617 75.5948 62.6059 75.4553C65.9415 75.3022 69.2636 74.6945 72.5632 74.1048C76.9566 73.3261 81.314 71.7056 85.7074 71.6425C94.3593 71.521 100.04 78.2732 99.3109 86.7675C99.3324 87.3797 99.5944 87.9587 100.04 88.379C106.95 94.9196 106.666 104.22 99.3424 110.328C98.5456 110.994 97.8299 111.76 97.0917 112.475C96.6145 113.119 96.1373 113.767 95.6557 114.411C89.9658 120.88 82.9075 125.12 74.2422 127.371C89.043 132.273 110.659 123.77 115.881 111.035C109.484 115.275 102.615 117.112 95.2821 117.31C106.702 115.217 110.682 112.975 118.852 104.197L116.849 110.144C117.434 109.693 117.681 109.527 117.897 109.333C128.525 99.8217 126.846 84.2151 114.395 76.2836ZM90.8526 70.8818C102.264 69.896 112.19 74.2354 115.732 81.6853C109.196 74.4109 100.531 71.9937 90.8526 70.8818Z" fill="#3C3C3D"/>
<path d="M215.642 103.738C215.111 101.861 213.49 102.721 212.419 103.113C206.023 105.449 202.809 110.382 201.508 116.824C201.301 117.837 201.206 119.021 200.607 119.768C199.815 120.767 198.582 121.42 197.537 122.217C197.609 120.925 197.317 119.471 197.816 118.368C199.887 113.781 201.976 109.221 202.318 104.112C202.421 102.545 202.498 100.709 200.603 100.137C198.613 99.5339 197.398 100.911 196.475 102.478C196.136 102.973 195.9 103.532 195.782 104.121C195.07 110.144 194.274 116.158 193.792 122.199C193.58 124.846 195.678 126.165 198.199 125.165C199.599 124.612 200.796 123.536 202.097 122.68C204.438 124.585 206.599 124.715 208.849 122.653C210.2 121.415 211.609 119.916 212.208 118.251C213.194 115.292 213.904 112.248 214.328 109.158C214.499 108.114 213.819 106.934 213.531 105.822L212.869 105.926C212.979 105.849 213.099 105.787 213.225 105.741C214.391 105.476 216.205 105.732 215.642 103.738ZM197.443 113.142L197.713 111.112C197.956 109.311 198.202 107.501 198.451 105.683C198.541 104.999 198.631 104.332 198.73 103.63C198.762 103.405 199.023 103.212 199.504 102.568C199.627 103.312 199.688 104.065 199.684 104.819C199.684 107.929 198.582 110.562 197.434 113.146L197.443 113.142ZM210.047 117.54C209.925 118.354 209.519 119.099 208.899 119.642C208.152 120.227 206.95 120.907 206.243 120.664C205.536 120.421 204.794 119.075 204.825 118.242C205.01 113.533 206.765 109.554 211.357 106.363C210.871 110.441 210.52 114.002 210.029 117.54H210.047Z" fill="#3C3C3D"/>
<path d="M187.521 100.361C183.762 100.73 180.548 102.509 177.617 104.813C177.334 105.038 176.933 105.416 176.965 105.682C177.05 106.519 177.154 107.451 177.608 108.099C177.77 108.333 179.053 108.05 179.616 107.681C180.462 107.123 181.124 106.285 181.867 105.565C181.741 107.564 181.687 109.571 181.48 111.561C180.98 116.333 180.354 121.086 179.927 125.862C179.873 126.479 180.66 127.168 181.061 127.825C181.723 127.285 182.411 126.753 183.037 126.195C183.118 126.123 183.087 125.907 183.078 125.745C182.947 123.17 184.158 121.77 186.44 120.429C191.392 117.512 194.484 113.037 194.718 107.082C194.876 102.477 192.09 99.9112 187.521 100.361ZM183.991 118.246C184.32 115.23 184.617 112.254 184.977 109.292C185.427 105.619 185.427 105.624 181.862 105.565C183.604 104.957 185.306 104.147 187.102 103.8C189.407 103.35 190.843 104.534 191.266 106.798C192.063 111.142 188.421 116.9 183.969 118.246H183.991Z" fill="#3C3C3D"/>
</g>
<defs>
<clipPath id="clip0_2426_5767">
<rect width="217.925" height="73.68" fill="white" transform="translate(52 63)"/>
</clipPath>
</defs>
</svg>
