<svg width="54" height="48" viewBox="0 0 54 48" fill="none" xmlns="http://www.w3.org/2000/svg">
<g clip-path="url(#clip0_2267_1261)">
<g clip-path="url(#clip1_2267_1261)">
<path d="M3 24C3 4.236 7.236 0 27 0C46.764 0 51 4.236 51 24C51 43.764 46.764 48 27 48C7.236 48 3 43.764 3 24Z" fill="#3C3C3D"/>
<path opacity="0.35" fill-rule="evenodd" clip-rule="evenodd" d="M37.7812 19.8573C40.0012 16.8745 41.3982 14.0747 41.7304 11.8953C43.0986 11.8722 44.175 12.2241 44.8475 12.9935C46.6439 15.0491 45.0993 19.5597 41.3162 24.5272C44.7434 29.7465 45.9698 34.3537 44.0344 36.279C43.3098 36.9997 42.2116 37.2755 40.8482 37.1572C40.6689 34.96 39.4706 32.0694 37.4639 28.9391C36.5139 29.9014 35.5286 30.8282 34.51 31.7176C26.1489 39.0241 17.2214 42.4876 14.5696 39.4533C13.8971 38.6836 13.6929 37.57 13.899 36.2171C17.9258 36.1492 24.4818 32.8367 30.7221 27.3832C31.8578 26.3918 32.952 25.3538 34.0017 24.2718C33.0301 23.119 32.0111 22.0071 30.9472 20.9389C25.1025 15.0637 18.7936 11.3017 14.7813 10.9533C14.6699 9.58934 14.9514 8.49254 15.676 7.77182C18.533 4.92974 27.1972 9.00734 35.0282 16.8793C35.9822 17.8377 36.9005 18.831 37.7812 19.8573Z" fill="#121212"/>
<path fill-rule="evenodd" clip-rule="evenodd" d="M10.681 35.0019L14.4786 39.3411C12.8672 37.2855 14.3161 33.0008 17.8498 28.2536C18.7301 29.2793 19.648 30.2721 20.6017 31.2301C28.4326 39.1021 37.0969 43.1797 39.9538 40.3378C40.0453 40.2469 40.1295 40.1499 40.207 40.0474L44.1994 36.1172L44.18 36.1222C44.1339 36.176 44.0857 36.2278 44.0353 36.278C41.1786 39.1198 32.5143 35.0422 24.6834 27.1702C23.6198 26.1024 22.6009 24.991 21.6294 23.8388C22.6787 22.7571 23.7724 21.7194 24.9078 20.7284C33.2689 13.4218 42.1964 9.95838 44.8482 12.9927C44.8947 13.046 44.9391 13.1009 44.9811 13.1576L45.0008 13.1641L41.2923 8.96526C41.2222 8.85726 41.145 8.75478 41.06 8.65782C38.4082 5.6235 29.4807 9.0867 21.1198 16.3933C20.1016 17.2824 19.1166 18.209 18.1669 19.171C14.9701 14.1843 13.8246 9.80622 15.5821 7.87014L11.4865 11.9386L11.4879 11.9439C9.70785 13.9325 10.9522 18.4633 14.3142 23.5832C10.6033 28.4557 9.04617 32.8887 10.683 34.9966L10.681 35.0019Z" fill="#676767"/>
</g>
</g>
<defs>
<clipPath id="clip0_2267_1261">
<rect width="48" height="48" fill="white" transform="translate(3)"/>
</clipPath>
<clipPath id="clip1_2267_1261">
<rect width="48" height="48" fill="white" transform="translate(3)"/>
</clipPath>
</defs>
</svg>
