<svg width="56" height="56" viewBox="0 0 56 56" fill="none" xmlns="http://www.w3.org/2000/svg">
<rect width="56" height="56" fill="#DC8FFB"/>
<path d="M11.333 14.6668C11.333 12.8259 12.8254 11.3335 14.6663 11.3335H21.333C23.174 11.3335 24.6663 12.8259 24.6663 14.6668V21.3335C24.6663 23.1744 23.174 24.6668 21.333 24.6668H14.6663C12.8254 24.6668 11.333 23.1744 11.333 21.3335V14.6668Z" stroke="#1C1C1C" stroke-width="2.5" stroke-linejoin="round"/>
<path d="M31.333 14.6668C31.333 12.8259 32.8254 11.3335 34.6663 11.3335H41.333C43.174 11.3335 44.6663 12.8259 44.6663 14.6668V21.3335C44.6663 23.1744 43.174 24.6668 41.333 24.6668H34.6663C32.8254 24.6668 31.333 23.1744 31.333 21.3335V14.6668Z" stroke="#1C1C1C" stroke-width="2.5" stroke-linejoin="round"/>
<path d="M11.333 34.6668C11.333 32.8259 12.8254 31.3335 14.6663 31.3335H21.333C23.174 31.3335 24.6663 32.8259 24.6663 34.6668V41.3335C24.6663 43.1744 23.174 44.6668 21.333 44.6668H14.6663C12.8254 44.6668 11.333 43.1744 11.333 41.3335V34.6668Z" stroke="#1C1C1C" stroke-width="2.5" stroke-linejoin="round"/>
<path d="M31.333 34.6668C31.333 32.8259 32.8254 31.3335 34.6663 31.3335H41.333C43.174 31.3335 44.6663 32.8259 44.6663 34.6668V41.3335C44.6663 43.1744 43.174 44.6668 41.333 44.6668H34.6663C32.8254 44.6668 31.333 43.1744 31.333 41.3335V34.6668Z" stroke="#1C1C1C" stroke-width="2.5" stroke-linejoin="round"/>
</svg>
