<svg width="56" height="56" viewBox="0 0 56 56" fill="none" xmlns="http://www.w3.org/2000/svg">
<rect width="56" height="56" fill="#C0E463"/>
<path d="M13 38.0002L11.75 38.0002L13 38.0002ZM13 18.0002L14.25 18.0002L13 18.0002ZM19.6667 11.3335L19.6667 10.0835L19.6667 11.3335ZM36.3333 11.3335L36.3333 10.0835L36.3333 11.3335ZM43 18.0002L41.75 18.0002V18.0002H43ZM43 28.5721L44.25 28.5721V28.5721H43ZM26.9052 44.6668L26.9052 43.4168H26.9052V44.6668ZM19.6667 44.6668L19.6667 45.9168H19.6667V44.6668ZM41.0474 33.2861L40.1635 32.4022L40.1635 32.4022L41.0474 33.2861ZM31.6193 42.7142L32.5032 43.5981L32.5032 43.5981L31.6193 42.7142ZM29.6667 38.0002L30.9167 38.0002L30.9167 38.0002L29.6667 38.0002ZM36.3333 31.3335L36.3333 30.0835L36.3333 30.0835L36.3333 31.3335ZM29.25 18.0002C29.25 17.3098 28.6904 16.7502 28 16.7502C27.3096 16.7502 26.75 17.3098 26.75 18.0002H29.25ZM26.75 28.0002C26.75 28.6905 27.3096 29.2502 28 29.2502C28.6904 29.2502 29.25 28.6905 29.25 28.0002H26.75ZM33 24.2502C33.6904 24.2502 34.25 23.6905 34.25 23.0002C34.25 22.3098 33.6904 21.7502 33 21.7502V24.2502ZM23 21.7502C22.3096 21.7502 21.75 22.3098 21.75 23.0002C21.75 23.6905 22.3096 24.2502 23 24.2502V21.7502ZM14.25 38.0002L14.25 18.0002L11.75 18.0002L11.75 38.0002L14.25 38.0002ZM19.6667 12.5835L36.3333 12.5835L36.3333 10.0835L19.6667 10.0835L19.6667 12.5835ZM41.75 18.0002V28.5721H44.25V18.0002H41.75ZM26.9052 43.4168H19.6667V45.9168H26.9052V43.4168ZM40.1635 32.4022L30.7354 41.8303L32.5032 43.5981L41.9313 34.17L40.1635 32.4022ZM26.9052 45.9168C29.0049 45.9168 31.0185 45.0828 32.5032 43.5981L30.7354 41.8303C29.7196 42.8461 28.3418 43.4168 26.9052 43.4168L26.9052 45.9168ZM41.75 28.5721C41.75 30.0087 41.1793 31.3864 40.1635 32.4022L41.9313 34.17C43.4159 32.6853 44.25 30.6717 44.25 28.5721L41.75 28.5721ZM14.25 18.0002C14.25 15.0086 16.6751 12.5835 19.6667 12.5835L19.6667 10.0835C15.2944 10.0835 11.75 13.6279 11.75 18.0002L14.25 18.0002ZM11.75 38.0002C11.75 42.3724 15.2944 45.9168 19.6667 45.9168L19.6667 43.4168C16.6751 43.4168 14.25 40.9917 14.25 38.0002L11.75 38.0002ZM36.3333 12.5835C39.3249 12.5835 41.75 15.0086 41.75 18.0002L44.25 18.0002C44.25 13.6279 40.7056 10.0835 36.3333 10.0835L36.3333 12.5835ZM30.9167 44.6668L30.9167 38.0002L28.4167 38.0002L28.4167 44.6668L30.9167 44.6668ZM36.3333 32.5835L43 32.5835L43 30.0835L36.3333 30.0835L36.3333 32.5835ZM30.9167 38.0002C30.9167 35.0086 33.3418 32.5835 36.3333 32.5835L36.3333 30.0835C31.9611 30.0835 28.4167 33.6279 28.4167 38.0002L30.9167 38.0002ZM26.75 18.0002V28.0002H29.25V18.0002H26.75ZM33 21.7502H23V24.2502H33V21.7502Z" fill="#1C1C1C"/>
</svg>
