<svg width="56" height="56" viewBox="0 0 56 56" fill="none" xmlns="http://www.w3.org/2000/svg">
<rect width="56" height="56" fill="#6814D4"/>
<path d="M31.001 23.0002C31.001 24.8411 29.5086 26.3335 27.6676 26.3335C25.8267 26.3335 24.3343 24.8411 24.3343 23.0002C24.3343 21.1592 25.8267 19.6668 27.6676 19.6668C29.5086 19.6668 31.001 21.1592 31.001 23.0002Z" stroke="white" stroke-width="2.5"/>
<path d="M39.3343 22.7621C39.3343 26.5693 36.5044 31.3279 33.405 34.5048C31.3662 36.5947 29.2108 38.0002 27.6676 38.0002C26.1245 38.0002 23.9691 36.5947 21.9302 34.5048C18.8309 31.3279 16.001 26.5693 16.001 22.7621C16.001 16.4502 21.2243 11.3335 27.6676 11.3335C34.111 11.3335 39.3343 16.4502 39.3343 22.7621Z" stroke="white" stroke-width="2.5"/>
<path d="M32.925 34.9824C38.6163 35.6924 42.668 37.5219 42.668 39.6667C42.668 42.4282 35.9522 44.6667 27.668 44.6667C19.3837 44.6667 12.668 42.4282 12.668 39.6667C12.668 37.5219 16.7197 35.6924 22.411 34.9824" stroke="white" stroke-width="2.5" stroke-linecap="round"/>
</svg>
