<svg width="358" height="276" viewBox="0 0 358 276" fill="none" xmlns="http://www.w3.org/2000/svg">
<g clip-path="url(#clip0_2265_681)">
<rect width="358" height="276" fill="#1C1C1C"/>
<rect x="48" y="229" width="294" height="31" rx="15.5" fill="white" fill-opacity="0.17"/>
<path d="M71.7727 241.273C71.7045 240.697 71.428 240.25 70.9432 239.932C70.4583 239.614 69.8636 239.455 69.1591 239.455C68.6439 239.455 68.1932 239.538 67.8068 239.705C67.4242 239.871 67.125 240.1 66.9091 240.392C66.697 240.684 66.5909 241.015 66.5909 241.386C66.5909 241.697 66.6648 241.964 66.8125 242.188C66.964 242.407 67.1572 242.591 67.392 242.739C67.6269 242.883 67.8731 243.002 68.1307 243.097C68.3883 243.187 68.625 243.261 68.8409 243.318L70.0227 243.636C70.3258 243.716 70.6629 243.826 71.0341 243.966C71.4091 244.106 71.767 244.297 72.108 244.54C72.4527 244.778 72.7367 245.085 72.9602 245.46C73.1837 245.835 73.2955 246.295 73.2955 246.841C73.2955 247.47 73.1307 248.038 72.8011 248.545C72.4754 249.053 71.9981 249.456 71.3693 249.756C70.7443 250.055 69.9848 250.205 69.0909 250.205C68.2576 250.205 67.536 250.07 66.9261 249.801C66.3201 249.532 65.8428 249.157 65.4943 248.676C65.1496 248.195 64.9545 247.636 64.9091 247H66.3636C66.4015 247.439 66.5492 247.803 66.8068 248.091C67.0682 248.375 67.3977 248.587 67.7955 248.727C68.197 248.864 68.6288 248.932 69.0909 248.932C69.6288 248.932 70.1117 248.845 70.5398 248.67C70.9678 248.492 71.3068 248.246 71.5568 247.932C71.8068 247.614 71.9318 247.242 71.9318 246.818C71.9318 246.432 71.8239 246.117 71.608 245.875C71.392 245.633 71.108 245.436 70.7557 245.284C70.4034 245.133 70.0227 245 69.6136 244.886L68.1818 244.477C67.2727 244.216 66.553 243.843 66.0227 243.358C65.4924 242.873 65.2273 242.239 65.2273 241.455C65.2273 240.803 65.4034 240.235 65.7557 239.75C66.1117 239.261 66.589 238.883 67.1875 238.614C67.7898 238.341 68.4621 238.205 69.2045 238.205C69.9545 238.205 70.6212 238.339 71.2045 238.608C71.7879 238.873 72.25 239.237 72.5909 239.699C72.9356 240.161 73.1174 240.686 73.1364 241.273H71.7727ZM75.2922 250V238.364H76.7013V243.545H82.9059V238.364H84.3149V250H82.9059V244.795H76.7013V250H75.2922ZM96.6341 244.182C96.6341 245.409 96.4126 246.47 95.9694 247.364C95.5262 248.258 94.9182 248.947 94.1455 249.432C93.3728 249.917 92.4902 250.159 91.4978 250.159C90.5054 250.159 89.6228 249.917 88.8501 249.432C88.0773 248.947 87.4694 248.258 87.0262 247.364C86.583 246.47 86.3614 245.409 86.3614 244.182C86.3614 242.955 86.583 241.894 87.0262 241C87.4694 240.106 88.0773 239.417 88.8501 238.932C89.6228 238.447 90.5054 238.205 91.4978 238.205C92.4902 238.205 93.3728 238.447 94.1455 238.932C94.9182 239.417 95.5262 240.106 95.9694 241C96.4126 241.894 96.6341 242.955 96.6341 244.182ZM95.2705 244.182C95.2705 243.174 95.102 242.324 94.7648 241.631C94.4315 240.938 93.9788 240.413 93.4069 240.057C92.8387 239.701 92.2023 239.523 91.4978 239.523C90.7932 239.523 90.155 239.701 89.583 240.057C89.0148 240.413 88.5622 240.938 88.2251 241.631C87.8917 242.324 87.7251 243.174 87.7251 244.182C87.7251 245.189 87.8917 246.04 88.2251 246.733C88.5622 247.426 89.0148 247.951 89.583 248.307C90.155 248.663 90.7932 248.841 91.4978 248.841C92.2023 248.841 92.8387 248.663 93.4069 248.307C93.9788 247.951 94.4315 247.426 94.7648 246.733C95.102 246.04 95.2705 245.189 95.2705 244.182ZM98.6835 250V238.364H102.615C103.524 238.364 104.271 238.519 104.854 238.83C105.437 239.136 105.869 239.559 106.149 240.097C106.43 240.634 106.57 241.246 106.57 241.932C106.57 242.617 106.43 243.225 106.149 243.756C105.869 244.286 105.439 244.703 104.86 245.006C104.28 245.305 103.54 245.455 102.638 245.455H99.4562V244.182H102.593C103.214 244.182 103.714 244.091 104.093 243.909C104.475 243.727 104.752 243.47 104.922 243.136C105.096 242.799 105.183 242.398 105.183 241.932C105.183 241.466 105.096 241.059 104.922 240.71C104.748 240.362 104.469 240.093 104.087 239.903C103.704 239.71 103.199 239.614 102.57 239.614H100.093V250H98.6835ZM104.161 244.773L107.024 250H105.388L102.57 244.773H104.161ZM107.961 239.614V238.364H116.689V239.614H113.03V250H111.621V239.614H107.961ZM122.174 243.557V244.807H117.083V243.557H122.174ZM124.395 250V238.364H131.373V239.614H125.804V243.545H130.85V244.795H125.804V250H124.395ZM143.284 244.182C143.284 245.409 143.063 246.47 142.619 247.364C142.176 248.258 141.568 248.947 140.796 249.432C140.023 249.917 139.14 250.159 138.148 250.159C137.155 250.159 136.273 249.917 135.5 249.432C134.727 248.947 134.119 248.258 133.676 247.364C133.233 246.47 133.011 245.409 133.011 244.182C133.011 242.955 133.233 241.894 133.676 241C134.119 240.106 134.727 239.417 135.5 238.932C136.273 238.447 137.155 238.205 138.148 238.205C139.14 238.205 140.023 238.447 140.796 238.932C141.568 239.417 142.176 240.106 142.619 241C143.063 241.894 143.284 242.955 143.284 244.182ZM141.921 244.182C141.921 243.174 141.752 242.324 141.415 241.631C141.081 240.938 140.629 240.413 140.057 240.057C139.489 239.701 138.852 239.523 138.148 239.523C137.443 239.523 136.805 239.701 136.233 240.057C135.665 240.413 135.212 240.938 134.875 241.631C134.542 242.324 134.375 243.174 134.375 244.182C134.375 245.189 134.542 246.04 134.875 246.733C135.212 247.426 135.665 247.951 136.233 248.307C136.805 248.663 137.443 248.841 138.148 248.841C138.852 248.841 139.489 248.663 140.057 248.307C140.629 247.951 141.081 247.426 141.415 246.733C141.752 246.04 141.921 245.189 141.921 244.182ZM145.333 250V238.364H149.265C150.174 238.364 150.921 238.519 151.504 238.83C152.087 239.136 152.519 239.559 152.799 240.097C153.08 240.634 153.22 241.246 153.22 241.932C153.22 242.617 153.08 243.225 152.799 243.756C152.519 244.286 152.089 244.703 151.51 245.006C150.93 245.305 150.19 245.455 149.288 245.455H146.106V244.182H149.243C149.864 244.182 150.364 244.091 150.743 243.909C151.125 243.727 151.402 243.47 151.572 243.136C151.746 242.799 151.833 242.398 151.833 241.932C151.833 241.466 151.746 241.059 151.572 240.71C151.398 240.362 151.119 240.093 150.737 239.903C150.354 239.71 149.849 239.614 149.22 239.614H146.743V250H145.333ZM150.811 244.773L153.674 250H152.038L149.22 244.773H150.811ZM155.248 238.364H156.93L160.884 248.023H161.021L164.975 238.364H166.657V250H165.339V241.159H165.225L161.589 250H160.316L156.68 241.159H156.566V250H155.248V238.364ZM173.819 238.364L177.274 248.159H177.41L180.865 238.364H182.342L178.069 250H176.615L172.342 238.364H173.819ZM185.244 238.364V250H183.835V238.364H185.244ZM191.34 250H187.749V238.364H191.499C192.628 238.364 193.594 238.597 194.397 239.062C195.2 239.525 195.815 240.189 196.243 241.057C196.671 241.92 196.885 242.955 196.885 244.159C196.885 245.371 196.67 246.415 196.238 247.29C195.806 248.161 195.177 248.831 194.351 249.301C193.526 249.767 192.522 250 191.34 250ZM189.158 248.75H191.249C192.211 248.75 193.009 248.564 193.641 248.193C194.274 247.822 194.745 247.294 195.056 246.608C195.367 245.922 195.522 245.106 195.522 244.159C195.522 243.22 195.368 242.411 195.062 241.733C194.755 241.051 194.296 240.528 193.687 240.165C193.077 239.797 192.317 239.614 191.408 239.614H189.158V248.75ZM198.929 250V238.364H205.952V239.614H200.338V243.545H205.588V244.795H200.338V248.75H206.043V250H198.929ZM217.99 244.182C217.99 245.409 217.768 246.47 217.325 247.364C216.882 248.258 216.274 248.947 215.501 249.432C214.728 249.917 213.846 250.159 212.853 250.159C211.861 250.159 210.978 249.917 210.206 249.432C209.433 248.947 208.825 248.258 208.382 247.364C207.939 246.47 207.717 245.409 207.717 244.182C207.717 242.955 207.939 241.894 208.382 241C208.825 240.106 209.433 239.417 210.206 238.932C210.978 238.447 211.861 238.205 212.853 238.205C213.846 238.205 214.728 238.447 215.501 238.932C216.274 239.417 216.882 240.106 217.325 241C217.768 241.894 217.99 242.955 217.99 244.182ZM216.626 244.182C216.626 243.174 216.458 242.324 216.12 241.631C215.787 240.938 215.334 240.413 214.762 240.057C214.194 239.701 213.558 239.523 212.853 239.523C212.149 239.523 211.511 239.701 210.939 240.057C210.37 240.413 209.918 240.938 209.581 241.631C209.247 242.324 209.081 243.174 209.081 244.182C209.081 245.189 209.247 246.04 209.581 246.733C209.918 247.426 210.37 247.951 210.939 248.307C211.511 248.663 212.149 248.841 212.853 248.841C213.558 248.841 214.194 248.663 214.762 248.307C215.334 247.951 215.787 247.426 216.12 246.733C216.458 246.04 216.626 245.189 216.626 244.182ZM226.403 241.273C226.335 240.697 226.058 240.25 225.573 239.932C225.088 239.614 224.494 239.455 223.789 239.455C223.274 239.455 222.823 239.538 222.437 239.705C222.054 239.871 221.755 240.1 221.539 240.392C221.327 240.684 221.221 241.015 221.221 241.386C221.221 241.697 221.295 241.964 221.443 242.188C221.594 242.407 221.787 242.591 222.022 242.739C222.257 242.883 222.503 243.002 222.761 243.097C223.018 243.187 223.255 243.261 223.471 243.318L224.653 243.636C224.956 243.716 225.293 243.826 225.664 243.966C226.039 244.106 226.397 244.297 226.738 244.54C227.083 244.778 227.367 245.085 227.59 245.46C227.814 245.835 227.925 246.295 227.925 246.841C227.925 247.47 227.761 248.038 227.431 248.545C227.105 249.053 226.628 249.456 225.999 249.756C225.374 250.055 224.615 250.205 223.721 250.205C222.888 250.205 222.166 250.07 221.556 249.801C220.95 249.532 220.473 249.157 220.124 248.676C219.78 248.195 219.585 247.636 219.539 247H220.994C221.032 247.439 221.179 247.803 221.437 248.091C221.698 248.375 222.028 248.587 222.425 248.727C222.827 248.864 223.259 248.932 223.721 248.932C224.259 248.932 224.742 248.845 225.17 248.67C225.598 248.492 225.937 248.246 226.187 247.932C226.437 247.614 226.562 247.242 226.562 246.818C226.562 246.432 226.454 246.117 226.238 245.875C226.022 245.633 225.738 245.436 225.386 245.284C225.033 245.133 224.653 245 224.244 244.886L222.812 244.477C221.903 244.216 221.183 243.843 220.653 243.358C220.122 242.873 219.857 242.239 219.857 241.455C219.857 240.803 220.033 240.235 220.386 239.75C220.742 239.261 221.219 238.883 221.818 238.614C222.42 238.341 223.092 238.205 223.835 238.205C224.585 238.205 225.251 238.339 225.835 238.608C226.418 238.873 226.88 239.237 227.221 239.699C227.566 240.161 227.747 240.686 227.766 241.273H226.403ZM234.102 250V238.364H238.034C238.947 238.364 239.693 238.528 240.273 238.858C240.856 239.184 241.288 239.625 241.568 240.182C241.848 240.739 241.989 241.36 241.989 242.045C241.989 242.731 241.848 243.354 241.568 243.915C241.292 244.475 240.864 244.922 240.284 245.256C239.704 245.585 238.962 245.75 238.057 245.75H235.239V244.5H238.011C238.636 244.5 239.138 244.392 239.517 244.176C239.896 243.96 240.17 243.669 240.341 243.301C240.515 242.93 240.602 242.511 240.602 242.045C240.602 241.58 240.515 241.163 240.341 240.795C240.17 240.428 239.894 240.14 239.511 239.932C239.129 239.72 238.621 239.614 237.989 239.614H235.511V250H234.102ZM243.938 250V238.364H245.348V248.75H250.757V250H243.938ZM253.83 250H252.353L256.626 238.364H258.08L262.353 250H260.876L257.398 240.205H257.307L253.83 250ZM254.376 245.455H260.33V246.705H254.376V245.455ZM261.85 239.614V238.364H270.577V239.614H266.918V250H265.509V239.614H261.85ZM272.432 250V238.364H279.409V239.614H273.841V243.545H278.886V244.795H273.841V250H272.432ZM291.32 244.182C291.32 245.409 291.099 246.47 290.656 247.364C290.212 248.258 289.604 248.947 288.832 249.432C288.059 249.917 287.176 250.159 286.184 250.159C285.192 250.159 284.309 249.917 283.536 249.432C282.764 248.947 282.156 248.258 281.712 247.364C281.269 246.47 281.048 245.409 281.048 244.182C281.048 242.955 281.269 241.894 281.712 241C282.156 240.106 282.764 239.417 283.536 238.932C284.309 238.447 285.192 238.205 286.184 238.205C287.176 238.205 288.059 238.447 288.832 238.932C289.604 239.417 290.212 240.106 290.656 241C291.099 241.894 291.32 242.955 291.32 244.182ZM289.957 244.182C289.957 243.174 289.788 242.324 289.451 241.631C289.118 240.938 288.665 240.413 288.093 240.057C287.525 239.701 286.889 239.523 286.184 239.523C285.479 239.523 284.841 239.701 284.269 240.057C283.701 240.413 283.248 240.938 282.911 241.631C282.578 242.324 282.411 243.174 282.411 244.182C282.411 245.189 282.578 246.04 282.911 246.733C283.248 247.426 283.701 247.951 284.269 248.307C284.841 248.663 285.479 248.841 286.184 248.841C286.889 248.841 287.525 248.663 288.093 248.307C288.665 247.951 289.118 247.426 289.451 246.733C289.788 246.04 289.957 245.189 289.957 244.182ZM293.37 250V238.364H297.302C298.211 238.364 298.957 238.519 299.54 238.83C300.124 239.136 300.555 239.559 300.836 240.097C301.116 240.634 301.256 241.246 301.256 241.932C301.256 242.617 301.116 243.225 300.836 243.756C300.555 244.286 300.125 244.703 299.546 245.006C298.966 245.305 298.226 245.455 297.324 245.455H294.142V244.182H297.279C297.9 244.182 298.4 244.091 298.779 243.909C299.161 243.727 299.438 243.47 299.608 243.136C299.783 242.799 299.87 242.398 299.87 241.932C299.87 241.466 299.783 241.059 299.608 240.71C299.434 240.362 299.156 240.093 298.773 239.903C298.391 239.71 297.885 239.614 297.256 239.614H294.779V250H293.37ZM298.847 244.773L301.711 250H300.074L297.256 244.773H298.847ZM303.284 238.364H304.966L308.92 248.023H309.057L313.011 238.364H314.693V250H313.375V241.159H313.261L309.625 250H308.352L304.716 241.159H304.602V250H303.284V238.364ZM323.562 241.273C323.494 240.697 323.217 240.25 322.733 239.932C322.248 239.614 321.653 239.455 320.948 239.455C320.433 239.455 319.983 239.538 319.596 239.705C319.214 239.871 318.914 240.1 318.698 240.392C318.486 240.684 318.38 241.015 318.38 241.386C318.38 241.697 318.454 241.964 318.602 242.188C318.753 242.407 318.947 242.591 319.181 242.739C319.416 242.883 319.662 243.002 319.92 243.097C320.178 243.187 320.414 243.261 320.63 243.318L321.812 243.636C322.115 243.716 322.452 243.826 322.823 243.966C323.198 244.106 323.556 244.297 323.897 244.54C324.242 244.778 324.526 245.085 324.75 245.46C324.973 245.835 325.085 246.295 325.085 246.841C325.085 247.47 324.92 248.038 324.591 248.545C324.265 249.053 323.787 249.456 323.159 249.756C322.534 250.055 321.774 250.205 320.88 250.205C320.047 250.205 319.325 250.07 318.716 249.801C318.109 249.532 317.632 249.157 317.284 248.676C316.939 248.195 316.744 247.636 316.698 247H318.153C318.191 247.439 318.339 247.803 318.596 248.091C318.858 248.375 319.187 248.587 319.585 248.727C319.986 248.864 320.418 248.932 320.88 248.932C321.418 248.932 321.901 248.845 322.329 248.67C322.757 248.492 323.096 248.246 323.346 247.932C323.596 247.614 323.721 247.242 323.721 246.818C323.721 246.432 323.613 246.117 323.397 245.875C323.181 245.633 322.897 245.436 322.545 245.284C322.193 245.133 321.812 245 321.403 244.886L319.971 244.477C319.062 244.216 318.342 243.843 317.812 243.358C317.282 242.873 317.017 242.239 317.017 241.455C317.017 240.803 317.193 240.235 317.545 239.75C317.901 239.261 318.378 238.883 318.977 238.614C319.579 238.341 320.251 238.205 320.994 238.205C321.744 238.205 322.411 238.339 322.994 238.608C323.577 238.873 324.039 239.237 324.38 239.699C324.725 240.161 324.907 240.686 324.926 241.273H323.562Z" fill="white"/>
<rect x="-11" y="209.855" width="105" height="31" rx="15.5" transform="rotate(-11.4564 -11 209.855)" fill="#C0E463"/>
<path d="M13.7528 226.266L10.2334 226.979L7.92216 215.575L11.5974 214.83C12.7037 214.606 13.6967 214.642 14.5762 214.939C15.4551 215.233 16.1904 215.762 16.7822 216.527C17.3732 217.288 17.7883 218.259 18.0276 219.44C18.2684 220.628 18.264 221.694 18.0146 222.637C17.7644 223.577 17.2813 224.359 16.5653 224.983C15.8486 225.604 14.911 226.031 13.7528 226.266ZM11.3661 225.474L13.4154 225.059C14.3583 224.868 15.1029 224.528 15.6492 224.038C16.1954 223.549 16.5527 222.937 16.7209 222.203C16.8891 221.47 16.8792 220.639 16.6911 219.711C16.5045 218.79 16.1936 218.028 15.7582 217.424C15.3221 216.817 14.769 216.396 14.0991 216.161C13.4284 215.922 12.6476 215.892 11.7566 216.073L9.55145 216.52L11.3661 225.474ZM21.1907 224.759L18.8794 213.354L25.7622 211.959L26.0105 213.184L20.5087 214.299L21.2897 218.153L26.4351 217.11L26.6833 218.335L21.5379 219.378L22.3234 223.254L27.9143 222.121L28.1626 223.346L21.1907 224.759ZM30.249 222.923L27.9378 211.518L29.3188 211.238L31.3817 221.418L36.6831 220.344L36.9313 221.569L30.249 222.923ZM37.8258 209.514L40.1371 220.919L38.7561 221.199L36.4448 209.794L37.8258 209.514ZM40.749 208.922L46.0803 217.836L46.2139 217.809L47.654 207.523L49.1019 207.229L47.2255 219.482L45.8 219.771L39.3011 209.215L40.749 208.922ZM52.8759 218.337L50.5647 206.933L57.4475 205.538L57.6957 206.763L52.1939 207.878L52.9749 211.731L58.1203 210.689L58.3686 211.914L53.2232 212.957L54.0086 216.832L59.5995 215.699L59.8478 216.924L52.8759 218.337ZM61.9343 216.502L59.623 205.097L63.4765 204.316C64.3675 204.135 65.1297 204.139 65.7631 204.328C66.3957 204.513 66.9028 204.841 67.2844 205.313C67.6659 205.784 67.9248 206.356 68.061 207.028C68.1971 207.7 68.1805 208.323 68.0111 208.899C67.8418 209.474 67.5032 209.968 66.9954 210.38C66.4868 210.788 65.7907 211.082 64.9072 211.261L61.7888 211.893L61.536 210.646L64.6098 210.023C65.2187 209.899 65.6907 209.711 66.0258 209.458C66.3646 209.203 66.5845 208.896 66.6853 208.535C66.7891 208.17 66.7948 207.76 66.7022 207.303C66.6097 206.846 66.4434 206.465 66.2034 206.158C65.9634 205.851 65.6372 205.642 65.2246 205.533C64.8113 205.419 64.2965 205.425 63.6802 205.55L61.2523 206.042L63.3153 216.222L61.9343 216.502ZM66.2641 210.29L70.109 214.845L68.5052 215.17L64.7049 210.606L66.2641 210.29ZM67.9769 203.404L69.5584 203.083L73.8003 207.766L73.9339 207.739L76.018 201.774L77.5995 201.454L74.8375 208.994L75.79 213.694L74.4089 213.973L73.4565 209.273L67.9769 203.404Z" fill="#1C1C1C"/>
<rect x="98.2637" y="184" width="193" height="31" rx="15.5" transform="rotate(4.18895 98.2637 184)" fill="#DC8FFB"/>
<path d="M124.015 198.921L122.61 198.818C122.556 198.408 122.437 198.042 122.251 197.721C122.07 197.4 121.839 197.125 121.56 196.895C121.284 196.662 120.973 196.48 120.626 196.348C120.278 196.216 119.912 196.136 119.526 196.108C118.824 196.057 118.174 196.188 117.578 196.501C116.985 196.815 116.495 197.305 116.109 197.972C115.725 198.639 115.497 199.474 115.424 200.479C115.35 201.484 115.454 202.344 115.736 203.06C116.021 203.776 116.435 204.332 116.975 204.729C117.52 205.126 118.143 205.35 118.846 205.402C119.231 205.43 119.605 205.404 119.968 205.324C120.331 205.244 120.665 205.111 120.972 204.925C121.282 204.735 121.55 204.494 121.776 204.203C122.007 203.909 122.178 203.564 122.291 203.17L123.696 203.273C123.547 203.858 123.315 204.375 123.001 204.823C122.688 205.271 122.311 205.644 121.871 205.942C121.432 206.237 120.947 206.45 120.417 206.582C119.891 206.714 119.335 206.759 118.75 206.716C117.76 206.644 116.897 206.337 116.162 205.797C115.427 205.257 114.871 204.526 114.494 203.602C114.117 202.678 113.974 201.604 114.064 200.38C114.153 199.156 114.452 198.114 114.959 197.255C115.466 196.396 116.123 195.753 116.929 195.326C117.735 194.898 118.633 194.721 119.623 194.794C120.208 194.836 120.752 194.962 121.253 195.169C121.758 195.377 122.206 195.661 122.598 196.02C122.99 196.375 123.308 196.797 123.553 197.286C123.799 197.771 123.953 198.316 124.015 198.921ZM125.382 207.042L126.232 195.437L130.154 195.724C131.06 195.791 131.793 196 132.352 196.353C132.912 196.701 133.311 197.154 133.552 197.711C133.792 198.268 133.887 198.888 133.837 199.572C133.787 200.256 133.603 200.852 133.284 201.36C132.966 201.869 132.507 202.253 131.907 202.513C131.307 202.769 130.557 202.864 129.658 202.798L126.485 202.566L126.578 201.296L129.706 201.525C130.325 201.571 130.831 201.517 131.222 201.363C131.617 201.21 131.911 200.973 132.106 200.653C132.304 200.329 132.42 199.935 132.454 199.471C132.488 199.006 132.431 198.594 132.283 198.233C132.134 197.873 131.876 197.584 131.509 197.368C131.141 197.147 130.644 197.014 130.017 196.968L127.546 196.787L126.788 207.145L125.382 207.042ZM131.227 202.229L133.701 207.652L132.069 207.532L129.64 202.113L131.227 202.229ZM134.733 196.06L136.343 196.178L139.164 201.831L139.3 201.841L142.916 196.659L144.525 196.777L139.832 203.293L139.482 208.075L138.077 207.972L138.427 203.19L134.733 196.06ZM145.174 208.492L146.024 196.887L149.945 197.174C150.855 197.241 151.588 197.459 152.141 197.83C152.699 198.198 153.098 198.67 153.337 199.245C153.576 199.821 153.67 200.451 153.62 201.135C153.57 201.819 153.385 202.43 153.064 202.968C152.747 203.507 152.288 203.922 151.685 204.212C151.083 204.498 150.331 204.608 149.428 204.542L146.617 204.336L146.709 203.09L149.474 203.292C150.097 203.338 150.606 203.267 150.999 203.079C151.393 202.892 151.688 202.621 151.885 202.267C152.086 201.909 152.203 201.498 152.237 201.034C152.271 200.569 152.215 200.147 152.068 199.768C151.925 199.389 151.67 199.082 151.304 198.846C150.938 198.606 150.439 198.464 149.808 198.417L147.338 198.236L146.579 208.595L145.174 208.492ZM155.108 198.805L155.199 197.559L163.903 198.196L163.812 199.443L160.162 199.176L159.404 209.534L157.998 209.431L158.757 199.073L155.108 198.805ZM174.637 204.816C174.547 206.04 174.248 207.082 173.741 207.941C173.234 208.8 172.577 209.443 171.771 209.87C170.965 210.297 170.067 210.475 169.077 210.402C168.087 210.33 167.225 210.024 166.49 209.484C165.754 208.944 165.198 208.212 164.822 207.288C164.445 206.364 164.302 205.29 164.391 204.066C164.481 202.842 164.779 201.8 165.287 200.941C165.794 200.082 166.451 199.439 167.257 199.012C168.063 198.584 168.961 198.407 169.95 198.48C170.94 198.552 171.803 198.858 172.538 199.398C173.273 199.938 173.829 200.67 174.206 201.594C174.583 202.518 174.726 203.592 174.637 204.816ZM173.277 204.717C173.35 203.712 173.244 202.851 172.959 202.135C172.677 201.42 172.264 200.863 171.719 200.466C171.179 200.07 170.557 199.846 169.854 199.794C169.152 199.743 168.502 199.874 167.906 200.187C167.313 200.501 166.823 200.991 166.436 201.658C166.053 202.325 165.825 203.161 165.751 204.165C165.678 205.17 165.782 206.031 166.064 206.746C166.349 207.462 166.762 208.018 167.303 208.415C167.847 208.812 168.471 209.036 169.174 209.088C169.876 209.139 170.524 209.008 171.117 208.694C171.713 208.381 172.203 207.891 172.586 207.224C172.973 206.557 173.203 205.721 173.277 204.717ZM186.178 203.474L184.773 203.371C184.72 202.961 184.6 202.595 184.415 202.274C184.233 201.953 184.003 201.678 183.723 201.448C183.448 201.215 183.136 201.033 182.789 200.901C182.442 200.769 182.075 200.689 181.69 200.661C180.987 200.61 180.338 200.741 179.741 201.054C179.149 201.368 178.659 201.858 178.272 202.524C177.889 203.191 177.661 204.027 177.587 205.032C177.513 206.037 177.618 206.897 177.899 207.613C178.185 208.329 178.598 208.885 179.139 209.282C179.683 209.679 180.307 209.903 181.009 209.955C181.395 209.983 181.769 209.957 182.132 209.877C182.494 209.797 182.829 209.664 183.135 209.478C183.445 209.288 183.714 209.047 183.94 208.756C184.17 208.462 184.342 208.117 184.454 207.723L185.86 207.826C185.71 208.411 185.479 208.928 185.165 209.376C184.851 209.824 184.474 210.197 184.035 210.495C183.595 210.79 183.111 211.003 182.581 211.135C182.054 211.267 181.499 211.312 180.913 211.269C179.923 211.197 179.061 210.89 178.326 210.35C177.59 209.81 177.034 209.078 176.658 208.155C176.281 207.231 176.137 206.157 176.227 204.933C176.317 203.709 176.615 202.667 177.122 201.808C177.63 200.949 178.286 200.306 179.092 199.878C179.899 199.451 180.797 199.274 181.786 199.347C182.372 199.389 182.915 199.515 183.417 199.722C183.922 199.93 184.37 200.214 184.761 200.573C185.153 200.928 185.472 201.35 185.717 201.839C185.962 202.324 186.116 202.869 186.178 203.474ZM196.012 200.548L197.417 200.651L196.854 208.335C196.796 209.128 196.557 209.823 196.138 210.419C195.722 211.011 195.163 211.462 194.46 211.771C193.758 212.077 192.952 212.196 192.041 212.13C191.131 212.063 190.351 211.827 189.7 211.423C189.051 211.014 188.561 210.487 188.233 209.84C187.908 209.189 187.775 208.467 187.833 207.674L188.396 199.99L189.801 200.093L189.247 207.664C189.205 208.23 189.293 208.744 189.51 209.204C189.727 209.661 190.057 210.032 190.499 210.319C190.946 210.602 191.492 210.768 192.138 210.815C192.784 210.862 193.348 210.778 193.831 210.563C194.314 210.344 194.695 210.024 194.972 209.604C195.254 209.18 195.416 208.685 195.457 208.119L196.012 200.548ZM199.054 212.438L199.904 200.833L203.826 201.12C204.732 201.187 205.465 201.396 206.024 201.748C206.584 202.097 206.983 202.55 207.224 203.107C207.464 203.664 207.559 204.284 207.509 204.968C207.459 205.652 207.275 206.248 206.956 206.756C206.638 207.264 206.179 207.649 205.579 207.908C204.979 208.165 204.229 208.26 203.33 208.194L200.157 207.961L200.25 206.692L203.378 206.921C203.997 206.967 204.503 206.912 204.894 206.759C205.289 206.605 205.583 206.369 205.778 206.049C205.976 205.725 206.092 205.331 206.126 204.867C206.16 204.402 206.103 203.989 205.955 203.629C205.807 203.269 205.548 202.98 205.181 202.763C204.813 202.543 204.316 202.41 203.689 202.364L201.218 202.183L200.46 212.541L199.054 212.438ZM204.899 207.625L207.373 213.048L205.741 212.928L203.312 207.509L204.899 207.625ZM208.942 213.163L209.792 201.557L213.713 201.844C214.62 201.911 215.353 202.12 215.912 202.473C216.471 202.821 216.871 203.274 217.112 203.831C217.352 204.388 217.447 205.008 217.397 205.692C217.347 206.376 217.163 206.972 216.844 207.48C216.526 207.989 216.067 208.373 215.467 208.633C214.867 208.889 214.117 208.984 213.218 208.918L210.045 208.686L210.138 207.416L213.266 207.645C213.885 207.691 214.391 207.637 214.782 207.483C215.177 207.33 215.471 207.093 215.666 206.773C215.864 206.449 215.98 206.055 216.014 205.591C216.048 205.126 215.991 204.714 215.843 204.353C215.694 203.993 215.436 203.704 215.069 203.488C214.701 203.267 214.204 203.134 213.577 203.088L211.106 202.907L210.348 213.265L208.942 213.163ZM214.787 208.349L217.261 213.772L215.629 213.652L213.2 208.233L214.787 208.349ZM218.83 213.887L219.68 202.281L226.684 202.794L226.593 204.041L220.994 203.631L220.707 207.552L225.943 207.936L225.852 209.183L220.616 208.799L220.327 212.743L226.016 213.16L225.925 214.406L218.83 213.887ZM238.1 203.631L237.25 215.236L235.891 215.136L230.234 205.561L230.121 205.553L229.453 214.665L228.048 214.562L228.898 202.957L230.258 203.056L235.935 212.656L236.049 212.664L236.718 203.529L238.1 203.631ZM249.666 208.124L248.261 208.021C248.208 207.611 248.088 207.245 247.903 206.924C247.721 206.603 247.491 206.328 247.211 206.098C246.936 205.865 246.624 205.683 246.277 205.551C245.93 205.419 245.563 205.339 245.178 205.311C244.475 205.26 243.826 205.391 243.229 205.704C242.637 206.018 242.147 206.508 241.76 207.174C241.377 207.841 241.149 208.677 241.075 209.682C241.001 210.687 241.106 211.547 241.387 212.263C241.673 212.979 242.086 213.535 242.627 213.932C243.171 214.329 243.795 214.553 244.497 214.604C244.883 214.633 245.257 214.607 245.62 214.527C245.983 214.447 246.317 214.314 246.623 214.128C246.933 213.938 247.202 213.697 247.428 213.406C247.658 213.112 247.83 212.767 247.942 212.373L249.348 212.476C249.198 213.061 248.967 213.578 248.653 214.026C248.339 214.474 247.962 214.847 247.523 215.145C247.083 215.44 246.599 215.653 246.069 215.785C245.543 215.917 244.987 215.962 244.401 215.919C243.411 215.847 242.549 215.54 241.814 215C241.078 214.46 240.522 213.728 240.146 212.805C239.769 211.881 239.625 210.807 239.715 209.583C239.805 208.359 240.103 207.317 240.61 206.458C241.118 205.599 241.774 204.956 242.581 204.528C243.387 204.101 244.285 203.924 245.274 203.997C245.86 204.039 246.403 204.165 246.905 204.372C247.41 204.58 247.858 204.864 248.25 205.223C248.641 205.578 248.96 206 249.205 206.489C249.451 206.974 249.604 207.519 249.666 208.124ZM253.289 204.743L252.439 216.348L251.034 216.245L251.884 204.64L253.289 204.743ZM254.938 216.531L255.788 204.926L262.792 205.439L262.7 206.686L257.102 206.276L256.815 210.197L262.05 210.58L261.959 211.827L256.723 211.444L256.434 215.388L262.124 215.804L262.032 217.051L254.938 216.531ZM271.14 208.967C271.114 208.388 270.871 207.922 270.41 207.569C269.95 207.217 269.368 207.015 268.666 206.963C268.152 206.925 267.696 206.976 267.299 207.114C266.905 207.252 266.59 207.459 266.353 207.734C266.12 208.009 265.99 208.332 265.963 208.702C265.941 209.012 265.995 209.284 266.126 209.517C266.261 209.748 266.44 209.945 266.664 210.109C266.887 210.27 267.124 210.407 267.374 210.52C267.624 210.63 267.855 210.721 268.066 210.793L269.222 211.197C269.518 211.298 269.846 211.432 270.206 211.599C270.57 211.767 270.913 211.983 271.235 212.25C271.562 212.513 271.823 212.84 272.018 213.23C272.214 213.621 272.291 214.088 272.252 214.632C272.206 215.259 272 215.814 271.634 216.296C271.272 216.778 270.767 217.146 270.118 217.398C269.472 217.651 268.704 217.745 267.813 217.679C266.981 217.619 266.272 217.432 265.683 217.119C265.098 216.806 264.65 216.398 264.337 215.892C264.029 215.387 263.875 214.816 263.876 214.178L265.327 214.284C265.332 214.725 265.453 215.099 265.689 215.405C265.929 215.707 266.242 215.943 266.628 216.111C267.019 216.277 267.445 216.376 267.906 216.41C268.442 216.449 268.93 216.398 269.37 216.255C269.81 216.109 270.166 215.888 270.438 215.593C270.71 215.294 270.862 214.933 270.893 214.51C270.921 214.124 270.837 213.803 270.639 213.545C270.442 213.288 270.173 213.071 269.832 212.894C269.492 212.717 269.122 212.557 268.722 212.414L267.324 211.901C266.437 211.574 265.746 211.149 265.253 210.627C264.759 210.105 264.541 209.453 264.598 208.671C264.646 208.021 264.863 207.467 265.25 207.009C265.641 206.548 266.144 206.205 266.761 205.98C267.381 205.752 268.062 205.666 268.802 205.72C269.55 205.775 270.206 205.957 270.768 206.268C271.33 206.575 271.764 206.972 272.071 207.457C272.381 207.943 272.524 208.48 272.5 209.067L271.14 208.967Z" fill="#141414"/>
<rect x="44" y="153" width="100" height="31" rx="15.5" fill="#6B1597"/>
<path d="M69.0455 162.364H70.4545V170.068C70.4545 170.864 70.267 171.574 69.892 172.199C69.5208 172.82 68.9962 173.311 68.3182 173.67C67.6402 174.027 66.8447 174.205 65.9318 174.205C65.0189 174.205 64.2235 174.027 63.5455 173.67C62.8674 173.311 62.3409 172.82 61.9659 172.199C61.5947 171.574 61.4091 170.864 61.4091 170.068V162.364H62.8182V169.955C62.8182 170.523 62.9432 171.028 63.1932 171.472C63.4432 171.911 63.7992 172.258 64.2614 172.511C64.7273 172.761 65.2841 172.886 65.9318 172.886C66.5795 172.886 67.1364 172.761 67.6023 172.511C68.0682 172.258 68.4242 171.911 68.6705 171.472C68.9205 171.028 69.0455 170.523 69.0455 169.955V162.364ZM72.3121 163.614V162.364H81.0394V163.614H77.3803V174H75.9712V163.614H72.3121ZM84.3032 162.364V174H82.8941V162.364H84.3032ZM86.8085 174V162.364H88.2176V172.75H93.6266V174H86.8085ZM96.8976 162.364V174H95.4885V162.364H96.8976ZM98.7665 163.614V162.364H107.494V163.614H103.835V174H102.426V163.614H98.7665ZM109.348 174V162.364H116.371V163.614H110.758V167.545H116.008V168.795H110.758V172.75H116.462V174H109.348ZM124.955 165.273C124.886 164.697 124.61 164.25 124.125 163.932C123.64 163.614 123.046 163.455 122.341 163.455C121.826 163.455 121.375 163.538 120.989 163.705C120.606 163.871 120.307 164.1 120.091 164.392C119.879 164.684 119.773 165.015 119.773 165.386C119.773 165.697 119.847 165.964 119.994 166.188C120.146 166.407 120.339 166.591 120.574 166.739C120.809 166.883 121.055 167.002 121.313 167.097C121.57 167.187 121.807 167.261 122.023 167.318L123.205 167.636C123.508 167.716 123.845 167.826 124.216 167.966C124.591 168.106 124.949 168.297 125.29 168.54C125.635 168.778 125.919 169.085 126.142 169.46C126.366 169.835 126.477 170.295 126.477 170.841C126.477 171.47 126.313 172.038 125.983 172.545C125.657 173.053 125.18 173.456 124.551 173.756C123.926 174.055 123.167 174.205 122.273 174.205C121.439 174.205 120.718 174.07 120.108 173.801C119.502 173.532 119.025 173.157 118.676 172.676C118.331 172.195 118.136 171.636 118.091 171H119.546C119.583 171.439 119.731 171.803 119.989 172.091C120.25 172.375 120.58 172.587 120.977 172.727C121.379 172.864 121.811 172.932 122.273 172.932C122.811 172.932 123.294 172.845 123.722 172.67C124.15 172.492 124.489 172.246 124.739 171.932C124.989 171.614 125.114 171.242 125.114 170.818C125.114 170.432 125.006 170.117 124.79 169.875C124.574 169.633 124.29 169.436 123.938 169.284C123.585 169.133 123.205 169 122.796 168.886L121.364 168.477C120.455 168.216 119.735 167.843 119.205 167.358C118.674 166.873 118.409 166.239 118.409 165.455C118.409 164.803 118.585 164.235 118.938 163.75C119.294 163.261 119.771 162.883 120.369 162.614C120.972 162.341 121.644 162.205 122.386 162.205C123.136 162.205 123.803 162.339 124.386 162.608C124.97 162.873 125.432 163.237 125.773 163.699C126.117 164.161 126.299 164.686 126.318 165.273H124.955Z" fill="white"/>
<rect x="212.311" y="155" width="165" height="31" rx="15.5" transform="rotate(9.86306 212.311 155)" fill="white" fill-opacity="0.17"/>
<path d="M233.629 171.163C233.661 170.584 233.465 170.097 233.042 169.7C232.618 169.304 232.06 169.045 231.366 168.924C230.858 168.836 230.4 168.841 229.991 168.939C229.585 169.038 229.251 169.212 228.988 169.463C228.729 169.714 228.568 170.022 228.505 170.388C228.451 170.694 228.478 170.97 228.586 171.215C228.697 171.457 228.856 171.672 229.062 171.857C229.269 172.039 229.491 172.199 229.729 172.336C229.967 172.47 230.187 172.583 230.39 172.676L231.5 173.192C231.785 173.323 232.099 173.489 232.44 173.69C232.786 173.893 233.106 174.142 233.4 174.44C233.699 174.734 233.926 175.085 234.082 175.492C234.238 175.9 234.269 176.373 234.176 176.91C234.068 177.53 233.808 178.061 233.397 178.505C232.989 178.949 232.449 179.265 231.779 179.452C231.112 179.64 230.338 179.657 229.457 179.504C228.636 179.361 227.948 179.105 227.393 178.736C226.842 178.367 226.436 177.916 226.175 177.382C225.918 176.849 225.822 176.265 225.886 175.63L227.319 175.879C227.281 176.319 227.364 176.702 227.569 177.03C227.778 177.355 228.066 177.62 228.434 177.826C228.806 178.03 229.22 178.171 229.675 178.25C230.205 178.342 230.696 178.339 231.147 178.241C231.6 178.139 231.976 177.954 232.276 177.687C232.577 177.416 232.763 177.072 232.836 176.654C232.902 176.274 232.85 175.945 232.679 175.669C232.507 175.394 232.261 175.151 231.94 174.941C231.619 174.732 231.267 174.536 230.883 174.354L229.543 173.705C228.692 173.292 228.046 172.801 227.607 172.233C227.168 171.664 227.015 170.994 227.149 170.221C227.261 169.579 227.532 169.05 227.962 168.633C228.396 168.212 228.932 167.921 229.567 167.758C230.207 167.593 230.893 167.573 231.625 167.701C232.364 167.829 232.997 168.076 233.526 168.441C234.055 168.802 234.448 169.239 234.705 169.753C234.965 170.267 235.055 170.815 234.973 171.397L233.629 171.163ZM235.602 180.365L237.595 168.9L241.469 169.574C242.368 169.73 243.075 170.02 243.59 170.444C244.109 170.865 244.458 171.374 244.639 171.97C244.82 172.567 244.852 173.203 244.734 173.878C244.617 174.554 244.372 175.144 244 175.648C243.631 176.153 243.133 176.52 242.505 176.749C241.878 176.975 241.118 177.01 240.226 176.855L237.449 176.372L237.663 175.141L240.395 175.615C241.011 175.723 241.524 175.702 241.934 175.554C242.344 175.406 242.665 175.166 242.896 174.833C243.131 174.497 243.288 174.1 243.368 173.641C243.448 173.182 243.434 172.757 243.325 172.365C243.22 171.974 242.997 171.643 242.656 171.372C242.315 171.097 241.833 170.906 241.21 170.797L238.769 170.373L236.99 180.606L235.602 180.365ZM255.962 177.999C255.752 179.208 255.352 180.215 254.762 181.02C254.173 181.825 253.456 182.4 252.611 182.745C251.767 183.09 250.856 183.178 249.878 183.008C248.9 182.838 248.072 182.448 247.394 181.838C246.716 181.228 246.235 180.445 245.951 179.488C245.668 178.531 245.631 177.449 245.841 176.239C246.052 175.03 246.452 174.023 247.041 173.218C247.631 172.414 248.348 171.839 249.193 171.493C250.037 171.148 250.948 171.06 251.926 171.23C252.904 171.4 253.732 171.79 254.41 172.4C255.088 173.01 255.569 173.794 255.852 174.75C256.136 175.707 256.173 176.79 255.962 177.999ZM254.619 177.765C254.791 176.773 254.771 175.906 254.558 175.165C254.348 174.425 253.992 173.831 253.489 173.382C252.991 172.934 252.394 172.65 251.7 172.529C251.006 172.408 250.347 172.474 249.722 172.727C249.101 172.981 248.565 173.42 248.115 174.045C247.667 174.671 247.358 175.48 247.185 176.473C247.012 177.466 247.031 178.332 247.241 179.072C247.454 179.813 247.81 180.407 248.309 180.855C248.811 181.304 249.41 181.589 250.104 181.709C250.798 181.83 251.455 181.764 252.076 181.51C252.701 181.257 253.237 180.818 253.684 180.192C254.135 179.567 254.446 178.758 254.619 177.765ZM256.985 184.082L258.978 172.618L262.852 173.291C263.747 173.447 264.456 173.728 264.977 174.134C265.5 174.536 265.853 175.026 266.037 175.604C266.221 176.182 266.254 176.809 266.137 177.484C266.019 178.16 265.777 178.735 265.41 179.209C265.043 179.684 264.548 180.02 263.925 180.22C263.303 180.415 262.548 180.436 261.659 180.281L258.525 179.736L258.743 178.482L261.833 179.02C262.445 179.126 262.953 179.122 263.357 179.008C263.765 178.894 264.082 178.688 264.307 178.389C264.536 178.086 264.691 177.706 264.771 177.247C264.851 176.788 264.834 176.372 264.722 175.998C264.611 175.625 264.382 175.313 264.038 175.06C263.694 174.805 263.212 174.623 262.593 174.515L260.152 174.091L258.373 184.324L256.985 184.082ZM263.276 179.87L265.202 185.511L263.59 185.231L261.709 179.598L263.276 179.87ZM267.905 175.439L268.119 174.207L276.717 175.702L276.503 176.934L272.898 176.307L271.119 186.54L269.731 186.298L271.51 176.065L267.905 175.439ZM284.316 179.976C284.347 179.397 284.151 178.909 283.728 178.513C283.305 178.116 282.746 177.858 282.052 177.737C281.545 177.649 281.086 177.654 280.677 177.752C280.272 177.85 279.938 178.025 279.675 178.275C279.416 178.526 279.255 178.835 279.191 179.2C279.138 179.506 279.165 179.782 279.272 180.028C279.384 180.27 279.543 180.484 279.749 180.67C279.955 180.852 280.178 181.012 280.415 181.149C280.653 181.283 280.874 181.396 281.077 181.489L282.187 182.005C282.472 182.135 282.785 182.301 283.127 182.503C283.472 182.705 283.792 182.955 284.086 183.252C284.385 183.546 284.612 183.897 284.768 184.305C284.924 184.713 284.956 185.185 284.862 185.723C284.754 186.342 284.495 186.874 284.083 187.317C283.675 187.762 283.136 188.077 282.465 188.264C281.798 188.452 281.024 188.47 280.144 188.316C279.323 188.174 278.635 187.918 278.08 187.548C277.529 187.179 277.123 186.728 276.862 186.194C276.605 185.661 276.508 185.078 276.573 184.443L278.006 184.692C277.968 185.131 278.051 185.515 278.255 185.843C278.464 186.167 278.753 186.433 279.12 186.639C279.493 186.842 279.906 186.983 280.362 187.062C280.892 187.155 281.382 187.151 281.834 187.053C282.286 186.951 282.662 186.767 282.962 186.5C283.263 186.229 283.45 185.885 283.523 185.467C283.589 185.086 283.536 184.758 283.365 184.482C283.194 184.206 282.948 183.963 282.627 183.754C282.306 183.544 281.953 183.348 281.57 183.166L280.229 182.518C279.378 182.105 278.733 181.614 278.294 181.045C277.854 180.477 277.702 179.806 277.836 179.034C277.948 178.392 278.218 177.862 278.648 177.445C279.083 177.025 279.618 176.733 280.254 176.571C280.894 176.405 281.58 176.386 282.311 176.513C283.05 176.642 283.684 176.888 284.212 177.253C284.742 177.614 285.135 178.052 285.391 178.565C285.652 179.08 285.741 179.628 285.659 180.21L284.316 179.976ZM290.407 189.893L292.4 178.429L296.408 179.126C297.206 179.264 297.841 179.517 298.312 179.883C298.783 180.246 299.106 180.681 299.279 181.188C299.453 181.691 299.491 182.222 299.394 182.782C299.308 183.275 299.15 183.666 298.919 183.957C298.691 184.248 298.419 184.462 298.103 184.599C297.791 184.737 297.463 184.822 297.119 184.855L297.099 184.967C297.446 185.05 297.777 185.235 298.093 185.52C298.409 185.806 298.65 186.178 298.816 186.638C298.982 187.097 299.012 187.629 298.907 188.234C298.807 188.809 298.587 189.303 298.246 189.716C297.905 190.13 297.429 190.422 296.819 190.593C296.209 190.763 295.452 190.77 294.549 190.613L290.407 189.893ZM292.009 188.903L294.763 189.382C295.67 189.539 296.344 189.476 296.786 189.191C297.232 188.904 297.499 188.508 297.586 188.004C297.654 187.616 297.617 187.241 297.476 186.878C297.336 186.511 297.101 186.197 296.769 185.936C296.439 185.671 296.023 185.495 295.523 185.408L292.702 184.917L292.009 188.903ZM292.912 183.708L295.487 184.156C295.905 184.229 296.296 184.212 296.661 184.106C297.029 184.001 297.338 183.816 297.587 183.552C297.841 183.289 298.003 182.955 298.073 182.552C298.16 182.049 298.059 181.591 297.769 181.179C297.48 180.763 296.955 180.489 296.194 180.357L293.574 179.902L292.912 183.708ZM300.344 191.621L302.337 180.156L309.256 181.359L309.042 182.591L303.511 181.629L302.838 185.503L308.01 186.402L307.796 187.634L302.623 186.735L301.946 190.631L307.566 191.608L307.352 192.839L300.344 191.621ZM310.602 182.862L310.816 181.631L319.414 183.126L319.2 184.357L315.595 183.73L313.816 193.963L312.428 193.722L314.207 183.489L310.602 182.862ZM320.4 184.566L320.615 183.334L329.213 184.829L328.999 186.061L325.394 185.434L323.615 195.667L322.226 195.425L324.005 185.193L320.4 184.566ZM332.428 185.388L330.435 196.853L329.047 196.611L331.04 185.147L332.428 185.388ZM343.988 187.398L341.994 198.862L340.651 198.629L335.969 188.541L335.857 188.522L334.292 197.523L332.903 197.282L334.897 185.817L336.24 186.051L340.941 196.165L341.053 196.184L342.622 187.16L343.988 187.398ZM353.664 192.771C353.607 192.373 353.503 192.007 353.353 191.673C353.208 191.337 353.016 191.038 352.777 190.777C352.541 190.517 352.26 190.301 351.932 190.129C351.605 189.956 351.234 189.834 350.819 189.762C350.14 189.644 349.492 189.712 348.875 189.966C348.258 190.22 347.726 190.66 347.279 191.286C346.832 191.912 346.522 192.721 346.349 193.714C346.177 194.707 346.197 195.573 346.41 196.314C346.624 197.055 346.984 197.65 347.49 198.099C347.996 198.549 348.604 198.835 349.313 198.958C349.97 199.072 350.572 199.033 351.121 198.84C351.674 198.644 352.136 198.313 352.505 197.847C352.879 197.377 353.127 196.792 353.249 196.09L353.659 196.254L350.21 195.654L350.424 194.423L354.791 195.182L354.577 196.413C354.412 197.357 354.068 198.143 353.544 198.771C353.023 199.4 352.377 199.845 351.605 200.106C350.837 200.365 349.998 200.415 349.087 200.257C348.072 200.081 347.222 199.687 346.536 199.075C345.854 198.465 345.375 197.682 345.099 196.726C344.827 195.772 344.795 194.69 345.006 193.48C345.163 192.574 345.426 191.779 345.795 191.097C346.168 190.413 346.622 189.853 347.159 189.42C347.696 188.987 348.294 188.687 348.953 188.521C349.613 188.355 350.31 188.336 351.045 188.464C351.65 188.569 352.197 188.758 352.688 189.032C353.183 189.302 353.607 189.639 353.96 190.043C354.317 190.443 354.594 190.897 354.79 191.404C354.987 191.907 355.089 192.446 355.097 193.02L353.664 192.771Z" fill="white"/>
<rect x="140.176" y="166.12" width="133" height="31" rx="15.5" transform="rotate(-29.7825 140.176 166.12)" fill="#0E5409"/>
<path d="M165.717 175.699L159.937 165.599L166.032 162.111L166.653 163.196L161.781 165.984L163.734 169.397L168.29 166.789L168.911 167.874L164.354 170.482L166.319 173.914L171.27 171.08L171.891 172.165L165.717 175.699ZM177.891 159.514L176.669 160.213C176.395 159.903 176.091 159.666 175.758 159.504C175.428 159.339 175.083 159.24 174.723 159.206C174.365 159.166 174.005 159.189 173.643 159.274C173.281 159.359 172.933 159.497 172.598 159.689C171.986 160.039 171.521 160.51 171.201 161.104C170.885 161.695 170.752 162.375 170.804 163.144C170.859 163.911 171.137 164.732 171.637 165.607C172.138 166.481 172.705 167.136 173.339 167.572C173.975 168.007 174.629 168.237 175.299 168.264C175.972 168.289 176.615 168.126 177.226 167.776C177.561 167.584 177.857 167.354 178.114 167.085C178.37 166.816 178.573 166.519 178.723 166.193C178.874 165.862 178.962 165.513 178.987 165.145C179.013 164.772 178.963 164.391 178.836 164.001L180.059 163.301C180.262 163.87 180.359 164.428 180.349 164.974C180.339 165.521 180.235 166.041 180.037 166.534C179.837 167.024 179.555 167.472 179.189 167.877C178.826 168.281 178.39 168.629 177.881 168.92C177.019 169.413 176.133 169.641 175.222 169.604C174.31 169.567 173.44 169.271 172.611 168.715C171.783 168.16 171.063 167.349 170.454 166.284C169.844 165.219 169.51 164.188 169.45 163.192C169.391 162.196 169.576 161.296 170.006 160.491C170.436 159.687 171.081 159.038 171.943 158.545C172.452 158.253 172.973 158.054 173.505 157.946C174.04 157.836 174.57 157.82 175.095 157.899C175.619 157.975 176.119 158.147 176.595 158.416C177.07 158.681 177.502 159.047 177.891 159.514ZM189.195 155.558C189.805 156.624 190.139 157.654 190.199 158.65C190.258 159.646 190.073 160.546 189.643 161.351C189.213 162.156 188.567 162.804 187.706 163.297C186.845 163.79 185.958 164.018 185.047 163.981C184.135 163.944 183.265 163.648 182.437 163.092C181.608 162.537 180.889 161.726 180.279 160.661C179.67 159.596 179.335 158.565 179.276 157.569C179.216 156.573 179.402 155.673 179.831 154.868C180.261 154.064 180.907 153.415 181.768 152.922C182.63 152.429 183.516 152.201 184.427 152.238C185.339 152.275 186.209 152.571 187.038 153.127C187.866 153.683 188.585 154.493 189.195 155.558ZM188.012 156.236C187.511 155.361 186.942 154.707 186.306 154.273C185.672 153.837 185.018 153.606 184.345 153.581C183.675 153.554 183.034 153.716 182.423 154.066C181.811 154.416 181.346 154.887 181.026 155.481C180.71 156.072 180.578 156.752 180.63 157.521C180.685 158.288 180.962 159.109 181.463 159.984C181.963 160.858 182.53 161.513 183.164 161.949C183.801 162.384 184.454 162.614 185.124 162.641C185.797 162.666 186.44 162.503 187.051 162.153C187.663 161.803 188.127 161.333 188.443 160.742C188.763 160.148 188.895 159.468 188.84 158.701C188.788 157.932 188.512 157.11 188.012 156.236ZM188.084 149.491L189.543 148.655L197.773 155.074L197.892 155.007L196.526 144.659L197.986 143.824L203.766 153.923L202.622 154.578L198.23 146.905L198.132 146.961L199.367 156.441L198.262 157.073L190.715 151.206L190.616 151.262L195.008 158.935L193.864 159.59L188.084 149.491ZM200.16 142.579L201.62 141.744L209.85 148.163L209.968 148.095L208.603 137.748L210.062 136.912L215.842 147.012L214.698 147.667L210.307 139.993L210.208 140.05L211.444 149.529L210.339 150.161L202.792 144.294L202.693 144.351L207.084 152.024L205.94 152.679L200.16 142.579ZM218.017 145.767L212.237 135.668L218.332 132.18L218.953 133.265L214.081 136.053L216.034 139.465L220.59 136.858L221.211 137.943L216.655 140.55L218.619 143.983L223.57 141.149L224.191 142.234L218.017 145.767ZM226.038 141.177L220.259 131.077L223.671 129.124C224.46 128.673 225.185 128.437 225.845 128.417C226.504 128.393 227.089 128.545 227.599 128.873C228.11 129.2 228.535 129.662 228.876 130.257C229.216 130.852 229.397 131.449 229.417 132.049C229.437 132.648 229.271 133.223 228.918 133.774C228.564 134.322 227.995 134.819 227.213 135.267L224.451 136.848L223.819 135.743L226.541 134.185C227.08 133.877 227.469 133.549 227.708 133.203C227.949 132.856 228.061 132.495 228.044 132.121C228.028 131.742 227.904 131.35 227.672 130.945C227.441 130.541 227.163 130.231 226.839 130.015C226.514 129.799 226.139 129.704 225.713 129.73C225.285 129.752 224.798 129.919 224.252 130.232L222.102 131.462L227.261 140.477L226.038 141.177ZM228.196 133.919L233.278 137.034L231.857 137.846L226.815 134.709L228.196 133.919ZM238.796 124.658L237.574 125.358C237.3 125.047 236.996 124.811 236.663 124.648C236.333 124.483 235.988 124.384 235.628 124.35C235.27 124.31 234.91 124.333 234.548 124.418C234.186 124.503 233.838 124.641 233.503 124.833C232.891 125.183 232.426 125.655 232.106 126.248C231.79 126.839 231.657 127.519 231.709 128.288C231.764 129.055 232.042 129.876 232.542 130.751C233.043 131.625 233.61 132.28 234.244 132.717C234.88 133.151 235.534 133.381 236.204 133.408C236.877 133.433 237.52 133.27 238.131 132.92C238.466 132.729 238.762 132.498 239.019 132.229C239.275 131.96 239.478 131.663 239.628 131.337C239.779 131.006 239.867 130.657 239.892 130.289C239.918 129.916 239.868 129.535 239.741 129.145L240.964 128.445C241.167 129.014 241.264 129.572 241.254 130.118C241.244 130.665 241.14 131.185 240.942 131.678C240.742 132.168 240.46 132.616 240.094 133.021C239.731 133.425 239.295 133.773 238.786 134.065C237.924 134.557 237.038 134.785 236.127 134.748C235.215 134.711 234.345 134.415 233.516 133.859C232.688 133.304 231.968 132.493 231.359 131.428C230.749 130.363 230.415 129.332 230.355 128.336C230.296 127.34 230.481 126.44 230.911 125.635C231.341 124.831 231.986 124.182 232.848 123.689C233.357 123.397 233.878 123.198 234.41 123.09C234.945 122.98 235.475 122.964 236 123.043C236.524 123.119 237.024 123.291 237.5 123.56C237.975 123.825 238.407 124.191 238.796 124.658ZM244.469 130.629L238.689 120.53L244.784 117.041L245.405 118.126L240.533 120.914L242.486 124.327L247.042 121.719L247.663 122.804L243.107 125.412L245.071 128.844L250.022 126.011L250.643 127.095L244.469 130.629Z" fill="white"/>
<rect x="-14.0898" y="129.588" width="218" height="31" rx="15.5" transform="rotate(-7.26708 -14.0898 129.588)" fill="#DC8FFB"/>
<path d="M3.89114 137.994L3.73302 136.754L12.3902 135.65L12.5483 136.89L8.91861 137.353L10.2324 147.656L8.83466 147.834L7.52083 137.531L3.89114 137.994ZM14.7034 135.355L19.3693 144.635L19.5046 144.618L21.6923 134.464L23.1577 134.277L20.3912 146.361L18.9484 146.545L13.238 135.542L14.7034 135.355ZM35.4651 135.641C35.3247 135.078 34.9939 134.67 34.4726 134.415C33.9514 134.161 33.3414 134.078 32.6425 134.168C32.1315 134.233 31.6949 134.372 31.3327 134.587C30.9743 134.8 30.7065 135.066 30.5292 135.382C30.3557 135.698 30.2924 136.041 30.3393 136.409C30.3786 136.717 30.4857 136.972 30.6605 137.175C30.8386 137.374 31.0534 137.532 31.3051 137.649C31.5563 137.762 31.8156 137.849 32.0831 137.91C32.3501 137.968 32.5943 138.011 32.8156 138.04L34.0282 138.207C34.3389 138.247 34.6872 138.313 35.0731 138.406C35.4628 138.497 35.8421 138.642 36.2109 138.839C36.5831 139.032 36.9037 139.301 37.1728 139.644C37.4419 139.988 37.611 140.43 37.68 140.971C37.7595 141.595 37.668 142.18 37.4053 142.725C37.1463 143.269 36.7239 143.73 36.138 144.106C35.5559 144.482 34.8215 144.727 33.9347 144.84C33.1081 144.945 32.3753 144.903 31.7363 144.714C31.1011 144.523 30.5802 144.212 30.1737 143.779C29.7709 143.345 29.5067 142.816 29.3811 142.19L30.824 142.006C30.9171 142.437 31.1097 142.779 31.4016 143.032C31.6968 143.281 32.0505 143.45 32.4628 143.538C32.8783 143.623 33.3153 143.636 33.7737 143.577C34.3073 143.509 34.7753 143.362 35.1779 143.135C35.5799 142.904 35.8851 142.617 36.0933 142.273C36.3011 141.926 36.3781 141.542 36.3244 141.121C36.2756 140.738 36.1287 140.44 35.8839 140.227C35.639 140.014 35.3323 139.854 34.9637 139.748C34.5951 139.643 34.2007 139.559 33.7805 139.498L32.3084 139.274C31.3736 139.129 30.6125 138.85 30.0251 138.436C29.4377 138.023 29.0945 137.427 28.9953 136.649C28.9129 136.003 29.0157 135.417 29.3038 134.891C29.5952 134.361 30.0207 133.925 30.5804 133.583C31.1433 133.236 31.793 133.016 32.5295 132.922C33.2735 132.827 33.9518 132.876 34.5645 133.069C35.1766 133.258 35.681 133.561 36.0777 133.976C36.4781 134.391 36.7248 134.888 36.8178 135.468L35.4651 135.641ZM38.1152 133.63L37.9571 132.39L46.6143 131.286L46.7724 132.526L43.1427 132.989L44.4565 143.292L43.0588 143.47L41.7449 133.167L38.1152 133.63ZM49.9261 142.594L48.4541 131.052L52.3544 130.554C53.2561 130.439 54.016 130.499 54.6339 130.733C55.2514 130.964 55.7332 131.328 56.0793 131.826C56.4254 132.324 56.6418 132.913 56.7285 133.594C56.8152 134.274 56.7531 134.894 56.5421 135.456C56.3311 136.017 55.9574 136.485 55.4208 136.859C54.8838 137.229 54.1681 137.471 53.2739 137.585L50.1176 137.988L49.9566 136.725L53.0678 136.329C53.684 136.25 54.1685 136.097 54.5212 135.868C54.8777 135.64 55.1194 135.349 55.2464 134.997C55.3766 134.64 55.4122 134.231 55.3533 133.769C55.2943 133.307 55.1564 132.914 54.9395 132.59C54.7225 132.267 54.4124 132.035 54.0089 131.895C53.605 131.752 53.0911 131.72 52.4674 131.8L50.01 132.113L51.3238 142.416L49.9261 142.594ZM54.6981 136.716L58.2 141.539L56.5767 141.746L53.12 136.918L54.6981 136.716ZM59.7608 141.34L58.2889 129.797L65.2552 128.909L65.4133 130.149L59.8447 130.859L60.3421 134.759L65.5499 134.095L65.708 135.335L60.5002 135.999L61.0004 139.922L66.6592 139.201L66.8173 140.441L59.7608 141.34ZM69.4025 140.111L67.9371 140.298L70.7035 128.214L72.1464 128.03L77.8567 139.033L76.3913 139.22L71.7029 129.943L71.6128 129.954L69.4025 140.111ZM69.3686 135.533L75.2753 134.78L75.4334 136.02L69.5267 136.773L69.3686 135.533ZM77.8653 127.301L79.5336 127.088L84.6782 136.17L84.8135 136.152L87.5145 126.071L89.1828 125.858L90.6547 137.401L89.3471 137.568L88.2288 128.798L88.1161 128.812L85.6272 138.042L84.3647 138.203L79.6393 129.893L79.5265 129.907L80.6449 138.677L79.3373 138.844L77.8653 127.301ZM97.2863 136.555L95.8144 125.012L99.7146 124.515C100.62 124.399 101.381 124.468 101.998 124.722C102.618 124.971 103.102 125.355 103.45 125.871C103.799 126.388 104.016 126.987 104.103 127.667C104.19 128.347 104.13 128.983 103.922 129.574C103.719 130.165 103.351 130.663 102.818 131.067C102.285 131.467 101.57 131.725 100.671 131.839L97.8759 132.196L97.7178 130.956L100.468 130.605C101.088 130.526 101.572 130.355 101.921 130.093C102.269 129.831 102.505 129.507 102.627 129.121C102.753 128.731 102.787 128.304 102.728 127.842C102.669 127.38 102.53 126.978 102.31 126.635C102.095 126.292 101.784 126.042 101.378 125.884C100.972 125.722 100.455 125.681 99.8276 125.761L97.3702 126.074L98.6841 136.377L97.2863 136.555ZM107.044 135.311L105.572 123.768L106.969 123.59L108.283 133.893L113.649 133.208L113.807 134.448L107.044 135.311ZM116.856 134.06L115.39 134.247L118.157 122.163L119.6 121.979L125.31 132.982L123.845 133.168L119.156 123.892L119.066 123.903L116.856 134.06ZM116.822 129.482L122.729 128.729L122.887 129.968L116.98 130.722L116.822 129.482ZM123.497 122.742L123.339 121.502L131.996 120.398L132.154 121.638L128.524 122.101L129.838 132.404L128.44 132.582L127.127 122.279L123.497 122.742ZM135.308 131.707L133.836 120.164L140.757 119.281L140.915 120.521L135.392 121.226L135.889 125.126L140.894 124.488L141.052 125.727L136.047 126.366L136.706 131.528L135.308 131.707ZM153.309 123.546C153.464 124.763 153.378 125.843 153.052 126.786C152.725 127.729 152.21 128.49 151.504 129.069C150.799 129.647 149.954 129.999 148.97 130.125C147.985 130.25 147.079 130.122 146.251 129.738C145.424 129.355 144.733 128.748 144.181 127.918C143.628 127.087 143.274 126.063 143.119 124.845C142.963 123.628 143.049 122.548 143.376 121.605C143.702 120.662 144.218 119.901 144.923 119.323C145.628 118.744 146.473 118.392 147.458 118.266C148.442 118.141 149.348 118.27 150.176 118.653C151.004 119.036 151.694 119.643 152.247 120.474C152.8 121.304 153.154 122.328 153.309 123.546ZM151.956 123.718C151.829 122.719 151.554 121.897 151.132 121.252C150.714 120.606 150.198 120.143 149.586 119.862C148.977 119.581 148.323 119.485 147.624 119.574C146.926 119.663 146.315 119.92 145.793 120.346C145.274 120.771 144.891 121.349 144.645 122.079C144.402 122.809 144.344 123.673 144.471 124.673C144.599 125.672 144.872 126.495 145.29 127.14C145.712 127.785 146.228 128.248 146.836 128.53C147.449 128.811 148.104 128.906 148.803 128.817C149.502 128.728 150.111 128.471 150.629 128.046C151.152 127.62 151.534 127.043 151.777 126.313C152.024 125.583 152.084 124.718 151.956 123.718ZM156.078 129.058L154.606 117.515L158.506 117.018C159.408 116.903 160.168 116.963 160.786 117.197C161.403 117.427 161.885 117.792 162.231 118.29C162.577 118.788 162.793 119.377 162.88 120.057C162.967 120.737 162.905 121.358 162.694 121.92C162.483 122.481 162.109 122.949 161.572 123.323C161.035 123.693 160.32 123.935 159.426 124.049L156.269 124.451L156.108 123.189L159.219 122.792C159.836 122.714 160.32 122.56 160.673 122.332C161.029 122.103 161.271 121.813 161.398 121.46C161.528 121.104 161.564 120.695 161.505 120.233C161.446 119.77 161.308 119.377 161.091 119.054C160.874 118.73 160.564 118.499 160.161 118.359C159.757 118.216 159.243 118.184 158.619 118.264L156.162 118.577L157.475 128.88L156.078 129.058ZM160.85 123.18L164.352 128.003L162.728 128.21L159.272 123.381L160.85 123.18ZM164.441 116.261L166.109 116.048L171.253 125.13L171.389 125.112L174.09 115.031L175.758 114.818L177.23 126.361L175.922 126.528L174.804 117.758L174.691 117.772L172.202 127.002L170.94 127.163L166.214 118.853L166.102 118.867L167.22 127.637L165.912 127.804L164.441 116.261ZM184.924 116.582C184.783 116.019 184.452 115.611 183.931 115.357C183.41 115.102 182.8 115.02 182.101 115.109C181.59 115.174 181.153 115.314 180.791 115.528C180.433 115.742 180.165 116.007 179.988 116.323C179.814 116.64 179.751 116.982 179.798 117.35C179.837 117.658 179.944 117.914 180.119 118.117C180.297 118.315 180.512 118.473 180.764 118.59C181.015 118.703 181.274 118.79 181.542 118.852C181.809 118.909 182.053 118.953 182.274 118.982L183.487 119.148C183.797 119.188 184.146 119.255 184.532 119.347C184.921 119.438 185.301 119.583 185.669 119.78C186.042 119.973 186.362 120.242 186.631 120.585C186.9 120.929 187.069 121.372 187.138 121.913C187.218 122.536 187.126 123.121 186.864 123.666C186.605 124.211 186.182 124.671 185.597 125.048C185.014 125.424 184.28 125.668 183.393 125.781C182.567 125.886 181.834 125.844 181.195 125.655C180.56 125.465 180.039 125.153 179.632 124.72C179.229 124.286 178.965 123.757 178.84 123.131L180.282 122.947C180.376 123.378 180.568 123.72 180.86 123.973C181.155 124.222 181.509 124.391 181.921 124.48C182.337 124.564 182.774 124.577 183.232 124.519C183.766 124.451 184.234 124.303 184.636 124.076C185.038 123.845 185.344 123.558 185.552 123.215C185.76 122.867 185.837 122.483 185.783 122.063C185.734 121.679 185.587 121.381 185.342 121.168C185.097 120.955 184.791 120.795 184.422 120.69C184.054 120.584 183.659 120.5 183.239 120.439L181.767 120.215C180.832 120.071 180.071 119.791 179.484 119.378C178.896 118.964 178.553 118.368 178.454 117.59C178.371 116.944 178.474 116.358 178.762 115.832C179.054 115.303 179.479 114.867 180.039 114.524C180.602 114.177 181.251 113.957 181.988 113.863C182.732 113.768 183.41 113.817 184.023 114.01C184.635 114.2 185.14 114.502 185.536 114.917C185.937 115.332 186.183 115.829 186.276 116.409L184.924 116.582Z" fill="#1C1C1C"/>
<rect x="249.74" y="131" width="113" height="31" rx="15.5" transform="rotate(6.92814 249.74 131)" fill="#C0E463"/>
<path d="M271.859 146.051C271.861 145.471 271.64 144.994 271.197 144.62C270.754 144.245 270.183 144.016 269.484 143.931C268.972 143.868 268.515 143.897 268.111 144.016C267.711 144.135 267.386 144.326 267.137 144.59C266.891 144.854 266.746 145.17 266.701 145.538C266.664 145.847 266.705 146.121 266.824 146.361C266.948 146.597 267.118 146.803 267.333 146.978C267.549 147.149 267.779 147.297 268.023 147.422C268.268 147.543 268.494 147.645 268.702 147.728L269.836 148.186C270.128 148.302 270.449 148.451 270.801 148.635C271.156 148.82 271.488 149.053 271.797 149.334C272.111 149.613 272.356 149.952 272.532 150.351C272.709 150.75 272.764 151.22 272.699 151.762C272.623 152.386 272.391 152.93 272.002 153.394C271.618 153.859 271.095 154.202 270.435 154.423C269.778 154.645 269.007 154.702 268.119 154.594C267.292 154.493 266.592 154.273 266.019 153.932C265.45 153.592 265.021 153.162 264.733 152.643C264.449 152.124 264.323 151.545 264.354 150.908L265.798 151.084C265.783 151.524 265.886 151.903 266.107 152.22C266.332 152.534 266.633 152.784 267.011 152.971C267.393 153.155 267.814 153.275 268.273 153.33C268.807 153.395 269.297 153.367 269.742 153.246C270.189 153.121 270.555 152.917 270.841 152.635C271.128 152.349 271.297 151.996 271.348 151.575C271.394 151.191 271.325 150.866 271.14 150.6C270.955 150.333 270.697 150.103 270.365 149.91C270.034 149.717 269.672 149.54 269.28 149.378L267.908 148.799C267.037 148.43 266.367 147.972 265.899 147.427C265.431 146.882 265.245 146.22 265.339 145.442C265.418 144.795 265.661 144.252 266.069 143.813C266.482 143.371 267.001 143.053 267.628 142.858C268.259 142.66 268.942 142.606 269.679 142.695C270.424 142.786 271.07 143 271.616 143.337C272.163 143.67 272.578 144.087 272.861 144.587C273.147 145.087 273.264 145.63 273.212 146.215L271.859 146.051ZM274.3 155.139L275.703 143.587L277.102 143.757L276.477 148.901L282.636 149.65L283.261 144.506L284.66 144.676L283.257 156.227L281.858 156.057L282.486 150.891L276.326 150.142L275.699 155.309L274.3 155.139ZM296.188 151.937C296.04 153.156 295.692 154.182 295.144 155.016C294.596 155.85 293.91 156.461 293.084 156.849C292.258 157.237 291.353 157.371 290.368 157.252C289.383 157.132 288.536 156.785 287.827 156.21C287.119 155.636 286.598 154.878 286.266 153.937C285.934 152.996 285.842 151.917 285.99 150.698C286.138 149.48 286.486 148.454 287.034 147.62C287.582 146.786 288.268 146.175 289.094 145.787C289.919 145.399 290.825 145.265 291.81 145.384C292.795 145.504 293.642 145.851 294.351 146.426C295.059 147 295.579 147.758 295.912 148.699C296.244 149.64 296.336 150.719 296.188 151.937ZM294.834 151.773C294.956 150.773 294.891 149.908 294.64 149.179C294.393 148.451 294.006 147.876 293.482 147.453C292.961 147.031 292.35 146.778 291.651 146.693C290.951 146.608 290.296 146.708 289.686 146.992C289.079 147.277 288.566 147.743 288.148 148.391C287.733 149.039 287.465 149.863 287.344 150.863C287.222 151.863 287.285 152.727 287.532 153.456C287.783 154.184 288.169 154.76 288.69 155.182C289.215 155.604 289.827 155.858 290.527 155.943C291.226 156.028 291.879 155.928 292.486 155.643C293.097 155.359 293.61 154.892 294.024 154.245C294.443 153.597 294.713 152.773 294.834 151.773ZM297.52 157.96L298.924 146.409L302.827 146.883C303.733 146.993 304.454 147.247 304.99 147.644C305.529 148.038 305.905 148.528 306.116 149.114C306.327 149.701 306.391 150.335 306.309 151.015C306.226 151.696 306.012 152.297 305.666 152.82C305.324 153.343 304.845 153.735 304.229 153.996C303.614 154.254 302.857 154.328 301.959 154.218L299.161 153.878L299.312 152.638L302.064 152.972C302.685 153.047 303.196 153.001 303.598 152.832C304 152.664 304.308 152.407 304.521 152.063C304.739 151.715 304.876 151.31 304.932 150.848C304.989 150.385 304.952 149.961 304.824 149.576C304.699 149.19 304.459 148.871 304.104 148.618C303.75 148.361 303.259 148.195 302.631 148.119L300.172 147.82L298.919 158.13L297.52 157.96ZM307.285 159.147L308.688 147.595L312.591 148.07C313.498 148.18 314.219 148.433 314.754 148.83C315.294 149.224 315.669 149.714 315.88 150.301C316.091 150.888 316.156 151.521 316.073 152.202C315.99 152.882 315.776 153.484 315.43 154.007C315.088 154.53 314.609 154.922 313.994 155.183C313.379 155.44 312.622 155.514 311.723 155.405L308.925 155.065L309.076 153.824L311.829 154.159C312.449 154.234 312.96 154.187 313.362 154.019C313.764 153.85 314.072 153.594 314.286 153.249C314.504 152.902 314.641 152.497 314.697 152.034C314.753 151.572 314.717 151.148 314.588 150.762C314.463 150.377 314.223 150.058 313.869 149.805C313.515 149.548 313.023 149.381 312.396 149.305L309.936 149.006L308.683 159.317L307.285 159.147ZM319.852 148.952L318.448 160.503L317.049 160.333L318.453 148.782L319.852 148.952ZM331.498 150.367L330.095 161.919L328.741 161.754L323.549 151.92L323.436 151.906L322.334 160.976L320.935 160.806L322.339 149.254L323.692 149.419L328.905 159.278L329.017 159.292L330.122 150.2L331.498 150.367ZM341.438 155.238C341.36 154.843 341.237 154.483 341.071 154.157C340.909 153.829 340.701 153.54 340.449 153.292C340.201 153.044 339.909 152.843 339.573 152.688C339.237 152.532 338.86 152.429 338.442 152.379C337.758 152.295 337.114 152.397 336.511 152.682C335.908 152.967 335.399 153.434 334.985 154.082C334.57 154.73 334.302 155.554 334.18 156.554C334.059 157.554 334.124 158.419 334.375 159.148C334.626 159.876 335.016 160.452 335.544 160.875C336.073 161.298 336.694 161.553 337.409 161.64C338.071 161.72 338.671 161.65 339.209 161.429C339.751 161.205 340.195 160.851 340.54 160.366C340.889 159.878 341.107 159.281 341.193 158.574L341.61 158.716L338.136 158.294L338.287 157.053L342.686 157.588L342.535 158.828C342.42 159.78 342.116 160.582 341.625 161.236C341.137 161.89 340.514 162.368 339.756 162.669C339.003 162.967 338.167 163.06 337.25 162.948C336.227 162.824 335.357 162.474 334.641 161.899C333.929 161.324 333.411 160.566 333.086 159.626C332.765 158.687 332.679 157.608 332.827 156.39C332.938 155.476 333.16 154.669 333.493 153.969C333.83 153.266 334.256 152.684 334.77 152.224C335.283 151.764 335.865 151.434 336.515 151.234C337.165 151.035 337.861 150.98 338.601 151.07C339.211 151.144 339.767 151.305 340.271 151.553C340.78 151.798 341.22 152.113 341.593 152.498C341.97 152.88 342.27 153.319 342.492 153.815C342.714 154.308 342.844 154.84 342.882 155.413L341.438 155.238Z" fill="#1C1C1C"/>
<rect x="196.912" y="69" width="143" height="31" rx="15.5" transform="rotate(12.8828 196.912 69)" fill="#6B1597"/>
<path d="M213.169 82.3236L210.575 93.667L209.201 93.3528L211.796 82.0094L213.169 82.3236ZM224.606 84.9394L222.012 96.2829L220.683 95.9789L216.538 85.6587L216.428 85.6334L214.391 94.5398L213.017 94.2256L215.611 82.8821L216.941 83.1862L221.102 93.5335L221.213 93.5589L223.255 84.6303L224.606 84.9394ZM227.508 85.6032L228.692 95.9223L228.825 95.9527L234.376 87.174L235.817 87.5034L229.057 97.8942L227.639 97.5699L226.068 85.2738L227.508 85.6032ZM234.677 99.1796L237.271 87.8361L244.117 89.4019L243.839 90.6204L238.366 89.3688L237.49 93.2017L242.608 94.3722L242.329 95.5907L237.211 94.4202L236.329 98.2752L241.89 99.5471L241.612 100.766L234.677 99.1796ZM251.836 94.1515C251.898 93.575 251.728 93.0777 251.326 92.6594C250.925 92.2411 250.38 91.9534 249.694 91.7964C249.192 91.6815 248.734 91.6622 248.32 91.7386C247.91 91.8157 247.567 91.9724 247.291 92.2086C247.019 92.4456 246.842 92.7451 246.759 93.107C246.69 93.4097 246.703 93.6865 246.797 93.9373C246.896 94.1853 247.043 94.4074 247.239 94.6038C247.436 94.7965 247.649 94.9677 247.879 95.1174C248.11 95.2635 248.324 95.3883 248.522 95.4918L249.603 96.0655C249.881 96.2106 250.185 96.3928 250.516 96.6122C250.85 96.8324 251.156 97.0987 251.435 97.4111C251.717 97.7205 251.926 98.083 252.06 98.4984C252.194 98.9138 252.201 99.3873 252.079 99.919C251.939 100.532 251.652 101.049 251.217 101.47C250.786 101.893 250.231 102.179 249.552 102.331C248.876 102.483 248.102 102.46 247.23 102.261C246.418 102.075 245.745 101.783 245.21 101.385C244.679 100.987 244.298 100.515 244.065 99.9687C243.836 99.4229 243.771 98.8348 243.868 98.2043L245.286 98.5286C245.225 98.9654 245.288 99.3528 245.475 99.6909C245.667 100.026 245.94 100.306 246.297 100.532C246.658 100.754 247.064 100.917 247.514 101.02C248.039 101.14 248.529 101.163 248.985 101.088C249.442 101.01 249.827 100.846 250.141 100.595C250.456 100.34 250.66 100.006 250.755 99.5928C250.841 99.2162 250.806 98.8857 250.649 98.6012C250.493 98.3167 250.26 98.0614 249.95 97.8351C249.641 97.6089 249.299 97.3948 248.926 97.1928L247.621 96.4748C246.793 96.0173 246.175 95.4931 245.766 94.9022C245.357 94.3114 245.24 93.6337 245.415 92.8694C245.56 92.2343 245.859 91.7197 246.31 91.3256C246.766 90.9286 247.316 90.6658 247.959 90.537C248.607 90.4055 249.293 90.4224 250.017 90.588C250.748 90.7552 251.368 91.0349 251.876 91.4271C252.386 91.8157 252.755 92.2732 252.985 92.7997C253.218 93.327 253.278 93.879 253.165 94.4555L251.836 94.1515ZM255.017 93.177L255.295 91.9585L263.803 93.9043L263.524 95.1228L259.957 94.307L257.641 104.432L256.268 104.118L258.584 93.9928L255.017 93.177ZM265.611 94.3178L267.25 94.6928L268.952 104.99L269.085 105.021L275.093 96.4866L276.733 96.8616L274.138 108.205L272.853 107.911L274.825 99.2927L274.714 99.2674L269.198 107.075L267.957 106.791L266.383 97.3621L266.273 97.3368L264.302 105.955L263.017 105.661L265.611 94.3178ZM276.581 108.764L279.175 97.4201L286.021 98.9859L285.742 100.204L280.27 98.9528L279.393 102.786L284.511 103.956L284.232 105.175L279.115 104.004L278.233 107.859L283.794 109.131L283.515 110.35L276.581 108.764ZM297.18 101.538L294.585 112.882L293.256 112.578L289.112 102.257L289.001 102.232L286.964 111.138L285.59 110.824L288.185 99.4808L289.514 99.7849L293.676 110.132L293.786 110.158L295.828 101.229L297.18 101.538ZM298.718 103.172L298.996 101.954L307.504 103.899L307.225 105.118L303.658 104.302L301.342 114.427L299.969 114.113L302.285 103.988L298.718 103.172ZM314.867 108.568C314.929 107.991 314.759 107.494 314.357 107.075C313.955 106.657 313.411 106.37 312.724 106.212C312.222 106.098 311.764 106.078 311.35 106.155C310.94 106.232 310.597 106.388 310.322 106.625C310.05 106.862 309.873 107.161 309.79 107.523C309.721 107.826 309.733 108.103 309.827 108.353C309.926 108.601 310.073 108.824 310.269 109.02C310.466 109.213 310.68 109.384 310.91 109.534C311.141 109.68 311.355 109.804 311.553 109.908L312.634 110.482C312.911 110.627 313.216 110.809 313.546 111.028C313.881 111.249 314.187 111.515 314.465 111.827C314.748 112.137 314.956 112.499 315.091 112.914C315.225 113.33 315.231 113.803 315.11 114.335C314.969 114.948 314.682 115.465 314.248 115.887C313.817 116.309 313.262 116.596 312.582 116.747C311.906 116.899 311.132 116.876 310.261 116.677C309.449 116.491 308.775 116.199 308.241 115.801C307.71 115.403 307.328 114.931 307.096 114.385C306.867 113.839 306.801 113.251 306.899 112.62L308.317 112.945C308.256 113.381 308.319 113.769 308.506 114.107C308.697 114.442 308.971 114.722 309.327 114.948C309.688 115.17 310.094 115.333 310.545 115.436C311.069 115.556 311.559 115.579 312.015 115.504C312.472 115.426 312.858 115.262 313.172 115.011C313.486 114.756 313.691 114.422 313.785 114.009C313.872 113.632 313.836 113.302 313.68 113.017C313.524 112.733 313.291 112.477 312.981 112.251C312.671 112.025 312.33 111.811 311.956 111.609L310.652 110.891C309.824 110.433 309.205 109.909 308.797 109.318C308.388 108.727 308.271 108.05 308.445 107.285C308.591 106.65 308.889 106.136 309.341 105.742C309.797 105.345 310.346 105.082 310.99 104.953C311.638 104.822 312.324 104.838 313.047 105.004C313.778 105.171 314.398 105.451 314.907 105.843C315.416 106.232 315.786 106.689 316.015 107.216C316.248 107.743 316.308 108.295 316.196 108.872L314.867 108.568Z" fill="white"/>
<rect x="-6" y="96.0745" width="114" height="31" rx="15.5" transform="rotate(-9.632 -6 96.0745)" fill="#C0E463"/>
<path d="M21.1812 104.647C20.9939 104.291 20.7741 103.981 20.5218 103.716C20.2725 103.447 19.9916 103.23 19.6792 103.064C19.3704 102.897 19.0329 102.787 18.6666 102.734C18.3002 102.681 17.9098 102.69 17.4953 102.76C16.8156 102.876 16.2273 103.156 15.7305 103.601C15.2336 104.047 14.8789 104.639 14.6662 105.378C14.4536 106.118 14.4315 106.984 14.6001 107.977C14.7687 108.971 15.0772 109.781 15.5255 110.408C15.9739 111.035 16.5117 111.476 17.1389 111.73C17.7661 111.985 18.4345 112.052 19.144 111.932C19.8013 111.82 20.3564 111.582 20.8093 111.217C21.2652 110.848 21.5896 110.381 21.7822 109.819C21.9779 109.251 22.0162 108.617 21.897 107.915L22.338 107.932L18.8873 108.518L18.6782 107.285L23.0475 106.544L23.2567 107.776C23.417 108.721 23.3548 109.577 23.07 110.343C22.7889 111.11 22.3281 111.745 21.6876 112.249C21.0501 112.749 20.2758 113.077 19.3646 113.231C18.3488 113.404 17.4157 113.316 16.5653 112.969C15.7186 112.621 15.0057 112.042 14.4267 111.234C13.8514 110.425 13.4611 109.415 13.2557 108.205C13.1017 107.298 13.0846 106.461 13.2044 105.696C13.3273 104.926 13.5694 104.247 13.9307 103.659C14.292 103.071 14.7557 102.589 15.3219 102.213C15.8881 101.836 16.539 101.585 17.2747 101.461C17.8797 101.358 18.4592 101.354 19.013 101.448C19.57 101.538 20.0821 101.714 20.5493 101.977C21.0196 102.235 21.4319 102.57 21.7862 102.983C22.1399 103.392 22.4162 103.865 22.6152 104.404L21.1812 104.647ZM26.2011 111.91L24.7446 112.157L27.0101 99.9697L28.4442 99.7264L34.6037 110.484L33.1472 110.731L28.08 101.655L27.9904 101.671L26.2011 111.91ZM25.9783 107.337L31.8489 106.341L32.0581 107.573L26.1875 108.57L25.9783 107.337ZM34.1281 98.7617L35.7862 98.4803L41.3012 107.342L41.4356 107.319L43.7183 97.1342L45.3764 96.8528L47.3234 108.325L46.0238 108.546L44.5445 99.8294L44.4325 99.8484L42.3266 109.173L41.0719 109.386L36.0075 101.278L35.8955 101.297L37.3747 110.014L36.0751 110.234L34.1281 98.7617ZM49.7933 107.906L47.8464 96.4336L51.8572 95.7529C52.6564 95.6173 53.339 95.6436 53.9049 95.8318C54.4703 96.0164 54.9193 96.3186 55.2518 96.7386C55.5837 97.1548 55.7972 97.643 55.8922 98.2032C55.9759 98.6962 55.9572 99.1181 55.8362 99.4691C55.7189 99.8194 55.5342 100.112 55.2821 100.347C55.0337 100.581 54.7528 100.771 54.4394 100.916L54.4584 101.028C54.8132 100.991 55.187 101.055 55.5798 101.218C55.9726 101.382 56.324 101.653 56.634 102.031C56.944 102.408 57.1504 102.9 57.253 103.505C57.3506 104.08 57.3077 104.619 57.1242 105.123C56.9408 105.627 56.5899 106.061 56.0716 106.425C55.5534 106.79 54.8424 107.049 53.9386 107.202L49.7933 107.906ZM50.9734 106.438L53.7295 105.97C54.6369 105.816 55.2514 105.531 55.5727 105.115C55.8971 104.695 56.0166 104.233 55.931 103.729C55.8651 103.341 55.7053 102.999 55.4516 102.704C55.1973 102.405 54.8703 102.188 54.4707 102.052C54.0705 101.913 53.6202 101.885 53.1198 101.97L50.2965 102.449L50.9734 106.438ZM50.0912 101.239L52.668 100.802C53.0862 100.731 53.4495 100.585 53.7577 100.364C54.0697 100.142 54.2992 99.8644 54.4465 99.532C54.5974 99.1991 54.6387 98.8309 54.5702 98.4276C54.4847 97.9234 54.2366 97.5256 53.826 97.2341C53.4147 96.9389 52.8282 96.856 52.0663 96.9853L49.4447 97.4302L50.0912 101.239ZM59.7374 106.218L57.7904 94.746L59.1796 94.5102L60.9175 104.75L66.2503 103.845L66.4595 105.077L59.7374 106.218ZM67.7373 93.0579L69.6843 104.53L68.295 104.766L66.3481 93.2936L67.7373 93.0579ZM79.3044 91.0948L81.2514 102.567L79.907 102.795L72.1268 94.8487L72.0148 94.8677L73.5435 103.875L72.1542 104.111L70.2073 92.6387L71.5517 92.4105L79.3581 100.376L79.4701 100.357L77.9376 91.3268L79.3044 91.0948ZM90.2197 92.9307C90.0324 92.5744 89.8126 92.264 89.5602 91.9995C89.311 91.7306 89.0301 91.5132 88.7176 91.3472C88.4089 91.1806 88.0713 91.0708 87.705 91.0177C87.3387 90.9646 86.9483 90.9732 86.5338 91.0436C85.8541 91.1589 85.2658 91.4393 84.7689 91.8848C84.2721 92.3303 83.9173 92.9226 83.7047 93.6618C83.492 94.401 83.47 95.2672 83.6386 96.2606C83.8072 97.254 84.1156 98.0642 84.564 98.6912C85.0123 99.3182 85.5501 99.759 86.1773 100.014C86.8046 100.268 87.4729 100.336 88.1825 100.215C88.8398 100.104 89.3948 99.8653 89.8477 99.5003C90.3037 99.1309 90.628 98.6648 90.8206 98.1019C91.0164 97.5347 91.0547 96.9 90.9355 96.1979L91.3764 96.2153L87.9258 96.8009L87.7166 95.5685L92.086 94.827L92.2951 96.0594C92.4555 97.0042 92.3932 97.86 92.1084 98.6268C91.8274 99.393 91.3666 100.028 90.726 100.533C90.0886 101.033 89.3143 101.36 88.403 101.515C87.3873 101.687 86.4542 101.6 85.6037 101.252C84.757 100.904 84.0442 100.326 83.4651 99.5174C82.8898 98.7083 82.4995 97.6987 82.2942 96.4888C82.1402 95.5813 82.123 94.7447 82.2428 93.979C82.3657 93.209 82.6078 92.5301 82.9691 91.9424C83.3304 91.3547 83.7942 90.8726 84.3604 90.4961C84.9266 90.1195 85.5775 89.8688 86.3132 89.744C86.9182 89.6413 87.4976 89.6371 88.0515 89.7313C88.6085 89.8212 89.1206 89.9975 89.5878 90.2601C90.0581 90.5184 90.4704 90.8538 90.8247 91.2662C91.1784 91.6749 91.4547 92.1486 91.6537 92.6873L90.2197 92.9307Z" fill="#1C1C1C"/>
<rect x="104.646" y="85.5278" width="100" height="31" rx="15.5" transform="rotate(-24.7347 104.646 85.5278)" fill="white" fill-opacity="0.17"/>
<path d="M129.246 97.317L124.377 86.7482L130.714 83.8288L131.237 84.9641L126.18 87.2939L127.825 90.865L132.407 88.7539L132.93 89.8892L128.348 92.0003L130.525 96.7274L129.246 97.317ZM133.895 82.3633L138.764 92.9321L137.484 93.5217L132.615 82.9529L133.895 82.3633ZM144.551 77.4542L149.42 88.023L148.181 88.5935L138.599 82.9485L138.496 82.9961L142.319 91.2942L141.039 91.8838L136.17 81.315L137.409 80.7445L147.021 86.4006L147.124 86.3531L143.292 78.0343L144.551 77.4542ZM152.124 86.7774L150.782 87.3955L149.794 75.039L151.115 74.4303L159.865 83.2114L158.523 83.8295L151.266 76.3876L151.183 76.4257L152.124 86.7774ZM150.717 82.4207L156.125 79.9293L156.648 81.0646L151.24 83.5561L150.717 82.4207ZM164.732 68.1572L169.601 78.726L168.362 79.2966L158.78 73.6516L158.677 73.6991L162.5 81.9973L161.22 82.5869L156.351 72.0181L157.59 71.4475L167.202 77.1037L167.305 77.0561L163.473 68.7373L164.732 68.1572ZM177.028 66.4962L175.749 67.0858C175.503 66.7525 175.222 66.4902 174.904 66.2987C174.59 66.1056 174.255 65.9762 173.9 65.9106C173.546 65.84 173.185 65.831 172.818 65.8837C172.45 65.9363 172.09 66.0435 171.739 66.2052C171.1 66.5 170.594 66.9287 170.224 67.4914C169.857 68.0526 169.665 68.7184 169.649 69.4891C169.636 70.2581 169.841 71.1002 170.262 72.0154C170.684 72.9305 171.191 73.6331 171.784 74.1233C172.38 74.6118 173.011 74.8989 173.676 74.9845C174.344 75.0686 174.998 74.9632 175.638 74.6685C175.989 74.5068 176.304 74.3033 176.583 74.058C176.862 73.8127 177.091 73.5344 177.268 73.2231C177.448 72.9069 177.566 72.5666 177.624 72.2023C177.683 71.8331 177.667 71.4486 177.574 71.0491L178.854 70.4595C179.007 71.044 179.054 71.6082 178.996 72.1521C178.938 72.696 178.788 73.2048 178.548 73.6784C178.306 74.1486 177.985 74.5697 177.585 74.9417C177.188 75.312 176.723 75.62 176.19 75.8657C175.289 76.2809 174.386 76.43 173.481 76.313C172.576 76.196 171.735 75.8242 170.959 75.1977C170.182 74.5712 169.537 73.7006 169.024 72.5859C168.51 71.4713 168.268 70.4153 168.296 69.4179C168.325 68.4205 168.588 67.54 169.087 66.7763C169.586 66.0126 170.287 65.4232 171.188 65.0079C171.721 64.7623 172.257 64.6091 172.797 64.5483C173.339 64.486 173.869 64.5173 174.385 64.6423C174.9 64.7638 175.383 64.9793 175.834 65.2886C176.283 65.5945 176.682 65.997 177.028 66.4962ZM182.153 72.9434L177.284 62.3746L183.663 59.4362L184.186 60.5715L179.087 62.9204L180.732 66.4915L185.501 64.2948L186.024 65.4301L181.255 67.6268L182.91 71.2185L188.091 68.8316L188.614 69.967L182.153 72.9434Z" fill="white"/>
<rect x="-2" y="47" width="132" height="31" rx="15.5" fill="#0E5409"/>
<path d="M24.7727 60H23.3636C23.2803 59.5947 23.1345 59.2386 22.9261 58.9318C22.7216 58.625 22.4716 58.3674 22.1761 58.1591C21.8845 57.947 21.5606 57.7879 21.2045 57.6818C20.8485 57.5758 20.4773 57.5227 20.0909 57.5227C19.3864 57.5227 18.7481 57.7008 18.1761 58.0568C17.608 58.4129 17.1553 58.9375 16.8182 59.6307C16.4848 60.3239 16.3182 61.1742 16.3182 62.1818C16.3182 63.1894 16.4848 64.0398 16.8182 64.733C17.1553 65.4261 17.608 65.9508 18.1761 66.3068C18.7481 66.6629 19.3864 66.8409 20.0909 66.8409C20.4773 66.8409 20.8485 66.7879 21.2045 66.6818C21.5606 66.5758 21.8845 66.4186 22.1761 66.2102C22.4716 65.9981 22.7216 65.7386 22.9261 65.4318C23.1345 65.1212 23.2803 64.7652 23.3636 64.3636H24.7727C24.6667 64.9583 24.4735 65.4905 24.1932 65.9602C23.9129 66.4299 23.5644 66.8295 23.1477 67.1591C22.7311 67.4848 22.2633 67.733 21.7443 67.9034C21.2292 68.0739 20.678 68.1591 20.0909 68.1591C19.0985 68.1591 18.2159 67.9167 17.4432 67.4318C16.6705 66.947 16.0625 66.2576 15.6193 65.3636C15.1761 64.4697 14.9545 63.4091 14.9545 62.1818C14.9545 60.9545 15.1761 59.8939 15.6193 59C16.0625 58.1061 16.6705 57.4167 17.4432 56.9318C18.2159 56.447 19.0985 56.2045 20.0909 56.2045C20.678 56.2045 21.2292 56.2898 21.7443 56.4602C22.2633 56.6307 22.7311 56.8807 23.1477 57.2102C23.5644 57.536 23.9129 57.9337 24.1932 58.4034C24.4735 58.8693 24.6667 59.4015 24.7727 60ZM27.207 68H25.7297L30.0024 56.3636H31.457L35.7297 68H34.2524L30.7752 58.2045H30.6843L27.207 68ZM27.7524 63.4545H33.707V64.7045H27.7524V63.4545ZM43.5859 59.2727C43.5177 58.697 43.2412 58.25 42.7563 57.9318C42.2715 57.6136 41.6768 57.4545 40.9722 57.4545C40.4571 57.4545 40.0063 57.5379 39.6199 57.7045C39.2374 57.8712 38.9381 58.1004 38.7222 58.392C38.5101 58.6837 38.404 59.0152 38.404 59.3864C38.404 59.697 38.4779 59.964 38.6256 60.1875C38.7771 60.4072 38.9703 60.5909 39.2052 60.7386C39.44 60.8826 39.6862 61.0019 39.9438 61.0966C40.2014 61.1875 40.4381 61.2614 40.654 61.3182L41.8359 61.6364C42.1389 61.7159 42.476 61.8258 42.8472 61.9659C43.2222 62.1061 43.5802 62.2973 43.9211 62.5398C44.2658 62.7784 44.5499 63.0852 44.7734 63.4602C44.9968 63.8352 45.1086 64.2955 45.1086 64.8409C45.1086 65.4697 44.9438 66.0379 44.6143 66.5455C44.2885 67.053 43.8112 67.4564 43.1824 67.7557C42.5574 68.0549 41.798 68.2045 40.904 68.2045C40.0707 68.2045 39.3491 68.0701 38.7393 67.8011C38.1332 67.5322 37.6559 67.1572 37.3074 66.6761C36.9627 66.1951 36.7677 65.6364 36.7222 65H38.1768C38.2146 65.4394 38.3624 65.803 38.6199 66.0909C38.8813 66.375 39.2109 66.5871 39.6086 66.7273C40.0101 66.8636 40.4419 66.9318 40.904 66.9318C41.4419 66.9318 41.9249 66.8447 42.3529 66.6705C42.7809 66.4924 43.1199 66.2462 43.3699 65.9318C43.6199 65.6136 43.7449 65.2424 43.7449 64.8182C43.7449 64.4318 43.637 64.1174 43.4211 63.875C43.2052 63.6326 42.9211 63.4356 42.5688 63.2841C42.2165 63.1326 41.8359 63 41.4268 62.8864L39.9949 62.4773C39.0859 62.2159 38.3662 61.8428 37.8359 61.358C37.3055 60.8731 37.0404 60.2386 37.0404 59.4545C37.0404 58.803 37.2165 58.2348 37.5688 57.75C37.9249 57.2614 38.4021 56.8826 39.0006 56.6136C39.6029 56.3409 40.2752 56.2045 41.0177 56.2045C41.7677 56.2045 42.4343 56.339 43.0177 56.608C43.601 56.8731 44.0631 57.2367 44.404 57.6989C44.7487 58.161 44.9306 58.6856 44.9495 59.2727H43.5859ZM47.1053 68V56.3636H48.5144V61.5455H54.719V56.3636H56.1281V68H54.719V62.7955H48.5144V68H47.1053ZM62.8091 68V56.3636H64.2182V66.75H69.6273V68H62.8091ZM80.8541 62.1818C80.8541 63.4091 80.6326 64.4697 80.1894 65.3636C79.7462 66.2576 79.1382 66.947 78.3655 67.4318C77.5928 67.9167 76.7102 68.1591 75.7178 68.1591C74.7254 68.1591 73.8428 67.9167 73.0701 67.4318C72.2973 66.947 71.6894 66.2576 71.2462 65.3636C70.803 64.4697 70.5814 63.4091 70.5814 62.1818C70.5814 60.9545 70.803 59.8939 71.2462 59C71.6894 58.1061 72.2973 57.4167 73.0701 56.9318C73.8428 56.447 74.7254 56.2045 75.7178 56.2045C76.7102 56.2045 77.5928 56.447 78.3655 56.9318C79.1382 57.4167 79.7462 58.1061 80.1894 59C80.6326 59.8939 80.8541 60.9545 80.8541 62.1818ZM79.4905 62.1818C79.4905 61.1742 79.322 60.3239 78.9848 59.6307C78.6515 58.9375 78.1988 58.4129 77.6269 58.0568C77.0587 57.7008 76.4223 57.5227 75.7178 57.5227C75.0132 57.5227 74.375 57.7008 73.803 58.0568C73.2348 58.4129 72.7822 58.9375 72.4451 59.6307C72.1117 60.3239 71.9451 61.1742 71.9451 62.1818C71.9451 63.1894 72.1117 64.0398 72.4451 64.733C72.7822 65.4261 73.2348 65.9508 73.803 66.3068C74.375 66.6629 75.0132 66.8409 75.7178 66.8409C76.4223 66.8409 77.0587 66.6629 77.6269 66.3068C78.1988 65.9508 78.6515 65.4261 78.9848 64.733C79.322 64.0398 79.4905 63.1894 79.4905 62.1818ZM82.8339 68H81.3566L85.6293 56.3636H87.0839L91.3566 68H89.8793L86.402 58.2045H86.3111L82.8339 68ZM83.3793 63.4545H89.3339V64.7045H83.3793V63.4545ZM102.076 56.3636V68H100.713L94.3718 58.8636H94.2582V68H92.8491V56.3636H94.2127L100.576 65.5227H100.69V56.3636H102.076ZM110.94 59.2727C110.871 58.697 110.595 58.25 110.11 57.9318C109.625 57.6136 109.031 57.4545 108.326 57.4545C107.811 57.4545 107.36 57.5379 106.974 57.7045C106.591 57.8712 106.292 58.1004 106.076 58.392C105.864 58.6837 105.758 59.0152 105.758 59.3864C105.758 59.697 105.832 59.964 105.979 60.1875C106.131 60.4072 106.324 60.5909 106.559 60.7386C106.794 60.8826 107.04 61.0019 107.298 61.0966C107.555 61.1875 107.792 61.2614 108.008 61.3182L109.19 61.6364C109.493 61.7159 109.83 61.8258 110.201 61.9659C110.576 62.1061 110.934 62.2973 111.275 62.5398C111.62 62.7784 111.904 63.0852 112.127 63.4602C112.351 63.8352 112.462 64.2955 112.462 64.8409C112.462 65.4697 112.298 66.0379 111.968 66.5455C111.642 67.053 111.165 67.4564 110.536 67.7557C109.911 68.0549 109.152 68.2045 108.258 68.2045C107.424 68.2045 106.703 68.0701 106.093 67.8011C105.487 67.5322 105.01 67.1572 104.661 66.6761C104.316 66.1951 104.121 65.6364 104.076 65H105.531C105.568 65.4394 105.716 65.803 105.974 66.0909C106.235 66.375 106.565 66.5871 106.962 66.7273C107.364 66.8636 107.796 66.9318 108.258 66.9318C108.796 66.9318 109.279 66.8447 109.707 66.6705C110.135 66.4924 110.474 66.2462 110.724 65.9318C110.974 65.6136 111.099 65.2424 111.099 64.8182C111.099 64.4318 110.991 64.1174 110.775 63.875C110.559 63.6326 110.275 63.4356 109.923 63.2841C109.57 63.1326 109.19 63 108.781 62.8864L107.349 62.4773C106.44 62.2159 105.72 61.8428 105.19 61.358C104.659 60.8731 104.394 60.2386 104.394 59.4545C104.394 58.803 104.57 58.2348 104.923 57.75C105.279 57.2614 105.756 56.8826 106.354 56.6136C106.957 56.3409 107.629 56.2045 108.371 56.2045C109.121 56.2045 109.788 56.339 110.371 56.608C110.955 56.8731 111.417 57.2367 111.758 57.6989C112.102 58.161 112.284 58.6856 112.303 59.2727H110.94Z" fill="white"/>
<rect x="122" y="31.688" width="92" height="31" rx="15.5" transform="rotate(-14.277 122 31.688)" fill="#C0E463"/>
<path d="M151.152 37.684L149.786 38.0315C149.605 37.6593 149.376 37.3502 149.099 37.1042C148.825 36.8573 148.519 36.6694 148.181 36.5403C147.846 36.4067 147.493 36.3324 147.122 36.3174C146.751 36.3024 146.378 36.3426 146.003 36.4379C145.321 36.6116 144.746 36.9415 144.28 37.4276C143.817 37.9128 143.507 38.5329 143.352 39.2878C143.2 40.0418 143.248 40.907 143.496 41.8834C143.745 42.8599 144.116 43.6429 144.61 44.2325C145.108 44.8211 145.676 45.2179 146.314 45.4228C146.956 45.6269 147.619 45.642 148.301 45.4682C148.676 45.373 149.023 45.23 149.341 45.0394C149.66 44.8488 149.935 44.6166 150.167 44.3428C150.401 44.0644 150.579 43.7513 150.702 43.4035C150.827 43.0511 150.88 42.6701 150.862 42.2604L152.228 41.9129C152.272 42.5154 152.216 43.0788 152.06 43.6031C151.904 44.1274 151.665 44.6006 151.342 45.0228C151.019 45.4412 150.627 45.797 150.166 46.0902C149.709 46.3824 149.196 46.6009 148.627 46.7457C147.665 46.9905 146.75 46.9732 145.881 46.6939C145.013 46.4145 144.254 45.8964 143.604 45.1393C142.954 44.3823 142.477 43.4091 142.175 42.2197C141.872 41.0304 141.825 39.9479 142.034 38.9722C142.243 37.9966 142.663 37.1786 143.292 36.5181C143.921 35.8577 144.717 35.4051 145.678 35.1604C146.247 35.0156 146.803 34.9623 147.344 35.0004C147.889 35.0376 148.404 35.1646 148.889 35.3812C149.373 35.5941 149.809 35.8936 150.196 36.2797C150.583 36.6621 150.901 37.1302 151.152 37.684ZM155.484 44.8366L154.052 45.201L155.323 32.8703L156.733 32.5116L163.743 42.7349L162.311 43.0992L156.526 34.4638L156.438 34.4862L155.484 44.8366ZM154.891 40.2971L160.662 38.8286L160.97 40.04L155.2 41.5085L154.891 40.2971ZM169.204 32.3397C168.996 31.7986 168.618 31.4336 168.07 31.2448C167.521 31.056 166.906 31.0485 166.223 31.2223C165.724 31.3493 165.308 31.5412 164.974 31.798C164.645 32.0539 164.411 32.3498 164.274 32.6857C164.14 33.0206 164.119 33.368 164.211 33.7277C164.287 34.0288 164.425 34.2693 164.623 34.4495C164.824 34.625 165.056 34.7554 165.32 34.8407C165.584 34.9223 165.852 34.9772 166.125 35.0054C166.397 35.03 166.644 35.0432 166.868 35.045L168.091 35.0619C168.405 35.0643 168.758 35.0876 169.153 35.1319C169.551 35.1752 169.945 35.2723 170.335 35.4232C170.728 35.5695 171.079 35.7967 171.388 36.1051C171.697 36.4134 171.919 36.8318 172.053 37.3604C172.208 37.9698 172.189 38.5611 171.995 39.1342C171.804 39.7065 171.441 40.2151 170.905 40.6602C170.373 41.1043 169.674 41.4366 168.808 41.6571C168 41.8626 167.268 41.9102 166.611 41.8C165.957 41.6888 165.402 41.4431 164.946 41.0628C164.493 40.6816 164.166 40.1883 163.965 39.5828L165.375 39.2241C165.52 39.6405 165.753 39.9565 166.073 40.172C166.397 40.3828 166.768 40.5071 167.188 40.5449C167.611 40.578 168.046 40.5376 168.494 40.4236C169.015 40.291 169.462 40.0875 169.834 39.813C170.205 39.535 170.473 39.2127 170.637 38.8464C170.801 38.4764 170.831 38.0858 170.726 37.6747C170.631 37.3003 170.449 37.0222 170.18 36.8405C169.911 36.6588 169.587 36.538 169.208 36.478C168.829 36.4181 168.428 36.3835 168.003 36.3742L166.515 36.3309C165.569 36.3018 164.78 36.1177 164.146 35.7786C163.513 35.4395 163.099 34.89 162.906 34.1301C162.745 33.4987 162.776 32.9046 162.998 32.3479C163.222 31.7865 163.591 31.3018 164.105 30.8935C164.621 30.4807 165.239 30.1827 165.959 29.9996C166.686 29.8147 167.365 29.7806 167.997 29.8974C168.627 30.0105 169.165 30.2489 169.609 30.6127C170.057 30.9755 170.363 31.4391 170.526 32.0034L169.204 32.3397ZM173.263 28.3051L176.133 39.582L174.767 39.9295L171.898 28.6525L173.263 28.3051ZM184.634 25.4117L187.503 36.6887L186.182 37.025L177.783 29.7345L177.673 29.7625L179.926 38.6167L178.561 38.9642L175.691 27.6872L177.013 27.3509L185.439 34.6578L185.549 34.6298L183.29 25.7536L184.634 25.4117ZM198.006 28.0125C198.308 29.2019 198.355 30.2844 198.146 31.26C197.937 32.2356 197.518 33.0536 196.889 33.7141C196.259 34.3745 195.464 34.8271 194.502 35.0718C193.54 35.3166 192.625 35.2993 191.757 35.02C190.888 34.7407 190.129 34.2225 189.479 33.4655C188.829 32.7084 188.353 31.7352 188.05 30.5459C187.748 29.3565 187.701 28.274 187.91 27.2984C188.119 26.3227 188.538 25.5047 189.167 24.8443C189.797 24.1838 190.592 23.7313 191.554 23.4865C192.516 23.2418 193.431 23.2591 194.299 23.5384C195.168 23.8177 195.927 24.3359 196.577 25.0929C197.227 25.8499 197.703 26.8231 198.006 28.0125ZM196.684 28.3488C196.436 27.3723 196.063 26.5898 195.565 26.0012C195.071 25.4116 194.503 25.0148 193.861 24.8108C193.222 24.6058 192.562 24.5902 191.879 24.764C191.196 24.9377 190.622 25.2677 190.155 25.7538C189.692 26.239 189.383 26.859 189.227 27.6139C189.075 28.3679 189.123 29.2331 189.372 30.2096C189.62 31.186 189.991 31.969 190.485 32.5586C190.983 33.1472 191.551 33.544 192.19 33.749C192.832 33.953 193.494 33.9681 194.177 33.7944C194.86 33.6206 195.433 33.2912 195.895 32.806C196.362 32.3199 196.671 31.6998 196.823 30.9458C196.979 30.1909 196.933 29.3252 196.684 28.3488Z" fill="#1C1C1C"/>
<rect x="267" y="57" width="88" height="31" rx="15.5" fill="white" fill-opacity="0.17"/>
<path d="M292.364 70C292.239 69.6174 292.074 69.2746 291.869 68.9716C291.669 68.6648 291.428 68.4034 291.148 68.1875C290.871 67.9716 290.557 67.8068 290.205 67.6932C289.852 67.5795 289.466 67.5227 289.045 67.5227C288.356 67.5227 287.729 67.7008 287.165 68.0568C286.6 68.4129 286.152 68.9375 285.818 69.6307C285.485 70.3239 285.318 71.1742 285.318 72.1818C285.318 73.1894 285.487 74.0398 285.824 74.733C286.161 75.4261 286.617 75.9508 287.193 76.3068C287.769 76.6629 288.417 76.8409 289.136 76.8409C289.803 76.8409 290.39 76.6989 290.898 76.4148C291.409 76.1269 291.807 75.7216 292.091 75.1989C292.379 74.6723 292.523 74.053 292.523 73.3409L292.955 73.4318H289.455V72.1818H293.886V73.4318C293.886 74.3902 293.682 75.2235 293.273 75.9318C292.867 76.6402 292.307 77.1894 291.591 77.5795C290.879 77.9659 290.061 78.1591 289.136 78.1591C288.106 78.1591 287.201 77.9167 286.42 77.4318C285.644 76.947 285.038 76.2576 284.602 75.3636C284.17 74.4697 283.955 73.4091 283.955 72.1818C283.955 71.2614 284.078 70.4337 284.324 69.6989C284.574 68.9602 284.926 68.3314 285.381 67.8125C285.835 67.2936 286.373 66.8958 286.994 66.6193C287.616 66.3428 288.299 66.2045 289.045 66.2045C289.659 66.2045 290.231 66.2973 290.761 66.483C291.295 66.6648 291.771 66.9242 292.188 67.2614C292.608 67.5947 292.958 67.9943 293.239 68.4602C293.519 68.9223 293.712 69.4356 293.818 70H292.364ZM296.098 78H294.62L298.893 66.3636H300.348L304.62 78H303.143L299.666 68.2045H299.575L296.098 78ZM296.643 73.4545H302.598V74.7045H296.643V73.4545ZM306.113 66.3636H307.795L311.749 76.0227H311.886L315.84 66.3636H317.522V78H316.204V69.1591H316.09L312.454 78H311.181L307.545 69.1591H307.431V78H306.113V66.3636ZM320.027 78V66.3636H327.05V67.6136H321.436V71.5455H326.686V72.7955H321.436V76.75H327.141V78H320.027ZM335.633 69.2727C335.565 68.697 335.289 68.25 334.804 67.9318C334.319 67.6136 333.724 67.4545 333.02 67.4545C332.505 67.4545 332.054 67.5379 331.667 67.7045C331.285 67.8712 330.986 68.1004 330.77 68.392C330.558 68.6837 330.452 69.0152 330.452 69.3864C330.452 69.697 330.525 69.964 330.673 70.1875C330.825 70.4072 331.018 70.5909 331.253 70.7386C331.488 70.8826 331.734 71.0019 331.991 71.0966C332.249 71.1875 332.486 71.2614 332.702 71.3182L333.883 71.6364C334.186 71.7159 334.524 71.8258 334.895 71.9659C335.27 72.1061 335.628 72.2973 335.969 72.5398C336.313 72.7784 336.597 73.0852 336.821 73.4602C337.044 73.8352 337.156 74.2955 337.156 74.8409C337.156 75.4697 336.991 76.0379 336.662 76.5455C336.336 77.053 335.859 77.4564 335.23 77.7557C334.605 78.0549 333.845 78.2045 332.952 78.2045C332.118 78.2045 331.397 78.0701 330.787 77.8011C330.181 77.5322 329.703 77.1572 329.355 76.6761C329.01 76.1951 328.815 75.6364 328.77 75H330.224C330.262 75.4394 330.41 75.803 330.667 76.0909C330.929 76.375 331.258 76.5871 331.656 76.7273C332.058 76.8636 332.489 76.9318 332.952 76.9318C333.489 76.9318 333.972 76.8447 334.4 76.6705C334.828 76.4924 335.167 76.2462 335.417 75.9318C335.667 75.6136 335.792 75.2424 335.792 74.8182C335.792 74.4318 335.684 74.1174 335.469 73.875C335.253 73.6326 334.969 73.4356 334.616 73.2841C334.264 73.1326 333.883 73 333.474 72.8864L332.042 72.4773C331.133 72.2159 330.414 71.8428 329.883 71.358C329.353 70.8731 329.088 70.2386 329.088 69.4545C329.088 68.803 329.264 68.2348 329.616 67.75C329.972 67.2614 330.45 66.8826 331.048 66.6136C331.65 66.3409 332.323 66.2045 333.065 66.2045C333.815 66.2045 334.482 66.339 335.065 66.608C335.649 66.8731 336.111 67.2367 336.452 67.6989C336.796 68.161 336.978 68.6856 336.997 69.2727H335.633Z" fill="white"/>
<rect x="199" y="41.9883" width="123" height="31" rx="15.5" transform="rotate(-12.1978 199 41.9883)" fill="#0E5409"/>
<path d="M219.372 47.1644L221.83 58.5381L220.453 58.8358L217.994 47.4621L219.372 47.1644ZM230.839 44.6855L233.298 56.0591L231.965 56.3472L223.837 48.7569L223.726 48.7809L225.656 57.711L224.279 58.0087L221.82 46.6351L223.153 46.347L231.308 53.9547L231.419 53.9307L229.484 44.9784L230.839 44.6855ZM240.117 45.6562C239.929 45.1078 239.564 44.7294 239.023 44.5208C238.482 44.3123 237.867 44.2824 237.178 44.4313C236.675 44.5401 236.252 44.7168 235.909 44.9614C235.571 45.2051 235.326 45.4923 235.177 45.823C235.031 46.1529 234.998 46.4993 235.076 46.8621C235.142 47.1657 235.27 47.4111 235.462 47.5983C235.657 47.7811 235.884 47.9198 236.145 48.0146C236.405 48.1057 236.671 48.1703 236.943 48.2084C237.213 48.2428 237.46 48.265 237.684 48.2749L238.906 48.3362C239.219 48.3499 239.572 48.3861 239.964 48.4446C240.36 48.5024 240.75 48.6137 241.135 48.7786C241.522 48.9391 241.865 49.1789 242.162 49.4982C242.46 49.8176 242.667 50.2438 242.782 50.7769C242.915 51.3915 242.874 51.9817 242.659 52.5474C242.448 53.1124 242.066 53.6075 241.515 54.0329C240.967 54.4574 240.257 54.7641 239.383 54.953C238.568 55.1291 237.835 55.1501 237.182 55.0161C236.533 54.8813 235.987 54.6156 235.545 54.219C235.106 53.8216 234.797 53.3168 234.618 52.7044L236.04 52.397C236.17 52.8185 236.391 53.1427 236.704 53.3697C237.019 53.5921 237.386 53.7298 237.805 53.7828C238.226 53.8312 238.662 53.8066 239.114 53.709C239.64 53.5954 240.093 53.4082 240.475 53.1474C240.856 52.883 241.135 52.5707 241.313 52.2106C241.49 51.8467 241.534 51.4575 241.444 51.0428C241.363 50.6652 241.191 50.3807 240.928 50.1894C240.666 49.998 240.347 49.8655 239.97 49.7919C239.594 49.7182 239.194 49.6691 238.77 49.6444L237.284 49.5471C236.34 49.4837 235.558 49.2711 234.937 48.9092C234.317 48.5474 233.923 47.9833 233.758 47.2169C233.62 46.5801 233.672 45.9875 233.914 45.4392C234.159 44.8863 234.545 44.4153 235.073 44.0259C235.604 43.6321 236.233 43.3568 236.959 43.1999C237.692 43.0414 238.372 43.032 238.999 43.1716C239.625 43.3075 240.153 43.5653 240.584 43.945C241.019 44.3238 241.307 44.7982 241.45 45.3681L240.117 45.6562ZM250.406 40.4557L251.784 40.158L253.411 47.6886C253.58 48.4661 253.546 49.1999 253.312 49.89C253.08 50.5756 252.671 51.1659 252.084 51.6609C251.497 52.1522 250.757 52.4943 249.865 52.6871C248.973 52.88 248.157 52.8741 247.419 52.6693C246.681 52.4608 246.062 52.0926 245.565 51.5647C245.07 51.0322 244.738 50.3772 244.57 49.5998L242.942 42.0691L244.32 41.7714L245.924 49.191C246.044 49.7463 246.273 50.2142 246.611 50.5945C246.948 50.9712 247.369 51.2347 247.874 51.3851C248.383 51.531 248.953 51.5356 249.586 51.3987C250.219 51.2619 250.737 51.022 251.14 50.6792C251.542 50.3327 251.816 49.9187 251.964 49.4372C252.115 48.9512 252.13 48.4306 252.01 47.8752L250.406 40.4557ZM256.68 51.0047L254.221 39.631L258.064 38.8003C258.953 38.6082 259.715 38.6023 260.351 38.7827C260.986 38.9593 261.497 39.2809 261.885 39.7474C262.272 40.2139 262.539 40.7822 262.683 41.4523C262.828 42.1225 262.82 42.7463 262.658 43.3239C262.496 43.9014 262.164 44.3995 261.661 44.8182C261.158 45.2331 260.466 45.5358 259.585 45.7263L256.475 46.3986L256.206 45.1546L259.271 44.4919C259.879 44.3606 260.348 44.1661 260.68 43.9084C261.015 43.6499 261.231 43.3397 261.327 42.9778C261.427 42.6115 261.427 42.2007 261.328 41.7453C261.23 41.2899 261.059 40.9103 260.815 40.6065C260.571 40.3027 260.242 40.0986 259.828 39.9943C259.413 39.8864 258.899 39.8988 258.284 40.0317L255.863 40.5551L258.057 50.707L256.68 51.0047ZM260.929 44.7381L264.832 49.2423L263.233 49.5881L259.374 45.0743L260.929 44.7381ZM266.837 48.809L265.393 49.1212L267.111 36.8447L268.532 36.5374L275.167 47.0083L273.723 47.3204L268.255 38.4808L268.166 38.5L266.837 48.809ZM266.41 44.251L272.23 42.9928L272.494 44.2146L266.674 45.4727L266.41 44.251ZM283.186 33.3697L285.645 44.7433L284.312 45.0315L276.184 37.4411L276.073 37.4651L278.003 46.3952L276.626 46.6929L274.167 35.3193L275.5 35.0312L283.655 42.6389L283.766 42.6149L281.831 33.6626L283.186 33.3697ZM295.55 34.4174L294.173 34.7151C294.006 34.3366 293.788 34.0194 293.519 33.7635C293.255 33.5068 292.956 33.3079 292.623 33.1667C292.293 33.021 291.943 32.9339 291.573 32.9055C291.202 32.877 290.828 32.9036 290.451 32.9852C289.762 33.1341 289.176 33.443 288.692 33.9119C288.212 34.3799 287.88 34.9883 287.697 35.7371C287.518 36.4851 287.535 37.3515 287.747 38.3363C287.96 39.3211 288.303 40.1171 288.775 40.7242C289.251 41.3305 289.804 41.7476 290.435 41.9756C291.069 42.2028 291.731 42.2419 292.419 42.0931C292.797 42.0114 293.149 41.8812 293.474 41.7023C293.8 41.5234 294.083 41.3013 294.324 41.036C294.568 40.7663 294.758 40.4598 294.893 40.1167C295.031 39.7691 295.098 39.3903 295.095 38.9802L296.472 38.6825C296.494 39.2862 296.418 39.8472 296.243 40.3655C296.068 40.8838 295.812 41.348 295.474 41.7582C295.136 42.1646 294.731 42.506 294.26 42.7822C293.792 43.0577 293.272 43.2574 292.698 43.3815C291.728 43.5912 290.814 43.5407 289.956 43.2301C289.099 42.9194 288.359 42.3741 287.737 41.5939C287.115 40.8138 286.674 39.824 286.415 38.6244C286.155 37.4248 286.148 36.3414 286.392 35.374C286.636 34.4066 287.085 33.6043 287.738 32.9671C288.391 32.3299 289.202 31.9065 290.172 31.6968C290.746 31.5728 291.303 31.5396 291.842 31.5974C292.385 31.6544 292.895 31.7999 293.372 32.0339C293.848 32.2643 294.273 32.5794 294.646 32.9793C295.019 33.3755 295.32 33.8548 295.55 34.4174ZM299.153 41.8233L296.695 30.4496L303.559 28.9658L303.823 30.1876L298.336 31.3737L299.167 35.2167L304.298 34.1075L304.562 35.3293L299.431 36.4385L300.266 40.3038L305.842 39.0985L306.106 40.3203L299.153 41.8233Z" fill="white"/>
</g>
<defs>
<clipPath id="clip0_2265_681">
<rect width="358" height="276" fill="white"/>
</clipPath>
</defs>
</svg>
