<svg width="321" height="200" viewBox="0 0 321 200" fill="none" xmlns="http://www.w3.org/2000/svg">
<rect x="0.5" width="320" height="200" rx="16" fill="#262626"/>
<path d="M250.146 98.1844C250.727 98.3005 251.256 98.4942 251.682 98.9072C252.276 99.501 252.379 100.263 252.224 101.076C252.095 101.734 251.889 102.379 251.54 102.973C251.114 103.709 250.585 104.367 249.914 104.858C249.242 105.335 248.533 105.761 247.835 106.174C247.552 106.342 247.216 106.42 246.893 106.549C246.532 106.691 246.17 106.846 245.796 106.962C245.28 107.117 244.763 107.259 244.234 107.375C243.537 107.53 242.827 107.672 242.117 107.814C241.962 107.84 241.807 107.878 241.653 107.891C241.175 107.956 240.684 108.02 240.207 108.072C240.117 108.085 239.949 108.059 239.91 107.956C239.871 107.84 239.987 107.698 240.065 107.659C240.646 107.362 241.227 107.117 241.898 107.013C242.918 106.871 243.937 106.691 244.918 106.316C245.293 106.174 245.693 106.084 246.067 105.916C246.454 105.748 246.829 105.529 247.203 105.31C247.771 104.974 248.274 104.535 248.687 104.006C248.984 103.632 249.23 103.218 249.384 102.741C249.565 102.186 249.643 101.644 249.591 101.063C249.526 100.301 248.765 99.4106 248.107 99.2428C247.087 98.9847 246.145 99.1396 245.215 99.5268C244.17 99.9657 243.344 100.727 242.504 101.463C241.717 102.147 241.11 102.999 240.452 103.799C240.194 104.122 239.987 104.522 239.794 104.897C239.549 105.348 239.316 105.8 239.11 106.265C238.968 106.587 238.864 106.923 238.787 107.272C238.619 108.136 238.555 109.027 238.787 109.892C238.903 110.357 239.148 110.796 239.419 111.183C239.691 111.57 240.052 111.893 240.4 112.215C240.555 112.357 240.762 112.461 240.968 112.538C241.459 112.719 241.937 112.925 242.479 112.9C242.814 112.887 243.163 112.9 243.498 112.887C244.144 112.874 244.75 112.68 245.318 112.383C245.873 112.099 246.429 111.828 246.945 111.493C247.513 111.118 248.068 110.692 248.558 110.228C249.32 109.505 250.211 109.182 251.23 109.234C251.321 109.234 251.463 109.272 251.488 109.363C251.514 109.453 251.424 109.543 251.359 109.595C250.649 110.163 249.965 110.77 249.217 111.26C248.352 111.828 247.448 112.306 246.532 112.796C246.17 112.99 245.77 113.08 245.383 113.209C245.112 113.3 244.841 113.403 244.57 113.467C243.989 113.609 243.395 113.726 242.814 113.842C241.769 114.035 240.736 114.048 239.678 113.829C238.903 113.674 238.206 113.351 237.574 112.887C237.161 112.577 236.864 112.151 236.606 111.686C235.986 110.576 235.947 109.376 236.102 108.149C236.154 107.775 236.296 107.401 236.412 107.039C236.528 106.704 236.683 106.368 236.838 106.058C237.031 105.671 237.212 105.258 237.457 104.909C237.922 104.251 238.387 103.606 238.916 102.999C239.381 102.47 239.884 101.966 240.426 101.502C241.085 100.934 241.782 100.417 242.492 99.9011C242.814 99.6688 243.615 99.2299 243.963 99.0492C244.712 98.6491 245.744 98.3522 246.493 98.2102C248.042 97.8875 249.372 98.0295 250.146 98.1844Z" fill="#3C3C3D"/>
<path d="M213.32 101.733C213.733 101.32 214.133 100.933 214.508 100.52C215.076 99.9005 215.721 99.3841 216.418 98.9582C217.154 98.5064 217.941 98.1966 218.742 97.9643C219.684 97.7061 220.639 97.4867 221.633 97.6287C222.614 97.7706 223.414 98.2095 223.918 99.1776C224.253 99.8101 224.421 100.481 224.486 101.191C224.499 101.32 224.524 101.462 224.576 101.591C224.654 101.772 224.77 101.772 224.899 101.63C225.338 101.127 225.751 100.598 226.228 100.133C226.68 99.6939 227.222 99.3454 227.713 98.9582C228.358 98.4548 229.107 98.1966 229.855 97.9643C230.901 97.6416 231.998 97.4738 233.082 97.6674C233.973 97.8223 234.683 98.3257 235.083 99.2293C235.341 99.8101 235.483 100.43 235.535 101.062C235.6 101.901 235.574 102.753 235.419 103.579C235.277 104.341 235.186 105.102 235.045 105.851C234.928 106.471 234.748 107.077 234.606 107.684C234.528 108.02 234.438 108.342 234.347 108.678C234.218 109.156 234.102 109.633 233.973 110.111C233.857 110.524 233.702 110.937 233.573 111.337C233.47 111.66 233.366 111.982 233.25 112.318C233.147 112.628 233.057 112.963 232.915 113.26C232.837 113.428 232.669 113.609 232.515 113.66C231.985 113.854 231.443 114.048 230.862 113.983C230.501 113.944 230.385 113.828 230.488 113.454C230.591 113.067 230.733 112.705 230.862 112.331C230.991 111.944 231.146 111.556 231.262 111.156C231.534 110.266 231.792 109.375 232.037 108.484C232.179 107.942 232.282 107.387 232.398 106.845C232.824 105.077 233.095 102.508 232.85 101.101C232.811 100.572 232.657 100.03 232.347 99.5778C231.959 99.0356 231.43 98.8549 230.811 98.9324C230.165 98.9969 229.61 99.3325 229.081 99.7068C228.242 100.301 227.545 101.049 226.951 101.875C226.525 102.469 226.177 103.14 225.815 103.786C225.454 104.457 225.118 105.154 224.783 105.851C224.679 106.071 224.589 106.303 224.512 106.522C224.292 107.09 224.073 107.658 223.866 108.226C223.556 109.091 223.234 109.969 222.95 110.846C222.795 111.285 222.704 111.75 222.562 112.202C222.446 112.589 222.304 112.963 222.136 113.325C222.072 113.467 221.917 113.609 221.775 113.66C221.207 113.841 220.652 114.061 220.045 113.996C219.71 113.97 219.619 113.841 219.723 113.493C219.981 112.628 220.226 111.763 220.484 110.898C220.704 110.162 220.949 109.44 221.143 108.704C221.297 108.149 221.401 107.581 221.504 107.013C221.646 106.303 221.762 105.593 221.878 104.87C222.059 103.747 222.072 102.611 221.852 101.488C221.762 101.023 221.646 100.546 221.465 100.12C220.949 98.9195 219.929 98.429 218.677 98.9065C217.593 99.3196 216.896 100.223 216.186 101.101C215.773 101.604 215.386 102.121 215.011 102.65C214.766 102.998 214.547 103.373 214.34 103.734C214.121 104.108 213.914 104.496 213.72 104.896C213.398 105.541 213.088 106.174 212.778 106.832C212.533 107.374 212.288 107.929 212.068 108.484C211.836 109.091 211.629 109.698 211.423 110.317C211.281 110.73 211.126 111.143 210.997 111.569C210.881 111.918 210.726 112.266 210.687 112.628C210.635 113.183 210.326 113.493 209.874 113.648C209.422 113.802 208.932 113.919 208.454 113.983C208.002 114.048 207.912 113.893 208.002 113.428C208.26 112.124 208.531 110.821 208.802 109.53C208.957 108.768 209.138 108.02 209.332 107.258C209.538 106.432 209.783 105.632 210.003 104.806C210.3 103.708 210.584 102.611 210.919 101.527C211.126 100.843 211.384 100.172 211.616 99.4874C211.707 99.2034 211.797 98.9195 211.913 98.6484C211.978 98.4935 212.081 98.3257 212.21 98.2482C212.494 98.0933 212.791 97.9772 213.101 97.8868C213.398 97.7965 213.708 97.719 214.004 97.6803C214.327 97.6416 214.482 97.8739 214.392 98.1966C214.25 98.6871 214.082 99.1776 213.927 99.6681C213.733 100.275 213.553 100.894 213.372 101.501C213.294 101.579 213.32 101.656 213.32 101.733Z" fill="#3C3C3D"/>
<path d="M204.761 98.6623C204.761 98.6623 204.968 98.3913 205.2 98.288C205.587 98.1331 205.923 98.0944 206.336 98.1847C206.685 98.2622 207.007 98.5591 206.93 98.8688C206.723 99.695 204.852 104.535 204.606 105.039C204.568 105.116 204.529 105.207 204.516 105.297C204.374 106.278 204.232 107.272 204.103 108.253C204.064 108.511 204.064 108.782 204.051 109.04C203.987 109.996 204.168 110.938 204.271 111.88C204.297 112.177 204.426 112.474 204.477 112.771C204.555 113.197 204.477 113.287 204.116 113.507C203.625 113.791 203.083 113.92 202.528 113.984C202.102 114.036 201.909 113.765 201.831 113.416C201.625 112.513 201.47 111.609 201.47 110.68C201.47 110.305 201.47 109.931 201.457 109.57C201.457 109.518 201.431 109.466 201.418 109.35C201.25 109.466 201.121 109.544 200.992 109.647C200.256 110.254 199.546 110.899 198.785 111.441C198.114 111.919 197.391 112.293 196.668 112.693C196.19 112.952 195.7 113.197 195.196 113.377C194.241 113.713 193.273 113.881 192.253 113.803C191.479 113.739 190.821 113.442 190.253 112.926C189.814 112.526 189.452 112.048 189.233 111.441C188.833 110.292 188.897 109.169 189.22 108.034C189.388 107.427 189.607 106.833 189.878 106.265C190.266 105.465 190.692 104.665 191.285 103.993C191.969 103.232 192.615 102.431 193.351 101.734C193.996 101.128 194.745 100.624 195.455 100.108C195.842 99.837 196.255 99.6175 196.681 99.3852C196.926 99.2561 198.152 98.6881 199.017 98.5074C200.14 98.2622 201.883 98.1202 203.07 98.2105C203.561 98.2493 204.038 98.3913 204.529 98.4816C204.529 98.4816 204.619 98.5203 204.568 98.7398C204.529 98.9076 204.387 98.985 204.297 99.0237C203.987 99.1916 203.677 99.3206 203.367 99.4497C203.032 99.5917 202.696 99.6046 202.347 99.5272C201.896 99.4368 201.431 99.3206 200.966 99.2948C199.921 99.2174 198.901 99.3335 197.933 99.824C197.184 100.211 196.461 100.624 195.855 101.244C195.222 101.876 194.59 102.522 194.022 103.206C193.57 103.735 193.183 104.342 192.821 104.936C192.524 105.426 192.253 105.955 192.047 106.497C191.853 107.053 191.75 107.646 191.634 108.227C191.453 109.169 191.556 110.086 191.918 110.989C192.279 111.906 193.454 112.655 194.37 112.577C194.925 112.526 195.455 112.371 195.945 112.074C196.449 111.764 196.991 111.493 197.455 111.119C198.565 110.202 199.546 109.144 200.45 107.995C200.786 107.569 201.121 107.143 201.431 106.691C201.638 106.394 201.857 106.084 201.973 105.736C202.193 105.116 202.335 104.458 202.541 103.826C202.735 103.193 202.928 102.548 203.187 101.941C203.458 101.257 203.806 100.586 204.103 99.9144C204.219 99.6692 204.761 98.6623 204.761 98.6623Z" fill="#3C3C3D"/>
<path d="M146.585 89.8451C146.121 89.8709 145.656 89.858 145.204 89.9484C144.52 90.0904 143.823 90.2453 143.165 90.4905C142.3 90.8261 141.461 91.2392 140.661 91.7168C139.783 92.2331 138.996 92.8527 138.208 93.4852C137.847 93.7821 137.537 94.1693 137.15 94.3887C136.582 94.7114 135.923 94.8405 135.265 94.8276C135.188 94.8276 135.059 94.7372 135.059 94.7114C135.072 94.5823 135.097 94.4275 135.175 94.35C135.614 93.9499 136.065 93.5368 136.543 93.1883C137.292 92.6332 138.04 92.0911 138.828 91.5877C139.383 91.2392 139.989 90.9552 140.583 90.6712C141.125 90.4001 141.68 90.1549 142.248 89.9226C142.623 89.7677 143.023 89.6773 143.423 89.5611C143.823 89.445 144.223 89.3417 144.623 89.2384C146.211 88.8512 147.812 88.6447 149.425 88.877C150.109 88.9803 150.793 89.1352 151.452 89.3546C151.904 89.5095 152.304 89.8193 152.73 90.0645C153.298 90.3872 153.711 90.8777 154.098 91.3812C154.769 92.2589 155.169 93.2657 155.363 94.3758C155.505 95.189 155.621 96.0151 155.518 96.8413C155.415 97.6286 155.273 98.416 155.118 99.1905C155.027 99.6939 154.911 100.197 154.769 100.688C154.653 101.114 154.485 101.54 154.33 101.966C154.15 102.443 153.956 102.921 153.749 103.386C153.543 103.85 153.323 104.315 153.078 104.754C152.768 105.322 152.446 105.877 152.084 106.406C151.658 107.013 151.194 107.594 150.716 108.136C150.251 108.665 149.761 109.181 149.232 109.659C148.702 110.124 148.134 110.55 147.579 110.963C147.218 111.234 146.844 111.479 146.469 111.698C146.043 111.944 145.592 112.163 145.153 112.383C144.998 112.46 144.843 112.563 144.688 112.628C144.107 112.873 143.526 113.131 142.932 113.364C142.623 113.48 142.3 113.583 141.99 113.648C141.074 113.815 140.17 114.061 139.228 113.996C139.073 113.983 138.841 113.919 138.815 113.828C138.75 113.635 138.931 113.506 139.099 113.402C139.68 113.028 140.325 112.899 140.996 112.925C141.848 112.963 142.649 112.77 143.436 112.408C144.314 112.008 145.101 111.479 145.85 110.885C146.895 110.046 147.838 109.104 148.651 108.02C149.167 107.323 149.67 106.613 150.161 105.877C150.393 105.528 150.574 105.128 150.768 104.741C151.09 104.096 151.4 103.463 151.697 102.805C151.826 102.508 151.942 102.198 152.033 101.901C152.162 101.501 152.278 101.088 152.368 100.675C152.497 100.12 152.588 99.5649 152.704 99.0098C152.975 97.719 152.962 96.4153 152.768 95.1116C152.652 94.2984 152.42 93.4981 152.046 92.7752C151.749 92.2073 151.374 91.7039 150.897 91.2779C150.445 90.8648 149.916 90.5809 149.361 90.3614C148.47 89.9871 147.541 89.8451 146.585 89.8451Z" fill="#3C3C3D"/>
<path d="M185.837 98.1844C186.418 98.3005 186.948 98.4942 187.373 98.9072C187.967 99.501 188.071 100.263 187.916 101.076C187.787 101.734 187.58 102.379 187.232 102.973C186.806 103.709 186.276 104.367 185.605 104.858C184.934 105.335 184.224 105.761 183.527 106.174C183.243 106.342 182.907 106.42 182.585 106.549C182.223 106.691 181.862 106.846 181.487 106.962C180.971 107.117 180.455 107.259 179.926 107.375C179.229 107.53 178.519 107.672 177.809 107.814C177.654 107.84 177.499 107.878 177.344 107.891C176.866 107.956 176.376 108.02 175.898 108.072C175.808 108.085 175.64 108.059 175.601 107.956C175.563 107.84 175.679 107.698 175.756 107.659C176.337 107.362 176.918 107.117 177.589 107.013C178.609 106.871 179.629 106.691 180.61 106.316C180.984 106.174 181.384 106.084 181.759 105.916C182.146 105.748 182.52 105.529 182.894 105.31C183.462 104.974 183.966 104.535 184.379 104.006C184.676 103.632 184.921 103.218 185.076 102.741C185.257 102.186 185.334 101.644 185.282 101.063C185.218 100.301 184.456 99.4106 183.798 99.2428C182.778 98.9847 181.836 99.1396 180.907 99.5268C179.861 99.9657 179.035 100.727 178.196 101.463C177.408 102.147 176.802 102.999 176.144 103.799C175.885 104.122 175.679 104.522 175.485 104.897C175.24 105.348 175.008 105.8 174.801 106.265C174.659 106.587 174.556 106.923 174.478 107.272C174.311 108.136 174.246 109.027 174.478 109.892C174.595 110.357 174.84 110.796 175.111 111.183C175.382 111.57 175.743 111.893 176.092 112.215C176.247 112.357 176.453 112.461 176.66 112.538C177.15 112.719 177.628 112.925 178.17 112.9C178.506 112.887 178.854 112.9 179.19 112.887C179.835 112.874 180.442 112.68 181.01 112.383C181.565 112.099 182.12 111.828 182.636 111.493C183.204 111.118 183.759 110.692 184.25 110.228C185.011 109.505 185.902 109.182 186.922 109.234C187.012 109.234 187.154 109.272 187.18 109.363C187.206 109.453 187.115 109.543 187.051 109.595C186.341 110.163 185.657 110.77 184.908 111.26C184.043 111.828 183.14 112.306 182.223 112.796C181.862 112.99 181.462 113.08 181.074 113.209C180.803 113.3 180.532 113.403 180.261 113.467C179.68 113.609 179.087 113.726 178.506 113.842C177.46 114.035 176.427 114.048 175.369 113.829C174.595 113.674 173.898 113.351 173.265 112.887C172.852 112.577 172.555 112.151 172.297 111.686C171.677 110.576 171.639 109.376 171.794 108.149C171.845 107.775 171.987 107.401 172.103 107.039C172.219 106.704 172.374 106.368 172.529 106.058C172.723 105.671 172.904 105.258 173.149 104.909C173.614 104.251 174.078 103.606 174.607 102.999C175.072 102.47 175.576 101.966 176.118 101.502C176.776 100.934 177.473 100.417 178.183 99.9011C178.506 99.6688 179.306 99.2299 179.654 99.0492C180.403 98.6491 181.436 98.3522 182.184 98.2102C183.746 97.8875 185.063 98.0295 185.837 98.1844Z" fill="#3C3C3D"/>
<path d="M162.076 100.107C162.128 100.081 162.179 100.055 162.231 100.017C162.967 99.5133 163.651 98.9454 164.425 98.5323C165.316 98.0676 166.258 97.6675 167.291 97.6029C167.756 97.5771 168.22 97.5513 168.685 97.5771C169.692 97.6416 170.454 98.1709 170.918 99.0873C171.176 99.6037 171.293 100.185 171.215 100.778C171.189 100.933 171.073 101.088 170.957 101.204C170.815 101.333 170.634 101.437 170.454 101.488C170.04 101.604 169.627 101.708 169.201 101.746C168.763 101.798 168.608 101.604 168.595 101.153C168.595 100.907 168.582 100.662 168.556 100.417C168.479 99.5649 167.872 98.9066 167.007 98.9324C166.375 98.9583 165.807 99.1519 165.264 99.4875C164.645 99.8618 164.103 100.327 163.677 100.92C163.238 101.527 162.838 102.185 162.463 102.831C162.115 103.412 161.805 104.018 161.508 104.625C161.263 105.141 161.069 105.683 160.863 106.225C160.773 106.471 160.669 106.703 160.579 106.948C160.269 107.8 159.946 108.652 159.65 109.504C159.495 109.956 159.404 110.421 159.262 110.885C159.133 111.311 159.004 111.724 158.875 112.15C158.772 112.486 158.707 112.834 158.552 113.157C158.449 113.377 158.281 113.609 158.075 113.699C157.545 113.919 156.99 114.099 156.41 114.035C156.1 114.009 155.984 113.893 156.035 113.583C156.164 112.847 156.332 112.112 156.474 111.376C156.5 111.273 156.526 111.182 156.552 111.092C156.681 110.498 156.784 109.904 156.926 109.323C157.132 108.51 157.365 107.71 157.584 106.897C157.713 106.406 157.829 105.916 157.959 105.425C158.075 105.012 158.204 104.599 158.333 104.186C158.462 103.76 158.578 103.334 158.707 102.921C158.862 102.418 159.03 101.927 159.185 101.437C159.314 101.036 159.417 100.623 159.546 100.223C159.65 99.8876 159.779 99.5649 159.895 99.2293C159.946 99.1002 159.972 98.9712 160.037 98.855C160.153 98.6485 160.256 98.3903 160.437 98.287C160.966 97.9514 161.573 97.8094 162.192 97.732C162.554 97.6933 162.696 97.9514 162.567 98.3129C162.438 98.6872 162.321 99.0615 162.192 99.4359C162.154 99.5391 162.102 99.6295 162.063 99.7327C162.025 99.8618 162.012 99.9909 161.986 100.12C162.025 100.081 162.05 100.094 162.076 100.107Z" fill="#3C3C3D"/>
<path d="M144.365 91.4074C144.429 91.4074 144.494 91.3945 144.546 91.4074C144.662 91.4462 144.804 91.4591 144.855 91.5365C144.894 91.6011 144.817 91.756 144.765 91.8592C144.468 92.4272 144.145 92.9822 143.849 93.5502C143.539 94.1181 143.229 94.699 142.932 95.2798C142.79 95.5638 142.687 95.8736 142.558 96.1705C142.48 96.3641 142.39 96.5448 142.312 96.7384C142.067 97.3322 141.809 97.926 141.577 98.5198C141.344 99.1264 141.164 99.746 140.944 100.366C140.815 100.766 140.673 101.166 140.531 101.566C140.441 101.837 140.363 102.121 140.286 102.392C140.157 102.857 140.028 103.322 139.899 103.799C139.77 104.264 139.653 104.741 139.537 105.206C139.382 105.852 139.227 106.51 139.073 107.155C138.943 107.723 138.801 108.291 138.672 108.872C138.569 109.298 138.479 109.737 138.401 110.176C138.272 110.834 138.169 111.492 138.04 112.151C137.975 112.512 137.937 112.912 137.782 113.222C137.666 113.441 137.382 113.622 137.136 113.7C136.697 113.829 136.233 113.88 135.781 113.945C135.445 113.996 135.303 113.842 135.342 113.493C135.381 113.183 135.445 112.873 135.51 112.564C135.536 112.396 135.574 112.228 135.613 112.06C135.768 111.286 135.923 110.498 136.078 109.724C136.194 109.156 136.297 108.588 136.426 108.02C136.568 107.4 136.723 106.781 136.878 106.161C136.994 105.684 137.098 105.206 137.227 104.741C137.459 103.915 137.704 103.102 137.937 102.276C138.066 101.85 138.182 101.411 138.311 100.985C138.376 100.766 138.466 100.546 138.543 100.327C138.685 99.9525 138.814 99.5653 138.969 99.191C139.189 98.6359 139.395 98.068 139.628 97.5129C139.847 96.9966 140.079 96.4803 140.325 95.964C140.609 95.3702 140.906 94.7764 141.215 94.1827C141.499 93.6405 141.822 93.1113 142.132 92.5692C142.17 92.4917 142.235 92.4143 142.274 92.3368C142.467 91.9109 142.803 91.6656 143.229 91.5623C143.603 91.472 144.003 91.4462 144.391 91.3945C144.365 91.4074 144.365 91.4074 144.365 91.4074Z" fill="#3C3C3D"/>
<path d="M124.745 98.4169C124.603 93.0472 122.886 88.1421 120.059 83.6243C117.658 79.8035 114.561 76.654 110.766 74.1627C106.015 71.0519 100.826 69.2448 95.1727 69.0899C89.2995 68.9221 83.4264 69.0382 77.5532 69.0512C75.7719 69.0512 74.4811 70.1483 74.2229 71.9167C74.068 73.001 74.1455 75.0405 74.0939 76.1377C74.0939 76.1377 82.8842 77.9061 85.4917 78.4095C86.5243 78.616 86.9374 78.19 86.8341 77.1187C86.7825 76.6282 86.6276 76.1506 86.4985 75.6601C86.2919 74.8856 86.0467 74.124 85.8402 73.3366C85.4916 72.02 85.9434 71.452 87.2471 71.8006C88.5121 72.1491 89.7126 72.7558 90.9259 73.2979C92.6685 74.0724 94.3466 74.9888 96.115 75.6859C99.613 77.0541 102.595 79.1065 104.789 82.1528C107.719 86.2188 108.881 90.8012 108.52 95.7966C108.107 101.592 105.77 106.459 101.64 110.499C101.356 110.783 101.007 111.002 100.671 111.26C100.607 111.118 100.568 111.054 100.581 111.015C100.646 110.809 100.723 110.602 100.813 110.396C101.782 108.162 102.44 105.826 101.769 103.438C101.033 100.831 99.9874 98.3137 99.0709 95.7708C99.0322 95.6675 98.8773 95.6159 98.5029 95.3577C98.5029 96.1451 98.5159 96.7001 98.5029 97.2552C98.4384 99.4108 97.6252 101.179 95.6115 102.122C94.4756 102.651 93.2236 103.077 91.9844 103.232C89.9966 103.49 88.3572 104.161 87.26 105.904C86.8212 106.601 86.3565 107.298 85.9176 108.008C85.1948 109.182 84.6139 109.44 83.2973 109.169C81.929 108.885 81.787 108.627 82.2905 107.298C82.3292 107.181 82.3421 107.065 82.3808 106.936C82.2776 106.936 82.2517 106.923 82.2259 106.923C82.1356 106.975 82.0194 107.027 81.9549 107.104C81.1546 107.943 80.251 108.046 79.2442 107.478C78.3793 106.988 77.5016 106.51 76.6367 106.007C75.7203 105.478 75.5525 104.781 76.2495 103.967C77.8759 102.083 79.1409 99.9917 80.1735 97.7328C81.1804 95.4997 82.1485 93.3699 81.7612 90.7495C81.4256 88.5294 81.4643 86.193 82.3034 84.0116C82.6132 83.2113 82.3937 82.7595 81.6451 82.4368C79.6185 81.5332 74.0939 78.6289 74.0939 78.6289C74.0939 94.0153 74.0939 111.506 74.0939 126.892C74.0939 127.228 74.081 127.563 74.1197 127.886C74.2875 129.564 75.6686 130.971 77.2821 130.984C83.1553 131.01 89.0284 130.997 94.9016 130.997C95.4566 130.997 95.6761 130.739 95.8955 130.222C96.7216 128.209 97.4961 126.143 98.5546 124.246C100.362 120.98 102.892 118.257 105.473 115.572C108.791 112.112 111.501 108.214 113.283 103.709C114.638 100.276 115.18 96.7389 114.651 93.1117C113.941 88.1938 111.424 84.2052 107.9 80.8104C106.764 79.7261 105.589 78.6805 104.441 77.6092C104.492 77.5317 104.557 77.4414 104.608 77.3639C106.248 78.3191 107.952 79.184 109.526 80.2553C114.509 83.6372 117.904 88.155 119.182 94.1573C119.814 97.1132 120.137 100.082 119.762 103.064C119.504 105.168 119.091 107.298 118.343 109.273C116.458 114.307 112.702 117.947 108.739 121.38C105.564 124.13 102.401 126.918 99.2516 129.706C99.0193 129.912 98.8256 130.171 98.5546 130.48C99.4581 130.622 100.026 130.313 100.581 129.835C103.473 127.292 106.364 124.749 109.281 122.245C112.495 119.496 115.49 116.553 117.607 112.835C119.195 110.06 120.253 107.091 120.434 103.89C120.537 101.992 120.537 100.069 120.421 98.1717C120.253 95.6159 119.724 93.1246 118.678 90.7754C118.304 89.9363 117.955 89.0844 117.581 88.2325C117.671 88.1808 117.762 88.1292 117.865 88.0776C118.872 89.7427 119.969 91.3691 120.847 93.0988C121.724 94.8543 122.499 96.6743 123.119 98.5331C123.725 100.379 124.087 102.302 124.564 104.187C124.719 102.302 124.81 100.366 124.745 98.4169ZM111.927 86.9417C114.419 92.0274 114.586 97.281 112.637 102.586C111.037 106.936 108.442 110.667 105.293 114.049C102.659 116.888 99.9486 119.676 97.9866 123.058C97.9221 123.175 97.8059 123.252 97.7155 123.355C97.6381 123.342 97.5607 123.329 97.4832 123.316C97.5348 122.774 97.5477 122.232 97.651 121.703C98.348 118.295 100.013 115.339 101.975 112.525C103.692 110.086 105.512 107.711 106.803 104.987C109.488 99.3076 110.378 93.4602 108.313 87.4193C106.816 83.0435 104.002 79.597 100.104 77.067C99.755 76.8476 99.4194 76.6153 99.0838 76.3958C99.1354 76.2797 99.2 76.1506 99.2516 76.0344C100.826 76.796 102.466 77.4543 103.963 78.3578C107.422 80.4489 110.146 83.3016 111.927 86.9417Z" fill="#3C3C3D"/>
<path d="M68 75.4653C68.1033 75.6718 68.1549 75.9558 68.3227 76.072C68.7616 76.3431 69.2521 76.5496 69.7297 76.769C71.0205 77.3628 72.5307 77.9566 74.0797 78.6536V76.1365C72.5824 75.7751 70.1556 75.504 68.6325 75.233C68.4389 75.2072 68.2065 75.3879 68 75.4653Z" fill="#3C3C3D"/>
</svg>
