<svg width="56" height="56" viewBox="0 0 56 56" fill="none" xmlns="http://www.w3.org/2000/svg">
<rect width="56" height="56" fill="#C0E463"/>
<path d="M33.9859 36.3889H41.333C43.174 36.3889 44.6663 34.7423 44.6663 32.7112V22.2842C44.6663 20.8912 43.953 19.6177 42.8237 18.9947L39.4073 17.11C38.4816 16.5994 37.4609 16.3335 36.4259 16.3335H32.8705C30.8453 16.3335 28.9299 17.3492 27.6647 19.0941L27.6229 19.1518M27.6229 19.1518L24.3905 23.6096C23.5987 24.7017 23.6777 26.276 24.574 27.2649C25.5455 28.3367 27.1205 28.3367 28.092 27.2649L30.4507 24.6625L34.2688 32.3856C35.3134 34.4986 34.2673 37.1309 32.1509 37.7147L26.2678 39.3374C24.1476 39.9222 21.9121 39.7246 19.9033 38.7747L13.3533 35.6775C12.1277 35.098 11.333 33.7684 11.333 32.2971V22.2842C11.333 20.8912 12.0463 19.6177 13.1756 18.9947L16.592 17.11C17.5177 16.5994 18.5385 16.3335 19.5735 16.3335H22.3755C24.4437 16.3335 26.3719 17.3902 27.6229 19.1518Z" stroke="#1C1C1C" stroke-width="2.5" stroke-linecap="round" stroke-linejoin="round"/>
</svg>
