<svg width="252" height="200" viewBox="0 0 252 200" fill="none" xmlns="http://www.w3.org/2000/svg">
<rect width="252" height="200" fill="#1C1C1C"/>
<g clip-path="url(#clip0_2280_726)">
<path d="M97.3261 86.5856C97.1897 83.7858 98.131 81.0401 99.9567 78.9131C101.799 76.7023 104.437 75.3047 107.3 75.022C107.525 77.907 106.599 80.7636 104.725 82.9686C103.863 84.1108 102.744 85.0337 101.458 85.6622C100.173 86.2907 98.7569 86.6071 97.3261 86.5856ZM111.027 101.547C111.066 99.6327 111.589 97.7593 112.548 96.1015C113.506 94.4437 114.868 93.0554 116.508 92.066C115.472 90.5998 114.113 89.3921 112.535 88.5366C110.957 87.6812 109.204 87.2011 107.41 87.1337C103.3 87.1337 99.8471 89.4902 97.8742 89.4902C95.9012 89.4902 92.9418 87.2433 89.7084 87.2981C87.5988 87.3659 85.5423 87.9765 83.7376 89.0708C81.9328 90.1652 80.4406 91.7065 79.4052 93.5457C75.0209 101.109 78.2543 112.398 82.5291 118.536C84.6116 121.605 87.1326 124.948 90.4208 124.839C93.7091 124.729 94.7504 122.811 98.5318 122.811C102.313 122.811 103.409 124.839 106.698 124.784C109.986 124.729 112.178 121.715 114.37 118.646C115.843 116.489 116.989 114.125 117.768 111.631C115.777 110.8 114.075 109.4 112.876 107.607C111.676 105.813 111.033 103.705 111.027 101.547ZM168.462 89.6546L159.803 117.605L151.198 89.6546H143.745L156.021 124.346H163.365L175.641 89.545L168.462 89.6546ZM133.332 81.3244H126.427V89.6546H121.33V95.135H126.427V115.358C126.427 122.044 129.112 124.729 136.018 124.729C137.342 124.721 138.663 124.592 139.964 124.346V118.865H137.607C134.648 118.865 133.332 117.44 133.332 114.426V95.135H140.018V89.6546H133.332V81.3244Z" fill="#3C3C3D"/>
</g>
<defs>
<clipPath id="clip0_2280_726">
<rect width="98.8636" height="50" fill="white" transform="translate(77 75)"/>
</clipPath>
</defs>
</svg>
