<svg width="252" height="200" viewBox="0 0 252 200" fill="none" xmlns="http://www.w3.org/2000/svg">
<rect width="252" height="200" fill="#1C1C1C"/>
<path d="M57.0399 99.2243C53.181 99.2243 50.6182 97.4784 48.6445 95.1401L52.2973 92.0848C53.3872 94.0801 55.0368 95.1713 57.0105 95.1713C59.1314 95.1713 60.2802 93.706 60.2802 92.116C60.2802 90.2142 58.0709 89.5906 55.8027 88.8424C52.8864 87.8447 49.705 86.6911 49.705 82.3575C49.705 78.7098 52.7097 75.8415 56.8337 75.8415C60.2802 75.8415 62.3128 77.2445 64.0508 79.1463L60.7516 81.7964C59.8384 80.331 58.5423 79.614 56.8632 79.614C54.8895 79.614 53.8585 80.7363 53.8585 82.2017C53.8585 84.0411 55.8911 84.5711 58.2477 85.4129C61.164 86.4106 64.4632 87.7823 64.4632 92.1471C64.4632 95.7325 61.7531 99.2243 57.0399 99.2243Z" fill="#3C3C3D"/>
<path d="M67.7765 98.9126V80.674H71.7238V82.794C72.8137 81.2663 74.5223 80.2999 76.6432 80.2999C79.3533 80.2999 81.2091 81.4534 82.2401 83.4487C83.4184 81.5469 85.4215 80.2999 87.896 80.2999C92.5797 80.2999 94.9069 83.1681 94.9069 87.9382V98.9126H90.8417V88.2812C90.8417 85.6311 89.575 83.9476 87.1006 83.9476C84.9502 83.9476 83.3006 85.5064 83.3006 88.7177V98.9126H79.2649V88.1565C79.2649 85.5376 78.0277 83.9476 75.6416 83.9476C73.4029 83.9476 71.7533 85.5688 71.7533 88.8112V98.9126H67.7765Z" fill="#3C3C3D"/>
<path d="M106.573 99.2867C102.42 99.2867 98.0897 95.7948 98.0897 89.8089C98.0897 83.7605 102.273 80.2999 106.632 80.2999C108.901 80.2999 110.904 81.2663 112.17 82.8564V80.674H116.147V98.9126H112.17V96.5431C110.904 98.2578 108.842 99.2867 106.573 99.2867ZM107.221 95.4207C110.197 95.4207 112.377 92.8954 112.377 89.7465C112.377 86.6288 110.197 84.1346 107.221 84.1346C104.276 84.1346 102.007 86.5976 102.007 89.7465C102.007 92.9266 104.276 95.4207 107.221 95.4207Z" fill="#3C3C3D"/>
<path d="M120.029 98.9126V80.674H123.976V83.3864C124.772 81.5781 126.245 80.674 128.395 80.674C129.662 80.674 130.634 80.9857 131.429 81.4534L129.927 85.4441C129.338 85.0388 128.69 84.727 127.541 84.727C125.214 84.727 124.006 86.0364 124.006 89.1853V98.9126H120.029Z" fill="#3C3C3D"/>
<path d="M133.57 84.4464V80.674H136.515V77.8992L140.522 74.9998V80.674H144.027V84.4464H140.522V91.2742C140.522 94.4542 140.963 94.9531 144.027 94.9531V98.9126H143.467C138.136 98.9126 136.515 97.1043 136.515 91.3053V84.4464H133.57Z" fill="#3C3C3D"/>
<path d="M161.482 98.9126V80.2063H155.737V76.1533H171.261V80.2063H165.488V98.9126H161.482Z" fill="#3C3C3D"/>
<path d="M181.45 98.9126L174.233 76.1533H178.386L183.482 92.4277L188.549 76.1533H192.703L185.485 98.9126H181.45Z" fill="#3C3C3D"/>
<path d="M162.754 107.604H173.733V110.668H166.204V113.391H172.478V116.477L170.83 116.489L170.018 116.485L169.165 116.477L168.308 116.472C167.607 116.468 166.906 116.462 166.204 116.455V119.179H173.733V122.243H162.754V107.604Z" fill="#3C3C3D"/>
<path d="M147.952 107.604V110.598H155.271L147.785 118.916L149.282 121.91H159.263V118.916H152.277L159.762 110.598L158.099 107.604H147.952Z" fill="#3C3C3D"/>
<path d="M126.492 107.604C130.445 107.604 134.397 107.604 138.469 107.604C138.469 108.615 138.469 109.626 138.469 110.668C137.081 110.668 135.692 110.668 134.261 110.668C134.261 114.488 134.261 118.307 134.261 122.243C133.086 122.243 131.911 122.243 130.7 122.243C130.7 118.423 130.7 114.603 130.7 110.668C129.312 110.668 127.923 110.668 126.492 110.668C126.492 109.657 126.492 108.646 126.492 107.604Z" fill="#3C3C3D"/>
<path d="M141.133 107.604C142.45 107.604 143.768 107.604 145.125 107.604C145.125 112.435 145.125 117.266 145.125 122.243C143.808 122.243 142.49 122.243 141.133 122.243C141.133 117.412 141.133 112.581 141.133 107.604Z" fill="#3C3C3D"/>
<path d="M177.395 122.077V108.27L181.054 107.771L187.875 116.753L188.041 107.771H191.534L191.368 121.744L187.875 122.077L181.054 113.26V122.077H177.395Z" fill="#3C3C3D"/>
<path fill-rule="evenodd" clip-rule="evenodd" d="M198.613 109.107H197.404V112.557H196.151V109.107H195V108H198.613V109.107Z" fill="#3C3C3D"/>
<path fill-rule="evenodd" clip-rule="evenodd" d="M200.473 112.557H199.234V108H200.797L201.726 110.46L202.626 108H204.22V112.557H202.971V110.132L202.315 111.849H201.144L200.473 110.132V112.557Z" fill="#3C3C3D"/>
<path d="M49.793 122.243V113.889H52.6538C54.3817 113.889 55.6634 115.217 55.6634 116.865C55.6634 118.524 54.3817 119.851 52.6423 119.851H51.3493V122.243H49.793ZM52.5393 115.331H51.3493V118.409H52.5393C53.4548 118.409 54.0956 117.723 54.0956 116.865C54.0956 116.006 53.4548 115.331 52.5393 115.331Z" fill="#3C3C3D"/>
<path d="M60.0063 122.38C58.0724 122.38 56.539 120.824 56.539 118.901C56.539 116.945 58.0724 115.411 60.0063 115.411C61.9288 115.411 63.4736 116.945 63.4736 118.901C63.4736 120.824 61.9288 122.38 60.0063 122.38ZM60.0063 120.927C61.1049 120.927 61.9517 120.011 61.9517 118.901C61.9517 117.769 61.1049 116.865 60.0063 116.865C58.8963 116.865 58.061 117.769 58.061 118.901C58.061 120.011 58.8963 120.927 60.0063 120.927Z" fill="#3C3C3D"/>
<path d="M66.2036 122.243L63.9721 115.549H65.5513L67.0275 120.16L68.7096 115.549H70.243L71.8909 120.172L73.4243 115.549H74.992L72.6461 122.243H71.1585L69.4649 117.608L67.7255 122.243H66.2036Z" fill="#3C3C3D"/>
<path d="M79.0323 122.38C76.9268 122.38 75.4964 120.847 75.4964 118.913C75.4964 116.956 77.0183 115.411 78.9751 115.411C80.9662 115.411 82.4195 116.876 82.4195 118.856V119.439H76.9726C77.19 120.389 77.9338 121.018 79.0323 121.018C79.902 121.018 80.5657 120.561 80.8861 119.84L82.1563 120.572C81.5727 121.659 80.5429 122.38 79.0323 122.38ZM78.9751 116.773C78.0482 116.773 77.3273 117.322 77.0527 118.146H80.8518C80.623 117.242 79.9364 116.773 78.9751 116.773Z" fill="#3C3C3D"/>
<path d="M83.6838 122.243V115.549H85.2172V116.544C85.5262 115.88 86.0984 115.549 86.9337 115.549C87.4258 115.549 87.8034 115.663 88.1124 115.835L87.5288 117.299C87.2999 117.151 87.0482 117.036 86.6019 117.036C85.6979 117.036 85.2287 117.517 85.2287 118.673V122.243H83.6838Z" fill="#3C3C3D"/>
<path d="M92.2792 122.38C90.1737 122.38 88.7433 120.847 88.7433 118.913C88.7433 116.956 90.2652 115.411 92.222 115.411C94.2131 115.411 95.6664 116.876 95.6664 118.856V119.439H90.2195C90.4369 120.389 91.1807 121.018 92.2792 121.018C93.1489 121.018 93.8126 120.561 94.133 119.84L95.4032 120.572C94.8196 121.659 93.7897 122.38 92.2792 122.38ZM92.222 116.773C91.2951 116.773 90.5742 117.322 90.2996 118.146H94.0987C93.8699 117.242 93.1833 116.773 92.222 116.773Z" fill="#3C3C3D"/>
<path d="M100.009 122.38C98.3955 122.38 96.7133 121.099 96.7133 118.901C96.7133 116.681 98.3383 115.411 100.032 115.411C100.902 115.411 101.68 115.755 102.172 116.338V113.775H103.728V122.243H102.183V121.373C101.691 122.003 100.89 122.38 100.009 122.38ZM100.261 120.961C101.416 120.961 102.263 120.034 102.263 118.879C102.263 117.734 101.416 116.819 100.261 116.819C99.1164 116.819 98.2353 117.723 98.2353 118.879C98.2353 120.046 99.1164 120.961 100.261 120.961Z" fill="#3C3C3D"/>
<path d="M112.288 122.38C111.372 122.38 110.583 122.014 110.091 121.373V122.243H108.557V113.775H110.102V116.395C110.571 115.8 111.361 115.411 112.265 115.411C113.947 115.411 115.561 116.681 115.561 118.901C115.561 121.099 113.89 122.38 112.288 122.38ZM112.025 120.961C113.157 120.961 114.039 120.046 114.039 118.879C114.039 117.723 113.157 116.819 112.025 116.819C110.88 116.819 110.033 117.734 110.033 118.879C110.033 120.034 110.88 120.961 112.025 120.961Z" fill="#3C3C3D"/>
<path d="M117.164 125.333L118.572 121.911L115.826 115.549H117.473L119.339 120.057L121.101 115.549H122.726L118.732 125.333H117.164Z" fill="#3C3C3D"/>
</svg>
