<svg width="320" height="200" viewBox="0 0 320 200" fill="none" xmlns="http://www.w3.org/2000/svg">
<rect width="320" height="200" fill="#1C1C1C"/>
<g clip-path="url(#clip0_2221_658)">
<path d="M174.54 74.5111C180.402 74.5111 185.157 99.2406 185.157 129.782H193.71C193.71 96.901 185.081 70.2847 174.515 70.2847C168.477 70.2847 163.144 78.2595 159.622 90.7878C156.1 78.2595 150.767 70.2847 144.779 70.2847C134.213 70.2847 125.609 96.8759 125.609 129.756H134.163C134.163 99.2155 138.867 74.5111 144.729 74.5111C150.591 74.5111 155.345 97.3539 155.345 125.53H163.848C163.848 97.3539 168.628 74.5111 174.49 74.5111" fill="#3C3C3D"/>
</g>
<defs>
<clipPath id="clip0_2221_658">
<rect width="68.6038" height="60" fill="white" transform="translate(125.281 70)"/>
</clipPath>
</defs>
</svg>
