<svg width="252" height="200" viewBox="0 0 252 200" fill="none" xmlns="http://www.w3.org/2000/svg">
<rect width="252" height="200" fill="#1C1C1C"/>
<g clip-path="url(#clip0_2280_731)">
<path d="M85.4865 89.1506C76.9537 89.1506 70.0039 96.0232 70.0039 104.595C70.0039 113.127 76.9537 120 85.4865 120C94.058 120 101.008 113.127 101.008 104.595C101.008 96.0232 94.058 89.1506 85.4865 89.1506ZM85.4865 113.552C80.7375 113.552 76.8379 109.344 76.8379 104.595C76.8379 99.807 80.7375 95.5985 85.4865 95.5985C90.2742 95.5985 94.1738 99.807 94.1738 104.595C94.1738 109.344 90.2742 113.552 85.4865 113.552Z" fill="#3C3C3D"/>
<path d="M76.6082 86.834C78.4615 86.834 80.0059 85.2896 80.0059 83.3977C80.0059 81.5444 78.4615 80 76.6082 80C74.7163 80 73.1719 81.5444 73.1719 83.3977C73.1719 85.2896 74.7163 86.834 76.6082 86.834Z" fill="#3C3C3D"/>
<path d="M94.366 86.834C96.2193 86.834 97.7637 85.2896 97.7637 83.3977C97.7637 81.5444 96.2193 80 94.366 80C92.4741 80 90.9297 81.5444 90.9297 83.3977C90.9297 85.2896 92.4741 86.834 94.366 86.834Z" fill="#3C3C3D"/>
<path d="M85.4871 86.834C87.3404 86.834 88.8848 85.2896 88.8848 83.3977C88.8848 81.5444 87.3404 80 85.4871 80C83.5952 80 82.0508 81.5444 82.0508 83.3977C82.0508 85.2896 83.5952 86.834 85.4871 86.834Z" fill="#3C3C3D"/>
<path d="M153.903 89.6911H146.374L137.455 102.085V80.502H130.621V119.459H137.455V107.066L147.069 119.459H155.138L143.285 104.402L153.903 89.6911Z" fill="#3C3C3D"/>
<path d="M127.419 89.6911H119.89L110.971 102.085V80.502H104.137V119.459H110.971V107.066L120.585 119.459H128.654L116.801 104.402L127.419 89.6911Z" fill="#3C3C3D"/>
<path d="M167.303 89.1504C158.77 89.1504 151.82 96.023 151.82 104.594C151.82 113.127 158.77 120 167.303 120C175.874 120 182.824 113.127 182.824 104.594C182.824 96.023 175.874 89.1504 167.303 89.1504ZM167.264 113.552C162.515 113.552 158.616 109.343 158.616 104.594C158.616 99.8068 162.515 95.5983 167.264 95.5983C172.052 95.5983 175.952 99.8068 175.952 104.594C175.952 109.343 172.052 113.552 167.264 113.552Z" fill="#3C3C3D"/>
</g>
<defs>
<clipPath id="clip0_2280_731">
<rect width="112.819" height="40" fill="white" transform="translate(70 80)"/>
</clipPath>
</defs>
</svg>
