<svg width="252" height="200" viewBox="0 0 252 200" fill="none" xmlns="http://www.w3.org/2000/svg">
<rect width="252" height="200" fill="#1C1C1C"/>
<g clip-path="url(#clip0_2280_706)">
<path d="M127.133 125V124.919C127.214 124.818 127.355 124.757 127.476 124.778C128.062 124.757 128.628 124.757 129.214 124.778C129.335 124.778 129.477 124.818 129.558 124.919V125H127.133Z" fill="#4F4F50"/>
<path d="M129.553 124.919C128.745 124.899 127.937 124.899 127.128 124.919C126.017 124.858 124.906 124.818 123.794 124.737C120.844 124.515 117.914 124.07 115.045 123.403C105.123 121.1 96.4137 116.472 88.8159 109.743C88.1086 109.117 87.4418 108.47 86.7547 107.824C86.5931 107.682 86.4516 107.48 86.3708 107.278C86.2496 106.995 86.3102 106.692 86.5123 106.47C86.7143 106.248 87.0376 106.167 87.3205 106.288C87.5024 106.369 87.6843 106.45 87.8459 106.551C95.1003 111.037 103.021 114.31 111.327 116.25C114.115 116.897 116.924 117.402 119.753 117.766C123.815 118.271 127.917 118.453 131.998 118.311C134.201 118.251 136.383 118.049 138.566 117.766C143.658 117.119 148.689 115.967 153.559 114.351C156.126 113.502 158.631 112.532 161.076 111.4C161.44 111.198 161.885 111.138 162.289 111.239C162.956 111.4 163.36 112.087 163.198 112.754C163.178 112.835 163.137 112.936 163.097 113.017C162.935 113.32 162.713 113.583 162.43 113.785C160.106 115.603 157.601 117.2 154.954 118.533C149.962 121.059 144.628 122.858 139.131 123.888C135.959 124.454 132.766 124.798 129.553 124.919Z" fill="#4F4F50"/>
<path d="M99.6262 83.9588C100.131 83.6557 100.657 83.3324 101.202 83.0495C102.617 82.3221 104.193 81.9583 105.789 82.0392C106.941 82.0998 107.992 82.4231 108.8 83.2718C109.568 84.0599 109.851 85.0298 109.932 86.0806C109.952 86.3029 109.952 86.5251 109.952 86.7676V97.2349C109.952 98.1442 109.831 98.2654 108.921 98.2654H106.456C106.295 98.2654 106.133 98.2654 105.971 98.2452C105.729 98.225 105.527 98.023 105.486 97.7805C105.446 97.5582 105.446 97.3359 105.446 97.1136V87.7578C105.466 87.3738 105.426 87.0101 105.325 86.6464C105.163 86.02 104.597 85.5754 103.95 85.535C102.758 85.4542 101.566 85.6966 100.475 86.2018C100.313 86.2422 100.212 86.4039 100.232 86.5655V97.1945C100.232 97.3965 100.232 97.5784 100.192 97.7805C100.192 98.0634 99.9697 98.2654 99.6868 98.2654C99.3837 98.2856 99.0806 98.2856 98.7573 98.2856H96.6153C95.8677 98.2856 95.706 98.1038 95.706 97.3561V87.7982C95.706 87.4547 95.6858 87.0909 95.605 86.7474C95.4635 86.0604 94.8775 85.5754 94.1905 85.535C92.978 85.4542 91.7454 85.6966 90.6542 86.222C90.4926 86.2624 90.3915 86.4443 90.432 86.606V97.3763C90.432 98.124 90.2703 98.2856 89.5226 98.2856H86.8149C86.1076 98.2856 85.9258 98.0836 85.9258 97.3965V83.3728C85.9258 83.2112 85.946 83.0495 85.9864 82.8879C86.0672 82.6454 86.3097 82.5039 86.5522 82.5039H89.0781C89.4418 82.5039 89.6641 82.7262 89.7853 83.0697C89.8864 83.3526 89.947 83.6153 90.048 83.9184C90.2501 83.9184 90.3713 83.777 90.5128 83.6961C91.6242 83.0091 92.7962 82.4231 94.1096 82.1806C95.12 81.9785 96.1304 81.9785 97.1407 82.1806C98.0904 82.3827 98.9391 82.9485 99.4847 83.7568C99.5251 83.8174 99.5656 83.8578 99.606 83.8982C99.5858 83.9184 99.606 83.9184 99.6262 83.9588Z" fill="#4F4F50"/>
<path d="M141.517 94.0226C141.639 93.6184 141.76 93.2345 141.881 92.8303C142.811 89.6982 143.74 86.5864 144.67 83.4543L144.791 83.0905C144.892 82.7268 145.235 82.5045 145.599 82.5045H148.671C149.438 82.5045 149.6 82.7268 149.337 83.4543L148.125 86.6672C146.771 90.1832 145.417 93.7195 144.063 97.2355C144.023 97.3567 143.962 97.478 143.922 97.5992C143.781 98.0236 143.356 98.3065 142.912 98.266C142.023 98.2458 141.133 98.2458 140.244 98.266C139.618 98.2863 139.254 98.0034 139.032 97.4376C138.527 96.1039 138.001 94.75 137.496 93.4163C136.284 90.2438 135.051 87.0713 133.839 83.8786C133.717 83.6361 133.637 83.3532 133.576 83.0905C133.515 82.6864 133.657 82.4843 134.061 82.4843C135.213 82.4641 136.365 82.4843 137.496 82.4843C137.981 82.4843 138.203 82.8076 138.325 83.232C138.547 83.9999 138.769 84.7879 139.012 85.5558C139.84 88.3646 140.648 91.1936 141.477 94.0024C141.457 94.0226 141.477 94.0226 141.517 94.0226Z" fill="#3C3C3D"/>
<path d="M69.7637 84.7271C69.9051 84.6867 70.0264 84.6058 70.1072 84.4846C70.4709 84.1209 70.8549 83.7774 71.259 83.454C72.3098 82.6458 73.6232 82.2416 74.9367 82.3427C75.4621 82.3629 75.6439 82.5245 75.6844 83.0297C75.7248 83.7167 75.7046 84.424 75.7046 85.111C75.7248 85.3939 75.7046 85.6566 75.6642 85.9395C75.5833 86.3032 75.4419 86.4447 75.0782 86.4851C74.7953 86.5053 74.5326 86.4851 74.2497 86.4649C72.8958 86.3437 71.5823 86.6063 70.3093 87.0307C70.0264 87.1317 70.0264 87.3338 70.0264 87.5561V97.2555C70.0264 97.4373 70.0264 97.599 70.0062 97.7809C69.986 98.0435 69.7839 98.2456 69.5212 98.2456C69.3798 98.2658 69.2181 98.2658 69.0767 98.2658H66.4497C66.3083 98.2658 66.1466 98.2658 66.0052 98.2456C65.7425 98.2254 65.5404 98.0031 65.5202 97.7404C65.5 97.5788 65.5 97.4171 65.5 97.2555V83.5147C65.5 82.5851 65.601 82.4841 66.5306 82.4841H68.4704C68.9958 82.4841 69.2383 82.666 69.3798 83.1711C69.5212 83.6763 69.6424 84.1815 69.7637 84.7271Z" fill="#4F4F50"/>
<path d="M164.291 105.217C165.625 105.257 166.938 105.338 168.231 105.682C168.595 105.783 168.939 105.904 169.282 106.066C169.747 106.248 170.05 106.692 170.111 107.177C170.192 107.743 170.212 108.329 170.171 108.915C169.909 112.37 168.838 115.705 167.059 118.675C166.413 119.746 165.625 120.716 164.715 121.565C164.534 121.746 164.311 121.888 164.069 121.969C163.685 122.07 163.442 121.868 163.422 121.484C163.442 121.282 163.483 121.08 163.564 120.878C164.271 118.978 164.958 117.099 165.504 115.139C165.827 114.068 166.049 112.977 166.191 111.865C166.231 111.461 166.251 111.057 166.211 110.653C166.191 109.966 165.746 109.38 165.079 109.178C164.453 108.976 163.806 108.854 163.139 108.814C161.28 108.733 159.421 108.814 157.582 109.056L155.137 109.359C154.875 109.38 154.632 109.359 154.491 109.117C154.349 108.875 154.41 108.632 154.551 108.39C154.713 108.167 154.915 107.965 155.157 107.824C156.653 106.753 158.33 106.106 160.108 105.682C161.482 105.399 162.877 105.257 164.291 105.217Z" fill="#4F4F50"/>
<path d="M155.823 90.3849V97.6595C155.783 98.0636 155.601 98.2455 155.197 98.2657C154.106 98.2859 153.035 98.2859 151.944 98.2657C151.539 98.2657 151.358 98.0636 151.317 97.6797C151.297 97.5584 151.297 97.417 151.297 97.2957V83.3124C151.317 82.686 151.479 82.5042 152.105 82.5042H155.015C155.641 82.5042 155.823 82.686 155.823 83.3124V90.3849Z" fill="#3C3C3D"/>
<path d="M77.6452 90.3447V83.1712C77.6654 82.6862 77.8473 82.5044 78.3322 82.4841C79.383 82.4639 80.4338 82.4639 81.4846 82.4841C81.9493 82.4841 82.0908 82.6256 82.1312 83.0904C82.1514 83.2722 82.1514 83.4339 82.1514 83.6157V97.0737C82.1514 97.2959 82.1312 97.5182 82.111 97.7405C82.0908 98.0032 81.8887 98.185 81.626 98.2052C81.5048 98.2255 81.4037 98.2255 81.2825 98.2255H78.4737C78.3727 98.2255 78.2918 98.2255 78.1908 98.2052C77.9079 98.185 77.6654 97.9628 77.6452 97.6799C77.625 97.5182 77.625 97.3566 77.625 97.1949C77.6452 94.9519 77.6452 92.6483 77.6452 90.3447Z" fill="#4F4F50"/>
<path d="M79.9858 75.2497C80.3091 75.2295 80.6325 75.2901 80.9356 75.3912C82.0267 75.7549 82.5925 76.7046 82.4915 77.9373C82.4107 78.988 81.6226 79.8367 80.5718 79.9984C80.1273 80.0792 79.6625 80.0792 79.218 79.9984C78.0662 79.7761 77.2175 78.9274 77.2983 77.4725C77.4195 76.0378 78.3693 75.2497 79.9858 75.2497Z" fill="#4F4F50"/>
<path d="M153.581 75.2498C153.986 75.2094 154.39 75.2902 154.774 75.4519C155.562 75.755 156.107 76.4824 156.148 77.3311C156.309 79.17 155.077 80.0995 153.44 80.0591C153.218 80.0591 152.995 80.0187 152.773 79.9783C151.52 79.6751 150.874 78.7052 150.995 77.3109C151.096 76.1995 151.965 75.371 153.157 75.27C153.299 75.2498 153.44 75.2296 153.581 75.2498Z" fill="#3C3C3D"/>
<path d="M62.5066 88.6875C62.4258 87.6368 62.1429 86.6062 61.7186 85.6565C60.8901 83.9187 59.617 82.6456 57.6771 82.2011C55.4544 81.7161 53.4539 82.2011 51.6352 83.5549C51.514 83.6762 51.3725 83.7772 51.2109 83.858C51.1705 83.8378 51.1301 83.8176 51.1301 83.7974C51.0694 83.5953 51.029 83.3933 50.9684 83.1912C50.8067 82.686 50.6047 82.5042 50.0591 82.5042C49.4529 82.5042 48.8264 82.5244 48.2202 82.5042C47.7555 82.484 47.3311 82.5446 47.0078 82.9083C47.0078 89.9808 47.0078 97.0735 47.028 104.126C47.2907 104.55 47.6949 104.631 48.1596 104.611C48.8871 104.59 49.6145 104.611 50.342 104.611C51.615 104.611 51.615 104.611 51.615 103.358V97.5988C51.615 97.4574 51.5544 97.2957 51.6959 97.1745C52.7062 97.9626 53.9388 98.4475 55.2119 98.5688C56.9901 98.7506 58.6067 98.3061 59.9605 97.0937C60.9507 96.1843 61.6781 95.0123 62.0621 93.7191C62.6077 92.0621 62.6481 90.3849 62.5066 88.6875ZM57.6771 92.8704C57.5357 93.4968 57.2124 94.0626 56.7476 94.487C56.2222 94.9315 55.5756 95.1942 54.8886 95.1942C53.858 95.2548 52.8477 95.0325 51.9383 94.5476C51.7161 94.4465 51.5746 94.2243 51.5948 93.9818V90.3243C51.5948 89.1119 51.615 87.8994 51.5948 86.687C51.5746 86.4041 51.7363 86.1616 51.999 86.0606C53.1103 85.5352 54.2622 85.2927 55.4746 85.5352C56.3233 85.6565 57.0507 86.2021 57.3942 86.9901C57.6974 87.6368 57.8792 88.344 57.9196 89.0513C58.0409 90.3445 58.0409 91.6378 57.6771 92.8704Z" fill="#4F4F50"/>
<path d="M208.706 89.1323V89.2131C208.625 89.1323 208.585 89.011 208.625 88.91V88.7483C208.625 88.7483 208.625 88.7281 208.645 88.7281H208.625V88.5261H208.666C208.666 88.5059 208.645 88.5059 208.645 88.4856C208.605 88.1017 208.524 87.7178 208.423 87.354C207.676 84.6867 205.998 82.9287 203.27 82.2417C201.997 81.9386 200.704 81.8981 199.411 82.1002C196.683 82.5044 194.723 83.9593 193.773 86.5458C192.844 89.011 192.864 91.7188 193.793 94.184C194.602 96.427 196.218 97.8415 198.542 98.4275C199.775 98.7306 201.068 98.8115 202.341 98.6296C206.584 98.1244 208.342 94.9115 208.625 92.1229H208.605V91.84C208.585 91.7188 208.565 91.6177 208.686 91.5369V91.5773C208.686 91.5571 208.706 91.5167 208.726 91.4965V89.1727C208.726 89.1525 208.706 89.1525 208.706 89.1323ZM203.856 92.9716C203.735 93.396 203.553 93.7799 203.291 94.1436C202.846 94.77 202.139 95.1742 201.371 95.2348C200.987 95.2752 200.603 95.2752 200.219 95.1944C199.37 95.0327 198.663 94.4669 198.32 93.6789C198.017 93.0524 197.835 92.3654 197.774 91.6784C197.673 90.4861 197.653 89.2939 197.936 88.1219C198.037 87.6572 198.239 87.1924 198.481 86.7883C198.926 86.0608 199.694 85.596 200.542 85.5354C200.926 85.495 201.31 85.495 201.694 85.5758C202.503 85.7375 203.169 86.2629 203.533 87.0105C203.877 87.7178 204.079 88.5059 204.119 89.2939C204.139 89.6577 204.159 90.0214 204.139 90.3851C204.2 91.2742 204.099 92.1431 203.856 92.9716Z" fill="#3C3C3D"/>
<path d="M173.283 75.3918H170.474C169.706 75.3918 169.565 75.5333 169.565 76.3012V82.8483C169.565 82.9897 169.625 83.1312 169.524 83.2726C169.342 83.2524 169.241 83.1312 169.1 83.0503C166.998 81.8177 164.796 81.5954 162.573 82.626C161.017 83.3534 160.047 84.6669 159.421 86.2228C158.814 87.7182 158.673 89.2943 158.713 90.8907C158.713 92.386 159.057 93.8611 159.724 95.1948C160.492 96.6699 161.603 97.8015 163.22 98.2865C165.422 98.9735 167.483 98.63 169.363 97.2357C169.504 97.1549 169.585 97.0134 169.767 96.973C169.868 97.1953 169.949 97.4378 169.989 97.6802C170.07 98.0036 170.353 98.2258 170.696 98.2258H171.181C171.909 98.2258 172.616 98.246 173.323 98.2258C173.889 98.2258 174.051 98.044 174.071 97.458V76.1597C174.051 75.5333 173.889 75.3918 173.283 75.3918ZM169.585 90.2642V93.9419C169.625 94.1844 169.484 94.4067 169.262 94.5077C168.292 95.0533 167.18 95.2756 166.089 95.1139C165.159 95.0129 164.351 94.4471 163.927 93.6186C163.604 92.972 163.422 92.285 163.361 91.5777C163.199 90.3047 163.3 89.0114 163.604 87.7788C163.705 87.4353 163.826 87.1119 164.008 86.7886C164.432 86.0006 165.24 85.4954 166.129 85.4348C167.2 85.3337 168.271 85.5358 169.241 85.9804C169.484 86.0612 169.625 86.3037 169.605 86.5664C169.565 87.8192 169.585 89.0316 169.585 90.2642Z" fill="#3C3C3D"/>
<path d="M117.326 91.6583C118.842 91.9412 120.397 91.9614 121.913 91.719C122.802 91.5977 123.651 91.335 124.439 90.9107C125.348 90.3853 126.015 89.6578 126.298 88.6475C127.005 86.1014 125.914 83.5351 123.267 82.5854C121.974 82.161 120.6 82.0196 119.246 82.2014C116.053 82.5652 113.972 84.3232 113.022 87.3744C112.355 89.4558 112.436 91.5775 112.981 93.679C113.689 96.3666 115.467 97.9629 118.154 98.5287C119.69 98.8723 121.246 98.8116 122.782 98.5692C123.59 98.4277 124.398 98.2256 125.166 97.9225C125.631 97.7407 125.874 97.4578 125.853 96.9324C125.833 96.4474 125.853 95.9422 125.853 95.4371C125.853 94.8308 125.611 94.649 125.025 94.7904C124.439 94.9319 123.873 95.0531 123.287 95.1744C122.034 95.4371 120.741 95.4371 119.488 95.2148C117.771 94.8713 116.659 93.3961 116.76 91.5775C116.942 91.5977 117.144 91.6179 117.326 91.6583ZM116.821 88.5667C116.881 88.0817 117.023 87.6169 117.205 87.1724C117.811 85.6972 119.084 85.1921 120.377 85.2729C120.741 85.2931 121.105 85.3739 121.448 85.5154C121.974 85.7377 122.317 86.2226 122.378 86.7884C122.438 87.132 122.418 87.4957 122.317 87.8392C122.075 88.5667 121.489 88.8698 120.781 89.0112C120.357 89.1122 119.912 89.1527 119.468 89.1122C118.68 89.1122 117.872 89.0516 117.083 88.9304C116.78 88.89 116.78 88.89 116.821 88.5667Z" fill="#4F4F50"/>
<path d="M185.489 91.86C186.661 91.7792 187.833 91.5569 188.883 90.9911C189.954 90.4657 190.702 89.4756 190.924 88.3036C191.066 87.5761 191.066 86.8082 190.904 86.0808C190.48 84.2622 189.328 83.1306 187.59 82.5445C186.62 82.2414 185.59 82.1202 184.579 82.1606C181.184 82.2414 178.598 83.959 177.547 87.3538C176.84 89.5968 176.941 91.8802 177.628 94.1232C178.335 96.4268 179.952 97.8211 182.255 98.4475C183.246 98.69 184.276 98.791 185.286 98.7506C186.762 98.7304 188.237 98.4475 189.631 97.9221C190.217 97.6999 190.358 97.4978 190.358 96.8714V95.4165C190.338 94.8304 190.096 94.6284 189.51 94.7698C189.065 94.8911 188.641 94.9921 188.196 95.0931C186.842 95.4165 185.428 95.4771 184.054 95.2346C182.68 94.9719 181.75 94.1838 181.387 92.8097C181.285 92.4056 181.205 92.0015 181.164 91.5771C181.265 91.5771 181.366 91.5771 181.447 91.6175C182.781 91.86 184.135 91.961 185.489 91.86ZM181.265 88.6269C181.407 87.8388 181.589 87.0709 182.074 86.4243C182.821 85.4342 183.852 85.1513 185.024 85.2725C185.125 85.2725 185.206 85.3129 185.307 85.3129C186.721 85.5352 187.065 86.6668 186.802 87.758C186.6 88.5663 185.933 88.8694 185.185 89.0108C184.781 89.0916 184.357 89.1321 183.933 89.1118C183.104 89.0916 182.296 89.031 181.488 88.9098C181.306 88.8896 181.225 88.8087 181.265 88.6269Z" fill="#3C3C3D"/>
</g>
<defs>
<clipPath id="clip0_2280_706">
<rect width="161.717" height="49.77" fill="white" transform="translate(47 75.2302)"/>
</clipPath>
</defs>
</svg>
