<svg width="40" height="40" viewBox="0 0 40 40" fill="none" xmlns="http://www.w3.org/2000/svg">
<path fill-rule="evenodd" clip-rule="evenodd" d="M20 0C8.9543 0 0 8.9543 0 20C0 31.0457 8.9543 40 20 40C31.0457 40 40 31.0457 40 20C40 8.9543 31.0457 0 20 0ZM9.60156 16.5649H14.134V30.183H9.60156V16.5649ZM14.431 12.3522C14.4016 11.017 13.4467 10 11.8962 10C10.3457 10 9.33203 11.017 9.33203 12.3522C9.33203 13.6598 10.3157 14.7061 11.8374 14.7061H11.8664C13.4467 14.7061 14.431 13.6598 14.431 12.3522ZM25.2629 16.2451C28.2454 16.2451 30.4814 18.1919 30.4814 22.3748L30.4813 30.183H25.949V22.8973C25.949 21.0673 25.2931 19.8185 23.6524 19.8185C22.4002 19.8185 21.6543 20.6604 21.3268 21.4735C21.2069 21.7649 21.1775 22.1709 21.1775 22.5779V30.1834H16.6445C16.6445 30.1834 16.7043 17.8431 16.6445 16.5653H21.1775V18.4941C21.7791 17.5669 22.8565 16.2451 25.2629 16.2451Z" fill="#3C3C3D"/>
</svg>
