<svg width="1340" height="432" viewBox="0 0 1340 432" fill="none" xmlns="http://www.w3.org/2000/svg">
<g clip-path="url(#clip0_2262_1064)">
<rect width="1340" height="432" fill="#1C1C1C"/>
<g filter="url(#filter0_f_2262_1064)">
<path fill-rule="evenodd" clip-rule="evenodd" d="M1023.76 155.606C1075.63 182.421 1053.68 258.432 1080.21 305.294C1101.35 342.64 1142.53 365.735 1163.82 402.999C1189.56 448.035 1244.13 491.607 1218.37 547.089C1191.8 604.294 1096.55 620.293 1041.99 665.384C996.979 702.577 974.946 754.567 926.488 788.285C874.203 824.665 814.314 857.229 753.459 866.143C692.34 875.097 632.905 863.286 588.385 837.814C546.082 813.61 548.978 755.551 510.773 727.29C464.84 693.312 351.694 714.074 345.52 658.159C339.195 600.888 456.542 558.446 485.54 498.797C510.571 447.31 470.598 397.678 497.065 346.437C525.061 292.237 574.84 238.756 636.074 207.361C697.331 175.953 764.571 184.542 829.817 175.832C895.524 167.061 974.214 129.986 1023.76 155.606Z" fill="url(#paint0_linear_2262_1064)"/>
</g>
<g filter="url(#filter1_f_2262_1064)">
<path fill-rule="evenodd" clip-rule="evenodd" d="M1252.61 255.064C1306.78 262.991 1313.77 310.285 1352.84 333.557C1383.97 352.104 1427.6 359.444 1458.83 377.921C1496.58 400.251 1558.84 417.496 1555.5 453.448C1552.05 490.516 1474.91 513.784 1443.03 547.943C1416.73 576.118 1415.43 609.498 1384.94 636.165C1352.05 664.938 1311.26 692.615 1261.53 706.724C1211.58 720.893 1155.98 722.777 1108.64 714.549C1063.66 706.731 1046.28 672.644 1003.47 661.872C951.986 648.92 860.957 677.579 836.448 646.068C811.344 613.792 898.591 571.947 903.313 533.104C907.388 499.576 855.715 476.673 861.12 443.077C866.838 407.54 891.697 369.22 934.056 342.023C976.432 314.815 1037.7 309.917 1091.31 295.282C1145.3 280.544 1200.85 247.489 1252.61 255.064Z" fill="url(#paint1_linear_2262_1064)"/>
</g>
<g filter="url(#filter2_b_2262_1064)">
<rect width="1340" height="432" fill="black" fill-opacity="0.1"/>
</g>
</g>
<defs>
<filter id="filter0_f_2262_1064" x="212.881" y="14.332" width="1144.62" height="987.175" filterUnits="userSpaceOnUse" color-interpolation-filters="sRGB">
<feFlood flood-opacity="0" result="BackgroundImageFix"/>
<feBlend mode="normal" in="SourceGraphic" in2="BackgroundImageFix" result="shape"/>
<feGaussianBlur stdDeviation="66.1962" result="effect1_foregroundBlur_2262_1064"/>
</filter>
<filter id="filter1_f_2262_1064" x="762.051" y="184.082" width="863.444" height="605.22" filterUnits="userSpaceOnUse" color-interpolation-filters="sRGB">
<feFlood flood-opacity="0" result="BackgroundImageFix"/>
<feBlend mode="normal" in="SourceGraphic" in2="BackgroundImageFix" result="shape"/>
<feGaussianBlur stdDeviation="34.9345" result="effect1_foregroundBlur_2262_1064"/>
</filter>
<filter id="filter2_b_2262_1064" x="-20" y="-20" width="1380" height="472" filterUnits="userSpaceOnUse" color-interpolation-filters="sRGB">
<feFlood flood-opacity="0" result="BackgroundImageFix"/>
<feGaussianBlur in="BackgroundImageFix" stdDeviation="10"/>
<feComposite in2="SourceAlpha" operator="in" result="effect1_backgroundBlur_2262_1064"/>
<feBlend mode="normal" in="SourceGraphic" in2="effect1_backgroundBlur_2262_1064" result="shape"/>
</filter>
<linearGradient id="paint0_linear_2262_1064" x1="1146.97" y1="395.405" x2="445.904" y2="382.19" gradientUnits="userSpaceOnUse">
<stop stop-color="#217A1B"/>
<stop offset="1" stop-color="#0E5409"/>
</linearGradient>
<linearGradient id="paint1_linear_2262_1064" x1="1579.5" y1="658.5" x2="530.897" y2="341.945" gradientUnits="userSpaceOnUse">
<stop stop-color="white"/>
<stop offset="0.79" stop-color="#0E5409"/>
</linearGradient>
<clipPath id="clip0_2262_1064">
<rect width="1340" height="432" fill="white"/>
</clipPath>
</defs>
</svg>
