<?xml version="1.0" encoding="utf-8"?>
<!-- Generator: Adobe Illustrator 26.4.1, SVG Export Plug-In . SVG Version: 6.00 Build 0)  -->
<svg version="1.1" id="图层_1" xmlns="http://www.w3.org/2000/svg" xmlns:xlink="http://www.w3.org/1999/xlink" x="0px" y="0px"
	 viewBox="0 0 1340 460" style="enable-background:new 0 0 1340 460;" xml:space="preserve">
<style type="text/css">
	.st0{clip-path:url(#SVGID_00000183250529374370633230000007180299776537265588_);}
	.st1{fill:#1C1C1C;}
	.st2{fill:#FFFFFF;fill-opacity:0.17;}
	.st3{fill:#FFFFFF;}
	.st4{fill:#6B1597;}
	.st5{fill:#0E5409;}
	.st6{fill:#DC8FFB;}
	.st7{fill:#C0E463;}
</style>
<g>
	<g>
		<defs>
			<rect id="SVGID_1_" y="0" width="1340" height="460"/>
		</defs>
		<clipPath id="SVGID_00000126287910872423357490000002727786069504654727_">
			<use xlink:href="#SVGID_1_"  style="overflow:visible;"/>
		</clipPath>
		<g style="clip-path:url(#SVGID_00000126287910872423357490000002727786069504654727_);">
			<rect y="0" class="st1" width="1340" height="460"/>
			<path class="st2" d="M437,358h764c19.3,0,35,15.7,35,35l0,0c0,19.3-15.7,35-35,35H437c-19.3,0-35-15.7-35-35l0,0
				C402,373.7,417.7,358,437,358z"/>
			<path class="st3" d="M449.3,383.8c-0.2-1.7-1-3.1-2.5-4c-1.5-1-3.2-1.4-5.4-1.4c-1.5,0-2.9,0.2-4.1,0.8c-1.1,0.5-2,1.2-2.7,2.1
				c-0.6,0.9-1,1.9-1,3c0,0.9,0.2,1.7,0.7,2.4c0.5,0.7,1,1.2,1.7,1.7c0.7,0.4,1.4,0.8,2.2,1.1c0.8,0.3,1.5,0.5,2.1,0.7l3.5,1
				c0.9,0.2,1.9,0.6,3,1s2.2,1,3.2,1.7s1.9,1.6,2.6,2.8c0.7,1.1,1,2.5,1,4.1c0,1.9-0.5,3.6-1.5,5.1s-2.4,2.7-4.3,3.6
				s-4.2,1.3-6.8,1.3c-2.5,0-4.7-0.4-6.5-1.2c-1.8-0.8-3.2-1.9-4.3-3.4c-1-1.4-1.6-3.1-1.8-5h4.4c0.1,1.3,0.6,2.4,1.3,3.3
				c0.8,0.9,1.8,1.5,3,1.9s2.5,0.6,3.9,0.6c1.6,0,3.1-0.3,4.3-0.8c1.3-0.5,2.3-1.3,3.1-2.2c0.8-1,1.1-2.1,1.1-3.3
				c0-1.2-0.3-2.1-1-2.8c-0.6-0.7-1.5-1.3-2.6-1.8s-2.2-0.9-3.4-1.2l-4.3-1.2c-2.7-0.8-4.9-1.9-6.5-3.4s-2.4-3.4-2.4-5.7
				c0-2,0.5-3.7,1.6-5.1c1.1-1.5,2.5-2.6,4.3-3.4s3.8-1.2,6.1-1.2c2.2,0,4.2,0.4,6,1.2c1.8,0.8,3.1,1.9,4.2,3.3c1,1.4,1.6,3,1.6,4.7
				h-3.8V383.8z M459.9,410v-34.9h4.2v15.5h18.6v-15.5h4.2V410h-4.2v-15.6h-18.6V410H459.9z M523.9,392.5c0,3.7-0.7,6.9-2,9.5
				c-1.3,2.7-3.2,4.8-5.5,6.2c-2.3,1.5-5,2.2-7.9,2.2c-3,0-5.6-0.7-7.9-2.2s-4.1-3.5-5.5-6.2c-1.3-2.7-2-5.9-2-9.5
				c0-3.7,0.7-6.9,2-9.5c1.3-2.7,3.2-4.8,5.5-6.2c2.3-1.5,5-2.2,7.9-2.2c3,0,5.6,0.7,7.9,2.2s4.1,3.5,5.5,6.2
				C523.2,385.7,523.9,388.9,523.9,392.5z M519.8,392.5c0-3-0.5-5.6-1.5-7.7s-2.4-3.7-4.1-4.7c-1.7-1.1-3.6-1.6-5.7-1.6
				s-4,0.5-5.7,1.6s-3.1,2.6-4.1,4.7s-1.5,4.6-1.5,7.7c0,3,0.5,5.6,1.5,7.7s2.4,3.7,4.1,4.7c1.7,1.1,3.6,1.6,5.7,1.6s4-0.5,5.7-1.6
				s3.1-2.6,4.1-4.7S519.8,395.6,519.8,392.5z M530,410v-34.9h11.8c2.7,0,5,0.5,6.7,1.4c1.8,0.9,3,2.2,3.9,3.8
				c0.8,1.6,1.3,3.4,1.3,5.5s-0.4,3.9-1.3,5.5s-2.1,2.8-3.9,3.8c-1.7,0.9-4,1.3-6.7,1.3h-9.5v-3.8h9.4c1.9,0,3.4-0.3,4.5-0.8
				s2-1.3,2.5-2.3s0.8-2.2,0.8-3.6s-0.3-2.6-0.8-3.7c-0.5-1-1.4-1.9-2.5-2.4c-1.1-0.6-2.7-0.9-4.6-0.9h-7.4V410H530z M546.5,394.3
				l8.6,15.7h-4.9l-8.5-15.7H546.5z M557.9,378.8V375h26.2v3.8h-11V410h-4.2v-31.2H557.9z M600.5,390.7v3.8h-15.3v-3.8H600.5z
				 M607.2,410v-34.9h20.9v3.8h-16.7v11.8h15.1v3.8h-15.1V410H607.2z M663.9,392.5c0,3.7-0.7,6.9-2,9.5c-1.3,2.7-3.2,4.8-5.5,6.2
				c-2.3,1.5-5,2.2-7.9,2.2c-3,0-5.6-0.7-7.9-2.2c-2.3-1.5-4.1-3.5-5.5-6.2c-1.3-2.7-2-5.9-2-9.5c0-3.7,0.7-6.9,2-9.5
				c1.3-2.7,3.2-4.8,5.5-6.2c2.3-1.5,5-2.2,7.9-2.2c3,0,5.6,0.7,7.9,2.2c2.3,1.5,4.1,3.5,5.5,6.2
				C663.2,385.7,663.9,388.9,663.9,392.5z M659.8,392.5c0-3-0.5-5.6-1.5-7.7s-2.4-3.7-4.1-4.7c-1.7-1.1-3.6-1.6-5.7-1.6
				c-2.1,0-4,0.5-5.7,1.6s-3.1,2.6-4.1,4.7s-1.5,4.6-1.5,7.7c0,3,0.5,5.6,1.5,7.7s2.4,3.7,4.1,4.7c1.7,1.1,3.6,1.6,5.7,1.6
				c2.1,0,4-0.5,5.7-1.6s3.1-2.6,4.1-4.7S659.8,395.6,659.8,392.5z M670,410v-34.9h11.8c2.7,0,5,0.5,6.7,1.4c1.8,0.9,3,2.2,3.9,3.8
				c0.8,1.6,1.3,3.4,1.3,5.5s-0.4,3.9-1.3,5.5s-2.1,2.8-3.9,3.8c-1.7,0.9-4,1.3-6.7,1.3h-9.5v-3.8h9.4c1.9,0,3.4-0.3,4.5-0.8
				s2-1.3,2.5-2.3s0.8-2.2,0.8-3.6s-0.3-2.6-0.8-3.7c-0.5-1-1.4-1.9-2.5-2.4c-1.1-0.6-2.7-0.9-4.6-0.9h-7.4V410H670z M686.4,394.3
				L695,410h-4.9l-8.5-15.7H686.4z M699.7,375.1h5l11.9,29h0.4l11.9-29h5V410h-4v-26.5h-0.3L718.8,410H715l-11-26.5h-0.3V410h-4
				V375.1z M755.5,375.1l10.4,29.4h0.4l10.4-29.4h4.4L768.2,410h-4.4L751,375.1H755.5z M789.7,375.1V410h-4.2v-34.9H789.7z M808,410
				h-10.8v-34.9h11.2c3.4,0,6.3,0.7,8.7,2.1s4.3,3.4,5.5,6c1.3,2.6,1.9,5.7,1.9,9.3c0,3.6-0.6,6.8-1.9,9.4c-1.3,2.6-3.2,4.6-5.7,6
				C814.6,409.3,811.6,410,808,410z M801.5,406.2h6.3c2.9,0,5.3-0.6,7.2-1.7s3.3-2.7,4.2-4.8c0.9-2.1,1.4-4.5,1.4-7.3
				s-0.5-5.2-1.4-7.3c-0.9-2-2.3-3.6-4.1-4.7s-4.1-1.7-6.8-1.7h-6.8L801.5,406.2L801.5,406.2z M830.8,410v-34.9h21.1v3.8H835v11.8
				h15.8v3.8H835v11.9h17.1v3.8h-21.3V410z M888,392.5c0,3.7-0.7,6.9-2,9.5c-1.3,2.7-3.2,4.8-5.5,6.2c-2.3,1.5-5,2.2-7.9,2.2
				c-3,0-5.6-0.7-7.9-2.2c-2.3-1.5-4.1-3.5-5.5-6.2c-1.3-2.7-2-5.9-2-9.5c0-3.7,0.7-6.9,2-9.5c1.3-2.7,3.2-4.8,5.5-6.2
				c2.3-1.5,5-2.2,7.9-2.2c3,0,5.6,0.7,7.9,2.2c2.3,1.5,4.1,3.5,5.5,6.2C887.3,385.7,888,388.9,888,392.5z M883.9,392.5
				c0-3-0.5-5.6-1.5-7.7s-2.4-3.7-4.1-4.7c-1.7-1.1-3.6-1.6-5.7-1.6c-2.1,0-4,0.5-5.7,1.6s-3.1,2.6-4.1,4.7s-1.5,4.6-1.5,7.7
				c0,3,0.5,5.6,1.5,7.7s2.4,3.7,4.1,4.7c1.7,1.1,3.6,1.6,5.7,1.6c2.1,0,4-0.5,5.7-1.6s3.1-2.6,4.1-4.7S883.9,395.6,883.9,392.5z
				 M913.2,383.8c-0.2-1.7-1-3.1-2.5-4c-1.5-1-3.2-1.4-5.4-1.4c-1.5,0-2.9,0.2-4.1,0.8c-1.1,0.5-2,1.2-2.7,2.1c-0.6,0.9-1,1.9-1,3
				c0,0.9,0.2,1.7,0.7,2.4c0.5,0.7,1,1.2,1.7,1.7c0.7,0.4,1.4,0.8,2.2,1.1c0.8,0.3,1.5,0.5,2.1,0.7l3.5,1c0.9,0.2,1.9,0.6,3,1
				s2.2,1,3.2,1.7s1.9,1.6,2.6,2.8c0.7,1.1,1,2.5,1,4.1c0,1.9-0.5,3.6-1.5,5.1s-2.4,2.7-4.3,3.6c-1.9,0.9-4.2,1.3-6.8,1.3
				c-2.5,0-4.7-0.4-6.5-1.2c-1.8-0.8-3.2-1.9-4.3-3.4c-1-1.4-1.6-3.1-1.8-5h4.4c0.1,1.3,0.6,2.4,1.3,3.3c0.8,0.9,1.8,1.5,3,1.9
				s2.5,0.6,3.9,0.6c1.6,0,3.1-0.3,4.3-0.8c1.3-0.5,2.3-1.3,3.1-2.2c0.8-1,1.1-2.1,1.1-3.3c0-1.2-0.3-2.1-1-2.8s-1.5-1.3-2.6-1.8
				s-2.2-0.9-3.4-1.2l-4.3-1.2c-2.7-0.8-4.9-1.9-6.5-3.4s-2.4-3.4-2.4-5.7c0-2,0.5-3.7,1.6-5.1c1.1-1.5,2.5-2.6,4.3-3.4
				s3.8-1.2,6.1-1.2c2.2,0,4.2,0.4,6,1.2c1.8,0.8,3.1,1.9,4.2,3.3c1,1.4,1.6,3,1.6,4.7h-3.8V383.8z M936.3,410v-34.9h11.8
				c2.7,0,5,0.5,6.7,1.5c1.8,1,3,2.3,3.9,4c0.8,1.7,1.3,3.5,1.3,5.6s-0.4,3.9-1.3,5.6c-0.8,1.7-2.1,3-3.9,4c-1.7,1-4,1.5-6.7,1.5
				h-8.5v-3.8h8.3c1.9,0,3.4-0.3,4.5-1c1.1-0.6,2-1.5,2.5-2.6s0.8-2.4,0.8-3.8s-0.3-2.6-0.8-3.8c-0.5-1.1-1.3-2-2.5-2.6
				c-1.1-0.6-2.7-1-4.6-1h-7.4V410H936.3z M965.8,410v-34.9h4.2v31.2h16.2v3.8h-20.4V410z M995.5,410h-4.4l12.8-34.9h4.4l12.8,34.9
				h-4.4l-10.4-29.4h-0.3L995.5,410z M997.1,396.4h17.9v3.8h-17.9V396.4z M1019.5,378.8V375h26.2v3.8h-11V410h-4.2v-31.2H1019.5z
				 M1051.3,410v-34.9h20.9v3.8h-16.7v11.8h15.1v3.8h-15.1V410H1051.3z M1108,392.5c0,3.7-0.7,6.9-2,9.5c-1.3,2.7-3.2,4.8-5.5,6.2
				c-2.3,1.5-5,2.2-7.9,2.2c-3,0-5.6-0.7-7.9-2.2s-4.1-3.5-5.5-6.2s-2-5.9-2-9.5c0-3.7,0.7-6.9,2-9.5s3.2-4.8,5.5-6.2
				c2.3-1.5,5-2.2,7.9-2.2c3,0,5.6,0.7,7.9,2.2s4.1,3.5,5.5,6.2C1107.3,385.7,1108,388.9,1108,392.5z M1103.9,392.5
				c0-3-0.5-5.6-1.5-7.7s-2.3-3.7-4.1-4.7c-1.7-1.1-3.6-1.6-5.7-1.6s-4,0.5-5.7,1.6s-3.1,2.6-4.1,4.7s-1.5,4.6-1.5,7.7
				c0,3,0.5,5.6,1.5,7.7s2.4,3.7,4.1,4.7c1.7,1.1,3.6,1.6,5.7,1.6s4-0.5,5.7-1.6s3.1-2.6,4.1-4.7S1103.9,395.6,1103.9,392.5z
				 M1114.1,410v-34.9h11.8c2.7,0,5,0.5,6.7,1.4c1.8,0.9,3.1,2.2,3.9,3.8c0.8,1.6,1.3,3.4,1.3,5.5s-0.4,3.9-1.3,5.5
				s-2.1,2.8-3.9,3.8c-1.7,0.9-4,1.3-6.7,1.3h-9.5v-3.8h9.4c1.9,0,3.4-0.3,4.5-0.8s2-1.3,2.5-2.3s0.8-2.2,0.8-3.6s-0.3-2.6-0.8-3.7
				c-0.5-1-1.4-1.9-2.5-2.4c-1.1-0.6-2.7-0.9-4.5-0.9h-7.4V410H1114.1z M1130.5,394.3l8.6,15.7h-4.9l-8.4-15.7H1130.5z
				 M1143.8,375.1h5.1l11.9,29h0.4l11.9-29h5V410h-4v-26.5h-0.3l-10.9,26.5h-3.8l-10.9-26.5h-0.3V410h-4L1143.8,375.1L1143.8,375.1z
				 M1204.7,383.8c-0.2-1.7-1-3.1-2.5-4c-1.5-1-3.2-1.4-5.3-1.4c-1.5,0-2.9,0.2-4.1,0.8c-1.2,0.5-2.1,1.2-2.7,2.1s-1,1.9-1,3
				c0,0.9,0.2,1.7,0.7,2.4c0.4,0.7,1,1.2,1.7,1.7c0.7,0.4,1.4,0.8,2.2,1.1c0.8,0.3,1.5,0.5,2.1,0.7l3.5,1c0.9,0.2,1.9,0.6,3,1
				s2.2,1,3.2,1.7s1.9,1.6,2.6,2.8s1,2.5,1,4.1c0,1.9-0.5,3.6-1.5,5.1s-2.4,2.7-4.3,3.6s-4.2,1.3-6.8,1.3c-2.5,0-4.7-0.4-6.5-1.2
				c-1.8-0.8-3.2-1.9-4.3-3.4c-1-1.4-1.6-3.1-1.8-5h4.4c0.1,1.3,0.6,2.4,1.3,3.3c0.8,0.9,1.8,1.5,3,1.9s2.5,0.6,3.9,0.6
				c1.6,0,3.1-0.3,4.3-0.8c1.3-0.5,2.3-1.3,3.1-2.2c0.8-1,1.1-2.1,1.1-3.3c0-1.2-0.3-2.1-1-2.8c-0.6-0.7-1.5-1.3-2.5-1.8
				c-1.1-0.5-2.2-0.9-3.4-1.2l-4.3-1.2c-2.7-0.8-4.9-1.9-6.5-3.4s-2.4-3.4-2.4-5.7c0-2,0.5-3.7,1.6-5.1c1.1-1.5,2.5-2.6,4.3-3.4
				s3.8-1.2,6-1.2s4.2,0.4,6,1.2c1.8,0.8,3.1,1.9,4.2,3.3c1,1.4,1.6,3,1.6,4.7h-3.9V383.8z"/>
			<path class="st4" d="M1056.7,245.8l301.2,68.9c18.8,4.3,30.6,23.1,26.3,41.9l0,0c-4.3,18.8-23.1,30.6-41.9,26.3L1041.1,314
				c-18.8-4.3-30.6-23.1-26.3-41.9l0,0C1019.1,253.3,1037.9,241.5,1056.7,245.8z"/>
			<path class="st3" d="M1050.4,261.9l-7.8,34l-4.1-0.9l7.8-34L1050.4,261.9z M1084.7,269.7l-7.8,34l-4-0.9l-12.4-31l-0.3-0.1
				l-6.1,26.7l-4.1-0.9l7.8-34l4,0.9l12.5,31l0.3,0.1l6.1-26.8L1084.7,269.7z M1093.4,271.7l3.6,31l0.4,0.1l16.7-26.3l4.3,1
				l-20.3,31.2l-4.3-1l-4.7-36.9L1093.4,271.7z M1115,312.5l7.8-34l20.5,4.7l-0.8,3.7L1126,283l-2.6,11.5l15.4,3.5l-0.8,3.7
				l-15.3-3.5l-2.7,11.6l16.7,3.8l-0.8,3.7L1115,312.5z M1166.4,297.4c0.2-1.7-0.3-3.2-1.5-4.5s-2.8-2.1-4.9-2.6
				c-1.5-0.3-2.9-0.4-4.1-0.2c-1.2,0.2-2.2,0.7-3.1,1.4c-0.8,0.7-1.4,1.6-1.6,2.7c-0.2,0.9-0.2,1.7,0.1,2.5c0.3,0.7,0.7,1.4,1.3,2
				c0.6,0.6,1.2,1.1,1.9,1.5c0.7,0.4,1.3,0.8,1.9,1.1l3.2,1.7c0.8,0.4,1.7,1,2.7,1.6c1,0.7,1.9,1.5,2.8,2.4c0.8,0.9,1.5,2,1.9,3.3
				c0.4,1.2,0.4,2.7,0.1,4.3c-0.4,1.8-1.3,3.4-2.6,4.7c-1.3,1.3-3,2.1-5,2.6s-4.3,0.4-7-0.2c-2.4-0.6-4.5-1.4-6.1-2.6
				s-2.7-2.6-3.4-4.2c-0.7-1.6-0.9-3.4-0.6-5.3l4.2,1c-0.2,1.3,0,2.5,0.6,3.5s1.4,1.8,2.5,2.5s2.3,1.2,3.7,1.5
				c1.6,0.4,3,0.4,4.4,0.2c1.4-0.2,2.5-0.7,3.5-1.5c0.9-0.8,1.6-1.8,1.8-3c0.3-1.1,0.2-2.1-0.3-3s-1.2-1.6-2.1-2.3
				c-0.9-0.7-2-1.3-3.1-1.9l-3.9-2.2c-2.5-1.4-4.3-2.9-5.6-4.7c-1.2-1.8-1.6-3.8-1-6.1c0.4-1.9,1.3-3.4,2.7-4.6c1.4-1.2,3-2,4.9-2.4
				s4-0.3,6.2,0.2s4.1,1.3,5.6,2.5s2.6,2.5,3.3,4.1c0.7,1.6,0.9,3.2,0.5,5L1166.4,297.4z M1176,294.5l0.8-3.7l25.5,5.8l-0.8,3.7
				l-10.7-2.4l-7,30.4l-4.1-0.9l7-30.4L1176,294.5z M1207.8,297.9l4.9,1.1l5.1,30.9l0.4,0.1l18-25.6l4.9,1.1l-7.8,34l-3.8-0.9
				l5.9-25.9l-0.3-0.1l-16.5,23.4l-3.7-0.9l-4.7-28.3l-0.3-0.1l-5.9,25.9l-3.9-0.9L1207.8,297.9z M1240.7,341.2l7.8-34l20.5,4.7
				l-0.8,3.7l-16.4-3.8l-2.6,11.5l15.3,3.5l-0.8,3.7l-15.3-3.5l-2.7,11.6l16.7,3.8l-0.8,3.7L1240.7,341.2z M1302.5,319.5l-7.8,34
				l-4-0.9l-12.4-31l-0.3-0.1l-6.1,26.7l-4.1-0.9l7.8-34l4,0.9l12.5,31l0.3,0.1l6.1-26.8L1302.5,319.5z M1307.1,324.4l0.8-3.7
				l25.5,5.8l-0.8,3.7l-10.7-2.4l-7,30.4l-4.1-0.9l7-30.4L1307.1,324.4z M1355.5,340.6c0.2-1.7-0.3-3.2-1.5-4.5s-2.8-2.1-4.9-2.6
				c-1.5-0.3-2.9-0.4-4.1-0.2c-1.2,0.2-2.3,0.7-3.1,1.4c-0.8,0.7-1.3,1.6-1.6,2.7c-0.2,0.9-0.2,1.7,0.1,2.5c0.3,0.7,0.7,1.4,1.3,2
				c0.6,0.6,1.2,1.1,1.9,1.5c0.7,0.4,1.3,0.8,1.9,1.1l3.2,1.7c0.8,0.4,1.7,1,2.7,1.6c1,0.7,1.9,1.5,2.8,2.4s1.5,2,1.9,3.3
				c0.4,1.2,0.4,2.7,0.1,4.3c-0.4,1.8-1.3,3.4-2.6,4.7c-1.3,1.3-3,2.1-5,2.6s-4.4,0.4-7-0.2c-2.4-0.6-4.5-1.4-6.1-2.6
				s-2.7-2.6-3.4-4.2c-0.7-1.6-0.9-3.4-0.6-5.3l4.3,1c-0.2,1.3,0,2.5,0.6,3.5s1.4,1.8,2.5,2.5s2.3,1.2,3.7,1.5
				c1.6,0.4,3,0.4,4.4,0.2c1.4-0.2,2.5-0.7,3.5-1.5c0.9-0.8,1.6-1.8,1.8-3c0.3-1.1,0.2-2.1-0.3-3s-1.2-1.6-2.1-2.3
				c-0.9-0.7-2-1.3-3.1-1.9l-3.9-2.2c-2.5-1.4-4.3-2.9-5.6-4.7c-1.2-1.8-1.6-3.8-1.1-6.1c0.4-1.9,1.3-3.4,2.7-4.6
				c1.4-1.2,3-2,4.9-2.4s4-0.3,6.2,0.2s4.1,1.3,5.6,2.5s2.6,2.5,3.3,4.1c0.7,1.6,0.9,3.2,0.5,5L1355.5,340.6z"/>
			<path class="st5" d="M-8.6,324.4l271.9-52.8c19-3.7,37.3,8.7,41,27.7l0,0c3.7,19-8.7,37.3-27.7,41L4.7,393.2
				c-19,3.7-37.3-8.7-41-27.7l0,0C-40,346.5-27.6,328.1-8.6,324.4z"/>
			<g>
				<path class="st3" d="M20.9,338.5l0.7,3.4L10,344.2l1.6,8.1l11.3-2.3l0.7,3.4l-11.3,2.3l2.5,12.5l-3.6,0.7l-5.5-27.4L20.9,338.5z
					"/>
				<path class="st3" d="M56.9,345.6c0.9,4.5,0.3,8.3-1.7,11.5s-5.2,5.2-9.5,6.1c-4.1,0.8-7.6,0.2-10.5-1.9c-3-2.1-4.9-5.3-5.7-9.7
					c-0.9-4.5-0.3-8.3,1.7-11.6s5.2-5.3,9.4-6.1c4.1-0.8,7.6-0.2,10.6,1.9C54.1,337.9,56.1,341.2,56.9,345.6z M52.9,346.6
					c-1.5-7.6-5.5-10.7-11.9-9.4c-3.1,0.6-5.3,2.1-6.6,4.5s-1.6,5.3-0.9,8.9c0.7,3.6,2.1,6.2,4.2,7.8c2.1,1.6,4.6,2.1,7.7,1.5
					c3.1-0.6,5.3-2.1,6.6-4.4C53.3,353.1,53.6,350.1,52.9,346.6z"/>
				<path class="st3" d="M90.5,338.8c0.9,4.5,0.3,8.3-1.7,11.5s-5.2,5.2-9.5,6.1c-4.1,0.8-7.6,0.2-10.5-1.9c-3-2.1-4.9-5.3-5.7-9.7
					c-0.9-4.5-0.3-8.3,1.7-11.6c2-3.2,5.2-5.3,9.4-6.1c4.1-0.8,7.6-0.2,10.6,1.9C87.7,331.1,89.6,334.4,90.5,338.8z M86.5,339.8
					c-1.5-7.6-5.5-10.7-11.9-9.4c-3.1,0.6-5.3,2.1-6.6,4.5c-1.3,2.4-1.6,5.3-0.9,8.9s2.1,6.2,4.2,7.8c2.1,1.6,4.6,2.1,7.7,1.5
					s5.3-2.1,6.6-4.4C86.9,346.3,87.2,343.4,86.5,339.8z"/>
				<path class="st3" d="M95.2,323.5l9.7-2c3.2-0.6,5.7-0.8,7.7-0.5c1.9,0.3,3.7,1.1,5.2,2.4c2.3,2,3.9,4.8,4.6,8.5
					c0.8,4,0.4,7.4-1.2,10.4c-1.7,3.3-5.2,5.5-10.3,6.5l-10.1,2L95.2,323.5z M99.5,326.2l4.2,20.6l6-1.2c7.2-1.4,10.1-5.7,8.6-12.7
					c-0.7-3.6-2.1-6-4.3-7.2c-2.1-1.2-5.3-1.4-9.5-0.5L99.5,326.2z"/>
				<path class="st3" d="M147.4,329.1c0.3,2.2,0,4.4-0.8,6.5l6.1,4.9l-4.1,0.8l-3.5-2.9c-1.5,3.1-3.9,5-7,5.6
					c-2.5,0.5-4.7,0.2-6.5-0.9c-1.9-1.1-3-2.7-3.5-4.9c-0.6-3.2,1.1-6.4,5.1-9.8c-2.7-2.2-4.2-4.1-4.5-5.7c-0.3-1.7,0-3.2,1-4.5
					s2.5-2.2,4.4-2.6c1.8-0.4,3.5-0.1,4.9,0.7c1.4,0.9,2.3,2.1,2.7,3.8c0.5,2.5-0.7,5.1-3.7,7.9l-0.3,0.3l6.5,5.4l0.1-0.4
					c0.2-1,0.3-2.2,0.2-3.5v-0.3L147.4,329.1z M135.4,330.3c-3.1,2.6-4.4,4.9-4,7.1c0.3,1.4,1,2.4,2.2,3.1s2.6,0.9,4.1,0.6
					c2.3-0.5,4-2,5.1-4.7L135.4,330.3z M135.7,326.7c2.4-2.1,3.4-4.1,3.1-5.9c-0.2-0.9-0.7-1.7-1.5-2.1c-0.8-0.5-1.7-0.6-2.7-0.4
					c-2.4,0.5-3.4,1.8-2.9,4c0.2,0.9,0.9,1.9,2.1,3l0.7,0.7C134.9,326.1,135.3,326.4,135.7,326.7z"/>
				<path class="st3" d="M151.5,312.2l9.7-2c3.2-0.6,5.7-0.8,7.7-0.5c1.9,0.3,3.7,1.1,5.2,2.4c2.3,2,3.9,4.8,4.6,8.5
					c0.8,4,0.4,7.4-1.2,10.4c-1.7,3.3-5.2,5.5-10.3,6.5l-10.1,2L151.5,312.2z M155.8,314.9l4.2,20.6l6-1.2
					c7.2-1.4,10.1-5.7,8.6-12.7c-0.7-3.6-2.1-6-4.3-7.2c-2.1-1.2-5.3-1.4-9.5-0.5L155.8,314.9z"/>
				<path class="st3" d="M183.5,305.7l7.8-1.6c6.6-1.3,10.4,0.3,11.3,4.9c0.8,4-0.6,6.7-4.2,8.2l-0.5,0.2h0.5c2.1,0.1,3.5,0.4,4.3,1
					s1.9,2.3,3.4,5.1l1.9,3.5c0.3,0.6,0.7,1.2,1.1,1.9l-3.8,0.8c-0.3-0.6-0.6-1.1-0.9-1.6l-2-3.8c-1.1-2.2-2.3-3.6-3.6-4.2
					c-1.3-0.7-3.1-0.7-5.4-0.3l-3.1,0.6l2.4,11.9l-3.6,0.7L183.5,305.7z M187.8,308.4l1.8,9.1l3.9-0.8c4.3-0.9,6.2-2.8,5.6-5.9
					c-0.6-3-3.2-4.1-7.9-3.1L187.8,308.4z"/>
				<path class="st3" d="M213.6,299.7l5.5,27.4l-3.6,0.7l-5.5-27.4L213.6,299.7z"/>
				<path class="st3" d="M246.6,293l5.5,27.4l-4.7,1L227.3,302l4.5,22.6l-3.6,0.7l-5.5-27.4l4.8-1l20.1,19.5l-4.6-22.6L246.6,293z"
					/>
				<path class="st3" d="M259,290.5l5.5,27.4l-3.6,0.7l-5.5-27.4L259,290.5z M273.2,287.7l-6.4,15.1l13.6,12l-4.8,1L262.4,304
					l6.3-15.4L273.2,287.7z"/>
			</g>
			<path class="st2" d="M507.5,150L877,214.2c19,3.3,31.8,21.4,28.5,40.5l0,0c-3.3,19-21.4,31.8-40.5,28.5L495.5,219
				c-19-3.3-31.8-21.4-28.5-40.5l0,0C470.3,159.4,488.4,146.7,507.5,150z"/>
			<g>
				<path class="st3" d="M506.7,165.4l8.2,1.4c4.9,0.9,8.4,2.3,10.3,4.4c1.9,2,2.6,4.9,1.9,8.6c-1.2,7-6.1,9.8-14.7,8.3l-4.9-0.9
					l-2.2,12.7l-4.4-0.8L506.7,165.4z M510.4,170.4l-2.2,12.7l4.6,0.8c5.7,1,9-0.6,9.7-4.7c0.8-4.3-1.7-6.9-7.2-7.9L510.4,170.4z"/>
				<path class="st3" d="M537.5,170.8l9.6,1.7c8.2,1.4,11.7,5,10.7,10.6c-0.9,4.9-3.7,7.3-8.5,7.5h-0.6l0.5,0.2c2.3,1,3.8,2,4.4,3.1
					c0.6,1.1,1.1,3.5,1.6,7.4l0.6,4.8c0.1,0.8,0.2,1.7,0.4,2.7l-4.7-0.8c-0.1-0.8-0.2-1.6-0.3-2.2l-0.6-5.2c-0.3-3-1.1-5.1-2.3-6.4
					c-1.2-1.3-3.2-2.2-6-2.7l-3.8-0.7l-2.6,14.6l-4.4-0.8L537.5,170.8z M541.2,175.8l-2,11.2l4.8,0.8c5.3,0.9,8.3-0.5,9-4.2
					s-1.9-6.1-7.6-7.1L541.2,175.8z"/>
				<path class="st3" d="M599,199.1c-1,5.5-3.3,9.6-7,12.3s-8.2,3.6-13.5,2.7c-5-0.9-8.7-3.2-11.2-6.9c-2.4-3.7-3.2-8.2-2.2-13.6
					c1-5.5,3.3-9.6,7.1-12.4c3.8-2.8,8.2-3.7,13.4-2.8c5,0.9,8.8,3.2,11.2,6.9C599.2,189.1,599.9,193.7,599,199.1z M593.9,198.4
					c1.6-9.3-1.5-14.7-9.3-16.1c-3.8-0.7-6.9,0.1-9.5,2.1c-2.6,2.1-4.2,5.3-5,9.7s-0.3,8,1.3,10.8s4.3,4.5,8.1,5.2s7,0,9.5-2.1
					S593.2,202.8,593.9,198.4z"/>
				<path class="st3" d="M611.2,183.8l11.9,2.1c3.9,0.7,6.9,1.6,9,2.8s3.7,2.9,4.9,5.1c1.8,3.3,2.2,7.2,1.4,11.8
					c-0.9,4.9-2.9,8.6-6,11.3c-3.5,3-8.3,3.9-14.7,2.8l-12.5-2.2L611.2,183.8z M614.9,188.7l-4.5,25.4l7.4,1.3
					c8.8,1.6,14-2,15.5-10.7c0.8-4.4,0.2-7.8-1.7-10.1s-5.4-3.9-10.6-4.8L614.9,188.7z"/>
				<path class="st3" d="M679.2,195.7l-3.7,21c-1.6,9.3-7.3,13.1-17,11.4c-4.8-0.9-8.2-2.6-10.1-5.3c-1.9-2.7-2.4-6.4-1.6-11.1
					l3.7-21l4.4,0.8l-3.6,20.4c-1.2,6.8,1.5,10.8,8.2,12c3.5,0.6,6.2,0.2,8.1-1.3c1.8-1.5,3.1-4.2,3.8-8.2l3.4-19.4L679.2,195.7z"/>
				<path class="st3" d="M718,211.4l-5.2-0.9c-0.7-3.8-3.5-6.1-8.3-7c-3.7-0.7-6.8,0-9.4,2.1c-2.5,2.1-4.2,5.3-4.9,9.6
					c-0.8,4.4-0.3,8,1.4,10.8s4.4,4.6,8.1,5.3c4.7,0.8,8.1-0.5,10.2-3.9l5.5,1c-3.1,6-8.6,8.3-16.6,6.9c-5.2-0.9-9-3.3-11.4-7.1
					s-3.2-8.5-2.2-14c1-5.4,3.2-9.4,6.9-12c3.6-2.6,8.1-3.5,13.4-2.5c3.8,0.7,6.8,2.1,9,4.2S717.9,208.5,718,211.4z"/>
				<path class="st3" d="M753.6,208.8l-0.7,4.2l-12-2.1l-5.2,29.5l-4.4-0.8l5.2-29.5l-12.1-2.1l0.7-4.2L753.6,208.8z"/>
				<path class="st3" d="M765.8,211l-5.9,33.7l-4.4-0.8l5.9-33.7L765.8,211z"/>
				<path class="st3" d="M780.7,248.4l-6.9-36.1l5.1,0.9l5.3,32.2l15.9-28.4l5,0.9l-18.8,31.5L780.7,248.4z"/>
				<path class="st3" d="M817.5,220.1l-5.9,33.7l-4.4-0.8l5.9-33.7L817.5,220.1z"/>
				<path class="st3" d="M853.9,226.5l-0.7,4.2l-12-2.1l-5.2,29.5l-4.4-0.8l5.2-29.5l-12.1-2.1l0.7-4.2L853.9,226.5z"/>
				<path class="st3" d="M887.1,232.3L872.5,250l-0.6,0.8c-0.2,0.3-0.4,0.9-0.6,1.8l-2,11.4l-4.4-0.8l2-11.5c0.1-0.8,0-1.8-0.4-2.9
					l-7.6-21.4l5.3,0.9l6,18.3l11.9-15.2L887.1,232.3z"/>
			</g>
			<path class="st6" d="M664.4,109.3l526-97.9c19-3.5,37.3,9,40.8,28l0,0c3.5,19-9,37.3-28,40.8l-526,97.9c-19,3.5-37.3-9-40.8-28
				l0,0C632.9,131.1,645.4,112.8,664.4,109.3z"/>
			<path class="st1" d="M659.7,131.3l-0.7-3.7l25.7-4.8l0.7,3.7l-10.8,2l5.7,30.6l-4.2,0.8l-5.7-30.6L659.7,131.3z M691.6,121.6
				l15.6,27l0.4-0.1l4.8-30.8l4.4-0.8l-6.2,36.7l-4.3,0.8l-19-32L691.6,121.6z M753.9,118.9c-0.5-1.7-1.6-2.8-3.2-3.5
				c-1.6-0.7-3.4-0.8-5.5-0.4c-1.5,0.3-2.8,0.8-3.9,1.5c-1,0.7-1.8,1.5-2.3,2.5s-0.6,2-0.4,3.1c0.2,0.9,0.5,1.7,1.1,2.2
				c0.6,0.6,1.2,1,2,1.3s1.6,0.5,2.4,0.6c0.8,0.1,1.5,0.2,2.2,0.3l3.7,0.3c0.9,0.1,2,0.2,3.2,0.4c1.2,0.2,2.3,0.6,3.5,1.1
				c1.1,0.5,2.2,1.3,3,2.2c0.9,1,1.4,2.3,1.7,3.9c0.3,1.9,0.2,3.6-0.5,5.3s-1.9,3.1-3.6,4.4c-1.7,1.2-3.8,2.1-6.5,2.6
				c-2.5,0.5-4.7,0.5-6.6,0c-1.9-0.5-3.5-1.3-4.8-2.5s-2.2-2.8-2.6-4.6l4.3-0.8c0.4,1.3,1,2.3,1.9,3s2,1.1,3.3,1.3s2.6,0.1,3.9-0.1
				c1.6-0.3,3-0.8,4.1-1.6c1.2-0.8,2-1.7,2.6-2.7c0.6-1.1,0.7-2.2,0.5-3.5c-0.2-1.1-0.7-2-1.5-2.6s-1.7-1-2.8-1.3s-2.3-0.4-3.6-0.5
				l-4.4-0.4c-2.8-0.3-5.2-1-7-2.1c-1.8-1.1-3-2.9-3.4-5.2c-0.4-1.9-0.2-3.7,0.6-5.3c0.8-1.6,2-3,3.6-4.1s3.5-1.9,5.7-2.3
				s4.3-0.4,6.1,0.1c1.9,0.5,3.4,1.3,4.7,2.5s2.1,2.6,2.5,4.3L753.9,118.9z M761.4,112.4l-0.7-3.7l25.7-4.8l0.7,3.7l-10.8,2
				l5.7,30.6l-4.2,0.8l-5.7-30.6L761.4,112.4z M798.4,137.2l-6.4-34.3l11.6-2.2c2.7-0.5,5-0.4,6.9,0.1c1.9,0.6,3.4,1.6,4.5,3
				s1.9,3.2,2.2,5.2c0.4,2,0.3,3.9-0.2,5.6s-1.6,3.2-3.1,4.4c-1.5,1.2-3.6,2-6.3,2.5l-9.4,1.7l-0.7-3.8l9.2-1.7
				c1.8-0.3,3.3-0.9,4.3-1.6s1.7-1.7,2-2.7c0.3-1.1,0.4-2.3,0.1-3.7c-0.3-1.4-0.7-2.5-1.4-3.5c-0.7-0.9-1.7-1.6-2.9-1.9
				c-1.2-0.4-2.8-0.4-4.6,0l-7.3,1.4l5.7,30.6L798.4,137.2z M811.6,118.8l11.3,13.8l-4.8,0.9l-11.2-13.9L811.6,118.8z M827.6,131.8
				l-6.4-34.3l20.7-3.9l0.7,3.7l-16.6,3.1l2.2,11.6l15.5-2.9l0.7,3.7l-15.5,2.9l2.2,11.7l16.8-3.1l0.7,3.7L827.6,131.8z
				 M856.3,126.5l-4.4,0.8l6.2-36.7l4.3-0.8l19,32l-4.4,0.8l-15.6-27h-0.3L856.3,126.5z M855.4,112.8l17.6-3.3l0.7,3.7l-17.6,3.3
				L855.4,112.8z M879.4,86.6l5-0.9l17,26.3l0.4-0.1l6.4-30.7l5-0.9l6.4,34.3l-3.9,0.7l-4.9-26.1l-0.3,0.1l-5.9,28.1l-3.8,0.7
				L885.2,94l-0.3,0.1l4.9,26.1l-3.9,0.7L879.4,86.6z M939.2,111l-6.4-34.3l11.6-2.2c2.7-0.5,5-0.4,6.9,0.2s3.4,1.7,4.5,3.2
				s1.9,3.2,2.3,5.3c0.4,2,0.3,3.9-0.2,5.7c-0.5,1.8-1.5,3.4-3.1,4.7c-1.5,1.3-3.6,2.2-6.3,2.7l-8.3,1.5l-0.7-3.7l8.2-1.5
				c1.8-0.3,3.3-0.9,4.3-1.8c1-0.8,1.6-1.9,2-3c0.3-1.2,0.3-2.5,0.1-3.8c-0.3-1.4-0.7-2.6-1.5-3.5c-0.7-1-1.7-1.7-2.9-2.1
				s-2.8-0.5-4.7-0.1l-7.3,1.4l5.7,30.6L939.2,111z M968.2,105.6l-6.4-34.3l4.2-0.8l5.7,30.6l16-3l0.7,3.7L968.2,105.6z
				 M997.4,100.2L993,101l6.2-36.7l4.3-0.8l19,32l-4.4,0.8l-15.6-27h-0.3L997.4,100.2z M996.5,86.5l17.6-3.3l0.7,3.7l-17.6,3.3
				L996.5,86.5z M1015.3,65.2l-0.7-3.7l25.7-4.8l0.7,3.7l-10.8,2l5.7,30.6l-4.1,0.8l-5.7-30.6L1015.3,65.2z M1052.2,90l-6.4-34.3
				l20.6-3.8l0.7,3.7l-16.4,3.1l2.2,11.6l14.9-2.8l0.7,3.7l-14.9,2.8l2.8,15.4L1052.2,90z M1104.7,62.5c0.7,3.6,0.6,6.9-0.2,9.7
				c-0.8,2.9-2.2,5.2-4.2,7.1s-4.5,3.1-7.4,3.6s-5.7,0.3-8.2-0.7c-2.6-1-4.7-2.7-6.5-5.1s-3-5.4-3.7-9s-0.6-6.9,0.2-9.7
				c0.8-2.9,2.2-5.2,4.2-7.1c2-1.9,4.5-3.1,7.4-3.6s5.7-0.3,8.2,0.7c2.6,1,4.7,2.7,6.5,5.1C1102.8,55.8,1104.1,58.9,1104.7,62.5z
				 M1100.7,63.2c-0.5-3-1.5-5.4-2.9-7.2c-1.4-1.9-3-3.2-4.9-3.9s-3.8-0.9-5.9-0.5s-3.9,1.3-5.4,2.6c-1.5,1.4-2.5,3.2-3.1,5.4
				s-0.6,4.8-0.1,7.8c0.6,3,1.5,5.4,2.9,7.2c1.4,1.9,3,3.2,4.9,3.9c1.9,0.7,3.9,0.9,5.9,0.5c2.1-0.4,3.9-1.3,5.3-2.6
				c1.5-1.4,2.5-3.2,3.1-5.4C1101.2,68.8,1101.3,66.2,1100.7,63.2z M1114,78.5l-6.4-34.3l11.6-2.2c2.7-0.5,5-0.5,6.9,0.1
				s3.4,1.6,4.5,3s1.9,3.2,2.2,5.2c0.4,2,0.3,3.9-0.2,5.6c-0.5,1.7-1.6,3.2-3.1,4.4s-3.6,2-6.3,2.5l-9.4,1.7l-0.7-3.8l9.2-1.7
				c1.8-0.3,3.3-0.9,4.3-1.6c1-0.7,1.7-1.7,2-2.7c0.3-1.1,0.4-2.3,0.1-3.7s-0.7-2.5-1.4-3.5c-0.7-0.9-1.7-1.6-2.9-1.9
				c-1.2-0.4-2.8-0.4-4.6,0l-7.3,1.4l5.7,30.6L1114,78.5z M1127.3,60.1l11.3,13.8l-4.8,0.9L1122.6,61L1127.3,60.1z M1136.8,38.7
				l5-0.9l17,26.3l0.4-0.1l6.4-30.7l5-0.9l6.4,34.3l-3.9,0.7l-4.8-26.1l-0.3,0.1l-5.9,28.1l-3.8,0.7l-15.6-24.1l-0.3,0.1l4.8,26.1
				l-3.9,0.7L1136.8,38.7z M1198.2,36.2c-0.5-1.7-1.6-2.8-3.2-3.5s-3.5-0.8-5.5-0.4c-1.5,0.3-2.8,0.8-3.9,1.5
				c-1,0.7-1.8,1.5-2.3,2.5s-0.6,2-0.4,3.1c0.2,0.9,0.5,1.7,1.1,2.2c0.6,0.6,1.2,1,2,1.3s1.6,0.5,2.4,0.7c0.8,0.1,1.6,0.2,2.2,0.3
				l3.7,0.3c0.9,0.1,2,0.2,3.2,0.4s2.3,0.6,3.5,1.1s2.2,1.3,3,2.2c0.9,1,1.4,2.3,1.8,3.9c0.3,1.9,0.2,3.6-0.5,5.3s-1.9,3.1-3.6,4.4
				c-1.7,1.2-3.8,2.1-6.5,2.6c-2.4,0.5-4.7,0.5-6.6,0s-3.6-1.3-4.8-2.5c-1.3-1.2-2.2-2.8-2.7-4.6l4.3-0.8c0.3,1.3,1,2.3,1.9,3
				s2,1.1,3.3,1.3s2.6,0.1,3.9-0.1c1.6-0.3,3-0.8,4.1-1.6c1.2-0.8,2-1.7,2.6-2.7c0.6-1.1,0.7-2.2,0.5-3.5c-0.2-1.1-0.7-2-1.5-2.6
				s-1.7-1-2.8-1.3c-1.1-0.3-2.3-0.4-3.6-0.5l-4.4-0.4c-2.8-0.3-5.2-1-7-2.1s-3-2.9-3.4-5.2c-0.4-1.9-0.2-3.7,0.6-5.3
				c0.8-1.6,2-3,3.6-4.1s3.5-1.9,5.7-2.3s4.3-0.4,6.1,0.1c1.9,0.5,3.4,1.3,4.7,2.5c1.3,1.2,2.1,2.6,2.5,4.3L1198.2,36.2z"/>
			<path class="st4" d="M361.5,288.9l178.3-31c19-3.3,37.2,9.5,40.5,28.5l0,0c3.3,19-9.5,37.2-28.5,40.5l-178.3,31
				c-19,3.3-37.2-9.5-40.5-28.5l0,0C329.7,310.4,342.4,292.2,361.5,288.9z"/>
			<path class="st3" d="M380.3,303l4.2-0.7l4,22.8c0.4,2.4,0.2,4.5-0.6,6.6c-0.8,2-2.1,3.7-3.9,5.2c-1.8,1.4-4.1,2.3-6.8,2.8
				c-2.7,0.5-5.1,0.4-7.3-0.4c-2.2-0.7-4-1.9-5.4-3.5c-1.4-1.7-2.3-3.7-2.7-6l-4-22.8l4.2-0.7l3.9,22.4c0.3,1.7,0.9,3.1,1.9,4.3
				c1,1.2,2.2,2,3.7,2.5s3.2,0.6,5.1,0.3c1.9-0.3,3.5-1,4.7-2s2.1-2.2,2.6-3.6s0.6-3,0.3-4.7L380.3,303z M390.6,305l-0.6-3.7
				l25.8-4.5l0.6,3.7l-10.8,1.9l5.3,30.7l-4.2,0.7l-5.3-30.7L390.6,305z M425.4,295.2l6,34.4l-4.2,0.7l-6-34.4L425.4,295.2z
				 M438.8,328.3l-6-34.4l4.2-0.7l5.3,30.7l16-2.8l0.6,3.7L438.8,328.3z M462.6,288.7l6,34.4l-4.2,0.7l-6-34.4L462.6,288.7z
				 M468.8,291.5l-0.6-3.7l25.8-4.5l0.6,3.7l-10.8,1.9l5.3,30.7l-4.2,0.7l-5.3-30.7L468.8,291.5z M505.4,316.7l-6-34.4l20.8-3.6
				l0.6,3.7l-16.6,2.9l2,11.6l15.5-2.7l0.6,3.7l-15.5,2.7l2,11.7l16.9-2.9l0.6,3.7L505.4,316.7z M547.1,282.9
				c-0.5-1.7-1.5-2.8-3.1-3.5s-3.4-0.9-5.5-0.5c-1.5,0.3-2.8,0.7-3.9,1.4c-1,0.7-1.8,1.5-2.3,2.5s-0.6,2-0.4,3.1
				c0.2,0.9,0.5,1.7,1.1,2.3c0.6,0.6,1.2,1,2,1.3s1.6,0.5,2.4,0.7c0.8,0.1,1.5,0.2,2.2,0.3l3.7,0.3c0.9,0.1,2,0.2,3.2,0.5
				c1.2,0.2,2.3,0.6,3.5,1.1c1.1,0.5,2.1,1.3,3,2.3s1.4,2.3,1.7,3.9c0.3,1.9,0.1,3.6-0.6,5.3c-0.7,1.7-1.9,3.1-3.6,4.3
				c-1.7,1.2-3.9,2-6.5,2.5c-2.5,0.4-4.7,0.4-6.6-0.1c-1.9-0.5-3.5-1.3-4.8-2.6c-1.3-1.2-2.1-2.8-2.6-4.7l4.3-0.7
				c0.3,1.3,1,2.3,1.9,3s2,1.2,3.2,1.4c1.3,0.2,2.6,0.2,3.9-0.1c1.6-0.3,3-0.8,4.1-1.5c1.2-0.7,2-1.6,2.6-2.7s0.8-2.2,0.5-3.5
				c-0.2-1.1-0.7-2-1.4-2.6c-0.8-0.6-1.7-1-2.8-1.3s-2.3-0.5-3.6-0.6l-4.4-0.5c-2.8-0.3-5.1-1-7-2.2c-1.8-1.2-2.9-2.9-3.3-5.2
				c-0.3-1.9-0.1-3.7,0.7-5.3c0.8-1.6,2-3,3.6-4.1s3.6-1.9,5.8-2.2c2.2-0.4,4.3-0.3,6.1,0.2c1.9,0.5,3.4,1.3,4.7,2.5
				s2.1,2.6,2.4,4.4L547.1,282.9z"/>
			<path class="st5" d="M885.5,289.4L1067,119c14.1-13.2,36.2-12.5,49.5,1.5l0,0c13.2,14.1,12.5,36.2-1.5,49.5L933.4,340.5
				c-14.1,13.2-36.2,12.5-49.5-1.5l0,0C870.7,324.8,871.4,302.7,885.5,289.4z"/>
			<g>
				<path class="st3" d="M955.4,273.9l9.5,9.6l-0.4,0.7c-2.8,4.9-6,9.3-9.7,13c-4.7,4.7-9.4,7.3-14.1,7.9c-4.8,0.6-8.9-0.9-12.5-4.4
					c-3.5-3.6-5-7.7-4.4-12.5s3.2-9.5,7.9-14c6.5-6.4,12.2-8.5,17.4-6.2l-4.3,4.3l-0.5-0.1c-3-0.6-6.4,1-10.2,4.8
					c-3.3,3.3-5.1,6.6-5.5,10.1s0.9,6.5,3.6,9.3c2.9,2.9,6.2,4.2,9.8,3.8c3.6-0.4,7.3-2.5,11-6.2c1.9-1.9,3.9-4.5,5.9-7.7l0.7-1
					l-5.2-5.2l-6.2,6.2l-2.5-2.5L955.4,273.9z"/>
				<path class="st3" d="M966,240.8l32.6,11l-4.2,4.1l-8.5-3l-12.8,12.7l3,8.5l-4.2,4.1l-10.8-32.7L966,240.8z M982.3,251.7
					l-16.6-6.3l6.2,16.6L982.3,251.7z"/>
				<path class="st3" d="M1015.5,191.7l24.2,19.3l-3.9,3.9l-20.3-16.9l8.8,28.4l-4.2,4.2l-28.4-8.9l16.8,20.4l-3.9,3.9l-19.1-24.4
					l5.3-5.3l28.2,9l-8.8-28.3L1015.5,191.7z"/>
				<path class="st3" d="M1042.6,164.8l2.7,2.7l-12.1,12l6.4,6.5l11.8-11.7l2.7,2.7l-11.8,11.7l7.1,7.1l12.4-12.3l2.8,2.8
					l-16.2,16.1l-21.7-21.8L1042.6,164.8z"/>
				<path class="st3" d="M1074.7,143.1l-4.1,4c-2.7-1.6-5.6-0.9-8.8,2.3c-1.6,1.6-2.6,3.2-3.1,4.8c-0.4,1.6-0.1,2.9,0.8,3.9
					c1.3,1.3,4.1,1,8.3-1.2l5.3-2.7c3.4-1.7,6-2.6,7.8-2.7c1.9-0.1,3.5,0.6,5,2c2,2,2.7,4.6,1.9,7.6c-0.7,3-2.8,6.2-6.1,9.5
					c-6,6-11.4,7.4-16.2,4.3l4.4-4.3l0.3,0.2c2.6,1.5,5.7,0.5,9.2-3c1.8-1.8,3-3.6,3.5-5.4c0.5-1.8,0.2-3.2-0.8-4.3
					c-1.4-1.4-4.2-1.1-8.4,1.1l-4.8,2.4c-3.5,1.8-6.2,2.7-8.2,2.9c-2,0.1-3.7-0.5-5.2-2c-4-4-2.8-9.2,3.6-15.5
					c5.8-5.8,10.8-7.1,15.2-4.2L1074.7,143.1z"/>
			</g>
			<path class="st7" d="M622.6,257.8L841,284.4c19.2,2.3,32.9,19.8,30.5,39l0,0c-2.3,19.2-19.8,32.9-39,30.5l-218.4-26.5
				c-19.2-2.3-32.9-19.8-30.5-39l0,0C585.9,269.2,603.4,255.5,622.6,257.8z"/>
			<path class="st1" d="M631.7,284.9c0-1.7-0.7-3.2-2-4.3c-1.3-1.1-3-1.8-5.1-2.1c-1.5-0.2-2.9-0.1-4.1,0.3
				c-1.2,0.4-2.2,0.9-2.9,1.7c-0.7,0.8-1.2,1.7-1.3,2.8c-0.1,0.9,0,1.7,0.4,2.5c0.4,0.7,0.9,1.3,1.5,1.9c0.6,0.5,1.3,1,2.1,1.3
				c0.7,0.4,1.4,0.7,2,0.9l3.4,1.4c0.9,0.3,1.8,0.8,2.9,1.3c1.1,0.6,2.1,1.3,3,2.1c0.9,0.8,1.7,1.9,2.2,3.1s0.7,2.6,0.5,4.2
				c-0.2,1.9-0.9,3.5-2.1,4.9c-1.2,1.4-2.7,2.4-4.7,3.1s-4.3,0.8-6.9,0.5c-2.5-0.3-4.6-1-6.3-2s-3-2.3-3.9-3.9s-1.2-3.3-1.1-5.2
				l4.3,0.5c0,1.3,0.3,2.5,0.9,3.4c0.7,0.9,1.6,1.7,2.7,2.3c1.1,0.6,2.4,0.9,3.8,1.1c1.6,0.2,3.1,0.1,4.4-0.3c1.3-0.4,2.4-1,3.3-1.8
				c0.9-0.9,1.4-1.9,1.5-3.2c0.1-1.2-0.1-2.1-0.6-2.9c-0.6-0.8-1.3-1.5-2.3-2.1s-2.1-1.1-3.3-1.6l-4.1-1.7c-2.6-1.1-4.6-2.5-6-4.1
				s-2-3.6-1.7-6c0.2-1.9,1-3.6,2.2-4.9s2.8-2.3,4.7-2.9s3.9-0.8,6.2-0.5c2.2,0.3,4.2,0.9,5.8,1.9s2.9,2.3,3.7,3.8
				c0.9,1.5,1.2,3.1,1.1,4.9L631.7,284.9z M639,312.2l4.2-34.7l4.2,0.5l-1.9,15.4l18.5,2.2l1.9-15.4l4.2,0.5l-4.2,34.7l-4.2-0.5
				l1.9-15.5l-18.5-2.2l-1.9,15.5L639,312.2z M704.7,302.6c-0.4,3.7-1.5,6.7-3.1,9.2s-3.7,4.3-6.2,5.5s-5.2,1.6-8.1,1.2
				c-3-0.4-5.5-1.4-7.6-3.1s-3.7-4-4.7-6.8s-1.3-6.1-0.8-9.7c0.4-3.7,1.5-6.7,3.1-9.2s3.7-4.3,6.2-5.5s5.2-1.6,8.1-1.2
				c3,0.4,5.5,1.4,7.6,3.1s3.7,4,4.7,6.8C704.8,295.7,705.1,298.9,704.7,302.6z M700.6,302.1c0.4-3,0.2-5.6-0.6-7.8
				c-0.7-2.2-1.9-3.9-3.5-5.2c-1.6-1.3-3.4-2-5.5-2.3s-4.1,0-5.9,0.9c-1.8,0.9-3.4,2.3-4.6,4.2c-1.2,1.9-2,4.4-2.4,7.4
				s-0.2,5.6,0.6,7.8c0.8,2.2,1.9,3.9,3.5,5.2c1.6,1.3,3.4,2,5.5,2.3s4.1,0,5.9-0.9c1.8-0.9,3.4-2.3,4.6-4.2
				C699.4,307.6,700.3,305.1,700.6,302.1z M708.7,320.7l4.2-34.7l11.7,1.4c2.7,0.3,4.9,1.1,6.5,2.3c1.6,1.2,2.7,2.7,3.4,4.4
				c0.6,1.8,0.8,3.7,0.6,5.7s-0.9,3.8-1.9,5.4s-2.5,2.7-4.3,3.5s-4.1,1-6.8,0.7l-8.4-1l0.5-3.7l8.3,1c1.9,0.2,3.4,0.1,4.6-0.4
				c1.2-0.5,2.1-1.3,2.8-2.3s1.1-2.3,1.2-3.6c0.2-1.4,0.1-2.7-0.3-3.8c-0.4-1.2-1.1-2.1-2.2-2.9c-1.1-0.8-2.5-1.3-4.4-1.5l-7.4-0.9
				l-3.8,30.9L708.7,320.7z M738,324.2l4.2-34.7l11.7,1.4c2.7,0.3,4.9,1.1,6.5,2.3c1.6,1.2,2.7,2.7,3.4,4.4c0.6,1.8,0.8,3.7,0.6,5.7
				s-0.9,3.8-1.9,5.4s-2.5,2.7-4.3,3.5s-4.1,1-6.8,0.7l-8.4-1l0.5-3.7l8.3,1c1.9,0.2,3.4,0.1,4.6-0.4c1.2-0.5,2.1-1.3,2.8-2.3
				s1.1-2.3,1.2-3.6c0.2-1.4,0.1-2.7-0.3-3.8c-0.4-1.2-1.1-2.1-2.2-2.9c-1.1-0.8-2.5-1.3-4.4-1.5l-7.4-0.9l-3.8,30.9L738,324.2z
				 M775.7,293.6l-4.2,34.7l-4.2-0.5l4.2-34.7L775.7,293.6z M810.6,297.9l-4.2,34.7l-4.1-0.5l-15.6-29.5h-0.3l-3.3,27.2l-4.2-0.5
				l4.2-34.7l4.1,0.5l15.6,29.6h0.3l3.3-27.3L810.6,297.9z M840.4,312.5c-0.2-1.2-0.6-2.3-1.1-3.2c-0.5-1-1.1-1.9-1.9-2.6
				c-0.7-0.7-1.6-1.3-2.6-1.8s-2.1-0.8-3.4-0.9c-2.1-0.2-4,0.1-5.8,0.9c-1.8,0.9-3.3,2.3-4.6,4.2c-1.2,1.9-2,4.4-2.4,7.4
				s-0.2,5.6,0.6,7.8c0.8,2.2,1.9,3.9,3.5,5.2c1.6,1.3,3.5,2,5.6,2.3c2,0.2,3.8,0,5.4-0.6c1.6-0.7,3-1.7,4-3.2s1.7-3.3,2-5.4
				l1.3,0.4l-10.4-1.3l0.5-3.7l13.2,1.6l-0.5,3.7c-0.3,2.9-1.3,5.3-2.7,7.2c-1.5,2-3.3,3.4-5.6,4.3s-4.8,1.2-7.5,0.8
				c-3.1-0.4-5.7-1.4-7.8-3.1s-3.7-4-4.7-6.8s-1.2-6.1-0.8-9.7c0.3-2.7,1-5.2,2-7.3c1-2.1,2.3-3.9,3.8-5.2c1.5-1.4,3.3-2.4,5.2-3
				c2-0.6,4-0.8,6.3-0.5c1.8,0.2,3.5,0.7,5,1.5c1.5,0.7,2.8,1.7,4,2.8c1.1,1.1,2,2.5,2.7,4s1.1,3.1,1.2,4.8L840.4,312.5z"/>
			<path class="st7" d="M200,358h157c19.3,0,35,15.7,35,35l0,0c0,19.3-15.7,35-35,35H200c-19.3,0-35-15.7-35-35l0,0
				C165,373.7,180.7,358,200,358z"/>
			<path class="st7" d="M428.3,80.1L621.4,41c18.9-3.8,37.4,8.4,41.3,27.4l0,0c3.8,18.9-8.4,37.4-27.4,41.3l-193.1,39.1
				c-18.9,3.8-37.4-8.4-41.3-27.4l0,0C397.1,102.4,409.4,83.9,428.3,80.1z"/>
			<path class="st1" d="M442.6,130.2l-10.6,2.1l-6.9-34.2l11-2.2c3.3-0.7,6.3-0.6,8.9,0.3s4.8,2.5,6.6,4.8c1.8,2.3,3,5.2,3.7,8.7
				c0.7,3.6,0.7,6.8,0,9.6c-0.8,2.8-2.2,5.2-4.3,7C448.8,128.3,446,129.5,442.6,130.2z M435.4,127.9l6.1-1.2
				c2.8-0.6,5.1-1.6,6.7-3.1s2.7-3.3,3.2-5.5s0.5-4.7-0.1-7.5s-1.5-5-2.8-6.9c-1.3-1.8-3-3.1-5-3.8c-2-0.7-4.4-0.8-7-0.3l-6.6,1.3
				L435.4,127.9z M464.9,125.7L458,91.5l20.6-4.2l0.7,3.7l-16.5,3.3l2.3,11.6l15.4-3.1l0.7,3.7l-15.4,3.1l2.4,11.6l16.8-3.4l0.7,3.7
				L464.9,125.7z M492,120.2L485.1,86l4.1-0.8l6.2,30.5l15.9-3.2l0.7,3.7L492,120.2z M514.8,80l6.9,34.2l-4.1,0.8l-6.9-34.2
				L514.8,80z M523.5,78.2l16,26.7l0.4-0.1l4.3-30.9l4.3-0.9l-5.6,36.8l-4.3,0.9L519.1,79L523.5,78.2z M559.9,106.5L553,72.3
				l20.6-4.2l0.7,3.7l-16.5,3.3l2.3,11.6l15.4-3.1l0.7,3.7l-15.2,3l2.4,11.6l16.8-3.4l0.7,3.7L559.9,106.5z M587.1,101l-6.9-34.2
				l11.6-2.3c2.7-0.5,5-0.5,6.9,0c1.9,0.6,3.4,1.5,4.6,3c1.1,1.4,1.9,3.1,2.3,5.1c0.4,2,0.4,3.9-0.1,5.6s-1.5,3.2-3,4.4
				c-1.5,1.2-3.6,2.1-6.3,2.6l-9.4,1.9l-0.8-3.7l9.2-1.9c1.8-0.4,3.2-0.9,4.2-1.7c1-0.8,1.7-1.7,2-2.8c0.3-1.1,0.3-2.3,0.1-3.7
				c-0.3-1.4-0.8-2.5-1.5-3.4s-1.7-1.5-2.9-1.9c-1.2-0.3-2.8-0.3-4.6,0.1l-7.3,1.5l6.2,30.5L587.1,101z M600.1,82.3L611.6,96l-4.8,1
				l-11.4-13.7L600.1,82.3z M605.2,61.7l4.7-1l12.7,14l0.4-0.1l6.3-17.9l4.7-1l-8.3,22.6l2.9,14.1l-4.1,0.8l-2.9-14.1L605.2,61.7z"
				/>
			<path class="st7" d="M1115.5,182.3l220.8-37.5c19.1-3.2,37.1,9.6,40.4,28.7l0,0c3.2,19.1-9.6,37.1-28.7,40.4l-220.8,37.5
				c-19.1,3.2-37.1-9.6-40.4-28.7l0,0C1083.6,203.6,1096.4,185.6,1115.5,182.3z"/>
			<g>
				<path d="M1154.6,192.6l0.8,4.7l-12,2l5.7,33.2l-4.4,0.8l-5.7-33.2l-12,2.1l-0.8-4.7L1154.6,192.6z"/>
				<path d="M1162.5,191.2l9.5-1.6c8.1-1.4,12.7,1.1,13.8,7.5c0.9,5.5-0.8,9.1-5.3,11l-0.6,0.2l0.6,0.1c2.5,0.2,4.3,0.8,5.2,1.7
					c0.9,0.9,2.3,3.3,4.1,7.3l2.3,4.9c0.4,0.8,0.8,1.7,1.3,2.7l-4.7,0.8c-0.4-0.8-0.8-1.6-1.1-2.2l-2.4-5.4c-1.3-3-2.8-5.1-4.4-6
					c-1.6-1-3.8-1.2-6.5-0.8l-3.8,0.6l2.8,16.4l-4.4,0.8L1162.5,191.2z M1167.7,195.1l2.1,12.6l4.8-0.8c5.3-0.9,7.6-3.5,6.9-7.6
					c-0.7-4.2-3.9-5.8-9.6-4.8L1167.7,195.1z"/>
				<path d="M1209.9,183l19.3,35.8l-4.9,0.8l-4.9-9.5l-15,2.6l-1.5,10.6l-4.9,0.8l6.3-40.2L1209.9,183z M1217.2,206.1l-9.5-18.9
					l-2.7,21L1217.2,206.1z"/>
				<path d="M1246.6,215.9l-19.3-35.8l5-0.9l16.4,32.3l4.7-35.9l5-0.9l-6.3,40.2L1246.6,215.9z"/>
				<path d="M1284.7,170.3l0.8,4.7l-14.1,2.4l1.9,11.3l13.8-2.4l0.8,4.7l-13.8,2.4l2.1,12.4l14.5-2.5l0.8,4.9l-18.9,3.2l-6.5-37.9
					L1284.7,170.3z"/>
				<path d="M1299.2,167.8l5.7,33.2l14.1-2.4l0.8,4.7l-18.5,3.2l-6.5-37.9L1299.2,167.8z"/>
			</g>
			<path class="st2" d="M699.6,28.5L838-11.3c18.6-5.3,38,5.4,43.3,24l0,0c5.3,18.6-5.4,38-24,43.3L719,95.8
				c-18.6,5.3-38-5.4-43.3-24l0,0C670.3,53.2,681.1,33.8,699.6,28.5z"/>
			<path class="st3" d="M723.8,50.7c-0.7-1-1.4-1.9-2.3-2.6c-0.8-0.7-1.7-1.3-2.7-1.7s-2-0.6-3.1-0.6s-2.3,0.1-3.5,0.5
				c-2,0.6-3.6,1.6-5,3.1c-1.3,1.5-2.2,3.4-2.6,5.7c-0.4,2.3-0.2,4.9,0.7,7.8c0.8,2.9,2,5.2,3.6,6.9c1.5,1.7,3.3,2.9,5.3,3.4
				s4,0.5,6-0.1c1.9-0.6,3.5-1.4,4.7-2.7c1.2-1.3,2-2.8,2.4-4.5c0.4-1.8,0.3-3.7-0.3-5.7l1.3-0.1l-10,2.9l-1-3.6l12.8-3.7l1,3.6
				c0.8,2.8,0.9,5.3,0.3,7.7c-0.6,2.4-1.7,4.4-3.5,6.1c-1.7,1.7-3.9,2.9-6.6,3.7c-3,0.9-5.8,0.9-8.4,0.2c-2.6-0.8-5-2.2-7-4.5
				c-2-2.2-3.5-5.1-4.5-8.6c-0.8-2.7-1.1-5.1-1-7.5c0.1-2.3,0.6-4.4,1.5-6.3s2.1-3.5,3.7-4.8c1.6-1.3,3.4-2.3,5.6-2.9
				c1.8-0.5,3.5-0.7,5.2-0.6c1.7,0.1,3.3,0.4,4.8,1.1c1.5,0.6,2.8,1.5,4,2.6s2.2,2.4,2.9,4L723.8,50.7z M741.2,70.6l-4.3,1.2
				l2.7-37.1l4.2-1.2l22,30l-4.3,1.2l-18.1-25.4l-0.3,0.1L741.2,70.6z M739,57.1l17.2-4.9l1,3.6L740,60.7L739,57.1z M760.4,28.8
				l4.8-1.4L784.7,52l0.4-0.1l3.4-31.1l4.8-1.4l9.7,33.5l-3.8,1.1l-7.3-25.5l-0.3,0.1l-3.2,28.5l-3.7,1.1l-17.8-22.5l-0.3,0.1
				l7.3,25.5l-3.8,1.1L760.4,28.8z M810.2,50.8l-9.7-33.5l20.2-5.8l1,3.6l-16.2,4.7l3.3,11.3l15.1-4.4l1,3.6l-15.1,4.4l3.3,11.4
				l16.4-4.7l1,3.6L810.2,50.8z M847.9,12.7c-0.7-1.6-1.8-2.7-3.5-3.2s-3.5-0.5-5.5,0.1c-1.5,0.4-2.7,1-3.7,1.8s-1.6,1.7-2,2.7
				s-0.4,2.1-0.1,3.1c0.3,0.9,0.7,1.6,1.3,2.1s1.3,0.9,2.1,1.1s1.6,0.4,2.4,0.4c0.8,0,1.6,0.1,2.2,0l3.7-0.1c0.9,0,2,0,3.2,0.1
				s2.4,0.3,3.6,0.8c1.2,0.4,2.3,1.1,3.2,1.9c1,0.9,1.7,2.1,2.1,3.7c0.5,1.8,0.5,3.6,0,5.3c-0.5,1.7-1.6,3.3-3.1,4.7
				c-1.6,1.4-3.6,2.4-6.2,3.2c-2.4,0.7-4.6,0.9-6.6,0.6c-2-0.3-3.7-1-5.1-2.1c-1.4-1.1-2.4-2.6-3.1-4.3l4.2-1.2
				c0.5,1.2,1.2,2.2,2.2,2.8s2.1,0.9,3.4,1c1.3,0.1,2.6-0.1,3.9-0.5c1.6-0.4,2.9-1.1,4-2s1.9-1.9,2.3-3c0.5-1.1,0.5-2.3,0.2-3.5
				c-0.3-1.1-0.9-1.9-1.7-2.5c-0.8-0.5-1.8-0.9-2.9-1c-1.1-0.1-2.3-0.2-3.6-0.2h-4.5c-2.8,0-5.2-0.5-7.2-1.4c-1.9-1-3.2-2.6-3.9-4.8
				c-0.5-1.9-0.5-3.7,0.1-5.4s1.7-3.2,3.2-4.5s3.3-2.2,5.5-2.9c2.2-0.6,4.2-0.8,6.1-0.5c1.9,0.3,3.5,0.9,4.9,2
				c1.4,1,2.3,2.4,2.9,4.1L847.9,12.7z"/>
			<path class="st6" d="M-7.2,164.3L452.6,198c19.3,1.4,33.8,18.2,32.3,37.5l0,0c-1.4,19.3-18.2,33.8-37.5,32.3l-459.8-33.7
				c-19.3-1.4-33.8-18.2-32.3-37.5l0,0C-43.2,177.4-26.5,162.9-7.2,164.3z"/>
			<g>
				<path d="M52.8,186.3l-2.5,32l-7.2-0.6l-21.5-28.2l-2.1,26.3l-5.5-0.4l2.5-32l7.3,0.6l21.4,28.2l2.1-26.4L52.8,186.3z"/>
				<path d="M89.3,189.2l-0.3,4l-17.5-1.4l-0.7,9.5l17.1,1.4l-0.3,4l-17.1-1.4l-0.8,10.4l18,1.4l-0.3,4.1l-23.5-1.9l2.5-32
					L89.3,189.2z"/>
				<path d="M132.6,192.6l-0.3,4l-14.9-1.2l-2.2,28l-5.5-0.4l2.2-28L97,193.8l0.3-4L132.6,192.6z"/>
				<path d="M167.6,198l-13.8,28.5l-7-0.6l-9-33l6,0.5l7.2,28.4l13.3-26.8l7,0.6l9,28.5l11.5-26.9l6,0.5l-14.1,31.1l-7-0.6
					L167.6,198z"/>
				<path d="M245.5,217.7c-0.4,5.2-2.7,9.2-6.8,12s-9.4,3.9-16,3.4c-6.2-0.5-11-2.4-14.5-5.7s-5-7.5-4.6-12.5
					c0.4-5.2,2.7-9.3,6.9-12.1c4.2-2.9,9.4-4,15.9-3.5c6.2,0.5,11.1,2.4,14.5,5.7S245.9,212.5,245.5,217.7z M239.3,217.4
					c0.7-8.8-3.8-13.6-13.5-14.4c-4.7-0.4-8.4,0.5-11.2,2.6s-4.4,5.3-4.7,9.4c-0.3,4.2,0.7,7.5,3,10c2.4,2.5,5.9,3.9,10.5,4.3
					c4.7,0.4,8.4-0.5,11.2-2.6C237.4,224.7,239,221.5,239.3,217.4z"/>
				<path d="M258.5,202.5l11.8,0.9c10.1,0.8,14.9,3.9,14.5,9.3c-0.4,4.6-3.4,7.1-9.3,7.6l-0.7,0.1l0.7,0.2c3,0.8,4.9,1.7,5.8,2.6
					c0.9,0.9,1.9,3.2,3,6.8l1.4,4.5c0.2,0.7,0.5,1.6,0.8,2.5l-5.8-0.5c-0.3-0.8-0.5-1.4-0.7-2l-1.4-4.9c-0.8-2.8-2-4.7-3.6-5.9
					s-4.2-1.9-7.6-2.1l-4.7-0.4l-1.1,13.8l-5.5-0.4L258.5,202.5z M263.7,206.9l-0.8,10.6l5.9,0.5c6.6,0.5,10-1,10.3-4.5
					s-3.1-5.5-10.2-6.1L263.7,206.9z"/>
				<path d="M304,206.1l-2.5,32l-5.5-0.4l2.5-32L304,206.1z M325.4,207.8l-14.9,14.4l15,17.8l-7.3-0.6L303.7,222l15-14.7
					L325.4,207.8z"/>
				<path d="M343.7,209.3l-2.5,32l-5.5-0.4l2.5-32L343.7,209.3z"/>
				<path d="M393.7,213.2l-2.5,32l-7.2-0.6l-21.5-28.2l-2.1,26.3l-5.5-0.4l2.5-32l7.3,0.6l21.4,28.2l2.1-26.4L393.7,213.2z"/>
				<path d="M442.7,233.7l-1.1,14l-0.8,0.2c-5.7,1.2-11.3,1.6-16.7,1.1c-6.8-0.5-12-2.5-15.7-5.8s-5.3-7.6-4.9-12.9
					c0.4-5.2,2.7-9.2,6.9-11.9c4.2-2.8,9.6-3.9,16.3-3.3c9.4,0.7,14.9,3.9,16.6,9.5l-6.2-0.5l-0.3-0.5c-1.6-2.7-5.1-4.3-10.6-4.8
					c-4.8-0.4-8.7,0.5-11.6,2.5c-2.9,2.1-4.5,5.1-4.8,9.1c-0.3,4.3,0.9,7.7,3.7,10.3s6.9,4.1,12.3,4.5c2.8,0.2,6.1,0,10-0.6l1.2-0.2
					l0.6-7.6l-9.1-0.7l0.3-3.6L442.7,233.7z"/>
			</g>
			<path class="st2" d="M0,79l176.7-43.6c18.8-4.6,37.7,6.8,42.4,25.6l0,0c4.6,18.8-6.8,37.7-25.6,42.4L16.7,146.9
				c-18.8,4.6-37.7-6.8-42.4-25.6l0,0C-30.2,102.6-18.8,83.6,0,79z"/>
			<path class="st3" d="M5.9,131.1l-8.4-33.9l20.3-5l0.9,3.6l-16.2,4l2.8,11.5l14.7-3.6l0.9,3.6l-14.7,3.6l3.7,15.2L5.9,131.1z
				 M28,89.7l8.4,33.9l-4.1,1l-8.4-33.9L28,89.7z M62.2,81.2l8.4,33.9l-4,1L41.6,94l-0.3,0.1l6.6,26.6l-4.1,1l-8.4-33.9l4-1l25,22.2
				l0.3-0.1l-6.6-26.7L62.2,81.2z M79.2,113l-4.3,1.1l4.1-37l4.2-1l20.8,30.8l-4.3,1.1L82.5,82l-0.2,0L79.2,113z M77.6,99.4
				l17.3-4.3l0.9,3.6L78.4,103L77.6,99.4z M126.9,65.3l8.4,33.9l-4,1l-25-22.1l-0.3,0.1l6.6,26.6l-4.1,1L100,71.9l4-1L129.1,93
				l0.3-0.1l-6.6-26.7L126.9,65.3z M164.1,67.3l-4.1,1c-0.5-1.1-1.2-2.1-2-2.8c-0.8-0.7-1.7-1.3-2.7-1.7c-1-0.4-2.1-0.6-3.2-0.7
				c-1.1-0.1-2.2,0.1-3.4,0.3c-2.1,0.5-3.8,1.5-5.2,2.9s-2.3,3.3-2.8,5.6c-0.5,2.3-0.3,4.9,0.4,7.8s1.8,5.3,3.3,7.1
				c1.5,1.8,3.2,3,5.1,3.6c1.9,0.6,3.9,0.7,6,0.2c1.1-0.3,2.2-0.7,3.1-1.3c1-0.6,1.8-1.3,2.5-2.1c0.7-0.8,1.2-1.8,1.6-2.8
				c0.4-1.1,0.6-2.2,0.5-3.4l4.1-1c0.1,1.8-0.1,3.5-0.5,5.1c-0.5,1.6-1.2,3-2.2,4.2s-2.2,2.3-3.6,3.2c-1.4,0.9-2.9,1.5-4.6,1.9
				c-2.9,0.7-5.6,0.6-8.2-0.2c-2.6-0.9-4.9-2.4-6.8-4.7c-1.9-2.3-3.3-5.2-4.2-8.8c-0.9-3.6-1-6.8-0.3-9.7c0.6-2.9,1.9-5.4,3.8-7.3
				c1.9-2,4.3-3.3,7.2-4c1.7-0.4,3.4-0.6,5-0.4c1.6,0.1,3.2,0.5,4.6,1.2c1.4,0.6,2.7,1.6,3.9,2.7C162.4,64.3,163.3,65.7,164.1,67.3z
				 M175.5,89.2l-8.4-33.9l20.5-5l0.9,3.6l-16.4,4l2.8,11.5l15.3-3.8l0.9,3.6L175.8,73l2.8,11.5l16.6-4.1l0.9,3.6L175.5,89.2z"/>
			<path class="st5" d="M196.8,105.5l253.3-117c17.5-8.1,38.3-0.4,46.4,17.1l0,0c8.1,17.5,0.4,38.3-17.1,46.4L226.1,169
				c-17.5,8.1-38.3,0.4-46.4-17.1l0,0C171.6,134.4,179.2,113.6,196.8,105.5z"/>
			<path class="st3" d="M212.4,155.5l-14.6-31.7l19.1-8.8l1.6,3.4l-15.3,7.1l4.9,10.7l14.3-6.6l1.6,3.4l-14.3,6.6l5,10.8l15.5-7.2
				l1.6,3.4L212.4,155.5z M253,110.3l-3.8,1.8c-0.7-1-1.6-1.8-2.5-2.4s-1.9-1-3-1.2s-2.1-0.2-3.2-0.1c-1.1,0.2-2.2,0.5-3.2,1
				c-1.9,0.9-3.4,2.2-4.5,3.9c-1.1,1.7-1.7,3.7-1.7,6s0.6,4.8,1.8,7.6c1.3,2.7,2.8,4.9,4.6,6.3c1.8,1.5,3.7,2.3,5.7,2.6s4-0.1,5.9-1
				c1.1-0.5,2-1.1,2.8-1.8s1.5-1.6,2.1-2.5c0.5-0.9,0.9-2,1.1-3.1c0.2-1.1,0.1-2.3-0.2-3.5l3.8-1.8c0.5,1.8,0.6,3.4,0.4,5.1
				c-0.2,1.6-0.6,3.2-1.3,4.6c-0.7,1.4-1.7,2.7-2.9,3.8c-1.2,1.1-2.6,2-4.2,2.8c-2.7,1.2-5.4,1.7-8.1,1.3c-2.7-0.3-5.2-1.5-7.6-3.3
				c-2.3-1.9-4.3-4.5-5.8-7.8s-2.3-6.5-2.2-9.5s0.9-5.6,2.4-7.9s3.6-4.1,6.3-5.3c1.6-0.7,3.2-1.2,4.8-1.4c1.6-0.2,3.2-0.1,4.8,0.3
				c1.5,0.4,3,1,4.3,1.9C250.8,107.6,252,108.8,253,110.3z M287.9,101.4c1.5,3.3,2.3,6.5,2.2,9.5c-0.1,3-0.9,5.6-2.4,7.9
				s-3.6,4.1-6.3,5.3c-2.7,1.2-5.4,1.7-8.1,1.3c-2.7-0.3-5.2-1.5-7.6-3.3c-2.3-1.9-4.3-4.5-5.8-7.8s-2.3-6.5-2.2-9.5
				c0.1-3,0.9-5.6,2.4-7.9s3.6-4.1,6.3-5.3c2.7-1.2,5.4-1.7,8.1-1.3c2.7,0.3,5.2,1.5,7.6,3.3C284.4,95.5,286.3,98.1,287.9,101.4z
				 M284.1,103.2c-1.3-2.7-2.8-4.8-4.6-6.3c-1.8-1.5-3.7-2.3-5.7-2.6c-2-0.3-4,0.1-5.9,0.9c-1.9,0.9-3.4,2.2-4.5,3.9
				c-1.1,1.7-1.7,3.7-1.7,6s0.6,4.8,1.8,7.6c1.3,2.7,2.8,4.9,4.6,6.3c1.8,1.5,3.7,2.3,5.7,2.6c2,0.2,4-0.1,5.9-1s3.4-2.2,4.5-3.9
				c1.1-1.7,1.7-3.7,1.7-6C286,108.4,285.4,105.9,284.1,103.2z M286.1,83l4.6-2.1l22.9,21.3l0.4-0.2l-1.4-31.3l4.6-2.1l14.6,31.7
				l-3.6,1.7l-11.1-24.1l-0.3,0.1l1.2,28.7l-3.5,1.6l-21-19.5l-0.3,0.1l11.1,24.1l-3.6,1.7L286.1,83z M324,65.5l4.6-2.1l22.9,21.3
				l0.4-0.2l-1.4-31.3l4.6-2.1l14.6,31.7l-3.6,1.7L355,60.4l-0.3,0.1l1.2,28.7l-3.5,1.6l-21-19.5l-0.3,0.1l11.1,24.1l-3.6,1.7
				L324,65.5z M376.6,79.7L361.9,48l19.1-8.8l1.6,3.4l-15.3,7.1l4.9,10.7l14.3-6.6l1.6,3.4l-14.3,6.6l5,10.8l15.5-7.2l1.6,3.4
				L376.6,79.7z M401.7,68.1l-14.6-31.7l10.7-4.9c2.5-1.1,4.7-1.7,6.7-1.5c2,0.1,3.7,0.7,5.1,1.8c1.4,1.1,2.6,2.6,3.5,4.5
				c0.9,1.9,1.2,3.7,1.1,5.5s-0.7,3.5-1.9,5c-1.2,1.5-3,2.9-5.5,4l-8.7,4l-1.6-3.5l8.5-3.9c1.7-0.8,2.9-1.7,3.7-2.6
				c0.8-1,1.2-2,1.3-3.1c0-1.1-0.2-2.3-0.8-3.6c-0.6-1.3-1.3-2.3-2.2-3c-0.9-0.7-2-1.1-3.3-1.1s-2.8,0.3-4.5,1.1l-6.7,3.1l13.1,28.3
				L401.7,68.1z M410.1,47l14.4,10.6l-4.5,2.1L405.7,49L410.1,47z M444.2,22.1l-3.8,1.8c-0.7-1-1.6-1.8-2.5-2.4s-1.9-1-3-1.2
				s-2.1-0.2-3.2-0.1c-1.1,0.2-2.2,0.5-3.2,1c-1.9,0.9-3.4,2.2-4.5,3.9c-1.1,1.7-1.7,3.7-1.7,6s0.6,4.8,1.8,7.6
				c1.3,2.7,2.8,4.9,4.6,6.3c1.8,1.5,3.7,2.3,5.7,2.6s4-0.1,5.9-1c1.1-0.5,2-1.1,2.8-1.8s1.5-1.6,2.1-2.5c0.5-0.9,0.9-2,1.1-3.1
				s0.1-2.3-0.2-3.5l3.8-1.8c0.5,1.8,0.6,3.4,0.4,5.1c-0.2,1.6-0.6,3.2-1.3,4.6c-0.7,1.4-1.7,2.7-2.9,3.8c-1.2,1.1-2.6,2-4.2,2.8
				c-2.7,1.2-5.4,1.7-8.1,1.3c-2.7-0.3-5.2-1.5-7.6-3.3c-2.3-1.9-4.3-4.5-5.8-7.8s-2.3-6.5-2.2-9.5c0.1-3,0.9-5.6,2.4-7.9
				s3.6-4.1,6.3-5.3c1.6-0.7,3.2-1.2,4.8-1.4c1.6-0.2,3.2-0.1,4.8,0.3c1.5,0.4,3,1,4.3,1.9C441.9,19.3,443.1,20.6,444.2,22.1z
				 M459.6,41.4L444.9,9.7L464,0.9l1.6,3.4l-15.3,7.1l4.9,10.7l14.3-6.6l1.6,3.4l-14.3,6.6l5,10.8l15.5-7.2l1.6,3.4L459.6,41.4z"/>
			<g>
				<path d="M219.6,373.5v4.6h-12.9v32.6H202v-32.6H189v-4.6H219.6z"/>
				<path d="M262,392.2c0,6.1-1.7,10.9-5,14.5c-3.4,3.6-7.9,5.4-13.5,5.4c-5.4,0-9.6-1.8-12.8-5.3c-3.2-3.5-4.8-8.2-4.8-14.1
					c0-6.1,1.7-10.9,5.1-14.6c3.4-3.7,7.9-5.5,13.4-5.5c5.4,0,9.7,1.8,12.9,5.3C260.4,381.4,262,386.2,262,392.2z M256.6,392.4
					c0-10.3-4.2-15.4-12.6-15.4c-4,0-7.2,1.4-9.5,4.1c-2.3,2.7-3.4,6.5-3.4,11.3c0,4.9,1.1,8.6,3.3,11.3c2.2,2.7,5.3,4,9.3,4
					c4.1,0,7.2-1.3,9.5-4C255.5,401,256.6,397.2,256.6,392.4z"/>
				<path d="M306.1,392.2c0,6.1-1.7,10.9-5,14.5c-3.4,3.6-7.9,5.4-13.5,5.4c-5.4,0-9.6-1.8-12.8-5.3c-3.2-3.5-4.8-8.2-4.8-14.1
					c0-6.1,1.7-10.9,5.1-14.6c3.4-3.7,7.9-5.5,13.4-5.5c5.4,0,9.7,1.8,12.9,5.3C304.5,381.4,306.1,386.2,306.1,392.2z M300.7,392.4
					c0-10.3-4.2-15.4-12.6-15.4c-4,0-7.2,1.4-9.5,4.1c-2.3,2.7-3.4,6.5-3.4,11.3c0,4.9,1.1,8.6,3.3,11.3c2.2,2.7,5.3,4,9.3,4
					c4.1,0,7.2-1.3,9.5-4C299.6,401,300.7,397.2,300.7,392.4z"/>
				<path d="M320.9,373.5v32.6h15.2v4.6h-20v-37.2H320.9z"/>
				<path d="M367.6,382.3h-5.1c-0.7-3.7-3-5.5-7-5.5c-2,0-3.7,0.5-5,1.5c-1.3,1-1.9,2.4-1.9,4c0,2.3,2,4.3,6,6.1l5.1,2.2
					c3.2,1.4,5.4,2.9,6.7,4.4c1.3,1.5,1.9,3.5,1.9,6c0,3.5-1.2,6.2-3.6,8.2c-2.4,2-5.7,3-9.9,3c-7.6,0-11.9-3.4-12.9-10.2h5.5
					l0.1,0.5c0.7,3.5,3.3,5.3,7.7,5.3c2.3,0,4.1-0.6,5.6-1.7c1.5-1.1,2.2-2.6,2.2-4.3c0-2.4-2-4.5-6-6.2l-4.5-2
					c-3.3-1.5-5.7-3-7-4.6c-1.3-1.6-2-3.6-2-6.1c0-6.8,4-10.2,12-10.2c7.3,0,11.3,3.1,12.2,9.4L367.6,382.3z"/>
			</g>
		</g>
	</g>
</g>
<script>//<![CDATA[  <-- For SVG support
	if ('WebSocket' in window) {
		(function () {
			function refreshCSS() {
				var sheets = [].slice.call(document.getElementsByTagName("link"));
				var head = document.getElementsByTagName("head")[0];
				for (var i = 0; i < sheets.length; ++i) {
					var elem = sheets[i];
					var parent = elem.parentElement || head;
					parent.removeChild(elem);
					var rel = elem.rel;
					if (elem.href && typeof rel != "string" || rel.length == 0 || rel.toLowerCase() == "stylesheet") {
						var url = elem.href.replace(/(&|\?)_cacheOverride=\d+/, '');
						elem.href = url + (url.indexOf('?') >= 0 ? '&' : '?') + '_cacheOverride=' + (new Date().valueOf());
					}
					parent.appendChild(elem);
				}
			}
			var protocol = window.location.protocol === 'http:' ? 'ws://' : 'wss://';
			var address = protocol + window.location.host + window.location.pathname + '/ws';
			var socket = new WebSocket(address);
			socket.onmessage = function (msg) {
				if (msg.data == 'reload') window.location.reload();
				else if (msg.data == 'refreshcss') refreshCSS();
			};
			if (sessionStorage && !sessionStorage.getItem('IsThisFirstTime_Log_From_LiveServer')) {
				console.log('Live reload enabled.');
				sessionStorage.setItem('IsThisFirstTime_Log_From_LiveServer', true);
			}
		})();
	}
	else {
		console.error('Upgrade your browser. This Browser is NOT supported WebSocket for Live-Reloading.');
	}
	// 
	
	]]>
</script>
</svg>
