<svg width="252" height="200" viewBox="0 0 252 200" fill="none" xmlns="http://www.w3.org/2000/svg">
<rect width="252" height="200" fill="#1C1C1C"/>
<g clip-path="url(#clip0_2280_741)">
<path d="M161.186 79.9521L157.532 81.4284V83.7043H155.012V86.9085H157.532V92.8346C157.532 96.0195 159.335 97.9265 162.704 97.9265H165.188V94.5761H163.168C161.776 94.5761 161.184 93.8167 161.184 92.5925V86.9085H165.753L170.308 97.9265H173.49L179.406 83.6178H175.458L171.9 92.9077L168.377 83.7043H161.186V79.9521Z" fill="#3C3C3D"/>
<path d="M111.996 60C106.743 60 101.542 61.0346 96.6887 63.0448C91.8357 65.0549 87.4261 68.0013 83.7117 71.7157C79.9974 75.43 77.051 79.8396 75.0409 84.6926C73.0307 89.5456 71.9961 94.747 71.9961 99.9999C71.9961 105.253 73.0307 110.454 75.0409 115.307C77.051 120.16 79.9974 124.57 83.7117 128.284C87.4261 131.999 91.8357 134.945 96.6887 136.955C101.542 138.965 106.743 140 111.996 140C121.099 139.976 129.922 136.848 137.007 131.133C144.092 125.417 149.015 117.456 150.964 108.564C149.918 108.975 148.783 109.208 147.591 109.208C142.489 109.208 138.354 105.073 138.354 99.9718C138.354 94.8705 142.489 90.7348 147.591 90.7348C148.816 90.7348 149.982 90.978 151.051 91.411C149.094 82.509 144.156 74.5424 137.053 68.8302C129.951 63.1179 121.111 60.0026 111.996 60ZM103.369 86.4201V108.858H98.1894V88.513L103.369 86.4201ZM132.784 86.4201V91.0843H137.088V95.8433H132.784V101.563C132.784 103.318 133.567 104.099 135.32 104.099H137.088V108.858H134.515C132.376 108.858 130.616 108.231 129.425 107.044C128.233 105.857 127.605 104.109 127.605 101.984V95.8433H124.418V91.0843H127.605V88.513L132.784 86.4201ZM87.5617 90.7359C92.3777 90.7359 96.1506 94.8009 96.1506 99.9895C96.1506 102.471 95.2844 104.783 93.7113 106.5C92.1387 108.234 89.9026 109.218 87.5617 109.207C85.5638 109.207 83.82 108.626 82.473 107.41V113.523H77.2949V92.8236L81.4827 91.1322L82.1974 92.8621C83.5625 91.4672 85.3977 90.7359 87.5617 90.7359ZM122.39 91.0875V100.811C122.4 103.818 120.802 106.601 118.2 108.107C115.598 109.614 112.388 109.614 109.786 108.107C107.183 106.601 105.586 103.818 105.596 100.811V93.3582L110.739 91.2799V100.96C110.739 102.757 112.197 104.214 113.993 104.214C115.79 104.214 117.246 102.757 117.246 100.96V93.1658L122.39 91.0875ZM86.7701 95.7288C84.39 95.7288 82.4605 97.6289 82.4605 99.9718C82.4605 102.315 84.39 104.214 86.7701 104.214C89.1506 104.214 91.0796 102.315 91.0796 99.9718C91.0796 97.629 89.1501 95.7288 86.7701 95.7288ZM147.591 95.7288C145.248 95.7288 143.348 97.6289 143.348 99.9718C143.348 102.315 145.248 104.214 147.591 104.214C148.716 104.214 149.794 103.766 150.59 102.971C151.385 102.175 151.833 101.097 151.833 99.9718C151.833 97.6289 149.934 95.7288 147.591 95.7288Z" fill="#3C3C3D"/>
</g>
<defs>
<clipPath id="clip0_2280_741">
<rect width="107.409" height="80" fill="white" transform="translate(72 60)"/>
</clipPath>
</defs>
</svg>
