<svg width="321" height="200" viewBox="0 0 321 200" fill="none" xmlns="http://www.w3.org/2000/svg">
<rect x="0.5" width="320" height="200" rx="16" fill="#262626"/>
<path d="M195.274 107.676C195.852 107.676 196.337 107.875 196.73 108.275C197.123 108.674 197.32 109.156 197.32 109.721C197.32 110.286 197.12 110.769 196.721 111.168C196.321 111.567 195.839 111.767 195.274 111.767C194.709 111.767 194.227 111.567 193.827 111.168C193.428 110.769 193.229 110.286 193.229 109.721C193.229 109.144 193.428 108.659 193.827 108.265C194.227 107.872 194.709 107.676 195.274 107.676Z" fill="#3C3C3D"/>
<path d="M213.172 104.838C212.718 107.062 211.827 108.773 210.5 109.97C209.173 111.168 207.705 111.767 206.096 111.767C204.179 111.767 202.508 110.962 201.083 109.353C199.658 107.744 198.945 105.569 198.945 102.829C198.945 100.176 199.735 98.0195 201.313 96.3609C202.892 94.7023 204.787 93.8731 206.999 93.873C208.657 93.8731 210.021 94.3123 211.09 95.1907C212.159 96.0691 212.693 96.9813 212.693 97.9273C212.693 98.3942 212.543 98.772 212.242 99.0607C211.941 99.3494 211.52 99.4938 210.979 99.4938C210.254 99.4938 209.708 99.2603 209.339 98.7935C209.13 98.5355 208.992 98.0441 208.924 97.3192C208.857 96.5943 208.608 96.0415 208.178 95.6606C207.748 95.2921 207.152 95.1078 206.39 95.1078C205.162 95.1078 204.173 95.5623 203.423 96.4715C202.428 97.6755 201.931 99.2665 201.931 101.244C201.931 103.259 202.425 105.038 203.414 106.58C204.403 108.121 205.739 108.892 207.422 108.892C208.626 108.892 209.708 108.481 210.666 107.658C211.342 107.092 211.999 106.067 212.638 104.58L213.172 104.838Z" fill="#3C3C3D"/>
<path d="M221.486 93.873C224.042 93.8731 226.093 94.8436 227.641 96.7848C228.956 98.4433 229.613 100.348 229.613 102.498C229.613 104.009 229.251 105.538 228.526 107.086C227.801 108.634 226.803 109.801 225.531 110.588C224.26 111.374 222.844 111.767 221.283 111.767C218.74 111.767 216.719 110.754 215.22 108.726C213.955 107.019 213.322 105.102 213.322 102.977C213.322 101.429 213.706 99.89 214.474 98.3604C215.242 96.8308 216.252 95.7006 217.506 94.9695C218.759 94.2386 220.086 93.8731 221.486 93.873ZM220.915 95.0709C220.264 95.0709 219.609 95.2644 218.952 95.6514C218.295 96.0384 217.764 96.7172 217.358 97.6878C216.953 98.6583 216.75 99.9053 216.75 101.429C216.75 103.886 217.238 106.005 218.215 107.787C219.192 109.568 220.479 110.459 222.076 110.459C223.268 110.459 224.25 109.967 225.024 108.984C225.798 108.002 226.185 106.312 226.185 103.917C226.185 100.919 225.54 98.5601 224.25 96.84C223.378 95.6606 222.266 95.0709 220.915 95.0709Z" fill="#3C3C3D"/>
<path d="M235.554 97.4666C236.783 96.2381 237.508 95.5316 237.729 95.3473C238.282 94.8805 238.878 94.5181 239.517 94.26C240.155 94.0021 240.788 93.8731 241.415 93.873C242.471 93.8731 243.38 94.1802 244.142 94.7945C244.904 95.4088 245.414 96.2995 245.672 97.4666C246.937 95.9923 248.006 95.0248 248.878 94.5641C249.751 94.1034 250.647 93.8731 251.569 93.873C252.466 93.8731 253.261 94.1034 253.955 94.5641C254.65 95.0248 255.199 95.7773 255.605 96.8216C255.875 97.5342 256.01 98.6522 256.01 100.176V107.436C256.01 108.493 256.09 109.218 256.25 109.611C256.373 109.881 256.6 110.112 256.932 110.302C257.263 110.493 257.804 110.588 258.553 110.588V111.251H250.224V110.588H250.574C251.299 110.588 251.864 110.446 252.269 110.164C252.552 109.967 252.754 109.654 252.877 109.224C252.926 109.015 252.951 108.419 252.951 107.436V100.176C252.951 98.7996 252.785 97.8291 252.454 97.2639C251.974 96.4776 251.206 96.0845 250.15 96.0845C249.499 96.0845 248.845 96.2473 248.187 96.5728C247.53 96.8984 246.734 97.5035 245.801 98.388L245.764 98.5908L245.801 99.3832V107.436C245.801 108.591 245.865 109.31 245.994 109.593C246.123 109.875 246.366 110.112 246.722 110.302C247.078 110.493 247.687 110.588 248.547 110.588V111.251H240.014V110.588C240.948 110.588 241.59 110.477 241.94 110.256C242.29 110.035 242.533 109.703 242.668 109.261C242.729 109.052 242.76 108.444 242.76 107.436V100.176C242.76 98.7996 242.557 97.8106 242.152 97.2086C241.611 96.4223 240.856 96.0292 239.885 96.0292C239.222 96.0292 238.564 96.2073 237.913 96.5636C236.894 97.1042 236.107 97.7123 235.554 98.388V107.436C235.554 108.542 235.631 109.261 235.785 109.593C235.938 109.924 236.166 110.173 236.467 110.339C236.768 110.505 237.379 110.588 238.3 110.588V111.251H229.952V110.588C230.726 110.588 231.267 110.505 231.574 110.339C231.881 110.173 232.114 109.909 232.274 109.547C232.434 109.184 232.514 108.481 232.514 107.436V100.986C232.514 99.1313 232.458 97.9335 232.348 97.3929C232.262 96.9875 232.127 96.708 231.942 96.5544C231.758 96.4008 231.506 96.3241 231.187 96.324C230.843 96.3241 230.431 96.4162 229.952 96.6005L229.676 95.937L234.762 93.873H235.554V97.4666Z" fill="#3C3C3D"/>
<path d="M63 78H76.3229C78.9492 78 81.0707 78.4299 82.6874 79.2895C84.3041 80.1492 85.6403 81.383 86.6961 82.9909C87.7519 84.5989 88.5174 86.4695 88.9925 88.6027C89.4676 90.736 89.7051 92.9967 89.7052 95.3847C89.7051 99.1259 89.3521 102.027 88.6461 104.089C87.94 106.151 86.9601 107.878 85.7063 109.271C84.4525 110.664 83.1064 111.591 81.6679 112.053C79.7014 112.69 77.9198 113.008 76.3229 113.008H63V78ZM71.9677 85.9282V105.056H74.1651C76.0391 105.056 77.3721 104.805 78.1639 104.304C78.9558 103.802 79.5761 102.927 80.0248 101.677C80.4735 100.427 80.6978 98.4015 80.6979 95.5996C80.6978 91.8902 80.1963 89.351 79.1934 87.9819C78.1903 86.6128 76.5274 85.9282 74.2047 85.9282H71.9677Z" fill="#3C3C3D"/>
<path d="M89.002 78H98.195V90.2505H108.24V78H117.474V113.008H108.24V98.8473H98.195V113.008H89.002V78Z" fill="#3C3C3D"/>
<path d="M157.516 105.722C155.657 107.159 154.491 107.989 154.017 108.213C153.305 108.543 152.547 108.707 151.743 108.707C150.491 108.707 149.457 108.279 148.639 107.423C147.836 106.566 147.434 105.439 147.434 104.042C147.434 103.159 147.631 102.395 148.027 101.749C148.567 100.853 149.503 100.009 150.834 99.2185C152.178 98.4278 154.405 97.4657 157.516 96.3323V95.6206C157.516 93.8151 157.226 92.5763 156.646 91.9041C156.079 91.232 155.249 90.8959 154.155 90.8959C153.325 90.8959 152.666 91.12 152.178 91.5681C151.677 92.0162 151.427 92.5301 151.427 93.11L151.466 94.2566C151.466 94.8628 151.308 95.3307 150.992 95.6602C150.689 95.9896 150.287 96.1544 149.786 96.1544C149.298 96.1544 148.896 95.9831 148.58 95.6404C148.277 95.2977 148.125 94.8299 148.125 94.2368C148.125 93.1034 148.705 92.0623 149.865 91.1134C151.025 90.1645 152.653 89.69 154.748 89.69C156.356 89.69 157.674 89.9602 158.702 90.5006C159.479 90.9091 160.053 91.5483 160.422 92.4181C160.659 92.9848 160.777 94.1446 160.777 95.8974V102.045C160.777 103.772 160.81 104.833 160.876 105.228C160.942 105.61 161.048 105.867 161.193 105.999C161.351 106.131 161.529 106.197 161.726 106.197C161.937 106.197 162.122 106.151 162.28 106.058C162.557 105.887 163.09 105.406 163.881 104.615V105.722C162.405 107.699 160.995 108.688 159.651 108.688C159.005 108.688 158.491 108.464 158.109 108.016C157.726 107.567 157.529 106.803 157.516 105.722ZM157.516 104.437V97.5382C155.526 98.3289 154.241 98.889 153.661 99.2185C152.62 99.7984 151.875 100.405 151.427 101.037C150.979 101.67 150.755 102.362 150.755 103.113C150.755 104.062 151.038 104.853 151.605 105.485C152.171 106.105 152.824 106.414 153.562 106.414C154.563 106.414 155.881 105.755 157.516 104.437Z" fill="#1A1A1A"/>
<path d="M170.504 84.2734V90.2238H174.734V91.6076H170.504V103.35C170.504 104.523 170.668 105.314 170.998 105.722C171.34 106.131 171.775 106.335 172.303 106.335C172.737 106.335 173.159 106.203 173.568 105.94C173.976 105.663 174.293 105.261 174.517 104.734H175.288C174.826 106.026 174.174 107.001 173.33 107.66C172.487 108.306 171.617 108.628 170.721 108.628C170.115 108.628 169.522 108.464 168.942 108.134C168.362 107.792 167.934 107.31 167.657 106.691C167.38 106.058 167.242 105.09 167.242 103.785V91.6076H164.375V90.9552C165.1 90.6653 165.838 90.1777 166.589 89.4924C167.354 88.7939 168.033 87.9702 168.626 87.0213C168.929 86.5205 169.35 85.6045 169.891 84.2734H170.504Z" fill="#1A1A1A"/>
<path d="M179.558 97.044C179.544 99.7325 180.197 101.841 181.515 103.37C182.833 104.899 184.381 105.663 186.16 105.663C187.346 105.663 188.374 105.34 189.244 104.694C190.127 104.035 190.865 102.915 191.458 101.334L192.071 101.729C191.794 103.535 190.99 105.182 189.659 106.671C188.328 108.147 186.661 108.885 184.658 108.885C182.483 108.885 180.619 108.042 179.063 106.355C177.521 104.655 176.75 102.375 176.75 99.5151C176.75 96.418 177.541 94.0062 179.123 92.2797C180.717 90.5401 182.714 89.6703 185.113 89.6703C187.142 89.6703 188.809 90.3424 190.114 91.6867C191.419 93.0178 192.071 94.8035 192.071 97.044H179.558ZM179.558 95.8974H187.94C187.874 94.7376 187.735 93.9205 187.524 93.4461C187.195 92.7081 186.701 92.1282 186.042 91.7064C185.396 91.2847 184.717 91.0738 184.006 91.0738C182.912 91.0738 181.93 91.5022 181.06 92.3588C180.203 93.2023 179.703 94.3818 179.558 95.8974Z" fill="#1A1A1A"/>
<path d="M127.81 99.9112C123.063 97.4668 120.41 94.89 120.607 88.7608C120.803 82.6316 126.879 78.3844 132.815 78.3145C135.924 78.3145 138.275 79.5147 140.553 81.0335C142.822 79.4007 144.748 78.3557 147.36 78.3394C150.201 78.3394 151.973 79.9462 151.973 81.7107C151.973 82.796 151.552 83.9792 150.326 83.9792C147.893 83.9792 147.78 80.7554 145.346 80.5084C143.747 80.4554 142.216 81.0304 141.358 81.9906C141.733 82.4355 144.726 84.5643 144.726 90.4439C144.726 96.3235 139.303 100.873 132.953 100.94C128.817 100.94 123.427 102.113 123.427 104.337C123.477 105.492 124.02 107.044 128.833 107.076C135.964 107.304 148.841 105.384 149.149 116.798C149.149 123.176 145.184 128.188 131.834 127.993C120.749 127.993 117.904 122.917 117.904 118.498C117.904 113.451 122.694 111.896 124.447 112.318C122.883 111.252 120.177 109.627 120.177 106.217C120.177 103.025 122.842 100.857 127.81 99.9112ZM132.847 79.3373C128.814 79.2959 126.095 84.0805 126.114 89.7417C126.368 94.645 127.31 99.6981 132.695 99.7835C138.149 99.5624 139.083 93.986 139.085 89.9623C139.11 83.6879 136.88 79.3787 132.847 79.3373ZM126.491 112.919C127.08 113.581 127.945 114.746 127.761 117.181C126.659 114.913 124.105 114.373 122.788 115.039C121.588 115.739 120.07 116.556 120.07 119.413C120.07 122.797 123.36 126.961 132.049 126.961C139.168 126.961 144.655 123.502 144.543 118.53C144.543 114.009 140.624 113.051 134.477 112.906C129.253 112.993 127.9 113.035 126.491 112.919Z" fill="#1A1A1A"/>
</svg>
