<svg width="56" height="56" viewBox="0 0 56 56" fill="none" xmlns="http://www.w3.org/2000/svg">
<rect width="56" height="56" fill="#6D19DA"/>
<path d="M12.583 11.3335C12.583 10.6431 12.0234 10.0835 11.333 10.0835C10.6427 10.0835 10.083 10.6431 10.083 11.3335H12.583ZM44.6663 45.9168C45.3567 45.9168 45.9163 45.3572 45.9163 44.6668C45.9163 43.9765 45.3567 43.4168 44.6663 43.4168V45.9168ZM33.833 21.7502C33.1427 21.7502 32.583 22.3098 32.583 23.0002C32.583 23.6905 33.1427 24.2502 33.833 24.2502V21.7502ZM38.4603 23.9215L37.3423 24.4805L37.3423 24.4805L38.4603 23.9215ZM38.5483 26.8925C38.857 27.51 39.6079 27.7603 40.2254 27.4515C40.8428 27.1428 41.0931 26.392 40.7844 25.7745L38.5483 26.8925ZM38.2117 24.5188L38.897 23.4734L36.8063 22.1028L36.121 23.1482L38.2117 24.5188ZM32.607 30.7882L31.5617 30.1029L31.5617 30.1029L32.607 30.7882ZM29.7874 30.7375L28.718 31.3848L28.718 31.3848L29.7874 30.7375ZM26.6071 25.4836L25.5377 26.1309L25.5377 26.1309L26.6071 25.4836ZM23.7171 25.5505L22.6189 24.9534L23.7171 25.5505ZM18.5682 32.403C18.2384 33.0095 18.4627 33.7685 19.0692 34.0983C19.6757 34.4281 20.4347 34.2038 20.7645 33.5973L18.5682 32.403ZM10.083 11.3335V38.0002H12.583V11.3335H10.083ZM17.9997 45.9168H44.6663V43.4168H17.9997V45.9168ZM10.083 38.0002C10.083 42.3724 13.6274 45.9168 17.9997 45.9168V43.4168C15.0081 43.4168 12.583 40.9917 12.583 38.0002H10.083ZM33.833 24.2502H36.9696V21.7502H33.833V24.2502ZM37.3423 24.4805L38.5483 26.8925L40.7844 25.7745L39.5784 23.3625L37.3423 24.4805ZM36.9696 24.2502C37.1274 24.2502 37.2717 24.3393 37.3423 24.4805L39.5784 23.3625C39.0843 22.3743 38.0744 21.7502 36.9696 21.7502V24.2502ZM36.121 23.1482L31.5617 30.1029L33.6524 31.4736L38.2117 24.5188L36.121 23.1482ZM30.8567 30.0903L27.6764 24.8363L25.5377 26.1309L28.718 31.3848L30.8567 30.0903ZM22.6189 24.9534L18.5682 32.403L20.7645 33.5973L24.8152 26.1476L22.6189 24.9534ZM27.6764 24.8363C26.5105 22.9102 23.6945 22.9753 22.6189 24.9534L24.8152 26.1476C24.9689 25.865 25.3712 25.8557 25.5377 26.1309L27.6764 24.8363ZM31.5617 30.1029C31.3936 30.3593 31.0155 30.3525 30.8567 30.0903L28.718 31.3848C29.8293 33.2207 32.4759 33.2683 33.6524 31.4736L31.5617 30.1029Z" fill="white"/>
</svg>
