<svg width="252" height="200" viewBox="0 0 252 200" fill="none" xmlns="http://www.w3.org/2000/svg">
<rect width="252" height="200" fill="#1C1C1C"/>
<g clip-path="url(#clip0_2280_674)">
<path d="M84.9976 80.5556C85.7199 80.5556 86.2476 80.9444 86.4143 81.6389L93.6643 107.722L100.998 81.6389C101.164 80.9722 101.664 80.5556 102.414 80.5556H114.248C114.803 80.5556 115.192 81.1111 115.025 81.6389L103.359 118.944C103.137 119.667 102.637 120.028 101.887 120.028H85.2199C84.4976 120.028 83.9699 119.694 83.7476 118.944L72.0254 81.6389C71.8587 81.1389 72.2754 80.5556 72.831 80.5556H84.9976ZM117.22 88C117.22 83.6111 120.831 80 125.22 80C129.609 80 133.22 83.6111 133.22 88C133.22 92.3889 129.609 96 125.22 96C120.831 96 117.22 92.3889 117.22 88ZM132.387 118.861C132.387 119.528 131.942 120 131.248 120H119.192C118.525 120 118.053 119.556 118.053 118.861V100.222C118.053 99.5556 118.498 99.0833 119.192 99.0833H131.248C131.914 99.0833 132.387 99.5278 132.387 100.222V118.861ZM136.498 118.583L147.887 100.278L136.498 81.9722C136.081 81.3056 136.442 80.5556 137.22 80.5556H150.109C150.998 80.5556 151.525 80.8333 151.914 81.5L158.164 92.4167L164.414 81.5C164.831 80.8333 165.331 80.5556 166.22 80.5556H178.831C179.609 80.5556 179.97 81.2778 179.553 81.9722L168.164 100.278L179.553 118.583C179.942 119.25 179.609 120 178.831 120H165.942C165.053 120 164.525 119.722 164.137 119.056L157.887 108.139L151.637 119.056C151.248 119.722 150.748 120 149.831 120H137.22C136.442 120 136.081 119.278 136.498 118.583Z" fill="#3C3C3D"/>
</g>
<defs>
<clipPath id="clip0_2280_674">
<rect width="107.75" height="40" fill="white" transform="translate(72 80)"/>
</clipPath>
</defs>
</svg>
