<svg width="320" height="200" viewBox="0 0 320 200" fill="none" xmlns="http://www.w3.org/2000/svg">
<rect width="320" height="200" fill="#1C1C1C"/>
<g clip-path="url(#clip0_2221_809)">
<path d="M29.6641 111.343C30.3801 110.977 30.7003 110.108 30.7003 109.365V91.1368C30.7003 90.3654 30.3801 89.5224 29.6641 89.1346H38.3521C42.2267 89.1346 46.0067 90.7207 46.0067 95.1194C46.0067 97.4525 43.9735 99.2926 41.7809 99.706C44.9394 99.6776 47.9913 101.607 47.9913 105.092C47.9913 110.073 42.7671 111.345 39.0925 111.345L29.6641 111.343ZM36.6972 91.0476C36.2946 91.0476 36.015 91.0476 35.2733 91.1368V98.9102H36.1528C38.8155 98.9102 41.3891 98.0875 41.3891 95.0019C41.3891 91.9406 39.3316 91.0476 36.6972 91.0476ZM37.2511 100.911C36.6161 100.911 36.046 100.911 35.2733 100.969V109.178C36.2365 109.367 37.2781 109.429 38.2386 109.429C40.4677 109.429 42.7347 108.435 42.7347 105.029C42.7347 101.668 40.0543 100.911 37.2511 100.911ZM56.5834 91.0476C56.1862 91.0476 55.8363 91.1125 55.4446 91.1679V98.8481C55.808 98.8738 56.1376 98.9116 56.497 98.9116C58.9963 98.9116 60.8457 97.5322 60.8457 94.8141C60.8457 92.0365 59.0273 91.0476 56.5834 91.0476ZM67.7816 111.474C66.9305 111.474 65.9916 111.505 65.1783 111.265C63.6665 110.819 61.5793 107.412 60.7498 106.076C59.4596 103.903 58.3383 100.911 55.4459 100.879V109.365C55.4459 110.108 55.7823 111.008 56.4983 111.343H49.8286C50.5297 110.977 50.8634 110.142 50.8634 109.365V91.1368C50.8634 90.3654 50.5284 89.5224 49.8286 89.1346H57.8587C61.3523 89.1346 65.7241 90.4762 65.7241 94.6736C65.7241 98.1956 62.81 100 59.561 100C64.184 100.027 66.8994 110.872 72.0034 110.903C70.6348 111.308 69.2082 111.474 67.7816 111.474ZM72.3384 111.343C72.8896 111.091 73.4665 110.362 73.4665 109.365V91.1368C73.4665 90.1249 72.8896 89.4089 72.3384 89.1346H79.1729C78.5866 89.4089 78.0516 90.1249 78.0516 91.1368V109.365C78.0516 110.362 78.5866 111.091 79.1729 111.343H72.3384ZM87.1693 111.343C87.9015 111.008 88.2595 110.142 88.2595 109.365V91.6812H83.3515C82.2194 91.6812 80.8698 91.8204 79.8971 92.3972L81.4223 89.1333H97.7014C99.02 89.1333 100.368 89.1049 101.649 88.832C101.029 90.5032 99.1835 91.742 98.1202 91.742C96.8274 91.7123 94.6888 91.6258 92.8461 91.6258V109.364C92.8461 110.141 93.2311 111.007 93.9498 111.342L87.1693 111.343ZM102.462 111.343C103.008 111.091 103.581 110.362 103.581 109.365V91.1368C103.581 90.1249 103.008 89.4089 102.462 89.1346H109.297C108.716 89.4089 108.159 90.1249 108.159 91.1368V109.365C108.159 110.362 108.716 111.091 109.297 111.343H102.462ZM122.604 106.319C122.604 102.089 112.64 101.134 112.64 94.3818C112.64 90.2019 116.616 88.8334 120.113 88.8334C121.673 88.8334 123.93 89.0495 125.357 89.7061L125.606 93.8576C124.729 92.0244 122.534 90.6964 120.495 90.6964C118.883 90.6964 117.195 91.4934 117.195 93.3361C117.195 97.7227 127.327 98.794 127.327 105.19C127.327 109.831 123.271 111.754 119.178 111.754C117.036 111.754 114.124 111.342 112.318 110.107C112.208 109.364 112.158 108.587 112.158 107.827C112.158 106.92 112.238 106.011 112.372 105.117C113.498 107.685 115.83 109.694 118.743 109.694C120.956 109.695 122.604 108.73 122.604 106.319ZM143.949 111.343C144.431 111.126 144.947 110.362 144.947 109.365V101.101C143.759 100.968 142.098 100.91 140.235 100.91C138.344 100.91 136.67 100.968 135.452 101.101V109.365C135.452 110.362 135.954 111.091 136.443 111.343H129.863C130.35 111.126 130.87 110.362 130.87 109.365V91.1368C130.87 90.1249 130.35 89.3792 129.863 89.1346H136.443C135.954 89.3805 135.452 90.1249 135.452 91.1368V98.6036C136.67 98.7319 138.314 98.794 140.235 98.794C142.098 98.794 143.759 98.713 144.947 98.6036V91.1368C144.947 90.1249 144.433 89.3792 143.949 89.1346H150.52C150.028 89.3805 149.541 90.1249 149.541 91.1368V109.365C149.541 110.362 150.028 111.091 150.52 111.343H143.949Z" fill="#3C3C3D"/>
<path d="M174.905 111.342C175.117 111.125 175.309 110.963 175.309 110.57C175.309 110.437 175.259 110.216 175.096 109.802C175.096 109.802 173.273 104.839 173.059 104.261C171.689 104.092 170.261 104.092 168.863 104.092C167.536 104.092 166.189 104.123 164.875 104.261C164.689 104.758 162.734 109.694 162.734 109.694C162.47 110.362 162.38 110.59 162.38 110.736C162.38 111.065 162.663 111.226 162.904 111.342H158.434C159.093 111.007 159.664 110.318 159.947 109.632L167.293 90.6698C167.327 90.5915 167.339 90.5037 167.339 90.3969C167.339 89.8741 166.992 89.3783 166.525 89.1324H172.288L179.76 109.613C180.065 110.436 180.716 111.036 181.264 111.341L174.905 111.342ZM169.102 93.361L165.734 102.007C166.738 102.118 167.78 102.144 168.796 102.144C169.96 102.144 171.111 102.144 172.243 102.007L169.102 93.361ZM182.401 111.342C182.952 111.09 183.522 110.362 183.522 109.365V91.1359C183.522 90.124 182.952 89.408 182.401 89.1338H189.232C188.651 89.408 188.109 90.124 188.109 91.1359V109.365C188.109 110.362 188.649 111.09 189.232 111.342H182.401ZM199.615 91.0468C199.246 91.0468 198.892 91.1116 198.509 91.167V98.8472C198.865 98.8729 199.191 98.9107 199.538 98.9107C202.043 98.9107 203.888 97.5314 203.888 94.8132C203.887 92.0357 202.062 91.0468 199.615 91.0468ZM211.371 111.473C210.52 111.473 209.601 111.504 208.769 111.264C207.255 110.818 205.173 107.411 204.342 106.075C203.057 103.903 201.385 100.878 198.509 100.878V109.365C198.509 110.108 198.83 111.007 199.538 111.342H192.874C193.59 110.976 193.923 110.141 193.923 109.365V91.1359C193.923 90.3645 193.59 89.5215 192.874 89.1338H200.921C204.406 89.1338 208.771 90.4753 208.771 94.6727C208.771 98.1947 205.586 99.9996 203.176 99.9996C207.968 100.275 210.858 110.902 215.612 110.902C214.234 111.307 212.807 111.473 211.371 111.473ZM239.08 91.3021L232.33 111.342C231.773 111.342 231.228 111.15 230.918 110.933C230.251 110.29 229.201 107.606 228.823 106.615L225.773 98.9094L221.379 111.342H219.288L211.735 91.2521C211.41 90.3969 210.857 89.5769 210.032 89.1338H216.597C216.32 89.3486 216.129 89.5931 216.129 90.0605C216.129 90.2848 216.24 90.5942 216.32 90.8333L221.239 104.124L226.476 89.1338L232.245 103.585L236.614 90.5037C236.722 90.1484 236.786 90.0173 236.786 89.7931C236.786 89.5215 236.668 89.3486 236.394 89.1338H240.741C239.937 89.5553 239.356 90.4753 239.08 91.3021ZM247.147 93.361L243.781 102.007C244.797 102.118 245.836 102.144 246.849 102.144C248.001 102.144 249.166 102.144 250.291 102.007L247.147 93.361ZM252.943 111.342C253.173 111.125 253.347 110.963 253.347 110.57C253.347 110.437 253.28 110.216 253.146 109.802C253.146 109.802 251.334 104.839 251.114 104.261C249.732 104.092 248.307 104.092 246.908 104.092C245.594 104.092 244.246 104.123 242.924 104.261C242.734 104.758 240.793 109.694 240.793 109.694C240.513 110.362 240.436 110.59 240.436 110.736C240.436 111.065 240.707 111.226 240.945 111.342H236.474C237.134 111.007 237.704 110.318 237.981 109.632L245.353 90.6698C245.375 90.5915 245.395 90.5037 245.395 90.3969C245.395 89.8741 245.047 89.3783 244.567 89.1324H250.336L257.805 109.613C258.115 110.436 258.774 111.036 259.317 111.341L252.943 111.342ZM273.012 91.4656L267.751 100.69V109.365C267.751 110.07 268.04 111.007 268.743 111.342H262.197C262.866 110.976 263.174 110.047 263.174 109.365V100.662L258.601 93.3353C258.192 92.6504 256.284 89.458 253.959 89.458C254.591 89.2175 256.514 88.8514 257.804 88.8514C259.956 88.8514 261.022 89.0487 262.339 91.1116L266.57 97.8178C266.926 97.1599 270.276 91.3345 270.276 91.3345C270.68 90.6253 270.957 90.124 270.957 89.8755C270.957 89.5566 270.819 89.3486 270.495 89.1338H275.21C274.286 89.5769 273.516 90.5928 273.012 91.4656ZM285.326 106.318C285.326 102.088 275.361 101.133 275.361 94.3809C275.361 90.201 279.326 88.8325 282.824 88.8325C284.39 88.8325 286.634 89.0487 288.067 89.7052L288.316 93.8568C287.429 92.0235 285.243 90.6955 283.203 90.6955C281.589 90.6955 279.911 91.4926 279.911 93.3353C279.911 97.7219 290.043 98.7932 290.043 105.189C290.043 109.831 286.016 111.753 281.893 111.753C279.753 111.753 276.834 111.341 275.025 110.106C274.907 109.363 274.85 108.586 274.85 107.826C274.85 106.919 274.937 106.01 275.075 105.116C276.2 107.684 278.54 109.693 281.453 109.693C283.675 109.694 285.326 108.73 285.326 106.318Z" fill="#3C3C3D"/>
</g>
<defs>
<clipPath id="clip0_2221_809">
<rect width="260.667" height="23" fill="white" transform="translate(29.668 88.5)"/>
</clipPath>
</defs>
</svg>
