<svg width="321" height="200" viewBox="0 0 321 200" fill="none" xmlns="http://www.w3.org/2000/svg">
<rect x="0.5" width="320" height="200" rx="16" fill="#262626"/>
<path d="M171.931 75.9654C171.098 80.7648 170.266 85.4333 169.433 90.1454H157.252V82.3355C154.711 82.3355 152.257 82.3355 149.847 82.3355C148.883 82.3355 147.919 82.3791 146.999 82.5537C145.203 82.9463 144.063 84.168 144.063 85.9132C144.107 91.1053 143.888 96.341 144.502 101.489C145.378 108.645 149.365 114.055 155.675 117.677C156.113 117.938 156.551 118.113 157.121 118.331V106.158H152.958C152.695 103.584 152.432 101.14 152.169 98.5662H171.624C170.967 107.598 170.309 116.542 169.608 125.705H168.25C160.976 125.705 153.703 125.923 146.429 125.661C136.089 125.312 125.967 119.64 122.287 107.423C118.299 94.0722 127.106 79.8485 140.251 76.5762C144.239 75.6164 148.357 74.9619 152.476 74.7001C158.654 74.3074 164.745 74.8746 170.835 75.66C171.186 75.7472 171.58 75.8345 171.931 75.9654ZM210.577 118.026C203.391 114.23 199.228 108.209 198.439 100.224C198.001 95.512 198.177 90.7563 198.177 86.0441C198.177 84.2116 199.228 82.8591 201.068 82.5537C202.514 82.2919 204.048 82.3355 205.538 82.2919C207.466 82.2482 209.35 82.2919 211.409 82.2919V90.1018H223.502C224.335 85.3897 225.167 80.7212 226 76.009C225.649 75.8781 225.255 75.7909 224.905 75.7036C218.902 74.9183 212.855 74.1765 206.808 74.7874C203.128 75.1364 199.447 75.5291 195.854 76.2708C180.037 79.5868 173.42 94.8576 176.006 105.722C179.248 119.16 189.457 125.05 199.842 125.617C207.422 126.054 215.046 125.705 222.67 125.705C223.459 125.705 223.722 125.443 223.809 124.657C224.028 121.342 224.291 118.069 224.554 114.753C224.861 110.957 225.124 107.161 225.387 103.366C225.518 101.795 225.606 100.181 225.693 98.5662H206.283C206.546 101.097 206.808 103.584 207.115 106.158H211.322V118.375C211.102 118.287 210.84 118.156 210.577 118.026ZM117.73 111.612C117.248 105.722 116.81 99.8315 116.371 93.8977C116.196 91.5853 116.328 89.1856 114.312 87.3531C115.013 87.004 115.495 86.6986 115.977 86.4368C116.591 86.0878 117.511 85.8696 117.817 85.3024C118.869 83.2518 119.701 81.1138 120.622 78.9759C112.165 81.2884 103.752 81.681 95.2519 78.8014C96.0845 80.983 96.7855 82.9463 97.5742 84.9097C97.8371 85.4333 98.2315 85.9132 98.7134 86.2187C99.7212 86.8295 100.773 87.3094 101.912 87.8766C101.299 88.6184 100.773 89.1419 100.335 89.7091C100.116 90.0145 99.9403 90.3636 99.8965 90.7126C99.765 91.7598 99.7212 92.8506 99.6774 93.9413C99.3707 100.486 99.064 106.987 98.8011 113.532C98.7573 115.015 98.8011 116.498 98.8011 118.026H118.299C118.08 115.8 117.861 113.706 117.73 111.612ZM95.0329 62.0471C96.2159 66.2793 97.399 70.5552 98.6258 74.7874C98.8011 75.3109 99.1954 75.7036 99.7212 75.8781C105.593 77.9288 111.464 77.7979 117.292 75.8345C117.686 75.66 118.036 75.3546 118.212 74.9619C119.526 70.3806 120.797 65.7994 122.068 61.2618L121.892 61.1745C119.921 63.7487 117.993 66.323 115.977 68.9845C113.436 66.2793 110.938 63.6615 108.441 61L100.948 68.9845L95.0329 61.1745C94.989 61.4363 94.989 61.7417 95.0329 62.0471ZM119.263 120.338H97.618V125.486H119.263V120.338ZM97.4866 147.52H99.1954V136.263H97.4866V147.52ZM114.619 141.63H119.263V141.717C119.263 143.419 118.606 145.077 117.335 146.255C116.152 147.389 114.531 147.695 113.26 147.695C111.639 147.695 110.456 147.215 109.405 146.168C107.17 143.811 107.17 140.103 109.361 137.703C110.412 136.612 111.858 136.002 113.392 136.002C114.4 136.002 115.451 136.22 116.328 136.7C117.072 137.092 117.686 137.703 118.168 138.401L116.81 139.361C116.459 138.838 115.977 138.401 115.407 138.096C114.794 137.747 114.093 137.572 113.392 137.616C112.34 137.572 111.333 138.009 110.631 138.794C109.887 139.536 109.448 140.714 109.448 141.935C109.448 143.07 109.843 144.16 110.631 144.989C111.42 145.818 112.384 146.124 113.48 146.124C114.444 146.124 115.495 145.818 116.24 145.12C116.853 144.51 117.335 143.855 117.423 143.201H114.619V141.63ZM130.086 136.045C126.712 136.045 124.215 138.576 124.215 141.892C124.215 145.208 126.712 147.738 130.086 147.738C133.46 147.738 135.957 145.208 135.957 141.892C135.957 138.576 133.46 136.045 130.086 136.045ZM130.086 146.124C127.676 146.124 125.923 144.379 125.923 141.892C125.923 139.405 127.632 137.659 130.086 137.659C132.496 137.659 134.249 139.405 134.249 141.892C134.249 144.379 132.496 146.124 130.086 146.124ZM140.47 136.263H147.393V137.878H144.764V147.52H143.056V137.878H140.47V136.263ZM162.948 141.63H167.593V141.717C167.593 143.419 166.936 145.077 165.665 146.255C164.482 147.389 162.861 147.695 161.59 147.695C159.969 147.695 158.786 147.215 157.734 146.168C155.499 143.811 155.499 140.103 157.69 137.703C158.742 136.612 160.188 136.002 161.721 136.002C162.729 136.002 163.781 136.22 164.657 136.7C165.402 137.092 166.015 137.703 166.497 138.401L165.139 139.361C164.789 138.838 164.307 138.401 163.737 138.096C163.123 137.747 162.422 137.572 161.721 137.616C160.67 137.572 159.662 138.009 158.961 138.794C158.216 139.536 157.778 140.714 157.778 141.935C157.778 143.07 158.172 144.16 158.961 144.989C159.75 145.818 160.714 146.124 161.809 146.124C162.773 146.124 163.825 145.818 164.569 145.12C165.183 144.51 165.665 143.855 165.752 143.201H162.948V141.63ZM172.062 147.52H173.946L175.173 144.815H179.993L181.176 147.52H183.06L177.714 135.609L172.062 147.52ZM175.874 143.157L177.627 139.361L179.292 143.157H175.874ZM198.352 135.391L200.499 147.476H198.746L197.607 140.714L194.321 148L191.078 140.67L189.895 147.476H188.143L190.509 135.391L194.452 144.117L198.352 135.391ZM205.932 136.263H212.154V137.878H207.641V140.714H212.023V142.328H207.641V145.862H212.154V147.476H205.932V136.263ZM224.291 144.117C224.291 146.255 222.758 147.738 220.654 147.738C219.34 147.738 218.551 147.258 217.982 146.604C217.412 145.993 217.105 145.208 217.018 144.422L218.726 144.03C218.726 144.553 218.902 145.033 219.208 145.469C219.559 145.906 220.129 146.168 220.698 146.124C221.706 146.168 222.538 145.382 222.582 144.379C222.582 144.335 222.582 144.291 222.582 144.248C222.582 143.113 221.706 142.633 220.961 142.328L219.866 141.892C218.946 141.499 217.543 140.714 217.543 139.056C217.543 137.529 218.726 136.089 220.83 136.089C221.662 136.045 222.451 136.307 223.108 136.83C223.459 137.136 223.765 137.529 223.984 137.965L222.582 138.794C222.319 138.096 221.618 137.659 220.873 137.659C219.822 137.659 219.296 138.27 219.296 139.012C219.296 139.361 219.428 139.928 220.523 140.365L221.662 140.801C223.722 141.63 224.291 142.808 224.291 144.117Z" fill="#3C3C3D"/>
</svg>
