<svg width="56" height="48" viewBox="0 0 56 48" fill="none" xmlns="http://www.w3.org/2000/svg">
<g clip-path="url(#clip0_2267_1107)">
<g clip-path="url(#clip1_2267_1107)">
<path d="M41.849 3.93796C38.6798 1.32258 34.3413 0.0302734 28.8028 0.0302734H15.0182V1.96873H28.5567C33.2644 1.96873 37.5105 2.92258 40.1259 5.1995C42.7413 7.47642 44.6798 10.7995 44.6798 14.9226C44.6798 18.9226 42.9567 21.8457 40.2798 24.0918C37.6028 26.338 32.7413 27.3226 27.9105 27.3226H12.3721V29.261H28.0336C33.849 29.261 38.4028 27.9995 41.6951 25.4764C44.9567 22.9533 46.6182 19.3841 46.6182 14.7995C46.6182 10.1226 45.0182 6.52258 41.849 3.93796Z" fill="#3C3C3D"/>
<path d="M40.6805 6.70769C38.7113 5.2 36.4651 4 30.0651 4H19.4189V5.87692C19.4189 5.87692 24.1882 5.81539 29.8189 5.87692C35.2651 5.93846 37.2651 6.55384 39.1113 7.90769C41.4497 9.63077 42.9266 11.7846 42.9266 14.7692C42.9266 17.6615 41.4497 19.6923 39.0805 21.4462C36.6805 23.2308 32.9882 23.2308 31.4805 23.2923C30.9266 23.2923 23.5728 23.2923 23.5728 23.2923V25.1692C23.5728 25.1692 27.2036 25.2308 29.4805 25.1692C34.6497 25.0461 37.7266 24.7385 40.5882 22.6154C43.2651 20.6154 44.6805 18 44.6805 14.6769C44.6805 10.3077 42.4651 8.12308 40.6805 6.70769Z" fill="#3C3C3D"/>
<path d="M39.7244 9.19959C38.2475 8.27652 36.9552 7.66113 30.8321 7.66113H23.1705V8.8919H30.6167C36.0321 8.8919 38.0628 9.84575 38.709 10.2458C39.9398 10.9842 41.5398 12.215 41.5398 14.6765C41.5398 16.2457 40.6167 18.2458 39.2321 19.015C37.9705 19.7227 35.6628 20.3688 31.6321 20.3688H6.64746V21.5996H31.6936C36.5859 21.5996 38.2475 21.0458 39.9705 20.0919C41.6936 19.1381 42.8628 17.1688 42.8628 14.6765C42.8628 11.8457 41.2936 10.1842 39.7244 9.19959Z" fill="#3C3C3D"/>
<path d="M44.5834 22.8305C41.4141 20.2152 37.0757 18.9229 31.5372 18.9229H22.3064V20.8613H31.2603C35.968 20.8613 40.2141 21.8459 42.8295 24.0921C45.4449 26.3382 47.4141 29.6921 47.4141 33.8152C47.4141 37.8152 45.7218 40.7382 43.0141 42.9844C40.3064 45.2305 35.4757 46.2152 30.6449 46.2152H15.1064V48.1536H30.768C36.5834 48.1536 41.1372 46.8921 44.4295 44.369C47.7218 41.8459 49.3526 38.2767 49.3526 33.6921C49.3218 29.0459 47.7526 25.4459 44.5834 22.8305Z" fill="#3C3C3D"/>
<path d="M43.4158 25.6003C41.4466 24.1234 39.2004 22.8926 32.8004 22.8926H18.3389V24.7695C18.3389 24.7695 26.9235 24.708 32.5543 24.7695C38.0004 24.831 40.0004 25.4464 41.8466 26.8003C44.185 28.5234 45.6619 30.6772 45.6619 33.6618C45.6619 36.5541 44.185 38.5849 41.8158 40.3387C39.4158 42.1233 35.7235 42.1233 34.2158 42.1849C33.6619 42.1849 26.3081 42.1849 26.3081 42.1849V44.0618C26.3081 44.0618 29.9696 44.1233 32.2158 44.0618C37.385 43.9387 40.4619 43.631 43.3235 41.508C46.0004 39.508 47.4158 36.8926 47.4158 33.5695C47.4158 29.231 45.2312 27.0157 43.4158 25.6003Z" fill="#3C3C3D"/>
<path d="M21.417 32.0003H34.9862V30.9541H21.417V32.0003Z" fill="#3C3C3D"/>
<path d="M27.0166 35.6609H34.8935V34.7686H27.0166V35.6609Z" fill="#3C3C3D"/>
<path d="M15.1064 31.9993H19.1064V30.9531H15.1064V31.9993Z" fill="#3C3C3D"/>
<path d="M12.5889 35.7229H24.8043V34.6768H12.5889V35.7229Z" fill="#3C3C3D"/>
<path d="M15.6006 8.80002H20.3698V7.93848H15.6006V8.80002Z" fill="#3C3C3D"/>
<path d="M12.3076 15.8147H23.1692V14.8301H12.3076V15.8147Z" fill="#3C3C3D"/>
<path d="M12.5889 43.9388H24.0658V42.708H12.5889V43.9388Z" fill="#3C3C3D"/>
<path d="M9.75293 48.0312H12.6145V46.2158H9.75293V48.0312Z" fill="#3C3C3D"/>
<path d="M16.8936 12.7395H34.9243V11.7549H16.8936V12.7395Z" fill="#3C3C3D"/>
<path d="M25.9072 15.8147H34.5841V14.8301H25.9072V15.8147Z" fill="#3C3C3D"/>
<path d="M42.4627 28.2762C40.9857 27.3839 39.6934 26.7686 33.5704 26.7686H23.8473V27.9686H33.3857C38.8011 27.9686 40.8627 28.8916 41.478 29.2609C42.678 29.9686 44.3088 31.1378 44.3088 33.5378C44.3088 35.0762 43.3857 36.9839 42.0011 37.7224C40.7396 38.3993 38.4319 39.0147 34.4011 39.0147H9.38574V40.2147H34.4319C39.3242 40.2147 40.9857 39.6916 42.7088 38.7686C44.4319 37.8455 45.5704 35.9686 45.5704 33.5378C45.6011 30.8609 44.0319 29.2609 42.4627 28.2762Z" fill="#3C3C3D"/>
</g>
</g>
<defs>
<clipPath id="clip0_2267_1107">
<rect width="54.4" height="48" fill="white" transform="translate(0.799805)"/>
</clipPath>
<clipPath id="clip1_2267_1107">
<rect width="54.4" height="64" fill="white" transform="translate(0.799805 -8)"/>
</clipPath>
</defs>
</svg>
