<svg width="56" height="56" viewBox="0 0 56 56" fill="none" xmlns="http://www.w3.org/2000/svg">
<rect width="56" height="56" fill="#DC8FFB"/>
<ellipse cx="28" cy="35.5002" rx="10" ry="4.16667" stroke="#1C1C1C" stroke-width="2.5" stroke-linejoin="round"/>
<circle cx="28" cy="21.3335" r="5" stroke="#1C1C1C" stroke-width="2.5" stroke-linejoin="round"/>
<path fill-rule="evenodd" clip-rule="evenodd" d="M18.7431 30.1025C16.6788 30.1885 14.7825 30.5603 13.3105 31.1491C12.4693 31.4856 11.7047 31.9175 11.13 32.4611C10.5526 33.0071 10.084 33.752 10.084 34.6667C10.084 35.5814 10.5526 36.3264 11.13 36.8724C11.7047 37.416 12.4693 37.8479 13.3105 38.1844C14.1435 38.5176 15.1123 38.7813 16.1706 38.963C15.3479 38.0756 14.8315 37.084 14.7004 36.0326C14.5397 35.9784 14.3857 35.9219 14.239 35.8632C13.5721 35.5964 13.1164 35.3101 12.8477 35.056C12.5837 34.8063 12.584 34.6744 12.584 34.6669L12.584 34.6667L12.584 34.6666C12.584 34.6591 12.5837 34.5272 12.8477 34.2775C13.1164 34.0234 13.5721 33.7371 14.239 33.4703C14.5773 33.335 14.954 33.211 15.3638 33.1014C16.0533 31.9517 17.2248 30.9267 18.7431 30.1025Z" fill="#1C1C1C"/>
<path fill-rule="evenodd" clip-rule="evenodd" d="M41.3005 36.0326C41.1694 37.084 40.653 38.0756 39.8303 38.963C40.8886 38.7813 41.8574 38.5176 42.6904 38.1844C43.5316 37.8479 44.2962 37.416 44.8709 36.8724C45.4483 36.3264 45.9169 35.5814 45.9169 34.6667C45.9169 33.752 45.4483 33.0071 44.8709 32.4611C44.2962 31.9175 43.5316 31.4856 42.6904 31.1491C41.2184 30.5603 39.3221 30.1885 37.2578 30.1025C38.7761 30.9267 39.9476 31.9517 40.6371 33.1014C41.0469 33.211 41.4236 33.335 41.7619 33.4703C42.4288 33.7371 42.8846 34.0234 43.1532 34.2775C43.4173 34.5272 43.4169 34.6591 43.4169 34.6666V34.6667V34.6669C43.4169 34.6744 43.4173 34.8063 43.1532 35.056C42.8846 35.3101 42.4288 35.5964 41.7619 35.8632C41.6152 35.9219 41.4612 35.9784 41.3005 36.0326Z" fill="#1C1C1C"/>
<path fill-rule="evenodd" clip-rule="evenodd" d="M35.5238 24.9206C35.1574 25.688 34.6769 26.3905 34.1045 27.0063C34.7642 27.3741 35.5242 27.5837 36.3332 27.5837C38.8645 27.5837 40.9165 25.5316 40.9165 23.0003C40.9165 20.469 38.8645 18.417 36.3332 18.417C36.1594 18.417 35.9879 18.4267 35.8191 18.4455C36.1058 19.2215 36.2804 20.0519 36.3229 20.917C36.3264 20.917 36.3298 20.917 36.3332 20.917C37.4838 20.917 38.4165 21.8497 38.4165 23.0003C38.4165 24.1509 37.4838 25.0837 36.3332 25.0837C36.0461 25.0837 35.7727 25.0256 35.5238 24.9206Z" fill="#1C1C1C"/>
<path fill-rule="evenodd" clip-rule="evenodd" d="M20.1814 18.4455C20.0126 18.4267 19.8411 18.417 19.6673 18.417C17.136 18.417 15.084 20.469 15.084 23.0003C15.084 25.5316 17.136 27.5837 19.6673 27.5837C20.4763 27.5837 21.2363 27.3741 21.896 27.0063C21.3236 26.3905 20.8431 25.688 20.4767 24.9206C20.2278 25.0256 19.9544 25.0837 19.6673 25.0837C18.5167 25.0837 17.584 24.1509 17.584 23.0003C17.584 21.8497 18.5167 20.917 19.6673 20.917C19.6707 20.917 19.6741 20.917 19.6776 20.917C19.7201 20.0519 19.8947 19.2215 20.1814 18.4455Z" fill="#1C1C1C"/>
</svg>
