<svg width="252" height="200" viewBox="0 0 252 200" fill="none" xmlns="http://www.w3.org/2000/svg">
<rect width="252" height="200" fill="#1C1C1C"/>
<g clip-path="url(#clip0_2280_678)">
<mask id="mask0_2280_678" style="mask-type:luminance" maskUnits="userSpaceOnUse" x="46" y="63" width="160" height="76">
<path d="M46.75 138.674H205.782V63.9031H46.75V138.674Z" fill="white"/>
</mask>
<g mask="url(#mask0_2280_678)">
<path d="M82.2844 93.1744C82.2844 89.5262 79.3493 86.5882 75.7604 86.5882H72.5251V99.7022H75.7604C79.3493 99.7022 82.2844 96.7623 82.2844 93.1744ZM97.0015 119.318H85.1252L75.6963 106.233H72.5251V119.29H62.0586V80.0642H77.0526C85.6965 80.0642 92.7519 85.9421 92.7519 93.1744C92.7519 97.5852 90.0471 101.525 85.9306 103.935L97.0015 119.318Z" fill="#3C3C3D"/>
<path d="M108.808 95.5282C106.044 95.5282 103.693 99.2852 103.693 103.936C103.693 108.587 106.044 112.349 108.808 112.349C111.636 112.349 113.983 108.587 113.983 103.936C113.983 99.2852 111.636 95.5282 108.808 95.5282ZM124.918 103.936C124.918 112.821 117.693 119.936 108.808 119.936C99.9259 119.936 92.7539 112.821 92.7539 103.936C92.7539 95.058 99.9259 87.9394 108.808 87.9394C117.693 87.9394 124.918 95.058 124.918 103.936Z" fill="#3C3C3D"/>
<path d="M149.475 88.5903L137.418 100.645V88.5505H126.953V119.289H137.418V106.821L150.005 119.289H163.176L147.181 103.292L160.43 90.0477V108.29C160.43 114.346 164.072 119.936 173.245 119.936C177.599 119.936 181.595 117.466 183.537 115.231L188.243 119.289H190.476V88.5903H180.012V104.584V108.466C178.833 110.523 177.191 111.816 174.653 111.816C172.079 111.816 170.897 110.29 170.897 105.408V104.12V88.5903H149.475Z" fill="#3C3C3D"/>
</g>
</g>
<defs>
<clipPath id="clip0_2280_678">
<rect width="128.549" height="40" fill="white" transform="translate(62 80)"/>
</clipPath>
</defs>
</svg>
