<svg width="40" height="40" viewBox="0 0 40 40" fill="none" xmlns="http://www.w3.org/2000/svg">
<path fill-rule="evenodd" clip-rule="evenodd" d="M20 40C31.0457 40 40 31.0457 40 20C40 8.9543 31.0457 0 20 0C8.9543 0 0 8.9543 0 20C0 31.0457 8.9543 40 20 40ZM18.2649 20.6652L9.03313 13.9512C9.30383 11.7248 11.2005 10 13.5 10H27C29.2995 10 31.1962 11.7248 31.4669 13.9512L22.2351 20.6652C21.0516 21.5259 19.4484 21.5259 18.2649 20.6652ZM23.5585 22.4849L31.5 16.7092V25.75C31.5 28.2353 29.4853 30.25 27 30.25H13.5C11.0147 30.25 9 28.2353 9 25.75V16.7092L16.9415 22.4849C18.9139 23.9194 21.5861 23.9194 23.5585 22.4849Z" fill="#3C3C3D"/>
</svg>
