<svg width="145" height="48" viewBox="0 0 145 48" fill="none" xmlns="http://www.w3.org/2000/svg">
<g clip-path="url(#clip0_2267_1270)">
<g clip-path="url(#clip1_2267_1270)">
<path d="M93.3675 15.9591C95.3431 8.55599 95.3431 8.55599 95.3431 8.55599C94.5827 8.979 92.9874 8.89705 92.3165 8.89739C67.9219 9.02717 67.9219 9.02717 67.9219 9.02717C69.6865 9.93152 70.1357 11.1726 69.5533 13.5384C64.2397 33.6533 64.2397 33.6533 64.2397 33.6533C63.1771 37.5316 62.2495 39.2372 60.6307 39.2409C59.2856 39.2538 58.6222 38.5065 57.3961 36.6449C48.9891 21.5307 48.9891 21.5307 48.9891 21.5307C66.4688 9.04997 66.4688 9.04997 66.4688 9.04997C50.9538 9.1266 50.9538 9.1266 50.9538 9.1266C53.1174 10.3507 53.4002 12.1512 51.1142 13.774C39.2544 23.0726 39.2544 23.0726 39.2544 23.0726C41.8691 13.3851 41.8691 13.3851 41.8691 13.3851C42.5906 10.9916 44.3109 9.75309 45.8481 9.13516C29.1292 9.2371 29.1292 9.2371 29.1292 9.2371C30.9039 10.1047 31.3708 11.377 30.8062 13.7739C25.4581 33.9188 25.4581 33.9188 25.4581 33.9188C24.8916 35.9865 24.2958 38.4012 20.9977 39.7336C37.5475 39.6248 37.5475 39.6248 37.5475 39.6248C35.5373 38.4164 35.567 36.8199 36.0834 34.7911C38.4543 26.089 38.4543 26.089 38.4543 26.089C45.1119 39.6191 45.1119 39.6191 45.1119 39.6191C52.7644 39.5322 52.7644 39.5322 52.7644 39.5322C76.3013 39.3647 76.3013 39.3647 76.3013 39.3647C74.4862 37.8284 74.4393 36.0794 75.1576 33.5535C77.1186 26.2517 77.1186 26.2517 77.1186 26.2517C82.4713 26.2056 82.4713 26.2056 82.4713 26.2056C85.0013 26.1885 85.913 26.7013 87.0198 27.8463C88.9018 20.6412 88.9018 20.6412 88.9018 20.6412C88.1447 21.052 86.4937 20.9811 85.8941 20.9615C78.522 21.0331 78.522 21.0331 78.522 21.0331C80.3569 14.1439 80.3569 14.1439 80.3569 14.1439C88.9282 14.1115 88.9282 14.1115 88.9282 14.1115C91.3926 14.1421 92.3854 14.743 93.3642 15.9713L93.3675 15.9591Z" fill="#3C3C3D"/>
<path d="M112.803 34.9485C105.993 34.9373 102.14 30.1332 102.12 24.8795C102.091 19.0318 106.806 13.1027 114.705 13.0306C117.184 13.0524 119.851 13.4015 123.27 14.8908C124.933 8.82242 124.933 8.82242 124.933 8.82242C122.702 8.2769 119.788 7.96535 116.331 8.00475C100.508 8.10216 90.3641 17.3315 90.4281 26.4114C90.4625 33.2471 95.993 40.0892 108.776 40.0006C112.541 39.9404 116.247 39.7589 119.336 39.0927C120.901 33.3791 120.901 33.3791 120.901 33.3791C118.434 34.1762 115.3 34.9091 112.803 34.9485Z" fill="#3C3C3D"/>
<path d="M26.3526 35.1348C31.9665 14.1158 31.9665 14.1158 31.9665 14.1158C32.6848 11.5899 32.4333 10.7318 31.7123 9.81088C33.0959 10.1374 33.9626 11.1508 33.1447 14.136C27.5352 35.2352 27.5352 35.2352 27.5352 35.2352C26.848 37.7433 25.9046 38.6423 24.0188 38.6123C25.2212 37.9684 25.9914 36.6932 26.3648 35.1382L26.3526 35.1348Z" fill="#4F4F50"/>
<path d="M65.0978 35.0319C70.7184 13.9884 70.7184 13.9884 70.7184 13.9884C71.4233 11.5114 71.1473 10.6467 70.4375 9.63672C71.8322 10.0188 72.6766 11.0656 71.8654 14.0264C66.2525 35.1378 66.2525 35.1378 66.2525 35.1378C65.5831 37.6771 64.8467 38.5407 62.9799 38.4896C64.1398 37.9524 64.5715 36.9527 65.0978 35.0319Z" fill="#4F4F50"/>
<path d="M81.1162 11.7722C88.9888 11.7457 88.9888 11.7457 88.9888 11.7457C91.2941 11.7328 93.2127 12.219 93.1683 14.0614C92.3236 13.3039 91.3807 12.8088 88.7049 12.878C80.7677 12.9 80.7677 12.9 80.7677 12.9L81.1162 11.7722Z" fill="#4F4F50"/>
<path d="M77.4991 24.9606C77.8142 23.8106 77.8142 23.8106 77.8142 23.8106C82.507 23.8205 82.507 23.8205 82.507 23.8205C84.7946 23.7764 86.7154 24.3026 86.6933 26.1117C85.8575 25.3697 84.9023 24.8713 82.2265 24.9405C77.4991 24.9606 77.4991 24.9606 77.4991 24.9606Z" fill="#4F4F50"/>
<path d="M91.8473 26.3785C91.8177 16.3085 103.047 10.704 110.124 9.9334C103.997 11.5563 93.1627 16.4402 93.1468 26.3399C93.1792 35.8715 103.407 38.529 110.523 38.9133C102.645 39.5829 91.8634 36.4974 91.8473 26.3785Z" fill="#4F4F50"/>
<path d="M49.0157 38.3341C47.4293 38.2677 46.3945 36.3796 46.3945 36.3796C46.4544 36.5933 46.4544 36.5933 46.4544 36.5933C40.6225 24.8021 40.6225 24.8021 40.6225 24.8021C52.9844 15.207 52.9844 15.207 52.9844 15.207C55.4665 13.3485 56.3897 10.6026 53.8062 9.71068C54.7146 11.1959 54.1897 12.9198 52.0673 14.5217C39.2076 24.4934 39.2076 24.4934 39.2076 24.4934C46.0329 38.3718 46.0329 38.3718 46.0329 38.3718C47.3725 38.3311 47.3725 38.3311 47.3725 38.3311L49.0157 38.3341Z" fill="#4F4F50"/>
</g>
</g>
<defs>
<clipPath id="clip0_2267_1270">
<rect width="104" height="32" fill="white" transform="translate(21 8)"/>
</clipPath>
<clipPath id="clip1_2267_1270">
<rect width="103.932" height="32" fill="white" transform="translate(21 8)"/>
</clipPath>
</defs>
</svg>
