<svg width="55" height="48" viewBox="0 0 55 48" fill="none" xmlns="http://www.w3.org/2000/svg">
<g clip-path="url(#clip0_2267_1262)">
<path fill-rule="evenodd" clip-rule="evenodd" d="M42.336 30.6353L32.6289 37.0931V24.8125L42.336 30.6353Z" fill="url(#paint0_linear_2267_1262)"/>
<path fill-rule="evenodd" clip-rule="evenodd" d="M32.6289 24.8128L42.336 30.6356L43.0486 18.5654L32.6289 24.8128Z" fill="url(#paint1_linear_2267_1262)"/>
<path fill-rule="evenodd" clip-rule="evenodd" d="M42.3359 12.3983L49.6135 8.80566V26.2666L42.3359 30.6346V12.3983Z" fill="#3C3C3D"/>
<path fill-rule="evenodd" clip-rule="evenodd" d="M27.786 48.0957L27.3281 39.6403L42.3374 30.6348V39.3634L27.786 48.0957Z" fill="#3C3C3D"/>
<path fill-rule="evenodd" clip-rule="evenodd" d="M38.0128 9.94761L27.7852 16.0842V4.44238L38.0128 9.94761Z" fill="url(#paint2_linear_2267_1262)"/>
<path fill-rule="evenodd" clip-rule="evenodd" d="M22.9415 24.8124L13.2344 30.6352L12.8984 18.7939L22.9415 24.8124Z" fill="url(#paint3_linear_2267_1262)"/>
<path fill-rule="evenodd" clip-rule="evenodd" d="M17.5469 9.94392L27.7856 16.0842V4.44238L17.5469 9.94392Z" fill="url(#paint4_linear_2267_1262)"/>
<path fill-rule="evenodd" clip-rule="evenodd" d="M13.2344 30.6353L22.9415 37.0931V24.8125L13.2344 30.6353Z" fill="url(#paint5_linear_2267_1262)"/>
<path fill-rule="evenodd" clip-rule="evenodd" d="M13.2346 12.5681L5.95703 8.80566V26.2666L13.2346 30.6346V12.5681Z" fill="#121212"/>
<path fill-rule="evenodd" clip-rule="evenodd" d="M42.3365 13.1701L49.6141 8.80576L35.0627 0.0771484L27.7852 4.44146L42.3365 13.1701Z" fill="#4F4F50"/>
<path fill-rule="evenodd" clip-rule="evenodd" d="M27.7858 48.0957V39.3634L13.2344 30.6348V39.3634L27.7858 48.0957Z" fill="#121212"/>
<path fill-rule="evenodd" clip-rule="evenodd" d="M13.2346 13.1701L5.95703 8.80576L20.5084 0.0771484L27.786 4.44146L13.2346 13.1701Z" fill="#4F4F50"/>
</g>
<defs>
<linearGradient id="paint0_linear_2267_1262" x1="37.4621" y1="24.8125" x2="37.4621" y2="37.1005" gradientUnits="userSpaceOnUse">
<stop stop-color="#2B2B2B"/>
<stop offset="1" stop-color="#121212"/>
</linearGradient>
<linearGradient id="paint1_linear_2267_1262" x1="43.3481" y1="26.467" x2="35.8178" y2="21.9529" gradientUnits="userSpaceOnUse">
<stop stop-color="#121212"/>
<stop offset="1" stop-color="#3C3C3D"/>
</linearGradient>
<linearGradient id="paint2_linear_2267_1262" x1="32.9096" y1="16.0695" x2="32.9096" y2="4.43131" gradientUnits="userSpaceOnUse">
<stop stop-color="#3C3C3D"/>
<stop offset="1" stop-color="#121212"/>
</linearGradient>
<linearGradient id="paint3_linear_2267_1262" x1="12.3234" y1="26.6438" x2="19.8537" y2="22.1298" gradientUnits="userSpaceOnUse">
<stop stop-color="#3C3C3D"/>
<stop offset="1" stop-color="#4F4F50"/>
</linearGradient>
<linearGradient id="paint4_linear_2267_1262" x1="22.6391" y1="16.0695" x2="22.6391" y2="4.43131" gradientUnits="userSpaceOnUse">
<stop stop-color="#2A2A2A"/>
<stop offset="1" stop-color="#121212"/>
</linearGradient>
<linearGradient id="paint5_linear_2267_1262" x1="18.0862" y1="37.1005" x2="18.0862" y2="24.8125" gradientUnits="userSpaceOnUse">
<stop stop-color="#2B2B2B"/>
<stop offset="1" stop-color="#3C3C3D"/>
</linearGradient>
<clipPath id="clip0_2267_1262">
<rect width="43.5692" height="48" fill="white" transform="translate(6)"/>
</clipPath>
</defs>
</svg>
