<svg width="252" height="200" viewBox="0 0 252 200" fill="none" xmlns="http://www.w3.org/2000/svg">
<rect width="252" height="200" fill="#1C1C1C"/>
<g clip-path="url(#clip0_2280_747)">
<path d="M62.0391 92.5087H76.5873V118.569H89.5986V92.5087H104.131V81.9885H62.0391V92.5087Z" fill="#3C3C3D"/>
<path d="M129.636 111.036C126.613 111.036 124.344 110.162 122.416 108.368C120.532 106.612 119.18 103.931 119.18 100.28V99.7324C119.18 96.1 120.532 93.3764 122.416 91.6337C124.344 89.8268 126.629 88.9929 129.636 88.9929C136.74 88.9929 138.256 93.2213 138.71 95.977H150.257C149.973 90.4122 147.322 86.5018 143.575 83.8985C139.846 81.3059 135.513 79.9828 129.761 79.9828C122.692 79.9828 117.67 81.5571 113.54 85.0558C109.381 88.6267 107.168 94.2477 107.168 99.866V100.152C107.168 106.294 109.095 110.899 113.358 114.775C117.346 118.399 123.162 120.057 129.625 120.035C135.353 120.035 140.271 118.691 143.674 116.133C147.426 113.297 149.989 109.317 150.297 104.068H138.777C138.459 106.273 137.069 111.036 129.636 111.036Z" fill="#3C3C3D"/>
<path d="M169.785 108.538V81.9884H157.258V118.555H190.334V108.538H169.785Z" fill="#3C3C3D"/>
</g>
<defs>
<clipPath id="clip0_2280_747">
<rect width="128.295" height="40" fill="white" transform="translate(62 80)"/>
</clipPath>
</defs>
</svg>
