<svg width="1340" height="348" viewBox="0 0 1340 348" fill="none" xmlns="http://www.w3.org/2000/svg">
<path d="M0 344.342V3.10218H103.923L132.618 211.142L161.119 3.10218H266.012V344.342H203.58V98.4942L164.415 344.342H103.147L61.6558 98.4942V344.342H0Z" fill="url(#paint0_linear_1872_985)" fill-opacity="0.12"/>
<path d="M369.749 347.444C342.475 347.444 321.6 339.236 307.123 322.82C292.776 306.276 285.602 282.427 285.602 251.276V89.1876C285.602 59.9755 292.711 37.8078 306.93 22.6847C321.277 7.56156 342.217 0 369.749 0C397.28 0 418.156 7.56156 432.374 22.6847C446.721 37.8078 453.895 59.9755 453.895 89.1876V251.276C453.895 282.427 446.657 306.276 432.18 322.82C417.832 339.236 397.022 347.444 369.749 347.444ZM370.33 284.625C380.671 284.625 385.841 274.607 385.841 254.573V88.0243C385.841 71.2208 380.8 62.8191 370.718 62.8191C359.343 62.8191 353.656 71.4147 353.656 88.606V254.96C353.656 265.559 354.949 273.186 357.534 277.839C360.119 282.363 364.384 284.625 370.33 284.625Z" fill="url(#paint1_linear_1872_985)" fill-opacity="0.12"/>
<path d="M473.486 344.342V3.10218H565.969C590.787 3.10218 608.818 9.17728 620.063 21.3275C631.438 33.3484 637.125 53.2541 637.125 81.0444V95.9736C637.125 112.002 634.217 124.992 628.401 134.945C622.713 144.898 613.988 151.425 602.226 154.527C617.608 158.405 627.884 167.518 633.054 181.865C638.353 196.084 641.003 213.469 641.003 234.021C641.003 256.124 638.935 275.448 634.799 291.993C630.663 308.538 623.166 321.399 612.308 330.576C601.45 339.753 586.004 344.342 565.969 344.342H473.486ZM540.182 131.649H554.142C560.476 131.649 564.547 129.193 566.357 124.281C568.167 119.369 569.071 113.488 569.071 106.637V72.3195C569.071 61.3327 564.224 55.8392 554.53 55.8392H540.182V131.649ZM546.968 284.237C564.677 284.237 573.531 275.835 573.531 259.032V216.377C573.531 206.683 572.044 199.056 569.071 193.498C566.228 187.811 560.799 184.967 552.785 184.967H540.182V283.849C543.026 284.108 545.288 284.237 546.968 284.237Z" fill="url(#paint2_linear_1872_985)" fill-opacity="0.12"/>
<path d="M736.985 347.444C709.711 347.444 688.836 339.236 674.359 322.82C660.012 306.276 652.838 282.427 652.838 251.276V89.1876C652.838 59.9755 659.947 37.8078 674.165 22.6847C688.513 7.56156 709.453 0 736.985 0C764.516 0 785.391 7.56156 799.61 22.6847C813.957 37.8078 821.131 59.9755 821.131 89.1876V251.276C821.131 282.427 813.893 306.276 799.416 322.82C785.068 339.236 764.258 347.444 736.985 347.444ZM737.566 284.625C747.907 284.625 753.077 274.607 753.077 254.573V88.0243C753.077 71.2208 748.036 62.8191 737.954 62.8191C726.579 62.8191 720.892 71.4147 720.892 88.606V254.96C720.892 265.559 722.185 273.186 724.77 277.839C727.355 282.363 731.62 284.625 737.566 284.625Z" fill="url(#paint3_linear_1872_985)" fill-opacity="0.12"/>
<path d="M922.154 347.444C894.88 347.444 874.005 339.236 859.528 322.82C845.181 306.276 838.007 282.427 838.007 251.276V89.1876C838.007 59.9755 845.116 37.8078 859.335 22.6847C873.682 7.56156 894.622 0 922.154 0C949.685 0 970.561 7.56156 984.779 22.6847C999.126 37.8078 1006.3 59.9755 1006.3 89.1876V251.276C1006.3 282.427 999.062 306.276 984.585 322.82C970.237 339.236 949.427 347.444 922.154 347.444ZM922.735 284.625C933.076 284.625 938.246 274.607 938.246 254.573V88.0243C938.246 71.2208 933.205 62.8191 923.123 62.8191C911.748 62.8191 906.061 71.4147 906.061 88.606V254.96C906.061 265.559 907.354 273.186 909.939 277.839C912.524 282.363 916.789 284.625 922.735 284.625Z" fill="url(#paint4_linear_1872_985)" fill-opacity="0.12"/>
<path d="M1106.93 347.444C1075.78 347.444 1053.29 339.689 1039.46 324.178C1025.76 308.667 1018.91 283.979 1018.91 250.113V216.765H1086.38V259.42C1086.38 267.304 1087.55 273.509 1089.87 278.033C1092.33 282.427 1096.53 284.625 1102.48 284.625C1108.68 284.625 1112.95 282.815 1115.27 279.196C1117.73 275.577 1118.96 269.631 1118.96 261.359C1118.96 250.889 1117.92 242.164 1115.85 235.184C1113.79 228.075 1110.17 221.353 1105 215.02C1099.96 208.557 1092.91 201.06 1083.86 192.529L1053.23 163.446C1030.35 141.86 1018.91 117.172 1018.91 89.3815C1018.91 60.2986 1025.63 38.1309 1039.07 22.8786C1052.65 7.62619 1072.23 0 1097.82 0C1129.1 0 1151.27 8.3371 1164.33 25.0113C1177.51 41.6855 1184.1 67.02 1184.1 101.015H1114.69V77.5545C1114.69 72.9012 1113.33 69.282 1110.62 66.6968C1108.03 64.1117 1104.48 62.8191 1099.95 62.8191C1094.53 62.8191 1090.52 64.3702 1087.93 67.4724C1085.48 70.4453 1084.25 74.323 1084.25 79.1056C1084.25 83.8881 1085.54 89.0584 1088.13 94.6164C1090.71 100.175 1095.82 106.573 1103.44 113.811L1142.8 151.619C1150.69 159.116 1157.93 167.065 1164.52 175.467C1171.11 183.739 1176.41 193.434 1180.42 204.55C1184.42 215.537 1186.43 228.98 1186.43 244.878C1186.43 276.934 1180.48 302.075 1168.59 320.3C1156.83 338.396 1136.28 347.444 1106.93 347.444Z" fill="url(#paint5_linear_1872_985)" fill-opacity="0.12"/>
<path d="M1230.64 344.342V68.6357H1190.12V3.10218H1339.41V68.6357H1298.89V344.342H1230.64Z" fill="url(#paint6_linear_1872_985)" fill-opacity="0.12"/>
<defs>
<linearGradient id="paint0_linear_1872_985" x1="-15.125" y1="176.842" x2="1343.88" y2="176.842" gradientUnits="userSpaceOnUse">
<stop stop-color="#262626"/>
<stop offset="0.475" stop-color="white"/>
<stop offset="1" stop-color="#262626"/>
</linearGradient>
<linearGradient id="paint1_linear_1872_985" x1="-15.125" y1="176.842" x2="1343.88" y2="176.842" gradientUnits="userSpaceOnUse">
<stop stop-color="#262626"/>
<stop offset="0.475" stop-color="white"/>
<stop offset="1" stop-color="#262626"/>
</linearGradient>
<linearGradient id="paint2_linear_1872_985" x1="-15.125" y1="176.842" x2="1343.88" y2="176.842" gradientUnits="userSpaceOnUse">
<stop stop-color="#262626"/>
<stop offset="0.475" stop-color="white"/>
<stop offset="1" stop-color="#262626"/>
</linearGradient>
<linearGradient id="paint3_linear_1872_985" x1="-15.125" y1="176.842" x2="1343.88" y2="176.842" gradientUnits="userSpaceOnUse">
<stop stop-color="#262626"/>
<stop offset="0.475" stop-color="white"/>
<stop offset="1" stop-color="#262626"/>
</linearGradient>
<linearGradient id="paint4_linear_1872_985" x1="-15.125" y1="176.842" x2="1343.88" y2="176.842" gradientUnits="userSpaceOnUse">
<stop stop-color="#262626"/>
<stop offset="0.475" stop-color="white"/>
<stop offset="1" stop-color="#262626"/>
</linearGradient>
<linearGradient id="paint5_linear_1872_985" x1="-15.125" y1="176.842" x2="1343.88" y2="176.842" gradientUnits="userSpaceOnUse">
<stop stop-color="#262626"/>
<stop offset="0.475" stop-color="white"/>
<stop offset="1" stop-color="#262626"/>
</linearGradient>
<linearGradient id="paint6_linear_1872_985" x1="-15.125" y1="176.842" x2="1343.88" y2="176.842" gradientUnits="userSpaceOnUse">
<stop stop-color="#262626"/>
<stop offset="0.475" stop-color="white"/>
<stop offset="1" stop-color="#262626"/>
</linearGradient>
</defs>
</svg>
