<svg width="49" height="48" viewBox="0 0 49 48" fill="none" xmlns="http://www.w3.org/2000/svg">
<path d="M26.6828 14.1545C32.3459 15.5961 35.6895 21.728 33.8192 27.254C33.14 29.2701 31.6041 31.328 29.9532 32.4561C29.1173 33.0202 27.7695 33.6366 26.7351 33.9291C25.8365 34.1693 25.5439 34.2007 24.102 34.2007C22.3153 34.1902 21.6048 34.0544 20.0793 33.4172C15.3043 31.4324 12.7653 25.8333 14.3849 20.8923C15.6491 17.069 19.0867 14.3008 23.1617 13.8516C23.9557 13.7576 25.7424 13.9143 26.6828 14.1545Z" fill="white"/>
<path d="M27.2366 8.21067C31.7817 9.12992 35.9089 12.2011 38.1553 16.3482C40.9555 21.5399 40.7048 27.8598 37.4971 32.8009C34.8013 36.9689 30.4652 39.6013 25.4708 40.1132C24.3528 40.2281 24.0602 40.1758 23.6945 39.7893C23.4229 39.4968 23.402 38.8596 23.6423 38.494C23.8408 38.1806 24.2379 38.0657 25.3036 37.9717C30.8309 37.533 35.6268 33.7515 37.4135 28.3926C37.5702 27.9539 37.7792 27.045 37.8941 26.3661C39.1166 19.2104 34.5819 12.2533 27.55 10.4984C27.0067 10.3626 26.2753 10.2163 25.9305 10.1745C25.0842 10.0805 24.6662 9.89249 24.4782 9.51643C24.2692 9.11948 24.2692 8.95234 24.4677 8.56583C24.8125 7.90773 25.3663 7.83461 27.2366 8.21067Z" fill="white"/>
<path d="M28.2396 4.33515C37.6329 6.23635 44.3826 14.5097 44.3722 24.0992C44.3618 35.4855 34.8222 44.6155 23.4229 44.1454C19.5465 43.9887 16.0566 42.8709 12.9221 40.7608C11.6265 39.8938 9.96514 38.4627 9.73527 38.0239C9.43226 37.4494 9.64123 36.7913 10.2055 36.5615C10.7174 36.3526 11.0936 36.4988 12.0131 37.324C14.8551 39.852 18.0001 41.3145 21.6884 41.8263C30.6428 43.0799 39.2211 37.324 41.478 28.5702C41.9481 26.7421 42.0213 26.0736 42.0108 23.9217C42.0004 22.1563 41.9586 21.7071 41.7287 20.5789C40.4331 14.3425 36.191 9.38063 30.2667 7.1765C29.1069 6.74821 27.1948 6.29902 26.0872 6.20501C25.0842 6.12144 24.6767 5.9543 24.4677 5.53645C24.2274 5.06638 24.3319 4.57541 24.7603 4.22024C25.0842 3.94864 25.1155 3.94864 26.0141 4.01132C26.5261 4.04266 27.5291 4.1889 28.2396 4.33515Z" fill="white"/>
<path d="M27.1321 0.11491C29.598 0.41785 32.4818 1.28488 34.7386 2.40261C40.9137 5.46333 45.3544 10.7595 47.2351 17.2884C48.6143 22.0831 48.5098 26.9093 46.9321 31.6413C44.4244 39.1312 38.3643 44.9393 30.7368 47.1434C28.3128 47.8433 27.1948 47.9896 24.2065 48C21.4063 48 20.7167 47.9373 18.6688 47.4672C11.6369 45.8481 5.68124 41.1264 2.47353 34.6289C1.11522 31.8816 0.383823 29.2701 0.0703669 26.0944C-0.0341186 25.0289 -0.0236708 24.8305 0.122609 24.5589C0.477859 23.859 1.38688 23.7545 1.87796 24.3395C2.08694 24.5902 2.14963 24.7991 2.20187 25.5095C2.57802 30.3251 4.32293 34.6081 7.38435 38.2642C10.1428 41.5547 14.3222 44.1872 18.5225 45.284C21.8242 46.151 25.8469 46.2033 29.1069 45.4407C33.1296 44.5005 36.5671 42.5785 39.5763 39.5909C42.6586 36.5406 44.6648 32.8949 45.5633 28.7269C46.2529 25.5199 46.2007 21.7802 45.4066 18.6464C44.6543 15.6797 43.0975 12.5876 41.154 10.185C40.2555 9.08814 38.6046 7.48988 37.4762 6.64375C34.1117 4.10534 30.6637 2.72644 26.4843 2.23547C25.732 2.15191 25.0319 2.037 24.9275 1.97432C24.3423 1.66094 24.2379 0.793911 24.7185 0.30294C24.9902 0.04179 25.1051 0 25.638 0C25.9723 0 26.6515 0.0522346 27.1321 0.11491Z" fill="white"/>
</svg>
