<svg width="741" height="673" viewBox="0 0 741 673" fill="none" xmlns="http://www.w3.org/2000/svg">
<g clip-path="url(#clip0_2262_1058)">
<rect width="741" height="673" fill="#0A0A0A"/>
<g filter="url(#filter0_f_2262_1058)">
<path fill-rule="evenodd" clip-rule="evenodd" d="M767.54 -28.2513C782.287 19.3026 852.138 26.9559 885.114 66.5321C925.548 115.058 994.669 174.5 980.19 226.956C963.905 285.951 852.625 245.658 821.895 295.564C792.646 343.062 865.564 442.057 825.077 478.853C788.039 512.516 714.503 435.194 662.075 440.816C606.092 446.82 577.319 518.456 518.916 511.685C463.514 505.261 409.76 455.231 369.848 406.932C331.29 360.272 319.685 300.571 298.807 245.321C280.493 196.858 267.383 149.079 253.817 99.883C238.584 44.6422 215.71 -9.6767 213.401 -64.3928C210.72 -127.942 186.346 -223.277 239.307 -243.991C304.082 -269.327 384.626 -172.399 459.728 -160.738C500.957 -154.337 536.075 -175.247 569.649 -192.701C639.743 -229.142 691.5 -381.017 765.364 -319.634C847.328 -251.521 736.711 -127.668 767.54 -28.2513Z" fill="url(#paint0_linear_2262_1058)"/>
</g>
<g filter="url(#filter1_b_2262_1058)">
<rect width="741" height="673" rx="20" fill="black" fill-opacity="0.1"/>
</g>
</g>
<defs>
<filter id="filter0_f_2262_1058" x="103.417" y="-436.145" width="980.801" height="1050.35" filterUnits="userSpaceOnUse" color-interpolation-filters="sRGB">
<feFlood flood-opacity="0" result="BackgroundImageFix"/>
<feBlend mode="normal" in="SourceGraphic" in2="BackgroundImageFix" result="shape"/>
<feGaussianBlur stdDeviation="51.0338" result="effect1_foregroundBlur_2262_1058"/>
</filter>
<filter id="filter1_b_2262_1058" x="-20" y="-20" width="781" height="713" filterUnits="userSpaceOnUse" color-interpolation-filters="sRGB">
<feFlood flood-opacity="0" result="BackgroundImageFix"/>
<feGaussianBlur in="BackgroundImageFix" stdDeviation="10"/>
<feComposite in2="SourceAlpha" operator="in" result="effect1_backgroundBlur_2262_1058"/>
<feBlend mode="normal" in="SourceGraphic" in2="effect1_backgroundBlur_2262_1058" result="shape"/>
</filter>
<linearGradient id="paint0_linear_2262_1058" x1="629.052" y1="65.2664" x2="58.6901" y2="509.121" gradientUnits="userSpaceOnUse">
<stop stop-color="#0E5409"/>
<stop offset="1" stop-color="white" stop-opacity="0.4"/>
</linearGradient>
<clipPath id="clip0_2262_1058">
<rect width="741" height="673" fill="white"/>
</clipPath>
</defs>
</svg>
