<svg width="243" height="48" viewBox="0 0 243 48" fill="none" xmlns="http://www.w3.org/2000/svg">
<path fill-rule="evenodd" clip-rule="evenodd" d="M30.0158 9.48828C35.2912 11.7225 38.9021 16.4789 38.9021 21.9699C38.9021 27.4632 35.2899 32.2195 30.0145 34.4515C24.7403 32.2195 21.127 27.4632 21.127 21.9699C21.127 16.4778 24.7403 11.7214 30.0158 9.48828Z" fill="#121212"/>
<path fill-rule="evenodd" clip-rule="evenodd" d="M30.0207 9.48949C31.8489 8.51851 33.9343 8 36.14 8C43.8068 8 50.0307 14.2604 50.0307 21.9723C50.0307 29.683 43.8068 35.9434 36.14 35.9434C33.9343 35.9434 31.8489 35.4259 30.0195 34.4539C34.6301 32.2207 37.7888 27.4643 37.7888 21.9723C37.7888 16.4801 34.6313 11.7238 30.0207 9.48949Z" fill="#3C3C3D"/>
<path fill-rule="evenodd" clip-rule="evenodd" d="M30.0112 34.4527C28.1819 35.4249 26.0954 35.9434 23.8908 35.9434H15.6928L12.003 39.6548C11.6679 39.9919 11.1635 40.0927 10.7248 39.9102C10.2861 39.7276 10 39.2976 10 38.8193V9.80308C10 8.80747 10.8028 8 11.7926 8H23.9354C26.1253 8.00672 28.1963 8.52525 30.0123 9.4895C25.4005 11.7226 22.2418 16.479 22.2418 21.9711C22.2418 27.4644 25.4005 32.2207 30.0112 34.4527Z" fill="#3C3C3D"/>
<path fill-rule="evenodd" clip-rule="evenodd" d="M127.511 31.4619C123.503 31.3834 120.278 28.1341 120.278 24.1169C120.278 20.0986 123.515 16.8365 127.511 16.8365C131.505 16.8365 134.756 20.0986 134.756 24.1169C134.756 24.5233 134.72 24.9217 134.662 25.3109H123.853C124.319 27.0001 125.845 28.2311 127.568 28.2738C129.188 28.2703 130.539 27.88 131.61 26.9343L133.766 29.1779C133.648 29.3061 133.52 29.4285 133.392 29.5439C131.936 30.8777 129.921 31.4642 127.511 31.4619ZM146.683 30.1952L146.193 30.4597C142.722 32.3903 138.087 31.6143 137.9 26.9343L137.865 26.0233V20.0005H135.582V17.1298H137.959L138.227 12.2432H141.302V17.1298H144.865V20.0005H141.302V26.2785H141.313C141.302 28.7183 143.234 28.4459 144.283 27.7761L146.683 30.1952ZM102.677 30.3766C101.594 31.0242 100.336 31.3973 98.985 31.3973C94.9898 31.3973 91.7401 28.1341 91.7401 24.1169C91.7401 20.0986 94.9898 16.8365 98.985 16.8365C100.325 16.8365 101.582 17.2049 102.666 17.8481C103.108 18.1113 103.982 18.7926 104.518 19.7117L102.118 22.0696C101.489 20.8352 100.348 20.0027 98.985 20.0027C96.9466 20.0027 95.4556 21.8456 95.4556 24.1169C95.4556 26.387 96.9466 28.2311 98.985 28.2311C100.348 28.2311 101.489 27.3985 102.118 26.163L104.518 28.5175C103.982 29.4331 103.108 30.1121 102.666 30.3754L102.677 30.3766ZM82.7712 16.8365C86.7664 16.8365 90.0046 20.0986 90.0046 24.1169C90.0046 28.1341 86.7664 31.3973 82.7712 31.3973C78.776 31.3973 75.5263 28.1341 75.5263 24.1169C75.5263 20.0986 78.776 16.8365 82.7712 16.8365ZM110.05 22.9229L111.996 20.4611L115.28 17.1148H120.032L113.486 23.8571L120.58 31.1709H115.828L111.11 26.3073L110.365 26.9101L110.353 31.1709H106.812V12.2432H110.353V18.9831L110.05 22.9229ZM66.6623 12.2432C70.6925 12.2432 73.9539 15.8908 73.9539 19.9415C73.9539 19.9415 73.9539 19.945 73.9539 19.9473C73.9539 23.9968 70.6925 27.8085 66.6623 27.8085H63.9949V31.1709H59.9648V12.2432H66.6623ZM82.7712 20.0027C84.7979 20.0027 86.254 21.8456 86.254 24.1169C86.254 26.387 84.7979 28.2311 82.7712 28.2311C80.7328 28.2311 79.2187 26.387 79.2187 24.1169C79.2187 21.8456 80.7328 20.0027 82.7712 20.0027ZM69.9703 19.9426C69.9703 17.93 68.4794 15.9347 66.4876 15.9347H63.9949V24.1169H66.4876C68.4794 24.1169 69.9703 22.3352 69.9703 19.9462V19.9426ZM131.133 22.9229C130.667 21.2336 129.176 19.9473 127.511 19.9473C125.856 19.9473 124.319 21.2336 123.853 22.9229H131.133Z" fill="#3C3C3D"/>
<path fill-rule="evenodd" clip-rule="evenodd" d="M172.245 18.8279C173.561 17.5635 175.342 16.7876 177.312 16.7876C181.365 16.7876 184.661 20.0992 184.661 24.1788C184.661 28.2583 181.365 31.57 177.312 31.57C175.342 31.57 173.561 30.7941 172.245 29.5308V36.3262H169.962V17.1756H172.245V18.8279ZM195.913 30.4222L195.412 30.6855C191.895 32.6461 188.062 31.4822 187.888 26.9385V19.2136H185.232V17.1906H187.888V12.1549H190.17V17.1906H194.247V19.2136H190.17V26.5044C190.17 30.0331 193.036 29.7629 194.213 28.7144L195.913 30.4222ZM210.403 16.7876C214.456 16.7876 217.752 20.0992 217.752 24.1788C217.752 28.2583 214.456 31.57 210.403 31.57C206.349 31.57 203.053 28.2583 203.053 24.1788C203.053 20.0992 206.349 16.7876 210.403 16.7876ZM157.614 11.9609C162.973 11.9609 167.306 16.328 167.306 21.7088C167.306 27.0897 162.973 31.458 157.614 31.458C152.268 31.458 147.924 27.0897 147.924 21.7088C147.924 16.328 152.268 11.9609 157.614 11.9609ZM200.49 17.1756H198.208V31.167H200.49V17.1756ZM231.73 24.1788C231.73 21.1096 230.134 18.7587 227.316 18.7587C224.998 18.7587 222.26 20.1119 222.26 24.1776V31.167H220.024V17.1756H222.26V18.9341C223.635 17.2483 225.72 16.7876 227.479 16.7876C231.45 16.7876 234.036 19.2736 234.002 23.7539C234.002 23.8682 233.99 24.0991 233.978 24.3231V31.167H231.73V24.1788ZM210.403 18.6178C213.28 18.6178 215.621 21.1096 215.621 24.1788C215.621 27.2479 213.28 29.7398 210.403 29.7398C207.526 29.7398 205.196 27.2479 205.196 24.1788C205.196 21.1096 207.526 18.6178 210.403 18.6178ZM177.312 18.6178C180.188 18.6178 182.518 21.1096 182.518 24.1788C182.518 27.2479 180.188 29.7398 177.312 29.7398C174.435 29.7398 172.105 27.2479 172.105 24.1788C172.105 21.1096 174.435 18.6178 177.312 18.6178ZM157.614 13.9863C161.61 13.9863 164.849 17.4469 164.849 21.7088C164.849 25.9708 161.61 29.4315 157.614 29.4315C153.632 29.4315 150.381 25.9708 150.381 21.7088C150.381 17.4469 153.632 13.9863 157.614 13.9863ZM199.349 12.1549C200.211 12.1549 200.921 12.8662 200.921 13.7426C200.921 14.6179 200.211 15.3292 199.349 15.3292C198.475 15.3292 197.765 14.6179 197.765 13.7426C197.765 12.8662 198.475 12.1549 199.349 12.1549Z" fill="#3C3C3D"/>
</svg>
