<svg width="252" height="200" viewBox="0 0 252 200" fill="none" xmlns="http://www.w3.org/2000/svg">
<rect width="252" height="200" fill="#1C1C1C"/>
<path d="M56.749 102.825H60.7266V106.525C59.9966 106.803 58.5639 107.082 57.2056 107.082C52.806 107.082 51.3429 104.848 51.3429 100.313C51.3429 95.9845 52.7358 93.4374 57.1312 93.4374C59.5808 93.4374 60.9706 94.206 62.1226 95.6717L65.1618 92.8795C63.3059 90.2332 60.0668 89.4312 57.0255 89.4312C50.1878 89.4284 46.5925 93.1581 46.5925 100.277C46.5925 107.36 49.8411 111.2 56.9889 111.2C60.2711 111.2 63.4789 110.365 65.2258 109.14V98.8813H56.7491L56.749 102.825ZM35.885 106.768H46.0073V110.886H31V89.7415H35.8853L35.885 106.768Z" fill="#3C3C3D"/>
<path d="M89.5043 105.407C89.5043 104.988 89.4519 104.62 89.347 104.306C89.2422 103.991 89.043 103.698 88.7493 103.425C88.4557 103.152 88.0468 102.89 87.5225 102.639C86.9982 102.366 86.327 102.083 85.5091 101.789C84.125 101.328 82.961 100.877 82.0172 100.437C81.0735 99.9751 80.308 99.4823 79.7208 98.958C79.1336 98.4337 78.7141 97.8569 78.4624 97.2278C78.2108 96.5776 78.0849 95.8331 78.0849 94.9942C78.0849 93.2326 78.7141 91.8379 79.9725 90.8103C81.2518 89.7826 83.1917 89.2688 85.7923 89.2688C86.9877 89.2688 88.0887 89.4261 89.0954 89.7407C90.102 90.0343 91.0563 90.4537 91.9581 90.999L90.7941 93.5157C90.0182 93.0333 89.2107 92.6558 88.3718 92.3832C87.5329 92.1105 86.6731 91.9742 85.7923 91.9742C84.2613 91.9742 83.1393 92.2259 82.4262 92.7292C81.7341 93.2116 81.3881 93.8932 81.3881 94.774C81.3881 95.2144 81.451 95.6129 81.5768 95.9694C81.7236 96.305 81.9753 96.6301 82.3318 96.9446C82.6884 97.2592 83.1707 97.5633 83.7789 97.8569C84.4081 98.1505 85.2155 98.4546 86.2012 98.7692C87.3757 99.1467 88.3823 99.5347 89.2212 99.9332C90.0601 100.332 90.7417 100.783 91.266 101.286C91.8113 101.768 92.1993 102.335 92.43 102.985C92.6816 103.614 92.8075 104.358 92.8075 105.218C92.8075 107.064 92.1573 108.5 90.8571 109.528C89.5568 110.535 87.5434 111.038 84.817 111.038C83.4119 111.038 82.1011 110.881 80.8847 110.566C79.6893 110.252 78.6093 109.822 77.6445 109.276L78.7456 106.76C79.7522 107.284 80.7379 107.682 81.7027 107.955C82.6884 108.228 83.6845 108.364 84.6912 108.364C86.2851 108.364 87.4805 108.112 88.2775 107.609C89.0954 107.085 89.5043 106.351 89.5043 105.407Z" fill="#3C3C3D"/>
<path d="M105.588 110.723L101.278 99.9646L99.7681 96.0009H99.6423L99.7367 99.9646V110.723H96.3706V89.5834H100.24L105.997 104.243L107.098 107.2H107.224L108.325 104.243L114.082 89.5834H117.951V110.723H114.585V99.9646L114.679 96.0009H114.554L113.044 99.9646L108.734 110.723H105.588Z" fill="#3C3C3D"/>
<path d="M135.074 104.841H126.36L124.064 110.723H120.603L129.223 89.5834H132.18L140.862 110.723H137.402L135.074 104.841ZM134.004 102.135L131.991 96.9446L130.733 93.5786H130.67L129.412 96.9446L127.398 102.135H134.004Z" fill="#3C3C3D"/>
<path d="M146.486 92.3203V99.3984H150.953C153.595 99.3984 154.917 98.224 154.917 95.8751C154.917 93.5052 153.616 92.3203 151.016 92.3203H146.486ZM143.183 110.723V89.5834H150.953C155.86 89.5834 158.314 91.6806 158.314 95.8751C158.314 97.2592 157.968 98.4442 157.276 99.4299C156.605 100.416 155.63 101.139 154.35 101.6L159.006 110.723H155.514L151.142 102.135H146.486V110.723H143.183Z" fill="#3C3C3D"/>
<path d="M176.215 89.5834V92.3203H169.955V110.723H166.652V92.3203H160.36V89.5834H176.215Z" fill="#3C3C3D"/>
<path d="M200.886 89.5834V92.3203H194.625V110.723H191.322V92.3203H185.031V89.5834H200.886Z" fill="#3C3C3D"/>
<path d="M210.016 110.723L202.34 89.5834H205.769L211.62 106.477H211.683L213.098 102.481L217.534 89.5834H220.994L213.319 110.723H210.016Z" fill="#3C3C3D"/>
</svg>
