<svg width="320" height="200" viewBox="0 0 320 200" fill="none" xmlns="http://www.w3.org/2000/svg">
<rect width="320" height="200" fill="#1C1C1C"/>
<mask id="mask0_2221_799" style="mask-type:luminance" maskUnits="userSpaceOnUse" x="65" y="75" width="190" height="50">
<path d="M254.584 75H65V125H254.584V75Z" fill="white"/>
</mask>
<g mask="url(#mask0_2221_799)">
<path d="M171.053 86.0727L165.969 75.0312H148.562L159.26 97.1149L171.053 86.0727Z" fill="#3C3C3D"/>
<path d="M212.356 75H181.251L138.699 125H155.626L166.772 111.709L172.897 125H202.116L206.032 102.75L209.584 115L220.209 102.25L212.356 75ZM188.511 120.989L178.147 98.9586L196.054 78.2187L188.511 120.989Z" fill="#3C3C3D"/>
<path d="M238.915 75.0312L210.488 118.167H224.748L235.571 101.292L231.394 124.968H245.769L254.582 75.0312H238.915Z" fill="#3C3C3D"/>
<path d="M87.4295 76.8648C87.1004 79.1826 86.9923 81.5265 87.1066 83.8647C87.4399 87.1671 89.492 88.8543 92.1899 89.9064C93.1361 90.3821 94.1997 90.5735 95.2524 90.4585C95.6706 90.315 96.0589 90.0964 96.3982 89.8128C97.4179 89.1421 98.5746 88.7078 99.7834 88.5421C101.627 88.4178 103.477 88.6514 105.232 89.2292C106.815 89.6064 108.347 90.1728 109.794 90.9171C110.427 91.3135 110.947 91.8657 111.305 92.5207C111.93 93.5628 112.18 95.3542 113.596 95.6457C113.778 94.1114 113.824 92.5635 113.732 91.0207C113.821 89.5914 114.019 88.1707 114.326 86.7707C114.732 84.8234 115.236 82.8974 115.836 81.0002C115.93 80.7085 116.19 79.2397 116.753 79.4481C117.003 79.5315 116.95 80.1356 116.94 80.4897C116.94 81.719 116.805 82.5731 116.71 83.8335C116.394 86.7892 116.471 89.7735 116.94 92.7085C117.323 94.1092 117.492 95.5593 117.44 97.0107C117.44 97.4064 117.2 97.8857 117.128 98.3335C117.055 98.7814 117.128 99.0107 117.033 99.2921C116.819 99.8128 116.543 100.306 116.211 100.761C116.06 100.996 115.921 101.24 115.794 101.49C115.638 101.781 115.367 101.917 115.388 102.219C115.388 102.688 116.326 103.594 116.805 103.729C118.888 104.313 121.117 104.615 122.336 105.813C123.151 106.583 123.658 107.623 123.763 108.74C123.793 109.775 123.556 110.801 123.076 111.719C122.783 112.375 122.503 114.011 122.033 114.323C121.565 114.636 121.085 114.417 120.658 114.646C120.457 115.219 120.307 115.807 120.211 116.406C119.867 116.896 119.346 117.209 118.971 117.677C119.096 118.719 118.408 119.042 117.513 119.104C114.836 121.281 109.523 119.844 107.263 118.365C106.138 119.167 104.888 119.844 105.023 121.896C105.924 122.514 106.888 123.034 107.898 123.448C109.43 123.959 111.305 123.688 112.294 124.594C112.376 124.669 112.452 124.749 112.523 124.834H120.211L141.919 99.5628L130.033 75.0522H87.5754C87.5232 75.6772 87.4816 76.271 87.4295 76.8648Z" fill="#4F4F50"/>
<path d="M67.4791 124.594C69.0144 123.161 70.8157 122.042 72.7813 121.302C74.2881 120.751 75.7194 120.013 77.0416 119.104C77.4614 118.646 77.9979 118.311 78.5938 118.136C79.7151 118.123 80.8297 118.309 81.8854 118.688C82.9196 118.879 83.9859 118.793 84.9759 118.438C85.9659 118.083 86.844 117.472 87.5209 116.667C88.249 116.054 88.8536 115.309 89.3021 114.469C89.6199 113.168 89.7115 111.822 89.5729 110.49C89.5729 107.636 90.6146 105.625 90.6771 102.99C90.5504 101.65 90.5051 100.304 90.5416 98.9585C88.9834 98.3228 87.5538 97.4085 86.3229 96.2607C85.2188 95.0314 83.9375 92.74 84.3125 90.7293C83.2926 89.1971 82.7358 87.4035 82.7084 85.5627C82.8058 83.6544 83.1921 81.7718 83.8541 79.9794C84.3334 78.3544 84.8021 76.7085 85.3021 75.0522H75.7604L65 124.834H67.2709C67.3334 124.761 67.4063 124.667 67.4791 124.594Z" fill="#4F4F50"/>
</g>
</svg>
