<svg width="145" height="48" viewBox="0 0 145 48" fill="none" xmlns="http://www.w3.org/2000/svg">
<g clip-path="url(#clip0_2267_1263)">
<path d="M4.87181 26.0813C5.10171 26.9209 5.46156 27.6906 5.95135 28.4003C6.43115 29.1 7.0109 29.7197 7.67062 30.2395C8.33034 30.7593 9.07002 31.1591 9.88967 31.449C10.7093 31.7389 11.579 31.8888 12.4586 31.8788C13.808 31.8788 14.9875 31.5989 15.9871 31.0292C16.9966 30.4694 17.7963 29.8297 18.396 29.1H23.264C22.8042 30.0896 22.1944 31.0092 21.4747 31.8288C20.745 32.6685 19.9054 33.3982 18.9758 34.0179C18.0262 34.6476 16.9966 35.1374 15.9171 35.4673C14.8276 35.8271 13.6681 35.9971 12.4586 35.9971C10.8193 35.9971 9.26993 35.6772 7.82055 35.0475C6.40116 34.4377 5.1217 33.5581 4.03217 32.4686C2.94263 31.369 2.073 30.0796 1.47326 28.6602C0.833532 27.1908 0.513669 25.6015 0.523665 24.0022C0.523665 22.3529 0.833532 20.8035 1.47326 19.3442C2.083 17.9248 2.95263 16.6253 4.03217 15.5358C5.1217 14.4463 6.41115 13.5666 7.82055 12.9569C9.27993 12.3172 10.8593 11.9973 12.4586 12.0073C14.0979 12.0073 15.6372 12.3272 17.0966 12.9569C18.516 13.5666 19.7954 14.4463 20.885 15.5358C21.9745 16.6353 22.8441 17.9248 23.4539 19.3442C24.0836 20.8035 24.4035 22.3529 24.4035 24.0022C24.4035 24.382 24.3935 24.7419 24.3635 25.0817C24.3335 25.4316 24.2935 25.7614 24.2336 26.0813H4.87181ZM20.0453 21.9631C19.8154 21.1334 19.4656 20.3437 18.9858 19.6241C18.516 18.9144 17.9362 18.2846 17.2665 17.7648C16.5968 17.2451 15.8471 16.8352 15.0475 16.5554C14.2178 16.2655 13.3382 16.1155 12.4586 16.1255C11.579 16.1255 10.7193 16.2755 9.88967 16.5754C9.08002 16.8752 8.33034 17.285 7.65062 17.8048C6.98091 18.3246 6.40116 18.9443 5.92136 19.644C5.44157 20.3537 5.09172 21.1334 4.86182 21.9631H20.0453ZM25.1332 14.8661L28.0619 12.0073L36.7682 21.0534L45.4745 12.0073L48.4033 14.8661L39.607 24.0022L48.4033 33.1383L45.4745 35.9971L36.7682 26.9509L28.0619 35.9971L25.1332 33.1383L33.9194 24.0022L25.1332 14.8661ZM50.9422 23.3924C50.9422 21.8331 51.232 20.3637 51.8218 18.9743C52.3915 17.6149 53.2212 16.3854 54.2608 15.3359C55.3003 14.2963 56.5298 13.4667 57.8792 12.8869C59.2686 12.2972 60.768 11.9873 62.2773 11.9973C63.8267 11.9973 65.296 12.2972 66.6755 12.8869C68.0249 13.4567 69.2544 14.2963 70.2939 15.3359C71.3335 16.3854 72.1531 17.6149 72.7229 18.9743C73.3126 20.3737 73.6125 21.8731 73.6025 23.3924V35.2974H69.1244V23.1725C69.1344 22.2529 68.9445 21.3333 68.5846 20.4937C68.2448 19.674 67.745 18.9343 67.1253 18.3046C66.4955 17.6749 65.7658 17.1751 64.9462 16.8352C64.1066 16.4754 63.1969 16.2855 62.2773 16.2955C61.3277 16.2955 60.4381 16.4754 59.6085 16.8352C58.7788 17.1951 58.0491 17.6849 57.4294 18.3046C56.8097 18.9343 56.3099 19.674 55.96 20.4937C55.6002 21.3433 55.4103 22.2529 55.4203 23.1825V35.3074H50.9422V23.3924ZM81.0693 26.0813C81.2992 26.9209 81.6591 27.6906 82.1489 28.4003C82.6287 29.1 83.2084 29.7197 83.8681 30.2395C84.5278 30.7593 85.2675 31.1591 86.0872 31.449C86.9068 31.7389 87.7765 31.8888 88.6561 31.8788C90.0055 31.8788 91.185 31.5989 92.1946 31.0292C93.1941 30.4694 94.0038 29.8297 94.6036 29.1H99.4715C99.0117 30.0896 98.4019 31.0092 97.6822 31.8288C96.9525 32.6685 96.1129 33.3982 95.1833 34.0179C94.2337 34.6476 93.2041 35.1374 92.1246 35.4673C91.0151 35.8171 89.8656 35.9871 88.6561 35.9871C87.0168 35.9871 85.4774 35.6672 84.0181 35.0375C82.5987 34.4277 81.3192 33.5481 80.2297 32.4586C79.1401 31.359 78.2705 30.0696 77.6608 28.6502C77.031 27.1808 76.7012 25.5915 76.7112 23.9922C76.7112 22.3429 77.031 20.7936 77.6608 19.3342C78.2705 17.9148 79.1401 16.6253 80.2297 15.5258C81.3192 14.4363 82.6087 13.5566 84.0181 12.9469C85.4774 12.3072 87.0568 11.9873 88.6461 11.9973C90.2854 11.9973 91.8247 12.3172 93.2841 12.9469C94.7035 13.5566 95.983 14.4363 97.0725 15.5258C98.162 16.6253 99.0317 17.9148 99.6414 19.3342C100.271 20.7936 100.591 22.3429 100.591 23.9922C100.591 24.372 100.581 24.7319 100.551 25.0717C100.521 25.4216 100.481 25.7514 100.421 26.0713L81.0693 26.0813ZM96.2429 21.9631C96.013 21.1334 95.6631 20.3437 95.1833 19.6241C94.7135 18.9144 94.1338 18.2846 93.464 17.7648C92.7943 17.2451 92.0446 16.8352 91.245 16.5554C90.4153 16.2655 89.5357 16.1155 88.6561 16.1255C87.7765 16.1255 86.9168 16.2755 86.0872 16.5754C85.2775 16.8752 84.5278 17.285 83.8481 17.8048C83.1784 18.3246 82.5987 18.9443 82.1289 19.644C81.6491 20.3537 81.2992 21.1334 81.0693 21.9631H96.2429ZM113.176 35.9971C110.557 35.9971 108.298 35.3873 106.389 34.1579C104.479 32.9284 103.14 31.2491 102.36 29.11H107.148C107.748 30.0296 108.588 30.7493 109.667 31.2591C110.757 31.7689 111.936 32.0288 113.136 32.0188C114.625 32.0188 115.785 31.7489 116.604 31.2191C117.424 30.6893 117.834 29.9596 117.834 29.03C117.834 28.2804 117.534 27.7006 116.954 27.3008C116.364 26.9009 115.385 26.5611 114.005 26.3012L110.647 25.6515C108.008 25.1617 106.079 24.382 104.869 23.3125C103.66 22.2429 103.06 20.8035 103.06 18.9843C103.06 17.9748 103.28 17.0451 103.73 16.1955C104.179 15.3359 104.809 14.5862 105.579 13.9865C106.369 13.3667 107.308 12.8869 108.398 12.5371C109.487 12.1872 110.697 12.0173 112.016 12.0173C114.455 12.0173 116.574 12.597 118.353 13.7765C120.133 14.946 121.382 16.5654 122.102 18.6445H117.314C116.824 17.8048 116.114 17.1551 115.185 16.6953C114.255 16.2355 113.206 16.0056 112.056 16.0056C110.677 16.0056 109.607 16.2555 108.847 16.7653C108.088 17.2751 107.708 17.9848 107.708 18.9044C107.708 19.5641 107.998 20.1038 108.588 20.5037C109.177 20.9035 110.147 21.2434 111.496 21.4933L114.855 22.143C117.464 22.6328 119.393 23.4324 120.632 24.542C121.872 25.6515 122.482 27.1209 122.482 28.9401C122.482 29.9796 122.252 30.9292 121.792 31.7789C121.312 32.6485 120.662 33.4082 119.873 34.0079C119.053 34.6476 118.074 35.1374 116.924 35.4773C115.775 35.8271 114.525 35.9971 113.176 35.9971ZM135.156 35.9971C132.537 35.9971 130.278 35.3873 128.369 34.1579C126.46 32.9284 125.121 31.2491 124.341 29.11H129.119C129.719 30.0296 130.568 30.7493 131.638 31.2591C132.727 31.7689 133.907 32.0288 135.106 32.0188C136.596 32.0188 137.755 31.7489 138.575 31.2191C139.394 30.6893 139.804 29.9596 139.804 29.03C139.804 28.2804 139.504 27.7006 138.925 27.3008C138.335 26.9009 137.355 26.5611 135.976 26.3012L132.617 25.6515C129.968 25.1617 128.049 24.382 126.84 23.3125C125.63 22.2429 125.031 20.8035 125.031 18.9843C125.031 17.9748 125.25 17.0451 125.7 16.1955C126.15 15.3359 126.78 14.5862 127.55 13.9865C128.339 13.3667 129.279 12.8869 130.368 12.5371C131.458 12.1872 132.667 12.0173 133.987 12.0173C136.426 12.0173 138.545 12.597 140.324 13.7765C142.103 14.946 143.353 16.5654 144.072 18.6445H139.285C138.795 17.8048 138.085 17.1551 137.155 16.6953C136.226 16.2355 135.176 16.0056 134.027 16.0056C132.647 16.0056 131.578 16.2555 130.818 16.7653C130.058 17.2751 129.679 17.9848 129.679 18.9044C129.679 19.5641 129.968 20.1038 130.558 20.5037C131.148 20.9035 132.118 21.2434 133.467 21.4933L136.826 22.143C139.434 22.6328 141.364 23.4324 142.603 24.542C143.843 25.6515 144.452 27.1209 144.452 28.9401C144.452 29.9796 144.222 30.9292 143.763 31.7789C143.283 32.6485 142.633 33.4082 141.843 34.0079C141.024 34.6476 140.044 35.1374 138.895 35.4773C137.755 35.8271 136.506 35.9971 135.156 35.9971Z" fill="#3C3C3D"/>
</g>
<defs>
<clipPath id="clip0_2267_1263">
<rect width="144.8" height="32" fill="white" transform="translate(0 8)"/>
</clipPath>
</defs>
</svg>
