<svg width="252" height="200" viewBox="0 0 252 200" fill="none" xmlns="http://www.w3.org/2000/svg">
<rect width="252" height="200" fill="#1C1C1C"/>
<g clip-path="url(#clip0_2280_657)">
<mask id="mask0_2280_657" style="mask-type:luminance" maskUnits="userSpaceOnUse" x="55" y="75" width="143" height="50">
<path d="M55 75H197.857V124.935H55V75Z" fill="white"/>
</mask>
<g mask="url(#mask0_2280_657)">
<path d="M62.8028 75H55V114.012H62.8028V75Z" fill="#3C3C3D"/>
<path fill-rule="evenodd" clip-rule="evenodd" d="M128.332 99.9663C128.332 107.723 134.621 114.01 142.376 114.01C150.13 114.01 156.419 107.721 156.419 99.9663C156.419 92.2115 150.13 85.9229 142.376 85.9229C134.621 85.9229 128.332 92.2115 128.332 99.9663ZM136.135 99.9663C136.135 96.5181 138.93 93.7236 142.377 93.7236C145.826 93.7236 148.62 96.5181 148.62 99.9663C148.62 103.415 145.826 106.209 142.377 106.209C138.93 106.209 136.135 103.415 136.135 99.9663Z" fill="#3C3C3D"/>
<path fill-rule="evenodd" clip-rule="evenodd" d="M167.468 112.694C173.374 115.557 180.468 113.943 184.562 108.801C188.656 103.661 188.656 96.3635 184.562 91.2215C180.468 86.0816 173.374 84.465 167.468 87.3284V85.9229H159.543V124.935H167.468V112.694ZM167.346 99.9684C167.346 96.5202 170.141 93.7257 173.589 93.7257C177.037 93.7257 179.832 96.5202 179.832 99.9684C179.832 103.417 177.037 106.211 173.589 106.211C170.141 106.211 167.346 103.417 167.346 99.9684Z" fill="#3C3C3D"/>
<path fill-rule="evenodd" clip-rule="evenodd" d="M110.947 85.9231H80.1598C72.313 85.9231 65.9492 92.2117 65.9492 99.9665C65.9492 107.721 72.311 114.01 80.1598 114.01H110.947C118.794 114.01 125.158 107.721 125.158 99.9665C125.158 92.2117 118.796 85.9231 110.947 85.9231ZM110.947 106.209H80.1598C76.6698 106.209 73.844 103.417 73.844 99.9665C73.844 96.5163 76.6698 93.7238 80.1598 93.7238H110.947C114.437 93.7238 117.263 96.5163 117.263 99.9665C117.263 103.417 114.437 106.209 110.947 106.209Z" fill="#3C3C3D"/>
<path fill-rule="evenodd" clip-rule="evenodd" d="M192.25 86.6728H191.041V90.1231H189.788V86.6728H188.637V85.5659H192.25V86.6728Z" fill="#3C3C3D"/>
<path fill-rule="evenodd" clip-rule="evenodd" d="M194.11 90.1231H192.871V85.5659H194.434L195.363 88.0262L196.263 85.5659H197.857V90.1231H196.608V87.6983L195.952 89.4151H194.781L194.11 87.6983V90.1231Z" fill="#3C3C3D"/>
</g>
</g>
<defs>
<clipPath id="clip0_2280_657">
<rect width="142.857" height="50" fill="white" transform="translate(55 75)"/>
</clipPath>
</defs>
</svg>
