<svg width="320" height="200" viewBox="0 0 320 200" fill="none" xmlns="http://www.w3.org/2000/svg">
<rect width="320" height="200" fill="#1C1C1C"/>
<g clip-path="url(#clip0_2221_789)">
<path d="M96.1941 91.6587C100.068 94.4267 104.814 96.0553 109.94 96.0553V86.1966C108.97 86.1968 108.002 86.0957 107.053 85.8947V93.6549C101.928 93.6549 97.1825 92.0263 93.3074 89.2586V109.377C93.3074 119.442 85.1444 127.6 75.0754 127.6C71.3185 127.6 67.8265 126.465 64.9258 124.518C68.2365 127.901 72.8536 130 77.9616 130C88.0312 130 96.1945 121.842 96.1945 111.777V91.6587H96.1941ZM99.7553 81.7125C97.7754 79.5506 96.4754 76.7567 96.1941 73.6679V72.3999H93.4585C94.1471 76.3257 96.4958 79.6797 99.7553 81.7125ZM71.2944 116.795C70.1882 115.345 69.5904 113.572 69.5931 111.748C69.5931 107.145 73.3268 103.413 77.9332 103.413C78.7916 103.413 79.645 103.544 80.4631 103.804V93.7245C79.507 93.5935 78.5421 93.5379 77.5776 93.5583V101.403C76.7588 101.144 75.9051 101.012 75.0464 101.013C70.44 101.013 66.7066 104.745 66.7066 109.348C66.7066 112.604 68.5728 115.422 71.2944 116.795Z" fill="#121212"/>
<path d="M93.3064 89.2584C97.1816 92.0261 101.927 93.6547 107.052 93.6547V85.8945C104.191 85.2854 101.659 83.791 99.7543 81.7125C96.4946 79.6795 94.1462 76.3255 93.4576 72.3999H86.2719V111.777C86.2556 116.367 82.5283 120.084 77.9318 120.084C75.2232 120.084 72.8168 118.794 71.2928 116.795C68.5714 115.422 66.7052 112.603 66.7052 109.349C66.7052 104.745 70.4387 101.013 75.0451 101.013C75.9276 101.013 76.7783 101.15 77.5762 101.404V93.5585C67.6841 93.7628 59.7285 101.841 59.7285 111.777C59.7285 116.737 61.7096 121.233 64.925 124.518C67.8258 126.465 71.3178 127.6 75.0747 127.6C85.1439 127.6 93.3066 119.442 93.3066 109.377V89.2584H93.3064Z" fill="#3C3C3D"/>
<path d="M107.052 85.8941V83.7958C104.472 83.7997 101.943 83.0775 99.7542 81.7119C101.692 83.8322 104.243 85.2942 107.052 85.8941ZM93.4574 72.3995C93.3917 72.0243 93.3413 71.6466 93.3063 71.2676V69.9995H83.3848V109.377C83.3689 113.967 79.6418 117.684 75.0449 117.684C73.6953 117.684 72.4211 117.363 71.2927 116.794C72.8167 118.793 75.223 120.084 77.9317 120.084C82.5277 120.084 86.2557 116.367 86.2717 111.776V72.3995H93.4574ZM77.5764 93.5581V91.3243C76.7474 91.2111 75.9116 91.1542 75.0748 91.1546C65.0048 91.1544 56.8418 99.3131 56.8418 109.377C56.8418 115.686 60.05 121.246 64.9251 124.517C61.7097 121.232 59.7286 116.736 59.7286 111.776C59.7286 101.841 67.684 93.7624 77.5764 93.5581Z" fill="#676767"/>
<path d="M222.012 119.35C229.217 119.35 235.058 113.556 235.058 106.41C235.058 99.264 229.217 93.4692 222.012 93.4692H220.047C227.252 93.4692 233.093 99.2638 233.093 106.41C233.093 113.556 227.252 119.35 220.047 119.35H222.012Z" fill="#121212"/>
<path d="M219.871 93.4692H217.906C210.701 93.4692 204.859 99.2638 204.859 106.41C204.859 113.556 210.701 119.35 217.906 119.35H219.871C212.665 119.35 206.825 113.556 206.825 106.41C206.824 99.264 212.665 93.4692 219.871 93.4692Z" fill="#676767"/>
<path d="M120.689 87.6206V94.1797H128.372V119.173H136.059V94.3568H142.313L144.457 87.6208L120.689 87.6206ZM183.594 87.6206V94.1797H191.276V119.173H198.963V94.3568H205.216L207.361 87.6208L183.594 87.6206ZM145.888 91.3428C145.888 89.2875 147.565 87.6206 149.638 87.6206C151.712 87.6206 153.391 89.2875 153.391 91.3428C153.391 93.3982 151.713 95.0651 149.638 95.0651C147.565 95.0641 145.888 93.3982 145.888 91.3428ZM145.888 97.7248H153.391V119.173H145.888V97.7248ZM156.608 87.6206V119.173H164.115V111.019L166.438 108.89L173.764 119.35H181.805L171.26 104.106L180.732 94.887H171.619L164.115 102.332V87.6206H156.608ZM237.56 87.6206V119.173H245.067V111.019L247.39 108.89L254.718 119.35H262.76L252.215 104.106L261.686 94.887H252.573L245.067 102.332V87.6206H237.56Z" fill="#3C3C3D"/>
<path d="M220.048 119.35C227.253 119.35 233.095 113.556 233.095 106.41C233.095 99.264 227.253 93.4692 220.048 93.4692H219.87C212.665 93.4692 206.824 99.2638 206.824 106.41C206.824 113.556 212.665 119.35 219.87 119.35H220.048ZM213.615 106.41C213.615 102.934 216.457 100.118 219.961 100.118C223.462 100.118 226.304 102.934 226.304 106.41C226.304 109.886 223.462 112.703 219.961 112.703C216.457 112.703 213.615 109.886 213.615 106.41Z" fill="#3C3C3D"/>
</g>
<defs>
<clipPath id="clip0_2221_789">
<rect width="205.917" height="60" fill="white" transform="translate(56.8398 70)"/>
</clipPath>
</defs>
</svg>
